<svg width="164" height="39" viewBox="0 0 164 39" fill="none" xmlns="http://www.w3.org/2000/svg">
<path d="M38.7476 36.4087H29.7069L26.9412 29.7146H11.8733L9.35551 36.4087H0.464844L14.0455 2.61091H23.7776L38.7476 36.4087ZM19.0355 10.6857L14.0976 23.8188H24.469L19.0355 10.6857ZM71.5837 2.61091H78.8958V36.4087H70.4944V15.299L61.408 25.8997H60.123L51.0367 15.299V36.4087H42.6352V2.61091H49.9473L60.7623 15.1485L71.5837 2.61091ZM100.173 2.61091C112.476 2.61091 118.796 10.2931 118.796 19.5589C118.796 29.2696 112.671 36.4087 99.2341 36.4087H85.3013V2.61091H100.173ZM93.7028 30.2119H99.182C107.629 30.2119 110.147 24.4601 110.147 19.5065C110.147 13.7089 107.035 8.80118 99.0841 8.80118H93.7028V30.2119ZM135.501 10.6203L124.915 0H163.465V38.6728L152.878 28.046V10.6203H135.501ZM135.488 12.7535L124.589 23.6879V39H139.846L150.745 28.0656H135.488V12.7535Z" fill="black"/>
</svg>
