<svg width="254" height="60" viewBox="0 0 254 60" fill="none" xmlns="http://www.w3.org/2000/svg">
<path d="M59.6553 56.0134H45.5673L41.2576 45.7148H17.7777L13.8542 56.0134H0L21.1624 4.01678H36.3278L59.6553 56.0134ZM28.9383 16.4396L21.2437 36.6443H37.4053L28.9383 16.4396ZM110.823 4.01678H122.218V56.0134H109.126V23.5369L94.9667 39.8456H92.9643L78.8052 23.5369V56.0134H65.7133V4.01678H77.1077L93.9604 23.3054L110.823 4.01678ZM155.374 4.01678C174.544 4.01678 184.394 15.8356 184.394 30.0906C184.394 45.0302 174.849 56.0134 153.91 56.0134H132.199V4.01678H155.374ZM145.291 46.4799H153.829C166.992 46.4799 170.916 37.6309 170.916 30.0101C170.916 21.0906 166.067 13.5403 153.677 13.5403H145.291V46.4799ZM210.425 16.3389L193.928 0H254V59.4966L237.503 43.1476V16.3389H210.425ZM210.405 19.6208L193.42 36.443V60H217.194L234.179 43.1779H210.405V19.6208Z" fill="white"/>
</svg>
