<svg width="196" height="46" viewBox="0 0 196 46" fill="none" xmlns="http://www.w3.org/2000/svg">
<path d="M46.0332 42.9436H35.1622L31.8366 35.048H13.7182L10.6906 42.9436H0L16.3301 3.07953H28.0325L46.0332 42.9436ZM22.3303 12.6037L16.3928 28.094H28.8639L22.3303 12.6037ZM85.5172 3.07953H94.3097V42.9436H84.2073V18.045L73.2814 30.5483H71.7362L60.8103 18.045V42.9436H50.7079V3.07953H59.5004L72.5049 17.8674L85.5172 3.07953ZM119.895 3.07953C134.688 3.07953 142.288 12.1406 142.288 23.0695C142.288 34.5232 134.923 42.9436 118.766 42.9436H102.012V3.07953H119.895ZM112.114 35.6346H118.703C128.86 35.6346 131.888 28.8503 131.888 23.0077C131.888 16.1695 128.146 10.3809 118.585 10.3809H112.114V35.6346ZM162.375 12.5265L149.645 0H196V45.6141L183.27 33.0799V12.5265H162.375ZM162.359 15.0426L149.253 27.9396V46H167.599L180.705 33.103H162.359V15.0426Z" fill="white"/>
</svg>
