<svg width="340" height="68" viewBox="0 0 340 68" fill="none" xmlns="http://www.w3.org/2000/svg">
<path d="M0.0866699 1H66.0851V67H0.0866699V1Z" fill="url(#paint0_linear_498_486)" stroke="black" stroke-width="0.0272433"/>
<path fill-rule="evenodd" clip-rule="evenodd" d="M5.23292 1.91249C3.95404 1.91249 3.11828 2.99581 2.92115 4.50766C2.92115 4.50766 1.27246 13.1731 1.27246 31.5695C1.27246 49.9756 2.92115 62.0183 2.92115 62.0183C3.0694 63.4764 3.95404 64.6135 5.23292 64.6135H62.3574C63.6363 64.6135 64.6512 63.6018 64.674 62.0183C64.674 62.0183 64.0403 47.9131 64.0403 34.137C64.0403 20.3593 64.674 4.50766 64.674 4.50766C64.7033 3.10007 63.6363 1.91249 62.3574 1.91249H5.23292Z" fill="url(#paint1_linear_498_486)" stroke="black" stroke-width="0.0272433"/>
<path d="M37.3872 23.0148C37.4019 23.0213 37.4182 23.0261 37.4328 23.031C37.4182 23.0245 37.4019 23.0213 37.3872 23.0148Z" fill="url(#paint2_linear_498_486)" stroke="black" stroke-width="0.0272433"/>
<path d="M37.9862 7.80247C39.8947 8.6015 47.5463 12.7377 48.4864 14.06C44.6324 14.5681 37.0829 16.5353 33.0162 18.5112L32.7773 18.9953C37.261 18.0052 43.5316 17.4907 47.8546 17.254C46.2435 19.6207 45.1731 20.7497 42.7152 23.4312L42.4872 23.9502C47.1663 21.1384 48.4864 20.9343 52.7985 18.4134C54.427 20.8213 54.82 26.3755 54.8851 30.7744C56.2878 27.9865 57.9922 17.4646 57.2844 15.5648C60.1418 13.6041 60.5304 12.0212 60.5304 12.0212C57.9075 12.2492 56.4637 12.2926 55.048 12.7377C51.6956 10.6815 44.0093 7.97184 38.2098 7.31613L37.9862 7.80247Z" fill="url(#paint3_linear_498_486)" stroke="black" stroke-width="0.0363088"/>
<path d="M9.41678 40.4799C9.03899 43.9887 8.88484 46.4942 9.38859 49.293C7.96857 49.6882 6.72662 49.7425 5.58235 50.231L5.36523 50.7109C7.18477 51.8334 8.66556 52.6911 10.7217 53.6552C11.8226 56.0175 12.9625 57.6133 14.8037 59.4285L15.0274 58.9443C14.6951 57.5981 14.2674 56.4929 14.4303 55.0186C16.7144 55.6896 18.6794 56.0391 21.2806 56.1195L21.5021 55.6331C19.2114 54.7407 16.9207 54.0438 15.0686 52.2959C15.6505 50.674 16.3171 49.4038 17.4071 47.7992L17.6372 47.302C15.6657 47.5995 13.8853 48.3203 12.183 48.6526C10.8368 46.2967 10.3201 43.0659 9.64262 39.9935L9.41678 40.4799Z" fill="url(#paint4_linear_498_486)" stroke="black" stroke-width="0.0363088"/>
<path d="M21.098 24.4907C21.098 24.4907 19.6237 24.3541 17.1875 24.4256C15.1248 24.5209 12.0525 24.7057 10.5608 25.14L10.3437 25.622C12.7147 25.724 15.9695 26.3602 17.2158 27.6108C17.2158 27.6108 13.757 30.744 10.2742 37.4988C10.1872 37.6703 10.1266 37.8071 10.0354 37.9851C10.0354 37.9851 16.5166 31.9034 19.3262 30.3966C19.3262 30.3966 20.7919 35.295 21.8145 37.7442L22.0381 37.2535C22.3183 35.6815 23.0217 31.4106 24.2181 28.7942C24.2181 28.7942 24.6437 28.5379 26.7085 28.3382C28.7908 28.1493 31.7263 28.043 37.2999 29.02L37.528 28.538C36.2664 27.7976 31.2855 25.6589 25.9746 24.9119C26.7085 22.7472 27.6444 21.0884 27.6444 21.0884C26.5066 21.2448 23.2649 22.7646 21.098 24.4907Z" fill="url(#paint5_linear_498_486)" stroke="black" stroke-width="0.0363088"/>
<path d="M34.6683 54.5257C34.5879 53.5747 34.5272 52.7648 34.4772 51.6943C33.3503 53.2229 32.3884 54.428 31.1486 55.8241C29.8372 56.1867 28.339 56.1714 26.9733 56.1584C26.424 56.1519 25.8964 56.1487 25.4122 56.165L25.1929 56.6513C26.4696 57.307 27.7202 57.7087 29.0533 57.9844C27.9699 58.968 26.526 59.7214 25.5099 60.4032L25.2819 60.8853C27.4662 60.3707 30.3322 59.4457 32.4688 58.1842C33.5805 58.234 34.6183 58.1602 35.3804 58.0083C35.3804 58.0083 35.6127 57.5089 35.6127 57.522C35.4694 57.0291 35.0352 56.7294 34.9049 56.039C36.9068 54.4865 38.3551 53.0687 40.0313 51.3838L40.2658 50.8997C38.6091 52.0396 36.6007 53.6051 34.6683 54.5257Z" fill="url(#paint6_linear_498_486)" stroke="black" stroke-width="0.0363088"/>
<path d="M53.0192 17.9184C48.7158 20.4501 47.4022 20.665 42.7166 23.4638C45.4415 20.5065 46.3904 19.2493 48.0774 16.7741C43.7588 17.0021 37.4904 17.521 33.0154 18.5133C36.9106 16.431 44.6403 14.1165 48.7158 13.565C47.7713 12.2601 40.1154 8.11511 38.2112 7.31608C44.2712 7.78942 51.6796 10.0497 55.2708 12.2492C56.6843 11.8063 58.1521 11.7845 60.7837 11.5522C60.1149 12.703 60.0824 13.3652 57.5029 15.0762C58.2172 16.9891 56.5106 27.5002 55.1037 30.2859C55.0494 25.8869 54.6672 20.335 53.0192 17.9184Z" fill="white"/>
<path d="M21.5015 55.6325C19.0306 54.714 17.248 53.6479 15.2852 51.811C15.8736 50.1934 16.5424 48.9276 17.6388 47.3013C15.6261 47.6009 14.1431 47.8289 12.4104 48.159C11.0013 45.6902 10.3608 43.3084 9.63991 39.9928C9.25777 43.5059 9.11229 46.0159 9.60734 48.8147C8.0158 49.2554 6.89543 49.6419 5.58398 50.2325C7.41436 51.3529 8.89951 52.2149 10.9427 53.1702C12.0457 55.5304 13.1791 57.1263 15.0268 58.9458C14.5947 57.3955 14.4818 56.1644 14.6599 54.536C16.9462 55.2025 18.9047 55.5521 21.5015 55.6325Z" fill="white"/>
<path d="M27.942 20.6696C27.1712 21.6705 26.2788 23.5356 26.0378 24.402C32.4126 25.2661 37.526 28.5404 37.526 28.5404C31.9545 27.5525 29.0146 27.6762 26.9345 27.8608C24.8675 28.0562 24.4419 28.2994 24.4419 28.2994C22.9394 31.5932 22.0383 37.2537 22.0383 37.2537C21.0222 34.8088 19.5566 29.9083 19.5566 29.9083C16.7426 31.413 10.2744 37.499 10.2744 37.499C13.8288 30.3751 17.4418 27.1334 17.4418 27.1334C16.1976 25.8741 12.9407 25.2488 10.5589 25.1402C11.7965 24.6386 14.9687 24.048 17.407 23.9351C19.8475 23.8678 21.324 24.0046 21.324 24.0046C23.5018 22.2872 26.8042 20.8367 27.942 20.6696Z" fill="white"/>
<path d="M34.7051 51.2167C33.5804 52.7431 32.612 53.9438 31.3614 55.3356C29.2183 55.9392 27.5074 56.165 25.4121 56.165C26.6975 56.8251 27.9416 57.2202 29.2813 57.5025C27.9416 58.7141 26.8104 59.5804 25.5098 60.4011C27.6898 59.8909 30.5558 58.9637 32.688 57.7022C33.8019 57.7457 34.8463 57.674 35.6105 57.522C35.4108 56.8772 35.287 56.3951 35.1263 55.5527C37.1326 53.9981 38.5939 52.5889 40.2657 50.8997C38.4875 52.1373 36.9524 53.0644 34.8919 54.0371C34.8028 53.0926 34.7529 52.2849 34.7051 51.2167Z" fill="white"/>
<path d="M178.916 49.2225C178.485 48.9268 177.889 48.5613 177.158 48.5613C176.329 48.5613 175.533 49.1278 175.533 51.6137C175.533 53.7777 176.211 54.5262 177.008 54.5262C177.87 54.5262 178.534 53.8417 178.916 53.3379V49.2225ZM182.181 55.5995C181.686 56.0334 181.087 56.2795 180.491 56.2795C179.862 56.2795 179.281 55.9519 179.198 54.9704C178.485 55.6985 177.639 56.2475 176.428 56.2475C175.022 56.2475 173.646 55.0388 173.646 51.7098C173.646 48.2963 175.137 47.0701 176.759 47.0701C177.508 47.0701 178.135 47.2041 178.916 47.5681V44.0352C179.511 43.9071 180.108 43.7891 180.723 43.6406V54.2597C180.723 54.6383 180.889 54.7738 181.121 54.7738C181.37 54.7738 181.783 54.6063 182.063 54.4082L182.181 55.5995Z" fill="white"/>
<path d="M185.885 44.0545L184.492 48.0476L183.281 47.7826L184.176 43.7895L185.885 44.0545Z" fill="white"/>
<path d="M187.247 53.4032V47.2694H189.055V53.0887C189.055 54.309 189.75 54.5726 190.563 54.5726C191.356 54.5726 192.054 54.309 192.054 53.0887V47.2694H193.86V53.4032C193.86 55.4726 192.236 56.2473 190.563 56.2473C188.872 56.2473 187.247 55.4726 187.247 53.4032Z" fill="white"/>
<path d="M197.563 48.1808C198.312 47.6157 199.188 47.0696 200.448 47.0696C202.025 47.0696 203.017 47.9332 203.017 49.8569V56.0796H201.211V50.3346C201.211 49.2599 200.647 48.7953 199.768 48.7953C199.089 48.7953 198.427 49.1274 197.88 49.4885V56.0796H196.07V47.2692H197.563V48.1808Z" fill="white"/>
<path d="M210.602 48.1808C211.281 47.6157 212.194 47.0696 213.369 47.0696C214.367 47.0696 215.01 47.4031 215.459 48.0978C216.353 47.5167 217.217 47.0696 218.275 47.0696C219.852 47.0696 220.747 47.9332 220.747 49.8569V56.0796H218.939V50.3346C218.939 49.238 218.51 48.7633 217.614 48.7633C217.017 48.7633 216.321 49.0939 215.791 49.4244C215.821 49.6065 215.84 49.972 215.84 50.2196V56.0796H214.032V50.6157C214.032 49.3735 213.802 48.7633 212.708 48.7633C212.079 48.7633 211.464 49.0749 210.933 49.4244V56.0796H209.127V47.2692H210.602V48.1808Z" fill="white"/>
<path d="M224.355 51.6792C224.355 54.0762 224.951 54.8233 226.142 54.8233C227.337 54.8233 227.919 54.0762 227.919 51.7083C227.919 49.2589 227.337 48.5118 226.142 48.5118C224.951 48.5118 224.355 49.2589 224.355 51.6792ZM229.775 51.7083C229.775 54.7738 228.514 56.2795 226.142 56.2795C223.822 56.2795 222.495 54.9704 222.495 51.6792C222.495 48.4448 223.774 47.0701 226.142 47.0701C228.615 47.0701 229.775 48.3793 229.775 51.7083Z" fill="white"/>
<path d="M233.096 48.1808C233.842 47.6157 234.721 47.0696 235.978 47.0696C237.557 47.0696 238.551 47.9332 238.551 49.8569V56.0796H236.742V50.3346C236.742 49.2599 236.18 48.7953 235.299 48.7953C234.621 48.7953 233.958 49.1274 233.409 49.4885V56.0796H231.605V47.2692H233.096V48.1808Z" fill="white"/>
<path d="M245.736 49.2225C245.305 48.9268 244.707 48.5613 243.976 48.5613C243.149 48.5613 242.353 49.1278 242.353 51.6137C242.353 53.7777 243.033 54.5262 243.828 54.5262C244.69 54.5262 245.353 53.8417 245.736 53.3379V49.2225ZM249.001 55.5995C248.504 56.0334 247.908 56.2795 247.308 56.2795C246.681 56.2795 246.098 55.9519 246.017 54.9704C245.305 55.6985 244.457 56.2475 243.247 56.2475C241.84 56.2475 240.464 55.0388 240.464 51.7098C240.464 48.2963 241.955 47.0701 243.58 47.0701C244.324 47.0701 244.955 47.2041 245.736 47.5681V44.0352C246.331 43.9071 246.928 43.7891 247.543 43.6406V54.2597C247.543 54.6383 247.709 54.7738 247.939 54.7738C248.189 54.7738 248.604 54.6063 248.884 54.4082L249.001 55.5995Z" fill="white"/>
<path d="M254.891 50.6838C254.891 49.1766 254.426 48.6465 253.416 48.6465C252.405 48.6465 251.874 49.1271 251.792 50.6838H254.891ZM251.775 52.0789C251.807 54.3085 252.653 54.6711 253.928 54.6711C254.891 54.6711 255.72 54.141 256.234 53.7595L256.515 55.3352C255.72 55.8332 254.891 56.2803 253.564 56.2803C251.377 56.2803 249.886 54.99 249.886 51.6799C249.886 48.4135 251.196 47.0694 253.449 47.0694C255.738 47.0694 256.633 48.5606 256.633 50.7668V52.0789H251.775Z" fill="white"/>
<path d="M267.168 49.4094C266.721 49.1094 266.14 48.7483 265.445 48.7483C264.463 48.7483 263.785 49.5594 263.785 51.7307C263.785 54.0913 264.532 54.5893 265.293 54.5893C266.106 54.5893 266.737 54.0767 267.168 53.586V49.4094ZM267.168 55.3C266.555 55.7966 265.824 56.2801 264.88 56.2801C263.387 56.2801 261.897 55.3 261.897 51.7088C261.897 48.2954 263.453 47.0692 265.079 47.0692C265.958 47.0692 266.703 47.4682 267.481 47.9502V47.2687H268.957V59.4955C268.36 59.6251 267.762 59.7431 267.168 59.896V55.3Z" fill="white"/>
<path d="M271.05 53.4032V47.2694H272.859V53.0887C272.859 54.309 273.556 54.5726 274.367 54.5726C275.164 54.5726 275.86 54.309 275.86 53.0887V47.2694H277.666V53.4032C277.666 55.4726 276.042 56.2473 274.367 56.2473C272.675 56.2473 271.05 55.4726 271.05 53.4032Z" fill="white"/>
<path d="M281.668 56.0791H279.861V47.2687H281.668V56.0791ZM281.668 46.092H279.861V44.2061H281.668V46.092Z" fill="white"/>
<path d="M292.149 50.2368C292.1 49.3732 291.734 48.6611 290.741 48.6611C289.582 48.6611 289.149 49.1912 289.149 51.6799C289.149 54.1075 289.845 54.6391 291.104 54.6391C292.216 54.6391 292.912 54.1934 293.426 53.825L293.774 55.3366C292.978 55.8317 292.116 56.2803 290.84 56.2803C288.552 56.2803 287.259 55.0221 287.259 51.6624C287.259 48.265 288.372 47.0708 290.805 47.0708C292.928 47.0708 293.742 48.364 293.774 50.0693C293.225 50.1232 292.695 50.1712 292.149 50.2368Z" fill="white"/>
<path d="M297.327 43.6397V47.9182C297.99 47.5002 298.77 47.0706 299.88 47.0706C301.472 47.0706 302.465 47.9182 302.465 49.8405V56.0806H300.661V50.3341C300.661 49.2594 300.112 48.8444 299.2 48.8444C298.537 48.8444 297.872 49.1429 297.327 49.4429V56.0806H295.52V44.0372L297.327 43.6397Z" fill="white"/>
<path d="M308.978 52.0782C307.305 52.0782 306.111 52.6243 306.111 53.7078C306.111 54.4257 306.608 54.6893 307.173 54.6893C307.917 54.6893 308.547 54.1592 308.978 53.5854V52.0782ZM308.978 49.7234C308.978 48.8278 308.448 48.4972 307.7 48.4972C306.873 48.4972 306.276 49.0098 306.26 49.9229L304.669 49.7569C304.768 47.9803 306.146 47.0701 307.819 47.0701C309.625 47.0701 310.784 48.0006 310.784 49.5894V54.2597C310.784 54.6398 310.966 54.7563 311.199 54.7563C311.432 54.7563 311.846 54.6063 312.127 54.4082L312.261 55.598C311.745 56.0334 311.151 56.2795 310.554 56.2795C309.924 56.2795 309.326 55.9315 309.243 54.9689C308.448 55.8325 307.486 56.2795 306.558 56.2795C305.364 56.2795 304.355 55.5354 304.355 53.9466C304.355 51.6952 306.707 50.8666 308.978 50.8185V49.7234Z" fill="white"/>
<path d="M315.055 48.1808C315.802 47.6157 316.68 47.0696 317.94 47.0696C319.517 47.0696 320.509 47.9332 320.509 49.8569V56.0796H318.702V50.3346C318.702 49.2599 318.138 48.7953 317.259 48.7953C316.58 48.7953 315.917 49.1274 315.37 49.4885V56.0796H313.564V47.2692H315.055V48.1808Z" fill="white"/>
<path d="M324.337 50.4028C324.337 51.645 324.885 52.3586 325.781 52.3586C326.641 52.3586 327.157 51.645 327.157 50.4363C327.157 49.0427 326.641 48.4296 325.781 48.4296C324.885 48.4296 324.337 49.0936 324.337 50.4028ZM324.869 56.1958C324.337 56.4434 323.675 56.9269 323.675 57.457C323.675 58.204 324.57 58.4676 325.58 58.4676C326.689 58.4676 327.885 58.0366 327.885 57.3245C327.885 56.3094 326.228 56.3968 324.869 56.1958ZM327.039 47.2689H329.957L329.89 48.6946L328.466 48.4966C328.797 48.9946 328.977 49.6543 328.977 50.4363C328.977 52.427 327.687 53.7435 325.781 53.7435C325.3 53.7435 324.984 53.726 324.602 53.5687C324.337 53.6736 324.123 53.8775 324.123 54.125C324.123 55.4546 329.957 53.8119 329.957 57.1279C329.957 58.9482 327.671 59.8948 325.5 59.8948C323.311 59.8948 321.85 59.0982 321.85 57.789C321.85 56.9415 322.615 56.1478 323.544 55.7677C323.03 55.5536 322.615 55.2027 322.615 54.5896C322.615 53.9765 323.111 53.3561 323.657 53.0066C322.929 52.4416 322.53 51.6261 322.53 50.4028C322.53 48.3655 323.823 47.0694 325.795 47.0694C326.26 47.0694 326.673 47.1379 327.039 47.2689Z" fill="white"/>
<path d="M335.932 50.6838C335.932 49.1766 335.467 48.6465 334.455 48.6465C333.445 48.6465 332.916 49.1271 332.833 50.6838H335.932ZM332.814 52.0789C332.849 54.3085 333.694 54.6711 334.971 54.6711C335.932 54.6711 336.761 54.141 337.275 53.7595L337.556 55.3352C336.761 55.8332 335.932 56.2803 334.605 56.2803C332.418 56.2803 330.925 54.99 330.925 51.6799C330.925 48.4135 332.234 47.0694 334.489 47.0694C336.777 47.0694 337.671 48.5606 337.671 50.7668V52.0789H332.814Z" fill="white"/>
<path d="M98.1848 44.468V54.4901H102.342V56.0789H96.3936V44.468H98.1848Z" fill="white"/>
<path d="M108.698 52.0782C107.024 52.0782 105.83 52.6228 105.83 53.7078C105.83 54.4257 106.327 54.6893 106.889 54.6893C107.637 54.6893 108.267 54.1592 108.698 53.5854V52.0782ZM108.698 49.7234C108.698 48.8278 108.168 48.4972 107.42 48.4972C106.592 48.4972 105.995 49.0098 105.98 49.9229L104.389 49.754C104.489 47.9803 105.865 47.0701 107.537 47.0701C109.343 47.0701 110.505 47.9992 110.505 49.5894V54.2597C110.505 54.6398 110.685 54.7534 110.921 54.7534C111.153 54.7534 111.566 54.6063 111.848 54.4082L111.982 55.598C111.467 56.0334 110.87 56.2795 110.27 56.2795C109.643 56.2795 109.046 55.9315 108.964 54.9689C108.168 55.8325 107.206 56.2795 106.277 56.2795C105.085 56.2795 104.074 55.5354 104.074 53.9466C104.074 51.6952 106.427 50.8666 108.698 50.8156V49.7234Z" fill="white"/>
<path d="M118.603 54.2269C119.099 54.5721 119.614 54.7745 120.177 54.7745C121.207 54.7745 122.003 53.9765 122.003 51.578C122.003 49.2378 121.239 48.7484 120.377 48.7484C119.665 48.7484 119.184 49.0251 118.603 49.3732V54.2269ZM118.603 43.6399V47.8325C119.315 47.4029 120.061 47.0694 121.007 47.0694C122.433 47.0694 123.873 47.949 123.873 51.578C123.873 55.1356 122.085 56.2803 120.096 56.2803C118.951 56.2803 117.741 55.8478 116.796 55.1356V44.036L118.603 43.6399Z" fill="white"/>
<path d="M130.047 52.0782C128.374 52.0782 127.178 52.6228 127.178 53.7078C127.178 54.4257 127.676 54.6893 128.24 54.6893C128.985 54.6893 129.616 54.1592 130.047 53.5854V52.0782ZM130.047 49.7234C130.047 48.8278 129.517 48.4972 128.771 48.4972C127.941 48.4972 127.344 49.0098 127.328 49.9229L125.738 49.754C125.838 47.9803 127.215 47.0701 128.888 47.0701C130.692 47.0701 131.854 47.9992 131.854 49.5894V54.2597C131.854 54.6398 132.036 54.7534 132.269 54.7534C132.502 54.7534 132.914 54.6063 133.195 54.4082L133.329 55.598C132.815 56.0334 132.22 56.2795 131.623 56.2795C130.992 56.2795 130.397 55.9315 130.313 54.9689C129.517 55.8325 128.554 56.2795 127.627 56.2795C126.433 56.2795 125.423 55.5354 125.423 53.9466C125.423 51.6952 127.777 50.8666 130.047 50.8156V49.7234Z" fill="white"/>
<path d="M135.839 48.1808C136.585 47.6157 137.465 47.0696 138.723 47.0696C140.298 47.0696 141.293 47.9332 141.293 49.8569V56.0796H139.486V50.3361C139.486 49.2599 138.922 48.7953 138.043 48.7953C137.364 48.7953 136.701 49.1274 136.155 49.4885V56.0796H134.348V47.2692H135.839V48.1808Z" fill="white"/>
<path d="M148.312 49.4082C147.863 49.1097 147.284 48.747 146.589 48.747C145.607 48.747 144.929 49.5596 144.929 51.7295C144.929 54.0915 145.676 54.5896 146.438 54.5896C147.25 54.5896 147.879 54.077 148.312 53.5848V49.4082ZM148.312 55.3003C147.699 55.7968 146.968 56.2803 146.024 56.2803C144.533 56.2803 143.042 55.3003 143.042 51.7091C143.042 48.2956 144.598 47.0694 146.223 47.0694C147.1 47.0694 147.847 47.4684 148.626 47.9505V47.2689H150.103V59.4958C149.504 59.6254 148.907 59.7433 148.312 59.8962V55.3003Z" fill="white"/>
<path d="M152.197 53.4032V47.2694H154.004V53.0887C154.004 54.309 154.7 54.5726 155.511 54.5726C156.308 54.5726 157.004 54.309 157.004 53.0887V47.2694H158.809V53.4032C158.809 55.4726 157.187 56.2473 155.511 56.2473C153.822 56.2473 152.197 55.4726 152.197 53.4032Z" fill="white"/>
<path d="M165.465 50.686C165.465 49.1759 165.001 48.6458 163.989 48.6458C162.979 48.6458 162.448 49.1278 162.365 50.686H165.465ZM162.347 52.0782C162.379 54.3078 163.227 54.6704 164.503 54.6704C165.465 54.6704 166.294 54.1403 166.808 53.7587L167.087 55.3344C166.294 55.8325 165.465 56.2795 164.137 56.2795C161.95 56.2795 160.46 54.9907 160.46 51.6792C160.46 48.4128 161.769 47.0686 164.022 47.0686C166.31 47.0686 167.205 48.5613 167.205 50.7676V52.0782H162.347Z" fill="white"/>
<path d="M104.401 12.9043C108.973 12.9424 110.649 13.8727 110.649 16.3616C110.649 17.0489 110.438 17.6599 110.035 18.125C109.157 19.1786 107.452 19.7236 105.274 19.5864H105.165L103.886 22.9154H105.165C107.688 22.8425 109.882 23.6391 111.01 25.0172C111.533 25.6438 111.793 26.4005 111.793 27.1694C111.793 29.7711 109.5 31.118 104.979 31.118C104.217 31.118 102.978 31.118 102.207 31.0919C102.079 27.6172 102.02 22.9154 102.02 21.4991C102.02 19.8589 102.127 16.2037 102.207 13.0796C102.731 12.9737 103.594 12.9043 104.401 12.9043ZM95.9294 10.5108C96.0717 12.9806 96.2158 19.222 96.2158 21.4991C96.2158 23.594 96.2123 30.6146 95.8461 33.6433L95.8218 33.8811H106.794C112.184 33.8811 117.887 32.2045 117.887 27.4159C117.887 24.4184 115.717 22.202 111.658 20.9923C114.669 20.1818 116.675 18.125 116.675 15.7715C116.675 11.8629 112.184 10.3928 107.964 10.2887H95.8669L95.9294 10.5108Z" fill="white"/>
<path d="M143.205 10.2889H137.866L138.083 16.2386C138.187 19.1788 138.286 22.204 138.495 25.139C138.148 24.2191 137.826 23.7453 136.205 21.3848C136.198 21.3015 130.651 12.7674 128.725 10.3427L128.669 10.2889H122.476V10.5093C122.673 12.9791 122.752 19.2222 122.752 21.4976C122.752 23.596 122.752 30.6149 122.456 33.6436L122.402 33.8813H127.923V33.6436C127.609 27.8865 127.609 22.0756 127.609 16.4382C127.801 17.1221 128.046 17.7087 128.914 18.9966C128.985 19.1476 138.495 32.991 138.955 33.7824L139.005 33.8813H143.426L143.42 33.6436C143.082 30.6149 143.052 23.596 143.052 21.4976C143.052 19.2222 143.205 12.9791 143.349 10.5093L143.42 10.2889H143.205Z" fill="white"/>
<path d="M157.683 13.1361C160.761 13.0805 162.908 13.7019 163.925 14.9932C164.393 15.5503 164.654 16.2828 164.654 17.1211C164.654 20.5368 160.811 21.2779 157.602 21.2779L156.298 21.2033C156.298 21.2033 155.991 21.172 155.762 21.1477C155.739 20.3598 155.739 19.3201 155.739 18.152C155.739 16.6681 155.739 14.9064 155.809 13.2732C156.262 13.2124 156.946 13.1361 157.683 13.1361ZM149.588 10.5101C149.805 12.9781 149.887 19.2212 149.887 21.4966C149.887 23.595 149.887 30.6139 149.562 33.6426V33.8821H156.13L156.1 33.6426C155.876 31.4661 155.762 27.311 155.739 24.1348C156.048 24.1521 156.979 24.199 156.979 24.199L157.909 24.2198C166.547 24.2198 170.747 21.9323 170.747 17.1211C170.747 11.6486 164.853 10.392 159.94 10.2879H149.588V10.5101Z" fill="white"/>
<path d="M191.366 13.1361C194.448 13.0805 196.593 13.7019 197.628 14.9932C198.1 15.5503 198.339 16.2828 198.339 17.1211C198.339 20.5368 194.502 21.2779 191.334 21.2779L190.034 21.2033C190.034 21.2033 189.691 21.172 189.488 21.1477C189.451 20.3598 189.451 19.3132 189.451 18.152C189.451 16.6525 189.451 14.9064 189.512 13.2732C189.923 13.2124 190.635 13.1361 191.366 13.1361ZM183.283 10.5101C183.489 12.9781 183.609 19.2212 183.609 21.4966C183.609 23.595 183.588 30.6139 183.246 33.6426V33.8821H189.819L189.779 33.6426C189.571 31.4661 189.451 27.311 189.451 24.1348C189.757 24.1521 190.635 24.199 190.635 24.199L191.586 24.2198C200.219 24.2198 204.459 21.9323 204.459 17.1211C204.459 11.6486 198.532 10.392 193.601 10.2879H183.283V10.5101Z" fill="white"/>
<path d="M214.84 17.2379C215.363 18.3608 216.718 21.4971 218.244 25.2409C218.008 25.2513 217.713 25.2513 217.713 25.2513L214.84 25.2912C214.84 25.2912 211.865 25.2513 211.371 25.2409C212.61 22.2486 213.841 19.5445 214.84 17.2379ZM213.242 10.2884H213.157L213.11 10.4081C211.888 13.7649 204.012 30.9546 202.764 33.5875L202.66 33.8826H208.254L208.3 33.7541C208.793 32.1331 209.455 30.3089 210.175 28.3615C210.399 28.3615 214.84 28.2956 214.84 28.2956L218.704 28.3233C218.704 28.3233 219.327 28.3615 219.513 28.3615C220.509 30.899 221.271 32.8099 221.604 33.7819L221.668 33.8826H228.149L217.678 10.2884H217.548H213.242Z" fill="white"/>
<path d="M230.783 10.5101C230.97 12.9799 231.066 19.2212 231.066 21.4983C231.066 23.595 231.066 30.6156 230.706 33.6443V33.8821H237.312L237.284 33.6443C236.935 30.5948 236.911 23.595 236.911 21.4983C236.911 19.8582 236.962 16.2029 237.125 13.2489C237.626 13.2124 238.392 13.1361 238.909 13.1361C241.962 13.0788 244.123 13.7106 245.135 14.9949C245.617 15.5486 245.838 16.2967 245.838 17.1211C245.838 19.846 243.295 21.2276 240.924 21.3508C240.131 21.3838 239.541 21.2814 239.541 21.2814L239.079 21.2016L239.332 21.6337C241.679 25.0547 245.185 30.9801 246.632 33.7814L246.678 33.8821H253.733L253.558 33.5627C253.27 33.167 248.674 26.4015 246.721 23.5099C246.721 23.5099 246.632 23.4266 246.549 23.3346C250.168 22.2499 251.916 20.2261 251.916 17.1211C251.916 11.6868 246.023 10.3955 241.049 10.2896H230.764L230.783 10.5101Z" fill="white"/>
<path d="M263.073 10.2889H256.783L256.818 10.5093C256.981 12.9791 257.108 19.2222 257.108 21.4976C257.108 23.5856 257.077 30.5958 256.783 33.6436L256.759 33.8813H263.28L263.245 33.6436C262.995 30.5958 262.915 23.5856 262.915 21.4976C262.915 19.2222 263.073 12.9791 263.245 10.5093V10.2889H263.073Z" fill="white"/>
<path d="M277.693 12.9043C282.301 12.9424 283.976 13.8727 283.976 16.3616C283.976 17.0489 283.766 17.6599 283.346 18.125C282.516 19.1786 280.741 19.7236 278.582 19.5864H278.476L277.207 22.9154H278.476C281.01 22.8425 283.183 23.6391 284.309 25.0172C284.859 25.6438 285.12 26.4005 285.12 27.1694C285.12 29.7711 282.817 31.118 278.271 31.118C277.54 31.118 276.311 31.118 275.541 31.0919C275.352 27.6172 275.352 22.9154 275.352 21.4991C275.352 19.8589 275.412 16.2037 275.541 13.0796C276.037 12.9737 276.903 12.9043 277.693 12.9043ZM269.225 10.5108C269.414 12.9806 269.53 19.222 269.53 21.4991C269.53 23.594 269.53 30.6146 269.197 33.6433L269.145 33.8811H280.132C285.505 33.8811 291.224 32.2045 291.224 27.4159C291.224 24.4184 289.049 22.202 284.955 20.9923C287.971 20.1818 290.002 18.125 290.002 15.7715C290.002 11.8629 285.505 10.3928 281.32 10.2887H269.197L269.225 10.5108Z" fill="white"/>
<path d="M304.664 17.2247C305.195 18.3234 306.538 21.4649 308.066 25.2156C307.835 25.2156 307.549 25.2416 307.549 25.2416L304.664 25.2798C304.664 25.2798 301.656 25.2156 301.208 25.2156C302.432 22.2025 303.63 19.5192 304.664 17.2247ZM307.38 10.2891H302.961L302.934 10.395C301.614 13.967 293.294 32.0626 292.594 33.564L292.473 33.8816H298.095L298.129 33.741C298.598 32.1251 299.252 30.3097 299.983 28.3241C300.162 28.3241 304.631 28.2529 304.631 28.2529L308.5 28.3154C308.5 28.3154 309.173 28.3241 309.321 28.3241C310.338 30.8599 311.091 32.7881 311.421 33.741L311.48 33.8816H317.985L307.523 10.2891H307.38Z" fill="white"/>
<path d="M319.827 16.3909C319.827 20.5356 323.977 22.2035 327.657 23.7274C330.515 24.8677 333.511 26.0688 333.511 28.0456C333.511 28.6427 333.395 29.1443 333.058 29.5001C332.369 30.3089 330.975 30.6508 328.766 30.5293C326.574 30.4408 324.104 29.75 321.322 28.4691L320.235 27.945V28.8614V33.0859L320.98 33.2734L321.41 33.348C322.781 33.6882 325.432 34.3113 328.064 34.3113C334.991 34.3113 339.127 31.5499 339.127 26.98C339.127 22.6912 334.859 21.0198 331.09 19.5185C328.307 18.3921 325.432 17.2761 325.432 15.4363C325.432 14.9069 325.432 13.3587 329.021 13.3587C331.666 13.3587 334.236 14.4331 335.698 14.9937L337.031 15.5491L337.02 14.6657V10.3925L335.698 10.1513C334.351 9.87879 332.107 9.43446 329.793 9.43446C323.817 9.43446 319.827 12.2566 319.827 16.3909Z" fill="white"/>
<defs>
<linearGradient id="paint0_linear_498_486" x1="33.0857" y1="1.00006" x2="33.0857" y2="66.9997" gradientUnits="userSpaceOnUse">
<stop stop-color="#007A50"/>
<stop offset="0.600006" stop-color="#7FD2A4"/>
<stop offset="1" stop-color="#00A770"/>
</linearGradient>
<linearGradient id="paint1_linear_498_486" x1="32.9742" y1="-15.6437" x2="32.9742" y2="62.6515" gradientUnits="userSpaceOnUse">
<stop stop-color="#00965E"/>
<stop offset="0.300003" stop-color="#8AC9AD"/>
<stop offset="0.550003" stop-color="#00965E"/>
<stop offset="0.835159" stop-color="#007749"/>
<stop offset="1" stop-color="#009F70"/>
</linearGradient>
<linearGradient id="paint2_linear_498_486" x1="37.3867" y1="23.0232" x2="37.4342" y2="23.0232" gradientUnits="userSpaceOnUse">
<stop stop-color="#F1471D"/>
<stop offset="1" stop-color="#FAB10B"/>
</linearGradient>
<linearGradient id="paint3_linear_498_486" x1="46.6524" y1="60.4186" x2="46.6524" y2="6.8784" gradientUnits="userSpaceOnUse">
<stop stop-color="#33B880"/>
<stop offset="1" stop-color="#00A770"/>
</linearGradient>
<linearGradient id="paint4_linear_498_486" x1="13.4342" y1="60.4215" x2="13.4342" y2="6.86783" gradientUnits="userSpaceOnUse">
<stop stop-color="#33B880"/>
<stop offset="1" stop-color="#00A770"/>
</linearGradient>
<linearGradient id="paint5_linear_498_486" x1="23.7815" y1="60.4144" x2="23.7815" y2="6.88518" gradientUnits="userSpaceOnUse">
<stop stop-color="#33B880"/>
<stop offset="1" stop-color="#00A770"/>
</linearGradient>
<linearGradient id="paint6_linear_498_486" x1="32.7289" y1="60.4193" x2="32.7289" y2="6.88871" gradientUnits="userSpaceOnUse">
<stop stop-color="#33B880"/>
<stop offset="1" stop-color="#00A770"/>
</linearGradient>
</defs>
</svg>
