<svg width="261" height="52" viewBox="0 0 261 52" fill="none" xmlns="http://www.w3.org/2000/svg">
<path d="M0.112793 0.768637H50.8307V51.4878H0.112793V0.768637Z" fill="url(#paint0_linear_498_486)" stroke="black" stroke-width="0.0272433"/>
<path fill-rule="evenodd" clip-rule="evenodd" d="M4.06792 1.47006C3.08513 1.47006 2.44287 2.30256 2.29138 3.46437C2.29138 3.46437 1.02441 10.1235 1.02441 24.2606C1.02441 38.4052 2.29138 47.6597 2.29138 47.6597C2.40531 48.7802 3.08513 49.6541 4.06792 49.6541H47.9665C48.9493 49.6541 49.7292 48.8766 49.7467 47.6597C49.7467 47.6597 49.2598 36.8202 49.2598 26.2337C49.2598 15.6459 49.7467 3.46437 49.7467 3.46437C49.7693 2.38268 48.9493 1.47006 47.9665 1.47006H4.06792Z" fill="url(#paint1_linear_498_486)" stroke="black" stroke-width="0.0272433"/>
<path d="M28.7773 17.6866C28.7885 17.6916 28.801 17.6952 28.8122 17.699C28.801 17.694 28.7885 17.6916 28.7773 17.6866Z" fill="url(#paint2_linear_498_486)" stroke="black" stroke-width="0.0272433"/>
<path d="M29.2377 5.99636C30.7044 6.61039 36.5844 9.78898 37.3069 10.8051C34.3452 11.1956 28.5436 12.7073 25.4184 14.2257L25.2349 14.5977C28.6804 13.8369 33.4992 13.4415 36.8213 13.2596C35.5832 15.0783 34.7606 15.946 32.8718 18.0066L32.6966 18.4054C36.2924 16.2447 37.3069 16.0878 40.6206 14.1506C41.872 16.001 42.174 20.2692 42.2241 23.6497C43.302 21.5072 44.6118 13.4215 44.0679 11.9615C46.2637 10.4548 46.5623 9.23834 46.5623 9.23834C44.5467 9.41353 43.4371 9.44693 42.3493 9.78898C39.773 8.20885 33.8663 6.12652 29.4096 5.62262L29.2377 5.99636Z" fill="url(#paint3_linear_498_486)" stroke="black" stroke-width="0.0363088"/>
<path d="M7.28342 31.108C6.9931 33.8044 6.87464 35.7298 7.26176 37.8806C6.17051 38.1843 5.21611 38.226 4.33677 38.6014L4.16992 38.9702C5.56818 39.8329 6.70613 40.492 8.28625 41.2328C9.13221 43.0482 10.0082 44.2745 11.4231 45.6694L11.595 45.2974C11.3397 44.2629 11.011 43.4135 11.1362 42.2806C12.8915 42.7962 14.4015 43.0648 16.4004 43.1266L16.5706 42.7528C14.8103 42.067 13.05 41.5314 11.6267 40.1882C12.0739 38.9418 12.5861 37.9657 13.4237 36.7327L13.6006 36.3506C12.0856 36.5792 10.7173 37.1332 9.40918 37.3885C8.37469 35.5781 7.97757 33.0952 7.45697 30.7342L7.28342 31.108Z" fill="url(#paint4_linear_498_486)" stroke="black" stroke-width="0.0363088"/>
<path d="M16.2596 18.8206C16.2596 18.8206 15.1266 18.7156 13.2545 18.7706C11.6694 18.8438 9.30839 18.9858 8.16209 19.3195L7.99522 19.69C9.81729 19.7684 12.3185 20.2572 13.2762 21.2183C13.2762 21.2183 10.6182 23.6261 7.94185 28.8169C7.87499 28.9488 7.82841 29.0539 7.7583 29.1907C7.7583 29.1907 12.7389 24.5171 14.8981 23.3591C14.8981 23.3591 16.0243 27.1234 16.8102 29.0055L16.9821 28.6284C17.1973 27.4204 17.7379 24.1383 18.6573 22.1277C18.6573 22.1277 18.9843 21.9308 20.5711 21.7773C22.1713 21.6321 24.4272 21.5504 28.7103 22.3013L28.8856 21.9308C27.9161 21.3618 24.0884 19.7183 20.0071 19.1443C20.5711 17.4808 21.2903 16.206 21.2903 16.206C20.416 16.3262 17.9248 17.4941 16.2596 18.8206Z" fill="url(#paint5_linear_498_486)" stroke="black" stroke-width="0.0363088"/>
<path d="M26.6883 41.9017C26.6266 41.1709 26.5799 40.5485 26.5415 39.7259C25.6755 40.9005 24.9363 41.8266 23.9836 42.8995C22.9758 43.1781 21.8245 43.1664 20.775 43.1564C20.3528 43.1514 19.9474 43.1489 19.5753 43.1614L19.4067 43.5351C20.3878 44.039 21.3489 44.3477 22.3734 44.5596C21.5408 45.3155 20.4312 45.8944 19.6503 46.4184L19.4751 46.7888C21.1537 46.3934 23.3562 45.6825 24.9981 44.7131C25.8524 44.7514 26.6499 44.6947 27.2356 44.578C27.2356 44.578 27.4141 44.1942 27.4141 44.2042C27.304 43.8255 26.9703 43.5952 26.8702 43.0646C28.4086 41.8716 29.5215 40.782 30.8096 39.4872L30.9898 39.1152C29.7167 39.9911 28.1733 41.1942 26.6883 41.9017Z" fill="url(#paint6_linear_498_486)" stroke="black" stroke-width="0.0363088"/>
<path d="M40.7899 13.7698C37.4828 15.7154 36.4733 15.8806 32.8726 18.0313C34.9666 15.7587 35.6958 14.7927 36.9923 12.8905C33.6735 13.0657 28.8564 13.4645 25.4175 14.227C28.4109 12.6269 34.3509 10.8482 37.4828 10.4244C36.757 9.42157 30.8737 6.2363 29.4103 5.62227C34.0673 5.98601 39.7604 7.72298 42.5202 9.41323C43.6064 9.07284 44.7344 9.05616 46.7566 8.87762C46.2427 9.76196 46.2177 10.2709 44.2355 11.5857C44.7844 13.0557 43.4729 21.1332 42.3917 23.2739C42.35 19.8934 42.0563 15.6269 40.7899 13.7698Z" fill="white"/>
<path d="M16.5696 42.7521C14.6708 42.0463 13.3009 41.2271 11.7925 39.8155C12.2447 38.5724 12.7586 37.5996 13.6012 36.3499C12.0545 36.5801 10.9149 36.7553 9.58334 37.009C8.50045 35.1118 8.00823 33.2814 7.45427 30.7335C7.1606 33.4332 7.04881 35.3621 7.42924 37.5129C6.20619 37.8516 5.34521 38.1486 4.3374 38.6024C5.744 39.4634 6.88529 40.1258 8.4554 40.86C9.30302 42.6737 10.174 43.9001 11.594 45.2983C11.2619 44.107 11.1751 43.1609 11.312 41.9095C13.069 42.4217 14.574 42.6904 16.5696 42.7521Z" fill="white"/>
<path d="M21.5189 15.8844C20.9266 16.6536 20.2408 18.0869 20.0556 18.7527C24.9545 19.4167 28.8839 21.9329 28.8839 21.9329C24.6024 21.1737 22.3432 21.2688 20.7447 21.4107C19.1563 21.5608 18.8292 21.7477 18.8292 21.7477C17.6746 24.2789 16.9821 28.6288 16.9821 28.6288C16.2012 26.75 15.075 22.9841 15.075 22.9841C12.9125 24.1404 7.94189 28.8174 7.94189 28.8174C10.6733 23.3429 13.4498 20.8517 13.4498 20.8517C12.4937 19.8839 9.99088 19.4034 8.16048 19.32C9.11155 18.9345 11.5493 18.4807 13.4231 18.3939C15.2986 18.3422 16.4332 18.4473 16.4332 18.4473C18.1067 17.1275 20.6446 16.0129 21.5189 15.8844Z" fill="white"/>
<path d="M26.7161 39.359C25.8518 40.532 25.1076 41.4547 24.1466 42.5243C22.4997 42.9881 21.1849 43.1616 19.5747 43.1616C20.5625 43.6689 21.5186 43.9726 22.5481 44.1895C21.5186 45.1205 20.6493 45.7863 19.6498 46.417C21.325 46.0249 23.5275 45.3124 25.166 44.343C26.022 44.3763 26.8246 44.3213 27.4119 44.2045C27.2584 43.7089 27.1633 43.3385 27.0398 42.6911C28.5816 41.4964 29.7045 40.4135 30.9893 39.1154C29.6228 40.0665 28.4431 40.7789 26.8596 41.5265C26.7912 40.8006 26.7528 40.1799 26.7161 39.359Z" fill="white"/>
<path d="M137.538 37.8261C137.207 37.5989 136.749 37.318 136.188 37.318C135.551 37.318 134.939 37.7534 134.939 39.6637C134.939 41.3266 135.46 41.9019 136.072 41.9019C136.735 41.9019 137.245 41.3759 137.538 40.9887V37.8261ZM140.047 42.7266C139.667 43.0601 139.207 43.2493 138.749 43.2493C138.266 43.2493 137.819 42.9975 137.755 42.2432C137.207 42.8027 136.557 43.2246 135.627 43.2246C134.546 43.2246 133.488 42.2958 133.488 39.7375C133.488 37.1143 134.634 36.1721 135.881 36.1721C136.456 36.1721 136.938 36.275 137.538 36.5548V33.8399C137.996 33.7414 138.455 33.6507 138.927 33.5366V41.6971C138.927 41.988 139.055 42.0921 139.233 42.0921C139.424 42.0921 139.742 41.9634 139.957 41.8112L140.047 42.7266Z" fill="white"/>
<path d="M142.894 33.8548L141.824 36.9233L140.893 36.7197L141.581 33.6511L142.894 33.8548Z" fill="white"/>
<path d="M143.94 41.039V36.3253H145.33V40.7973C145.33 41.7351 145.864 41.9376 146.489 41.9376C147.099 41.9376 147.635 41.7351 147.635 40.7973V36.3253H149.022V41.039C149.022 42.6292 147.774 43.2246 146.489 43.2246C145.189 43.2246 143.94 42.6292 143.94 41.039Z" fill="white"/>
<path d="M151.867 37.0259C152.443 36.5917 153.116 36.1721 154.084 36.1721C155.296 36.1721 156.058 36.8357 156.058 38.314V43.0959H154.671V38.6811C154.671 37.8552 154.238 37.4982 153.562 37.4982C153.04 37.4982 152.531 37.7534 152.111 38.0309V43.0959H150.72V36.3254H151.867V37.0259Z" fill="white"/>
<path d="M161.888 37.0259C162.41 36.5917 163.111 36.1721 164.014 36.1721C164.781 36.1721 165.276 36.4283 165.62 36.9621C166.307 36.5156 166.971 36.1721 167.785 36.1721C168.997 36.1721 169.684 36.8357 169.684 38.314V43.0959H168.295V38.6811C168.295 37.8384 167.965 37.4736 167.277 37.4736C166.818 37.4736 166.283 37.7276 165.875 37.9816C165.899 38.1215 165.913 38.4024 165.913 38.5927V43.0959H164.524V38.8971C164.524 37.9425 164.347 37.4736 163.506 37.4736C163.023 37.4736 162.551 37.7131 162.142 37.9816V43.0959H160.754V36.3254H161.888V37.0259Z" fill="white"/>
<path d="M172.457 39.714C172.457 41.5561 172.915 42.1302 173.83 42.1302C174.749 42.1302 175.195 41.5561 175.195 39.7364C175.195 37.8541 174.749 37.28 173.83 37.28C172.915 37.28 172.457 37.8541 172.457 39.714ZM176.622 39.7364C176.622 42.0921 175.653 43.2493 173.83 43.2493C172.047 43.2493 171.028 42.2432 171.028 39.714C171.028 37.2285 172.01 36.1721 173.83 36.1721C175.73 36.1721 176.622 37.1781 176.622 39.7364Z" fill="white"/>
<path d="M179.174 37.0259C179.747 36.5917 180.423 36.1721 181.389 36.1721C182.602 36.1721 183.366 36.8357 183.366 38.314V43.0959H181.977V38.6811C181.977 37.8552 181.545 37.4982 180.867 37.4982C180.346 37.4982 179.837 37.7534 179.415 38.0309V43.0959H178.028V36.3254H179.174V37.0259Z" fill="white"/>
<path d="M188.888 37.8261C188.556 37.5989 188.097 37.318 187.536 37.318C186.9 37.318 186.288 37.7534 186.288 39.6637C186.288 41.3266 186.811 41.9019 187.422 41.9019C188.084 41.9019 188.593 41.3759 188.888 40.9887V37.8261ZM191.397 42.7266C191.015 43.0601 190.557 43.2493 190.096 43.2493C189.614 43.2493 189.166 42.9975 189.104 42.2432C188.556 42.8027 187.905 43.2246 186.975 43.2246C185.894 43.2246 184.836 42.2958 184.836 39.7375C184.836 37.1143 185.982 36.1721 187.231 36.1721C187.803 36.1721 188.288 36.275 188.888 36.5548V33.8399C189.345 33.7414 189.804 33.6507 190.276 33.5366V41.6971C190.276 41.988 190.404 42.0921 190.581 42.0921C190.773 42.0921 191.092 41.9634 191.307 41.8112L191.397 42.7266Z" fill="white"/>
<path d="M195.923 38.9493C195.923 37.791 195.566 37.3837 194.789 37.3837C194.013 37.3837 193.604 37.753 193.542 38.9493H195.923ZM193.528 40.0214C193.553 41.7347 194.203 42.0134 195.183 42.0134C195.923 42.0134 196.56 41.606 196.955 41.3128L197.171 42.5237C196.56 42.9064 195.923 43.25 194.904 43.25C193.223 43.25 192.077 42.2585 192.077 39.7148C192.077 37.2046 193.084 36.1717 194.815 36.1717C196.574 36.1717 197.261 37.3176 197.261 39.0131V40.0214H193.528Z" fill="white"/>
<path d="M205.357 37.9699C205.013 37.7394 204.567 37.4618 204.033 37.4618C203.278 37.4618 202.757 38.0852 202.757 39.7538C202.757 41.5678 203.331 41.9506 203.916 41.9506C204.541 41.9506 205.025 41.5566 205.357 41.1795V37.9699ZM205.357 42.4967C204.886 42.8783 204.324 43.2498 203.599 43.2498C202.451 43.2498 201.307 42.4967 201.307 39.737C201.307 37.1138 202.502 36.1715 203.752 36.1715C204.427 36.1715 205 36.4781 205.597 36.8486V36.3248H206.732V45.7208C206.273 45.8204 205.813 45.9111 205.357 46.0286V42.4967Z" fill="white"/>
<path d="M208.341 41.039V36.3253H209.731V40.7973C209.731 41.7351 210.267 41.9376 210.89 41.9376C211.502 41.9376 212.037 41.7351 212.037 40.7973V36.3253H213.425V41.039C213.425 42.6292 212.177 43.2246 210.89 43.2246C209.59 43.2246 208.341 42.6292 208.341 41.039Z" fill="white"/>
<path d="M216.501 43.0955H215.112V36.3249H216.501V43.0955ZM216.501 35.4207H215.112V33.9714H216.501V35.4207Z" fill="white"/>
<path d="M224.555 38.6057C224.517 37.9421 224.236 37.3949 223.473 37.3949C222.582 37.3949 222.249 37.8022 222.249 39.7148C222.249 41.5803 222.784 41.9888 223.751 41.9888C224.606 41.9888 225.141 41.6463 225.536 41.3632L225.804 42.5248C225.192 42.9053 224.529 43.25 223.549 43.25C221.791 43.25 220.797 42.2831 220.797 39.7013C220.797 37.0905 221.652 36.1728 223.522 36.1728C225.154 36.1728 225.779 37.1666 225.804 38.477C225.382 38.5184 224.974 38.5554 224.555 38.6057Z" fill="white"/>
<path d="M228.534 33.5359V36.8239C229.044 36.5027 229.643 36.1725 230.496 36.1725C231.719 36.1725 232.483 36.8239 232.483 38.3011V43.0964H231.096V38.6805C231.096 37.8546 230.674 37.5356 229.973 37.5356C229.464 37.5356 228.953 37.765 228.534 37.9956V43.0964H227.146V33.8415L228.534 33.5359Z" fill="white"/>
<path d="M237.488 40.0207C236.202 40.0207 235.284 40.4403 235.284 41.2729C235.284 41.8246 235.666 42.0272 236.1 42.0272C236.672 42.0272 237.156 41.6199 237.488 41.1789V40.0207ZM237.488 38.2111C237.488 37.5228 237.08 37.2688 236.505 37.2688C235.869 37.2688 235.411 37.6627 235.398 38.3644L234.176 38.2368C234.252 36.8715 235.311 36.1721 236.597 36.1721C237.985 36.1721 238.875 36.8872 238.875 38.1081V41.6971C238.875 41.9892 239.015 42.0787 239.194 42.0787C239.373 42.0787 239.691 41.9634 239.907 41.8112L240.01 42.7255C239.614 43.0601 239.157 43.2493 238.699 43.2493C238.214 43.2493 237.755 42.9818 237.691 42.2421C237.08 42.9057 236.341 43.2493 235.628 43.2493C234.71 43.2493 233.935 42.6774 233.935 41.4565C233.935 39.7263 235.742 39.0896 237.488 39.0526V38.2111Z" fill="white"/>
<path d="M242.158 37.0259C242.732 36.5917 243.407 36.1721 244.375 36.1721C245.587 36.1721 246.349 36.8357 246.349 38.314V43.0959H244.96V38.6811C244.96 37.8552 244.527 37.4982 243.851 37.4982C243.329 37.4982 242.82 37.7534 242.399 38.0309V43.0959H241.012V36.3254H242.158V37.0259Z" fill="white"/>
<path d="M249.291 38.7333C249.291 39.6879 249.712 40.2362 250.4 40.2362C251.061 40.2362 251.457 39.6879 251.457 38.759C251.457 37.688 251.061 37.2169 250.4 37.2169C249.712 37.2169 249.291 37.7272 249.291 38.7333ZM249.699 43.1851C249.291 43.3753 248.782 43.7469 248.782 44.1542C248.782 44.7283 249.47 44.9309 250.245 44.9309C251.098 44.9309 252.017 44.5996 252.017 44.0524C252.017 43.2724 250.743 43.3395 249.699 43.1851ZM251.367 36.325H253.609L253.558 37.4206L252.463 37.2684C252.718 37.6511 252.856 38.1581 252.856 38.759C252.856 40.2888 251.865 41.3005 250.4 41.3005C250.031 41.3005 249.788 41.2871 249.494 41.1662C249.291 41.2468 249.126 41.4035 249.126 41.5937C249.126 42.6154 253.609 41.3531 253.609 43.9013C253.609 45.3002 251.852 46.0276 250.184 46.0276C248.502 46.0276 247.379 45.4154 247.379 44.4094C247.379 43.758 247.967 43.1481 248.681 42.8561C248.286 42.6915 247.967 42.4218 247.967 41.9507C247.967 41.4796 248.349 41.0028 248.768 40.7342C248.209 40.3 247.902 39.6733 247.902 38.7333C247.902 37.1677 248.896 36.1717 250.411 36.1717C250.768 36.1717 251.086 36.2242 251.367 36.325Z" fill="white"/>
<path d="M258.2 38.9493C258.2 37.791 257.843 37.3837 257.065 37.3837C256.289 37.3837 255.882 37.753 255.819 38.9493H258.2ZM255.804 40.0214C255.831 41.7347 256.48 42.0134 257.461 42.0134C258.2 42.0134 258.837 41.606 259.232 41.3128L259.448 42.5237C258.837 42.9064 258.2 43.25 257.181 43.25C255.5 43.25 254.353 42.2585 254.353 39.7148C254.353 37.2046 255.359 36.1717 257.091 36.1717C258.849 36.1717 259.536 37.3176 259.536 39.0131V40.0214H255.804Z" fill="white"/>
<path d="M75.4986 34.1726V41.8743H78.6936V43.0952H74.1221V34.1726H75.4986Z" fill="white"/>
<path d="M83.5776 40.0207C82.2917 40.0207 81.3741 40.4392 81.3741 41.2729C81.3741 41.8246 81.7557 42.0272 82.1876 42.0272C82.7629 42.0272 83.2463 41.6199 83.5776 41.1789V40.0207ZM83.5776 38.2111C83.5776 37.5228 83.1702 37.2688 82.5961 37.2688C81.9593 37.2688 81.5005 37.6627 81.4893 38.3644L80.2661 38.2346C80.3434 36.8715 81.4009 36.1721 82.6856 36.1721C84.0733 36.1721 84.9664 36.886 84.9664 38.1081V41.6971C84.9664 41.9892 85.1051 42.0764 85.2864 42.0764C85.4644 42.0764 85.7822 41.9634 85.9982 41.8112L86.1011 42.7255C85.7061 43.0601 85.2473 43.2493 84.7862 43.2493C84.3039 43.2493 83.845 42.9818 83.7824 42.2421C83.1702 42.9057 82.4316 43.2493 81.7176 43.2493C80.8011 43.2493 80.0244 42.6774 80.0244 41.4565C80.0244 39.7263 81.8329 39.0896 83.5776 39.0504V38.2111Z" fill="white"/>
<path d="M91.1891 41.6721C91.5707 41.9373 91.9658 42.0928 92.3988 42.0928C93.1901 42.0928 93.8022 41.4796 93.8022 39.6364C93.8022 37.838 93.2147 37.462 92.5522 37.462C92.0049 37.462 91.6356 37.6746 91.1891 37.9421V41.6721ZM91.1891 33.5362V36.7581C91.7363 36.428 92.3093 36.1717 93.0367 36.1717C94.1323 36.1717 95.2391 36.8476 95.2391 39.6364C95.2391 42.3704 93.8649 43.25 92.3362 43.25C91.4566 43.25 90.5266 42.9176 89.8003 42.3704V33.8406L91.1891 33.5362Z" fill="white"/>
<path d="M99.9843 40.0207C98.6985 40.0207 97.7797 40.4392 97.7797 41.2729C97.7797 41.8246 98.1624 42.0272 98.5955 42.0272C99.1685 42.0272 99.653 41.6199 99.9843 41.1789V40.0207ZM99.9843 38.2111C99.9843 37.5228 99.577 37.2688 99.004 37.2688C98.3661 37.2688 97.9072 37.6627 97.8949 38.3644L96.6729 38.2346C96.7501 36.8715 97.8076 36.1721 99.0935 36.1721C100.48 36.1721 101.373 36.886 101.373 38.1081V41.6971C101.373 41.9892 101.513 42.0764 101.692 42.0764C101.871 42.0764 102.188 41.9634 102.404 41.8112L102.507 42.7255C102.112 43.0601 101.654 43.2493 101.195 43.2493C100.711 43.2493 100.253 42.9818 100.189 42.2421C99.577 42.9057 98.8372 43.2493 98.1244 43.2493C97.2067 43.2493 96.4312 42.6774 96.4312 41.4565C96.4312 39.7263 98.2396 39.0896 99.9843 39.0504V38.2111Z" fill="white"/>
<path d="M104.435 37.0259C105.008 36.5917 105.684 36.1721 106.651 36.1721C107.862 36.1721 108.626 36.8357 108.626 38.314V43.0959H107.237V38.6822C107.237 37.8552 106.804 37.4982 106.128 37.4982C105.607 37.4982 105.098 37.7534 104.678 38.0309V43.0959H103.289V36.3254H104.435V37.0259Z" fill="white"/>
<path d="M114.019 37.969C113.675 37.7396 113.229 37.461 112.695 37.461C111.941 37.461 111.42 38.0854 111.42 39.7529C111.42 41.5681 111.994 41.9508 112.579 41.9508C113.203 41.9508 113.687 41.5569 114.019 41.1786V37.969ZM114.019 42.4969C113.548 42.8785 112.986 43.2501 112.261 43.2501C111.115 43.2501 109.969 42.4969 109.969 39.7372C109.969 37.114 111.166 36.1718 112.414 36.1718C113.088 36.1718 113.662 36.4784 114.261 36.8488V36.3251H115.396V45.7211C114.936 45.8207 114.477 45.9113 114.019 46.0288V42.4969Z" fill="white"/>
<path d="M117.005 41.039V36.3253H118.394V40.7973C118.394 41.7351 118.929 41.9376 119.552 41.9376C120.164 41.9376 120.699 41.7351 120.699 40.7973V36.3253H122.087V41.039C122.087 42.6292 120.84 43.2246 119.552 43.2246C118.254 43.2246 117.005 42.6292 117.005 41.039Z" fill="white"/>
<path d="M127.201 38.9508C127.201 37.7903 126.844 37.3829 126.067 37.3829C125.291 37.3829 124.883 37.7534 124.819 38.9508H127.201ZM124.805 40.0207C124.83 41.734 125.481 42.0127 126.462 42.0127C127.201 42.0127 127.838 41.6053 128.233 41.3121L128.448 42.523C127.838 42.9057 127.201 43.2493 126.181 43.2493C124.5 43.2493 123.355 42.2589 123.355 39.714C123.355 37.2039 124.361 36.1709 126.092 36.1709C127.85 36.1709 128.539 37.318 128.539 39.0135V40.0207H124.805Z" fill="white"/>
<path d="M80.275 9.91699C83.7882 9.94633 85.0766 10.6612 85.0766 12.5739C85.0766 13.1021 84.9139 13.5716 84.6045 13.929C83.9296 14.7386 82.6198 15.1574 80.9459 15.0521H80.8619L79.8789 17.6103H80.8619C82.8012 17.5542 84.4871 18.1664 85.3541 19.2255C85.7555 19.707 85.9556 20.2885 85.9556 20.8794C85.9556 22.8787 84.1937 23.9137 80.7192 23.9137C80.1336 23.9137 79.1813 23.9137 78.5891 23.8937C78.4904 21.2235 78.4451 17.6103 78.4451 16.5219C78.4451 15.2615 78.5278 12.4525 78.5891 10.0517C78.9919 9.97034 79.6548 9.91699 80.275 9.91699ZM73.7648 8.0777C73.8742 9.97568 73.9849 14.772 73.9849 16.5219C73.9849 18.1318 73.9822 23.5269 73.7008 25.8544L73.6821 26.0371H82.1143C86.2557 26.0371 90.6385 24.7487 90.6385 21.0688C90.6385 18.7653 88.9713 17.0621 85.8516 16.1324C88.1657 15.5095 89.7075 13.929 89.7075 12.1204C89.7075 9.11672 86.2557 7.987 83.0133 7.90698H73.7168L73.7648 8.0777Z" fill="white"/>
<path d="M110.096 7.90722H105.993L106.16 12.4794C106.24 14.7389 106.316 17.0637 106.476 19.3191C106.209 18.6122 105.962 18.2481 104.716 16.4341C104.711 16.3701 100.448 9.81186 98.9679 7.94857L98.9252 7.90722H94.1662V8.07661C94.317 9.97459 94.3783 14.7722 94.3783 16.5208C94.3783 18.1333 94.3783 23.5272 94.1502 25.8546L94.1089 26.0374H98.3517V25.8546C98.1102 21.4305 98.1102 16.965 98.1102 12.6328C98.2583 13.1583 98.4464 13.6091 99.1132 14.5988C99.1679 14.7149 106.476 25.3531 106.829 25.9613L106.868 26.0374H110.265L110.261 25.8546C110.001 23.5272 109.978 18.1333 109.978 16.5208C109.978 14.7722 110.096 9.97459 110.206 8.07661L110.261 7.90722H110.096Z" fill="white"/>
<path d="M121.222 10.0951C123.587 10.0524 125.236 10.5299 126.018 11.5223C126.378 11.9504 126.578 12.5133 126.578 13.1575C126.578 15.7824 123.625 16.3519 121.159 16.3519L120.157 16.2945C120.157 16.2945 119.921 16.2705 119.745 16.2519C119.728 15.6463 119.728 14.8474 119.728 13.9498C119.728 12.8094 119.728 11.4556 119.781 10.2005C120.129 10.1538 120.655 10.0951 121.222 10.0951ZM115.001 8.0771C115.168 9.97374 115.23 14.7714 115.23 16.52C115.23 18.1325 115.23 23.5263 114.981 25.8538V26.0378H120.028L120.005 25.8538C119.833 24.1812 119.745 20.9881 119.728 18.5473C119.965 18.5606 120.68 18.5967 120.68 18.5967L121.395 18.6127C128.033 18.6127 131.261 16.8547 131.261 13.1575C131.261 8.95206 126.732 7.9864 122.956 7.90637H115.001V8.0771Z" fill="white"/>
<path d="M147.105 10.0951C149.474 10.0524 151.123 10.5299 151.917 11.5223C152.28 11.9504 152.464 12.5133 152.464 13.1575C152.464 15.7824 149.515 16.3519 147.081 16.3519L146.082 16.2945C146.082 16.2945 145.818 16.2705 145.662 16.2519C145.634 15.6463 145.634 14.8421 145.634 13.9498C145.634 12.7974 145.634 11.4556 145.681 10.2005C145.997 10.1538 146.544 10.0951 147.105 10.0951ZM140.894 8.0771C141.052 9.97374 141.144 14.7714 141.144 16.52C141.144 18.1325 141.128 23.5263 140.866 25.8538V26.0378H145.917L145.886 25.8538C145.726 24.1812 145.634 20.9881 145.634 18.5473C145.869 18.5606 146.544 18.5967 146.544 18.5967L147.275 18.6127C153.909 18.6127 157.167 16.8547 157.167 13.1575C157.167 8.95206 152.612 7.9864 148.823 7.90637H140.894V8.0771Z" fill="white"/>
<path d="M165.145 13.2471C165.547 14.1101 166.588 16.5202 167.761 19.3972C167.579 19.4052 167.353 19.4052 167.353 19.4052L165.145 19.4359C165.145 19.4359 162.859 19.4052 162.479 19.3972C163.431 17.0977 164.377 15.0197 165.145 13.2471ZM163.917 7.90662H163.851L163.815 7.99865C162.876 10.5782 156.824 23.788 155.865 25.8113L155.785 26.0381H160.083L160.119 25.9394C160.498 24.6936 161.006 23.2918 161.56 21.7953C161.732 21.7953 165.145 21.7446 165.145 21.7446L168.114 21.766C168.114 21.766 168.593 21.7953 168.736 21.7953C169.501 23.7453 170.087 25.2138 170.343 25.9607L170.392 26.0381H175.373L167.326 7.90662H167.226H163.917Z" fill="white"/>
<path d="M177.396 8.0771C177.54 9.97507 177.613 14.7714 177.613 16.5213C177.613 18.1325 177.613 23.5277 177.337 25.8551V26.0378H182.414L182.392 25.8551C182.124 23.5117 182.106 18.1325 182.106 16.5213C182.106 15.2609 182.144 12.4519 182.27 10.1818C182.655 10.1538 183.243 10.0951 183.641 10.0951C185.987 10.0511 187.648 10.5366 188.425 11.5236C188.796 11.9491 188.965 12.5239 188.965 13.1575C188.965 15.2515 187.011 16.3132 185.189 16.4079C184.58 16.4333 184.126 16.3546 184.126 16.3546L183.772 16.2932L183.966 16.6253C185.77 19.2542 188.464 23.8078 189.576 25.9605L189.611 26.0378H195.033L194.898 25.7924C194.677 25.4883 191.145 20.2892 189.644 18.0671C189.644 18.0671 189.576 18.0031 189.512 17.9324C192.293 17.0988 193.636 15.5436 193.636 13.1575C193.636 8.9814 189.108 7.98907 185.285 7.90771H177.381L177.396 8.0771Z" fill="white"/>
<path d="M202.211 7.90722H197.378L197.404 8.07661C197.53 9.97459 197.627 14.7722 197.627 16.5208C197.627 18.1253 197.603 23.5125 197.378 25.8546L197.359 26.0374H202.37L202.343 25.8546C202.151 23.5125 202.09 18.1253 202.09 16.5208C202.09 14.7722 202.211 9.97459 202.343 8.07661V7.90722H202.211Z" fill="white"/>
<path d="M213.446 9.91699C216.987 9.94633 218.274 10.6612 218.274 12.5739C218.274 13.1021 218.113 13.5716 217.79 13.929C217.152 14.7386 215.788 15.1574 214.129 15.0521H214.047L213.072 17.6103H214.047C215.995 17.5542 217.665 18.1664 218.53 19.2255C218.953 19.707 219.153 20.2885 219.153 20.8794C219.153 22.8787 217.383 23.9137 213.89 23.9137C213.328 23.9137 212.384 23.9137 211.792 23.8937C211.647 21.2235 211.647 17.6103 211.647 16.5219C211.647 15.2615 211.693 12.4525 211.792 10.0517C212.173 9.97034 212.839 9.91699 213.446 9.91699ZM206.938 8.0777C207.084 9.97568 207.173 14.772 207.173 16.5219C207.173 18.1318 207.173 23.5269 206.917 25.8544L206.877 26.0371H215.32C219.449 26.0371 223.844 24.7487 223.844 21.0688C223.844 18.7653 222.173 17.0621 219.026 16.1324C221.345 15.5095 222.905 13.929 222.905 12.1204C222.905 9.11672 219.449 7.987 216.233 7.90698H206.917L206.938 8.0777Z" fill="white"/>
<path d="M234.172 13.237C234.58 14.0813 235.613 16.4955 236.786 19.3778C236.609 19.3778 236.389 19.3978 236.389 19.3978L234.172 19.4271C234.172 19.4271 231.861 19.3778 231.517 19.3778C232.457 17.0623 233.377 15.0003 234.172 13.237ZM236.26 7.90722H232.864L232.842 7.98858C231.829 10.7335 225.435 24.6395 224.897 25.7933L224.804 26.0374H229.124L229.151 25.9293C229.511 24.6876 230.013 23.2924 230.575 21.7666C230.712 21.7666 234.147 21.7119 234.147 21.7119L237.12 21.7599C237.12 21.7599 237.637 21.7666 237.751 21.7666C238.532 23.7152 239.111 25.1971 239.365 25.9293L239.41 26.0374H244.409L236.369 7.90722H236.26Z" fill="white"/>
<path d="M245.824 12.5963C245.824 15.7814 249.013 17.0632 251.841 18.2343C254.038 19.1106 256.34 20.0335 256.34 21.5527C256.34 22.0115 256.25 22.397 255.992 22.6704C255.462 23.292 254.391 23.5547 252.693 23.4614C251.009 23.3933 249.111 22.8625 246.973 21.8782L246.138 21.4754V22.1796V25.426L246.71 25.5701L247.041 25.6274C248.094 25.8888 250.131 26.3677 252.154 26.3677C257.477 26.3677 260.656 24.2456 260.656 20.7338C260.656 17.438 257.376 16.1536 254.479 14.9998C252.341 14.1342 250.131 13.2766 250.131 11.8628C250.131 11.456 250.131 10.2662 252.889 10.2662C254.922 10.2662 256.897 11.0918 258.02 11.5227L259.045 11.9495L259.037 11.2706V7.98679L258.02 7.80139C256.985 7.59199 255.261 7.25054 253.483 7.25054C248.891 7.25054 245.824 9.41927 245.824 12.5963Z" fill="white"/>
<defs>
<linearGradient id="paint0_linear_498_486" x1="25.4716" y1="0.768683" x2="25.4716" y2="51.4875" gradientUnits="userSpaceOnUse">
<stop stop-color="#007A50"/>
<stop offset="0.600006" stop-color="#7FD2A4"/>
<stop offset="1" stop-color="#00A770"/>
</linearGradient>
<linearGradient id="paint1_linear_498_486" x1="25.3863" y1="-12.0213" x2="25.3863" y2="48.1463" gradientUnits="userSpaceOnUse">
<stop stop-color="#00965E"/>
<stop offset="0.300003" stop-color="#8AC9AD"/>
<stop offset="0.550003" stop-color="#00965E"/>
<stop offset="0.835159" stop-color="#007749"/>
<stop offset="1" stop-color="#009F70"/>
</linearGradient>
<linearGradient id="paint2_linear_498_486" x1="28.777" y1="17.693" x2="28.8132" y2="17.693" gradientUnits="userSpaceOnUse">
<stop stop-color="#F1471D"/>
<stop offset="1" stop-color="#FAB10B"/>
</linearGradient>
<linearGradient id="paint3_linear_498_486" x1="35.8975" y1="46.4304" x2="35.8975" y2="5.28624" gradientUnits="userSpaceOnUse">
<stop stop-color="#33B880"/>
<stop offset="1" stop-color="#00A770"/>
</linearGradient>
<linearGradient id="paint4_linear_498_486" x1="10.3707" y1="46.4326" x2="10.3707" y2="5.27805" gradientUnits="userSpaceOnUse">
<stop stop-color="#33B880"/>
<stop offset="1" stop-color="#00A770"/>
</linearGradient>
<linearGradient id="paint5_linear_498_486" x1="18.3218" y1="46.427" x2="18.3218" y2="5.29125" gradientUnits="userSpaceOnUse">
<stop stop-color="#33B880"/>
<stop offset="1" stop-color="#00A770"/>
</linearGradient>
<linearGradient id="paint6_linear_498_486" x1="25.1979" y1="46.4307" x2="25.1979" y2="5.29398" gradientUnits="userSpaceOnUse">
<stop stop-color="#33B880"/>
<stop offset="1" stop-color="#00A770"/>
</linearGradient>
</defs>
</svg>
