<svg width="218" height="44" viewBox="0 0 218 44" fill="none" xmlns="http://www.w3.org/2000/svg">
<path d="M0.0693359 0.642178H42.453V43.0269H0.0693359V0.642178Z" fill="url(#paint0_linear_998_233)" stroke="white" stroke-width="0.0272433"/>
<path fill-rule="evenodd" clip-rule="evenodd" d="M3.37443 1.22828C2.55314 1.22828 2.01642 1.92397 1.88983 2.89487C1.88983 2.89487 0.831055 8.45977 0.831055 20.2738C0.831055 32.094 1.88983 39.8277 1.88983 39.8277C1.98504 40.7641 2.55314 41.4944 3.37443 41.4944H40.0593C40.8806 41.4944 41.5324 40.8447 41.547 39.8277C41.547 39.8277 41.1401 30.7695 41.1401 21.9226C41.1401 13.0747 41.547 2.89487 41.547 2.89487C41.5659 1.99093 40.8806 1.22828 40.0593 1.22828H3.37443Z" fill="url(#paint1_linear_998_233)" stroke="white" stroke-width="0.0272433"/>
<path d="M24.0234 14.78C24.033 14.7842 24.0437 14.7873 24.0532 14.7905C24.0437 14.7863 24.033 14.7842 24.0234 14.78Z" fill="url(#paint2_linear_998_233)" stroke="white" stroke-width="0.0272433"/>
<path d="M24.4081 5.01054C25.6337 5.52367 30.5475 8.17994 31.1512 9.02909C28.6762 9.35539 23.828 10.6187 21.2164 11.8876L21.063 12.1985C23.9424 11.5627 27.9693 11.2322 30.7455 11.0802C29.7108 12.6001 29.0234 13.3252 27.445 15.0472L27.2986 15.3805C30.3035 13.5748 31.1512 13.4437 33.9204 11.8248C34.9662 13.3712 35.2186 16.938 35.2604 19.7629C36.1612 17.9726 37.2558 11.2155 36.8012 9.99544C38.6362 8.73632 38.8858 7.71978 38.8858 7.71978C37.2014 7.86618 36.2741 7.89409 35.365 8.17993C33.2121 6.85946 28.2761 5.11931 24.5517 4.69821L24.4081 5.01054Z" fill="url(#paint3_linear_998_233)" stroke="white" stroke-width="0.0363088"/>
<path d="M6.06085 25.9959C5.81824 28.2492 5.71925 29.8583 6.04275 31.6557C5.13083 31.9094 4.33325 31.9443 3.59842 32.258L3.45898 32.5662C4.62747 33.2871 5.57843 33.8379 6.89889 34.457C7.60584 35.974 8.33788 36.9989 9.5203 38.1646L9.66393 37.8536C9.45058 36.9891 9.17591 36.2793 9.28049 35.3326C10.7474 35.7635 12.0093 35.9879 13.6797 36.0395L13.8219 35.7272C12.3509 35.1541 10.8798 34.7065 9.69043 33.5841C10.0641 32.5425 10.4922 31.7268 11.1922 30.6963L11.34 30.377C10.0739 30.5681 8.9305 31.031 7.8373 31.2443C6.9728 29.7315 6.64094 27.6566 6.20589 25.6836L6.06085 25.9959Z" fill="url(#paint4_linear_998_233)" stroke="white" stroke-width="0.0363088"/>
<path d="M13.5623 15.7278C13.5623 15.7278 12.6155 15.6401 11.0511 15.686C9.7264 15.7472 7.75338 15.8659 6.79544 16.1447L6.656 16.4543C8.17865 16.5198 10.2688 16.9284 11.0692 17.7315C11.0692 17.7315 8.84796 19.7436 6.61139 24.0815C6.55552 24.1916 6.5166 24.2795 6.45801 24.3938C6.45801 24.3938 10.6202 20.4882 12.4245 19.5205C12.4245 19.5205 13.3657 22.6662 14.0225 24.2391L14.1661 23.9239C14.346 22.9144 14.7977 20.1717 15.566 18.4915C15.566 18.4915 15.8393 18.3269 17.1654 18.1986C18.5026 18.0773 20.3877 18.009 23.9671 18.6365L24.1135 18.3269C23.3034 17.8514 20.1047 16.478 16.694 15.9983C17.1654 14.6081 17.7664 13.5428 17.7664 13.5428C17.0357 13.6433 14.9539 14.6193 13.5623 15.7278Z" fill="url(#paint5_linear_998_233)" stroke="white" stroke-width="0.0363088"/>
<path d="M22.2774 35.016C22.2258 34.4053 22.1868 33.8852 22.1547 33.1978C21.431 34.1794 20.8133 34.9533 20.0171 35.8499C19.1749 36.0827 18.2128 36.0729 17.3358 36.0645C16.983 36.0604 16.6442 36.0583 16.3332 36.0688L16.1924 36.3811C17.0123 36.8022 17.8154 37.0601 18.6716 37.2372C17.9758 37.8689 17.0485 38.3527 16.396 38.7905L16.2495 39.1001C17.6523 38.7696 19.4928 38.1756 20.8649 37.3655C21.5788 37.3975 22.2453 37.3501 22.7347 37.2525C22.7347 37.2525 22.8839 36.9319 22.8839 36.9402C22.7919 36.6237 22.513 36.4313 22.4294 35.9879C23.715 34.9909 24.645 34.0804 25.7215 32.9983L25.8721 32.6874C24.8082 33.4195 23.5184 34.4248 22.2774 35.016Z" fill="url(#paint6_linear_998_233)" stroke="white" stroke-width="0.0363088"/>
<path d="M34.0621 11.5071C31.2985 13.133 30.4549 13.271 27.4459 15.0684C29.1958 13.1692 29.8051 12.3619 30.8886 10.7723C28.1152 10.9187 24.0896 11.252 21.2158 11.8892C23.7173 10.552 28.6813 9.0656 31.2985 8.71143C30.6919 7.87341 25.7754 5.21156 24.5525 4.69843C28.4442 5.00241 33.2018 6.45394 35.5081 7.86644C36.4158 7.58199 37.3584 7.56804 39.0484 7.41885C38.6189 8.15786 38.598 8.58315 36.9415 9.68191C37.4003 10.9103 36.3043 17.6605 35.4007 19.4495C35.3659 16.6245 35.1205 13.0591 34.0621 11.5071Z" fill="white"/>
<path d="M13.8217 35.7269C12.2349 35.1371 11.0902 34.4525 9.82965 33.2728C10.2075 32.234 10.637 31.4211 11.3411 30.3767C10.0486 30.5692 9.09621 30.7156 7.98351 30.9275C7.07856 29.3421 6.66722 27.8125 6.20429 25.6833C5.95888 27.9394 5.86546 29.5513 6.18337 31.3486C5.1613 31.6317 4.44181 31.8799 3.59961 32.2591C4.77506 32.9786 5.72881 33.5322 7.04091 34.1457C7.74925 35.6614 8.47711 36.6863 9.66372 37.8547C9.38624 36.8592 9.31373 36.0686 9.42807 35.0228C10.8963 35.4508 12.1541 35.6753 13.8217 35.7269Z" fill="white"/>
<path d="M17.9578 13.2738C17.4628 13.9166 16.8897 15.1144 16.7349 15.6707C20.8288 16.2257 24.1125 18.3284 24.1125 18.3284C20.5346 17.6939 18.6466 17.7734 17.3108 17.8919C15.9834 18.0174 15.7101 18.1736 15.7101 18.1736C14.7452 20.2889 14.1665 23.924 14.1665 23.924C13.5139 22.3539 12.5727 19.2068 12.5727 19.2068C10.7656 20.1731 6.61182 24.0815 6.61182 24.0815C8.8944 19.5066 11.2146 17.4248 11.2146 17.4248C10.4157 16.6161 8.3241 16.2145 6.79448 16.1448C7.58927 15.8227 9.62644 15.4434 11.1923 15.3709C12.7596 15.3277 13.7078 15.4155 13.7078 15.4155C15.1063 14.3126 17.2271 13.3812 17.9578 13.2738Z" fill="white"/>
<path d="M22.3014 32.8909C21.5791 33.8711 20.9572 34.6422 20.1541 35.536C18.7778 35.9236 17.6791 36.0686 16.3335 36.0686C17.159 36.4925 17.9579 36.7463 18.8183 36.9276C17.9579 37.7056 17.2315 38.262 16.3962 38.7891C17.7962 38.4614 19.6368 37.866 21.006 37.0559C21.7213 37.0837 22.392 37.0377 22.8828 36.9401C22.7546 36.526 22.6751 36.2165 22.5719 35.6754C23.8603 34.6771 24.7987 33.7721 25.8724 32.6873C24.7304 33.4821 23.7446 34.0775 22.4213 34.7022C22.3641 34.0956 22.3321 33.5769 22.3014 32.8909Z" fill="white"/>
<path d="M114.912 31.6101C114.635 31.4202 114.253 31.1855 113.783 31.1855C113.251 31.1855 112.739 31.5493 112.739 33.1457C112.739 34.5354 113.175 35.0161 113.687 35.0161C114.24 35.0161 114.667 34.5766 114.912 34.253V31.6101ZM117.009 35.7053C116.691 35.984 116.306 36.1421 115.924 36.1421C115.52 36.1421 115.147 35.9317 115.093 35.3013C114.635 35.7689 114.092 36.1215 113.315 36.1215C112.411 36.1215 111.527 35.3453 111.527 33.2074C111.527 31.0153 112.485 30.2279 113.527 30.2279C114.008 30.2279 114.411 30.3139 114.912 30.5477V28.2789C115.294 28.1966 115.678 28.1208 116.072 28.0254V34.845C116.072 35.0881 116.179 35.1751 116.328 35.1751C116.488 35.1751 116.753 35.0675 116.933 34.9404L117.009 35.7053Z" fill="black"/>
<path d="M119.387 28.2914L118.493 30.8557L117.715 30.6855L118.29 28.1212L119.387 28.2914Z" fill="black"/>
<path d="M120.262 34.2951V30.356H121.424V34.0931C121.424 34.8768 121.87 35.0461 122.392 35.0461C122.901 35.0461 123.349 34.8768 123.349 34.0931V30.356H124.509V34.2951C124.509 35.6241 123.466 36.1216 122.392 36.1216C121.306 36.1216 120.262 35.6241 120.262 34.2951Z" fill="black"/>
<path d="M126.887 30.9414C127.368 30.5785 127.93 30.2278 128.739 30.2278C129.752 30.2278 130.389 30.7824 130.389 32.0178V36.0139H129.229V32.3245C129.229 31.6344 128.868 31.336 128.303 31.336C127.867 31.336 127.441 31.5492 127.091 31.7812V36.0139H125.928V30.3559H126.887V30.9414Z" fill="black"/>
<path d="M135.261 30.9414C135.697 30.5785 136.283 30.2278 137.038 30.2278C137.678 30.2278 138.092 30.442 138.38 30.8881C138.954 30.5149 139.509 30.2278 140.188 30.2278C141.201 30.2278 141.775 30.7824 141.775 32.0178V36.0139H140.615V32.3245C140.615 31.6203 140.339 31.3154 139.764 31.3154C139.38 31.3154 138.933 31.5277 138.593 31.74C138.613 31.8569 138.625 32.0917 138.625 32.2507V36.0139H137.463V32.505C137.463 31.7073 137.315 31.3154 136.613 31.3154C136.209 31.3154 135.814 31.5156 135.473 31.74V36.0139H134.313V30.3559H135.261V30.9414Z" fill="black"/>
<path d="M144.093 33.188C144.093 34.7274 144.475 35.2071 145.24 35.2071C146.008 35.2071 146.381 34.7274 146.381 33.2067C146.381 31.6337 146.008 31.154 145.24 31.154C144.475 31.154 144.093 31.6337 144.093 33.188ZM147.574 33.2067C147.574 35.1753 146.764 36.1423 145.24 36.1423C143.75 36.1423 142.898 35.3016 142.898 33.188C142.898 31.1109 143.72 30.2281 145.24 30.2281C146.828 30.2281 147.574 31.0688 147.574 33.2067Z" fill="black"/>
<path d="M149.706 30.9414C150.185 30.5785 150.75 30.2278 151.557 30.2278C152.571 30.2278 153.209 30.7824 153.209 32.0178V36.0139H152.048V32.3245C152.048 31.6344 151.687 31.336 151.121 31.336C150.685 31.336 150.26 31.5492 149.907 31.7812V36.0139H148.749V30.3559H149.706V30.9414Z" fill="black"/>
<path d="M157.823 31.6101C157.546 31.4202 157.163 31.1855 156.693 31.1855C156.162 31.1855 155.65 31.5493 155.65 33.1457C155.65 34.5354 156.087 35.0161 156.598 35.0161C157.151 35.0161 157.577 34.5766 157.823 34.253V31.6101ZM159.92 35.7053C159.601 35.984 159.218 36.1421 158.833 36.1421C158.43 36.1421 158.056 35.9317 158.003 35.3013C157.546 35.7689 157.002 36.1215 156.225 36.1215C155.321 36.1215 154.438 35.3453 154.438 33.2074C154.438 31.0153 155.395 30.2279 156.439 30.2279C156.917 30.2279 157.322 30.3139 157.823 30.5477V28.2789C158.205 28.1966 158.589 28.1208 158.984 28.0254V34.845C158.984 35.0881 159.09 35.1751 159.238 35.1751C159.399 35.1751 159.665 35.0675 159.845 34.9404L159.92 35.7053Z" fill="black"/>
<path d="M163.703 32.5486C163.703 31.5806 163.405 31.2402 162.756 31.2402C162.107 31.2402 161.765 31.5489 161.713 32.5486H163.703ZM161.702 33.4445C161.722 34.8763 162.266 35.1092 163.085 35.1092C163.703 35.1092 164.235 34.7688 164.565 34.5237L164.746 35.5356C164.235 35.8555 163.703 36.1426 162.851 36.1426C161.446 36.1426 160.489 35.314 160.489 33.1883C160.489 31.0906 161.33 30.2274 162.777 30.2274C164.247 30.2274 164.822 31.1851 164.822 32.6019V33.4445H161.702Z" fill="black"/>
<path d="M171.587 31.7302C171.3 31.5375 170.926 31.3056 170.48 31.3056C169.85 31.3056 169.414 31.8265 169.414 33.2209C169.414 34.7369 169.894 35.0567 170.383 35.0567C170.905 35.0567 171.31 34.7275 171.587 34.4124V31.7302ZM171.587 35.5131C171.193 35.832 170.723 36.1425 170.117 36.1425C169.159 36.1425 168.202 35.5131 168.202 33.2069C168.202 31.0148 169.201 30.2273 170.246 30.2273C170.809 30.2273 171.288 30.4836 171.788 30.7931V30.3554H172.736V38.2074C172.353 38.2907 171.968 38.3664 171.587 38.4646V35.5131Z" fill="black"/>
<path d="M174.08 34.2951V30.356H175.242V34.0931C175.242 34.8768 175.69 35.0461 176.21 35.0461C176.722 35.0461 177.169 34.8768 177.169 34.0931V30.356H178.329V34.2951C178.329 35.6241 177.286 36.1216 176.21 36.1216C175.124 36.1216 174.08 35.6241 174.08 34.2951Z" fill="black"/>
<path d="M180.899 36.0134H179.738V30.3554H180.899V36.0134ZM180.899 29.5998H179.738V28.3887H180.899V29.5998Z" fill="black"/>
<path d="M187.63 32.2615C187.598 31.7069 187.363 31.2496 186.725 31.2496C185.981 31.2496 185.703 31.59 185.703 33.1883C185.703 34.7473 186.15 35.0886 186.958 35.0886C187.673 35.0886 188.12 34.8024 188.45 34.5658L188.673 35.5366C188.162 35.8545 187.608 36.1426 186.789 36.1426C185.32 36.1426 184.489 35.3346 184.489 33.177C184.489 30.9952 185.204 30.2283 186.766 30.2283C188.13 30.2283 188.653 31.0588 188.673 32.1539C188.321 32.1885 187.98 32.2194 187.63 32.2615Z" fill="black"/>
<path d="M190.955 28.0249V30.7726C191.381 30.5042 191.882 30.2283 192.594 30.2283C193.617 30.2283 194.254 30.7726 194.254 32.0071V36.0144H193.096V32.3241C193.096 31.6339 192.743 31.3674 192.158 31.3674C191.732 31.3674 191.305 31.5591 190.955 31.7517V36.0144H189.794V28.2803L190.955 28.0249Z" fill="black"/>
<path d="M198.437 33.444C197.362 33.444 196.596 33.7947 196.596 34.4905C196.596 34.9516 196.915 35.1208 197.277 35.1208C197.755 35.1208 198.16 34.7804 198.437 34.412V33.444ZM198.437 31.9318C198.437 31.3566 198.097 31.1444 197.616 31.1444C197.085 31.1444 196.701 31.4735 196.691 32.0599L195.67 31.9533C195.733 30.8124 196.618 30.2279 197.693 30.2279C198.852 30.2279 199.597 30.8254 199.597 31.8458V34.845C199.597 35.089 199.714 35.1639 199.863 35.1639C200.013 35.1639 200.278 35.0675 200.459 34.9404L200.545 35.7044C200.214 35.984 199.832 36.1421 199.449 36.1421C199.044 36.1421 198.661 35.9186 198.607 35.3004C198.097 35.855 197.478 36.1421 196.883 36.1421C196.116 36.1421 195.468 35.6642 195.468 34.6439C195.468 33.1981 196.978 32.6659 198.437 32.6351V31.9318Z" fill="black"/>
<path d="M202.34 30.9414C202.82 30.5785 203.384 30.2278 204.193 30.2278C205.205 30.2278 205.842 30.7824 205.842 32.0178V36.0139H204.682V32.3245C204.682 31.6344 204.32 31.336 203.755 31.336C203.319 31.336 202.894 31.5492 202.542 31.7812V36.0139H201.382V30.3559H202.34V30.9414Z" fill="black"/>
<path d="M208.301 32.3682C208.301 33.1659 208.653 33.6242 209.228 33.6242C209.78 33.6242 210.112 33.1659 210.112 32.3897C210.112 31.4947 209.78 31.101 209.228 31.101C208.653 31.101 208.301 31.5275 208.301 32.3682ZM208.642 36.0884C208.301 36.2474 207.875 36.5579 207.875 36.8983C207.875 37.3781 208.451 37.5474 209.099 37.5474C209.811 37.5474 210.579 37.2705 210.579 36.8132C210.579 36.1614 209.515 36.2175 208.642 36.0884ZM210.036 30.3556H211.91L211.867 31.2712L210.952 31.144C211.165 31.4639 211.281 31.8875 211.281 32.3897C211.281 33.6681 210.452 34.5136 209.228 34.5136C208.919 34.5136 208.716 34.5023 208.471 34.4013C208.301 34.4687 208.163 34.5996 208.163 34.7586C208.163 35.6124 211.91 34.5575 211.91 36.687C211.91 37.856 210.442 38.4639 209.047 38.4639C207.642 38.4639 206.704 37.9523 206.704 37.1116C206.704 36.5673 207.195 36.0576 207.791 35.8135C207.461 35.676 207.195 35.4506 207.195 35.0569C207.195 34.6632 207.514 34.2648 207.864 34.0403C207.397 33.6775 207.14 33.1538 207.14 32.3682C207.14 31.0598 207.971 30.2275 209.237 30.2275C209.535 30.2275 209.801 30.2715 210.036 30.3556Z" fill="black"/>
<path d="M215.746 32.5486C215.746 31.5806 215.448 31.2402 214.798 31.2402C214.149 31.2402 213.809 31.5489 213.756 32.5486H215.746ZM213.744 33.4445C213.766 34.8763 214.309 35.1092 215.129 35.1092C215.746 35.1092 216.278 34.7688 216.608 34.5237L216.789 35.5356C216.278 35.8555 215.746 36.1426 214.894 36.1426C213.489 36.1426 212.531 35.314 212.531 33.1883C212.531 31.0906 213.372 30.2274 214.819 30.2274C216.288 30.2274 216.863 31.1851 216.863 32.6019V33.4445H213.744Z" fill="black"/>
<path d="M63.0668 28.5568V34.9929H65.7368V36.0132H61.9165V28.5568H63.0668Z" fill="black"/>
<path d="M69.8184 33.444C68.7438 33.444 67.977 33.7938 67.977 34.4905C67.977 34.9516 68.2959 35.1208 68.6569 35.1208C69.1376 35.1208 69.5416 34.7804 69.8184 34.412V33.444ZM69.8184 31.9318C69.8184 31.3566 69.478 31.1444 68.9982 31.1444C68.4661 31.1444 68.0827 31.4735 68.0733 32.0599L67.0511 31.9514C67.1157 30.8124 67.9994 30.2279 69.073 30.2279C70.2327 30.2279 70.979 30.8245 70.979 31.8458V34.845C70.979 35.089 71.095 35.162 71.2465 35.162C71.3952 35.162 71.6608 35.0675 71.8412 34.9404L71.9273 35.7044C71.5972 35.984 71.2137 36.1421 70.8284 36.1421C70.4253 36.1421 70.0419 35.9186 69.9895 35.3004C69.478 35.855 68.8607 36.1421 68.2641 36.1421C67.4982 36.1421 66.8491 35.6642 66.8491 34.6439C66.8491 33.1981 68.3604 32.6659 69.8184 32.6332V31.9318Z" fill="black"/>
<path d="M76.1796 34.8239C76.4985 35.0456 76.8287 35.1756 77.1906 35.1756C77.8518 35.1756 78.3633 34.6631 78.3633 33.1228C78.3633 31.6199 77.8724 31.3057 77.3187 31.3057C76.8614 31.3057 76.5528 31.4834 76.1796 31.7069V34.8239ZM76.1796 28.025V30.7175C76.6369 30.4416 77.1158 30.2274 77.7237 30.2274C78.6392 30.2274 79.5641 30.7923 79.5641 33.1228C79.5641 35.4075 78.4157 36.1426 77.1382 36.1426C76.4031 36.1426 75.626 35.8648 75.019 35.4075V28.2794L76.1796 28.025Z" fill="black"/>
<path d="M83.5288 33.444C82.4543 33.444 81.6865 33.7938 81.6865 34.4905C81.6865 34.9516 82.0063 35.1208 82.3683 35.1208C82.8471 35.1208 83.252 34.7804 83.5288 34.412V33.444ZM83.5288 31.9318C83.5288 31.3566 83.1884 31.1444 82.7096 31.1444C82.1765 31.1444 81.7931 31.4735 81.7828 32.0599L80.7616 31.9514C80.8261 30.8124 81.7099 30.2279 82.7844 30.2279C83.9431 30.2279 84.6894 30.8245 84.6894 31.8458V34.845C84.6894 35.089 84.8063 35.162 84.956 35.162C85.1056 35.162 85.3703 35.0675 85.5508 34.9404L85.6368 35.7044C85.3067 35.984 84.9242 36.1421 84.5407 36.1421C84.1358 36.1421 83.7533 35.9186 83.7 35.3004C83.1884 35.855 82.5703 36.1421 81.9745 36.1421C81.2077 36.1421 80.5596 35.6642 80.5596 34.6439C80.5596 33.1981 82.0709 32.6659 83.5288 32.6332V31.9318Z" fill="black"/>
<path d="M87.2487 30.9414C87.7275 30.5785 88.2924 30.2278 89.1004 30.2278C90.1123 30.2278 90.751 30.7824 90.751 32.0178V36.0139H89.5904V32.3255C89.5904 31.6344 89.2285 31.336 88.6636 31.336C88.2278 31.336 87.8023 31.5492 87.4516 31.7812V36.0139H86.291V30.3559H87.2487V30.9414Z" fill="black"/>
<path d="M95.258 31.7295C94.97 31.5378 94.5978 31.3049 94.1517 31.3049C93.5214 31.3049 93.0856 31.8268 93.0856 33.2202C93.0856 34.7371 93.5653 35.057 94.0544 35.057C94.5763 35.057 94.9803 34.7278 95.258 34.4117V31.7295ZM95.258 35.5133C94.8643 35.8322 94.3948 36.1427 93.7888 36.1427C92.8312 36.1427 91.8735 35.5133 91.8735 33.2071C91.8735 31.015 92.8733 30.2276 93.917 30.2276C94.48 30.2276 94.9597 30.4838 95.46 30.7934V30.3557H96.4083V38.2077C96.024 38.2909 95.6405 38.3666 95.258 38.4648V35.5133Z" fill="black"/>
<path d="M97.7529 34.2951V30.356H98.9135V34.0931C98.9135 34.8768 99.3605 35.0461 99.8815 35.0461C100.393 35.0461 100.84 34.8768 100.84 34.0931V30.356H102V34.2951C102 35.6241 100.958 36.1216 99.8815 36.1216C98.7966 36.1216 97.7529 35.6241 97.7529 34.2951Z" fill="black"/>
<path d="M106.274 32.5502C106.274 31.5804 105.976 31.24 105.326 31.24C104.677 31.24 104.336 31.5495 104.283 32.5502H106.274ZM104.272 33.4443C104.292 34.8761 104.836 35.1089 105.656 35.1089C106.274 35.1089 106.806 34.7685 107.136 34.5235L107.316 35.5354C106.806 35.8552 106.274 36.1423 105.421 36.1423C104.016 36.1423 103.06 35.3147 103.06 33.188C103.06 31.0904 103.9 30.2272 105.347 30.2272C106.816 30.2272 107.391 31.1857 107.391 32.6026V33.4443H104.272Z" fill="black"/>
<path d="M67.0588 8.28713C69.9947 8.31166 71.0714 8.90909 71.0714 10.5074C71.0714 10.9488 70.9354 11.3412 70.6769 11.6399C70.1129 12.3164 69.0183 12.6664 67.6195 12.5784H67.5493L66.7278 14.7162H67.5493C69.1699 14.6694 70.5788 15.181 71.3033 16.066C71.6388 16.4684 71.8059 16.9543 71.8059 17.4481C71.8059 19.1189 70.3336 19.9838 67.43 19.9838C66.9407 19.9838 66.1448 19.9838 65.65 19.9671C65.5675 17.7357 65.5296 14.7162 65.5296 13.8067C65.5296 12.7534 65.5987 10.406 65.65 8.39971C65.9866 8.33172 66.5405 8.28713 67.0588 8.28713ZM61.6184 6.75009C61.7098 8.33618 61.8023 12.3443 61.8023 13.8067C61.8023 15.152 61.8001 19.6606 61.5649 21.6056L61.5493 21.7583H68.5959C72.0567 21.7583 75.7193 20.6816 75.7193 17.6064C75.7193 15.6815 74.3261 14.2581 71.719 13.4812C73.6529 12.9607 74.9413 11.6399 74.9413 10.1285C74.9413 7.61837 72.0567 6.6743 69.3471 6.60742H61.5783L61.6184 6.75009Z" fill="black"/>
<path d="M91.9788 6.60742H88.5503L88.6896 10.4283C88.7565 12.3164 88.82 14.2592 88.9538 16.144C88.7309 15.5533 88.5247 15.249 87.4836 13.7331C87.4792 13.6796 83.9169 8.19908 82.6797 6.64197L82.644 6.60742H78.6671V6.74897C78.793 8.33506 78.8443 12.3443 78.8443 13.8056C78.8443 15.1531 78.8443 19.6606 78.6537 21.6056L78.6191 21.7583H82.1647V21.6056C81.963 17.9084 81.963 14.1767 81.963 10.5565C82.0867 10.9956 82.2438 11.3724 82.8012 12.1994C82.8469 12.2964 88.9538 21.1865 89.2492 21.6948L89.2815 21.7583H92.1204L92.1171 21.6056C91.8997 19.6606 91.8808 15.1531 91.8808 13.8056C91.8808 12.3443 91.9788 8.33506 92.0714 6.74897L92.1171 6.60742H91.9788Z" fill="black"/>
<path d="M101.277 8.43587C103.253 8.4002 104.632 8.79923 105.285 9.6285C105.586 9.98629 105.753 10.4567 105.753 10.995C105.753 13.1886 103.285 13.6645 101.224 13.6645L100.387 13.6166C100.387 13.6166 100.19 13.5965 100.043 13.5809C100.028 13.0749 100.028 12.4072 100.028 11.6571C100.028 10.7041 100.028 9.57277 100.073 8.52392C100.364 8.48491 100.803 8.43587 101.277 8.43587ZM96.0782 6.74946C96.2176 8.33444 96.27 12.3437 96.27 13.8049C96.27 15.1525 96.27 19.66 96.0615 21.605V21.7588H100.279L100.26 21.605C100.116 20.2073 100.043 17.5389 100.028 15.4991C100.227 15.5103 100.824 15.5404 100.824 15.5404L101.422 15.5538C106.969 15.5538 109.666 14.0847 109.666 10.995C109.666 7.48065 105.881 6.67367 102.726 6.60679H96.0782V6.74946Z" fill="black"/>
<path d="M122.907 8.43587C124.887 8.4002 126.264 8.79923 126.929 9.6285C127.232 9.98629 127.386 10.4567 127.386 10.995C127.386 13.1886 124.921 13.6645 122.887 13.6645L122.052 13.6166C122.052 13.6166 121.831 13.5965 121.701 13.5809C121.678 13.0749 121.678 12.4028 121.678 11.6571C121.678 10.6941 121.678 9.57277 121.717 8.52392C121.981 8.48491 122.438 8.43587 122.907 8.43587ZM117.716 6.74946C117.849 8.33444 117.926 12.3437 117.926 13.8049C117.926 15.1525 117.912 19.66 117.693 21.605V21.7588H121.914L121.888 21.605C121.755 20.2073 121.678 17.5389 121.678 15.4991C121.874 15.5103 122.438 15.5404 122.438 15.5404L123.049 15.5538C128.593 15.5538 131.316 14.0847 131.316 10.995C131.316 7.48065 127.509 6.67367 124.343 6.60679H117.716V6.74946Z" fill="black"/>
<path d="M137.982 11.0699C138.318 11.7911 139.188 13.8052 140.168 16.2094C140.017 16.2161 139.827 16.2161 139.827 16.2161L137.982 16.2417C137.982 16.2417 136.072 16.2161 135.754 16.2094C136.55 14.2878 137.34 12.5512 137.982 11.0699ZM136.956 6.60704H136.901L136.871 6.68395C136.087 8.8396 131.028 19.8787 130.227 21.5695L130.16 21.759H133.753L133.783 21.6766C134.099 20.6355 134.524 19.4641 134.986 18.2135C135.13 18.2135 137.982 18.1711 137.982 18.1711L140.464 18.1889C140.464 18.1889 140.864 18.2135 140.983 18.2135C141.623 19.843 142.112 21.0702 142.326 21.6944L142.367 21.759H146.529L139.805 6.60704H139.721H136.956Z" fill="black"/>
<path d="M148.22 6.74946C148.341 8.33555 148.402 12.3437 148.402 13.8061C148.402 15.1525 148.402 19.6611 148.171 21.6061V21.7588H152.414L152.396 21.6061C152.172 19.6477 152.156 15.1525 152.156 13.8061C152.156 12.7527 152.188 10.4054 152.293 8.50832C152.615 8.48491 153.107 8.43587 153.439 8.43587C155.4 8.39909 156.787 8.8048 157.437 9.62961C157.747 9.98517 157.889 10.4656 157.889 10.995C157.889 12.7449 156.256 13.6322 154.733 13.7113C154.224 13.7325 153.845 13.6667 153.845 13.6667L153.548 13.6155L153.711 13.893C155.218 16.0899 157.469 19.8952 158.399 21.6941L158.428 21.7588H162.959L162.846 21.5537C162.661 21.2996 159.71 16.9548 158.456 15.0979C158.456 15.0979 158.399 15.0444 158.346 14.9853C160.669 14.2887 161.792 12.989 161.792 10.995C161.792 7.50517 158.008 6.6759 154.813 6.60791H148.208L148.22 6.74946Z" fill="black"/>
<path d="M168.957 6.60742H164.918L164.94 6.74897C165.045 8.33506 165.126 12.3443 165.126 13.8056C165.126 15.1464 165.106 19.6483 164.918 21.6056L164.902 21.7583H169.09L169.068 21.6056C168.907 19.6483 168.856 15.1464 168.856 13.8056C168.856 12.3443 168.957 8.33506 169.068 6.74897V6.60742H168.957Z" fill="black"/>
<path d="M178.346 8.28713C181.305 8.31166 182.381 8.90909 182.381 10.5074C182.381 10.9488 182.246 11.3412 181.976 11.6399C181.443 12.3164 180.303 12.6664 178.917 12.5784H178.849L178.034 14.7162H178.849C180.476 14.6694 181.871 15.181 182.595 16.066C182.948 16.4684 183.115 16.9543 183.115 17.4481C183.115 19.1189 181.636 19.9838 178.717 19.9838C178.248 19.9838 177.459 19.9838 176.964 19.9671C176.842 17.7357 176.842 14.7162 176.842 13.8067C176.842 12.7534 176.881 10.406 176.964 8.39971C177.283 8.33172 177.839 8.28713 178.346 8.28713ZM172.908 6.75009C173.029 8.33618 173.104 12.3443 173.104 13.8067C173.104 15.152 173.104 19.6606 172.89 21.6056L172.856 21.7583H179.912C183.363 21.7583 187.035 20.6816 187.035 17.6064C187.035 15.6815 185.639 14.2581 183.009 13.4812C184.947 12.9607 186.251 11.6399 186.251 10.1285C186.251 7.61837 183.363 6.6743 180.675 6.60742H172.89L172.908 6.75009Z" fill="black"/>
<path d="M195.666 11.0616C196.007 11.7672 196.87 13.7846 197.851 16.1933C197.703 16.1933 197.519 16.21 197.519 16.21L195.666 16.2345C195.666 16.2345 193.735 16.1933 193.447 16.1933C194.233 14.2583 195.002 12.5352 195.666 11.0616ZM197.411 6.60766H194.573L194.555 6.67565C193.708 8.96952 188.365 20.5904 187.915 21.5546L187.837 21.7585H191.448L191.47 21.6683C191.771 20.6306 192.191 19.4647 192.66 18.1896C192.775 18.1896 195.645 18.1439 195.645 18.1439L198.13 18.184C198.13 18.184 198.562 18.1896 198.657 18.1896C199.31 19.818 199.794 21.0563 200.006 21.6683L200.043 21.7585H204.221L197.502 6.60766H197.411Z" fill="black"/>
<path d="M205.404 10.5261C205.404 13.1878 208.069 14.2589 210.432 15.2375C212.268 15.9698 214.191 16.7411 214.191 18.0107C214.191 18.3941 214.117 18.7162 213.9 18.9447C213.458 19.4641 212.563 19.6837 211.144 19.6057C209.736 19.5488 208.15 19.1052 206.363 18.2826L205.666 17.946V18.5346V21.2475L206.144 21.3679L206.42 21.4158C207.301 21.6343 209.003 22.0344 210.694 22.0344C215.142 22.0344 217.798 20.2611 217.798 17.3263C217.798 14.5721 215.057 13.4987 212.637 12.5346C210.85 11.8112 209.003 11.0945 209.003 9.91305C209.003 9.57309 209.003 8.57886 211.308 8.57886C213.007 8.57886 214.657 9.26881 215.596 9.62882L216.452 9.9855L216.445 9.41816V6.674L215.596 6.51906C214.731 6.34407 213.29 6.05873 211.804 6.05873C207.966 6.05873 205.404 7.87109 205.404 10.5261Z" fill="black"/>
<defs>
<linearGradient id="paint0_linear_998_233" x1="21.261" y1="0.642218" x2="21.261" y2="43.0266" gradientUnits="userSpaceOnUse">
<stop stop-color="#007A50"/>
<stop offset="0.600006" stop-color="#7FD2A4"/>
<stop offset="1" stop-color="#00A770"/>
</linearGradient>
<linearGradient id="paint1_linear_998_233" x1="21.1897" y1="-10.0461" x2="21.1897" y2="40.2344" gradientUnits="userSpaceOnUse">
<stop stop-color="#00965E"/>
<stop offset="0.300003" stop-color="#8AC9AD"/>
<stop offset="0.550003" stop-color="#00965E"/>
<stop offset="0.835159" stop-color="#007749"/>
<stop offset="1" stop-color="#009F70"/>
</linearGradient>
<linearGradient id="paint2_linear_998_233" x1="24.0231" y1="14.7854" x2="24.0541" y2="14.7854" gradientUnits="userSpaceOnUse">
<stop stop-color="#F1471D"/>
<stop offset="1" stop-color="#FAB10B"/>
</linearGradient>
<linearGradient id="paint3_linear_998_233" x1="29.9735" y1="38.8002" x2="29.9735" y2="4.41711" gradientUnits="userSpaceOnUse">
<stop stop-color="#33B880"/>
<stop offset="1" stop-color="#00A770"/>
</linearGradient>
<linearGradient id="paint4_linear_998_233" x1="8.64083" y1="38.8023" x2="8.64083" y2="4.41052" gradientUnits="userSpaceOnUse">
<stop stop-color="#33B880"/>
<stop offset="1" stop-color="#00A770"/>
</linearGradient>
<linearGradient id="paint5_linear_998_233" x1="15.2857" y1="38.7977" x2="15.2857" y2="4.42167" gradientUnits="userSpaceOnUse">
<stop stop-color="#33B880"/>
<stop offset="1" stop-color="#00A770"/>
</linearGradient>
<linearGradient id="paint6_linear_998_233" x1="21.0319" y1="38.8009" x2="21.0319" y2="4.42394" gradientUnits="userSpaceOnUse">
<stop stop-color="#33B880"/>
<stop offset="1" stop-color="#00A770"/>
</linearGradient>
</defs>
</svg>
