<svg width="336" height="65" viewBox="0 0 336 65" fill="none" xmlns="http://www.w3.org/2000/svg">
<path d="M46.465 63.8708C52.0283 67.7123 63.0361 61.4352 71.0494 49.8286C79.0637 38.2222 81.0504 25.7129 75.4871 21.8711C69.9224 18.0294 59.1922 23.9858 51.1782 35.5927C43.1647 47.1991 40.9026 60.029 46.465 63.8708Z" fill="#EA5B0F"/>
<path d="M32.5877 63.8708C27.0246 67.7123 16.0168 61.4352 8.00324 49.8286C-0.0110054 38.2222 -1.99753 25.7129 3.56555 21.8711C9.1303 18.0294 19.8604 23.9858 27.8745 35.5927C35.8877 47.1991 38.1498 60.029 32.5877 63.8708Z" fill="#0055A4"/>
<path d="M39.5217 24.4493C53.6398 24.4493 65.0848 18.9761 65.0848 12.2247C65.0848 5.47316 53.6398 0 39.5217 0C25.4035 0 13.9585 5.47316 13.9585 12.2247C13.9585 18.9761 25.4035 24.4493 39.5217 24.4493Z" fill="#009DCC"/>
<path d="M153.06 20.1334C150.045 16.6196 145.694 15.6991 142.134 15.6956C138.573 15.6926 134.221 16.6196 131.208 20.1334C128.2 23.6364 127.767 28.2582 127.767 32.7635C127.767 37.2712 128.2 42.5171 131.208 46.022C134.221 49.5346 138.573 50.4628 142.134 50.458C145.694 50.4544 150.045 49.5346 153.06 46.022C156.068 42.5171 156.501 37.5471 156.501 32.7635C156.501 27.9823 156.068 23.637 153.06 20.1334ZM149.17 42.4508C147.467 44.6088 144.878 45.4516 142.134 45.4516C139.389 45.4516 136.8 44.6088 135.097 42.4508C133.379 40.2731 133.174 36.6506 133.174 32.7641C133.174 28.8794 133.379 25.8822 135.097 23.7039C136.8 21.5453 139.389 20.7097 142.134 20.7097C144.878 20.7097 147.467 21.5447 149.17 23.7039C150.889 25.8816 151.094 28.883 151.094 32.7641C151.094 36.6464 150.889 40.2725 149.17 42.4508Z" fill="#009DCC"/>
<path d="M186.226 19.1041C186.226 17.6545 185.051 16.4802 183.603 16.4802C182.153 16.4802 180.979 17.6545 180.979 19.1041L180.975 43.7563C180.975 44.2019 180.649 44.6122 180.31 44.7502C179.972 44.8876 178.518 45.4562 173.566 45.4562C171.081 45.4562 168.449 44.4653 166.837 42.3342C165.213 40.1858 165.017 36.4444 165.017 32.614L165.016 19.1041C165.016 17.6545 163.842 16.4802 162.393 16.4802C160.944 16.4802 159.769 17.6545 159.769 19.1041L159.767 32.6039C159.767 37.3212 160.065 42.3897 163.13 46.0989C165.808 49.3385 170.291 50.4751 173.566 50.4751C175.643 50.4751 180.19 50.6191 184.286 49.0954C185.414 48.7179 186.218 47.2528 186.218 45.9991L186.226 19.1041Z" fill="#009DCC"/>
<path d="M277.225 19.1041C277.225 17.6545 276.05 16.4802 274.601 16.4802C273.152 16.4802 271.978 17.6545 271.978 19.1041L271.974 43.7563C271.974 44.2019 271.647 44.6122 271.308 44.7502C270.97 44.8876 269.516 45.4562 264.563 45.4562C262.079 45.4562 259.447 44.4653 257.835 42.3342C256.21 40.1858 256.015 36.4444 256.015 32.614L256.014 19.1041C256.014 17.6545 254.84 16.4802 253.391 16.4802C251.942 16.4802 250.767 17.6545 250.767 19.1041L250.766 32.6039C250.766 37.3212 251.063 42.3897 254.128 46.0989C256.805 49.3385 261.289 50.4751 264.563 50.4751C266.641 50.4751 271.187 50.6191 275.284 49.0954C276.412 48.7179 277.216 47.2528 277.216 45.9991L277.225 19.1041Z" fill="#009DCC"/>
<path d="M246.696 20.4764C246.696 19.3296 246.019 18.3435 245.042 17.8919C240.609 15.9872 235.582 15.7083 233.308 15.7083C229.846 15.7083 225.395 16.6078 222.382 20.075C219.373 23.5309 218.941 28.8192 218.941 33.5365C218.941 38.2539 219.373 42.6027 222.382 46.0598C225.395 49.5264 229.737 50.4629 233.308 50.4629C236.595 50.4629 240.221 48.9906 241.368 47.7429V52.2506C241.368 54.6702 240.791 56.5803 239.627 57.9206C238.477 59.2519 236.844 59.9245 234.774 59.9245C233.408 59.9245 231.994 59.7447 230.571 59.3953C229.156 59.0453 226.756 57.9027 225.906 57.4935C225.055 57.0826 223.48 57.3986 222.766 58.5495C222.051 59.7011 222.526 61.4189 223.652 62.0382C224.777 62.6564 226.207 63.5028 229.204 64.2751C231.118 64.7672 232.992 65.0002 234.774 65.0002C236.73 65.0002 238.477 64.6854 239.965 64.026C241.454 63.3696 242.711 62.4635 243.698 61.3311C244.682 60.2052 245.437 58.8332 245.941 57.2636C246.442 55.7041 246.695 54.0149 246.695 52.2494L246.696 20.4764ZM241.299 39.5697C241.299 41.4601 240.503 42.7323 239.609 43.5727C238.507 44.606 236.054 45.4535 233.308 45.4535C230.563 45.4535 227.975 44.6645 226.272 42.534C224.554 40.3862 224.348 37.3639 224.348 33.5353C224.348 29.7044 224.553 25.745 226.272 23.5972C227.976 21.4673 230.62 20.7045 233.308 20.7045C235.392 20.7045 238.232 21.1561 240.599 21.9917C241.007 22.132 241.299 22.5215 241.299 22.9772V39.5697Z" fill="#009DCC"/>
<path d="M331.173 22.7093C331.358 22.7571 331.554 22.7822 331.755 22.781C333.057 22.781 334.113 21.7226 334.113 20.4169C334.114 20.3865 334.111 20.3572 334.111 20.3297C334.111 19.5688 333.631 18.4447 332.705 17.8695C330.421 16.2879 326.936 15.6948 323.903 15.6948C320.865 15.6948 317.654 16.4629 315.658 17.9758C313.64 19.5097 312.616 21.6706 312.616 24.402C312.616 29.4054 316.315 33.0411 323.614 34.5474C326.837 35.2236 330.351 36.8816 330.351 39.7534C330.351 41.203 329.661 42.7786 328.486 43.6273C326.607 44.9951 323.89 45.2663 322.554 45.2758C320.792 45.2908 318.027 44.9079 315.696 43.6016C315.596 43.5312 315.486 43.472 315.375 43.4111C315.015 43.2146 314.603 43.1017 314.164 43.1017C312.767 43.1017 311.636 44.2366 311.636 45.6384C311.636 46.2345 311.842 46.7822 312.184 47.214C312.394 47.4995 312.653 47.7522 312.965 47.9481C316.115 50.127 320.603 50.4567 322.642 50.4567C324.569 50.4567 326.438 50.0583 328.502 49.4198C329.984 48.9587 331.27 48.2873 332.326 47.4225C333.379 46.554 334.217 45.4926 334.815 44.2694C335.413 43.0414 335.839 41.2185 335.839 39.7528C335.839 33.0417 329.88 30.388 324.679 29.375C320.262 28.4575 318.022 26.5618 318.022 24.4014C318.022 23.7755 318.178 23.2295 318.485 22.7756C318.801 22.3145 319.206 21.9436 319.692 21.6754C320.192 21.4013 320.777 21.1976 321.429 21.0704C322.097 20.9419 322.842 20.8733 323.902 20.8768C325.4 20.8828 328.582 21.5589 329.957 22.2375C330.343 22.4298 330.754 22.6066 331.173 22.7093Z" fill="#009DCC"/>
<path d="M120.685 20.0741C117.672 16.6068 113.331 15.696 109.759 15.696C106.474 15.696 102.847 17.1414 101.699 18.3897L101.7 2.6615C101.7 1.19159 100.508 0 99.0398 0C97.5705 0 96.3789 1.19159 96.3789 2.6615L96.3723 45.6037C96.3723 46.8705 97.1625 47.9528 98.2776 48.3829C102.646 50.1932 107.528 50.4566 109.759 50.4566C113.222 50.4566 117.671 49.5691 120.685 46.1024C123.694 42.6442 124.126 37.8026 124.126 33.0847C124.127 28.3655 123.694 23.5299 120.685 20.0741ZM116.796 42.5779C115.094 44.7066 112.448 45.4598 109.759 45.4598C107.661 45.4598 104.798 45.016 102.42 44.1702H102.422C102.044 44.0466 101.77 43.6906 101.77 43.2719V26.5611C101.77 24.6719 102.566 23.3979 103.458 22.5606C104.56 21.5255 107.015 20.7156 109.759 20.7156C112.505 20.7156 115.094 21.4675 116.796 23.5974C118.515 25.7453 118.72 29.2537 118.72 33.0841C118.72 36.9145 118.515 40.4289 116.796 42.5779Z" fill="#009DCC"/>
<path d="M204.836 41.4443C204.689 41.7566 204.376 41.9543 204.038 41.9526C203.627 41.9496 203.33 41.5213 203.219 41.3618C202.384 40.1673 195.865 22.0965 194.452 18.1718C193.959 16.8404 192.46 16.1535 191.132 16.6433C189.808 17.1319 189.116 18.6233 189.6 19.9535L198.074 42.4262C199.067 45.0847 200.5 46.5922 202.601 47.346L197.45 60.9885C196.94 62.333 197.616 63.8358 198.962 64.3459C200.307 64.8565 201.81 64.1816 202.32 62.8353L218.548 19.972C219.041 18.6466 218.364 17.154 217.053 16.6511C215.73 16.1446 214.216 16.8195 213.709 18.1526L204.836 41.4443Z" fill="#009DCC"/>
<path d="M306.653 20.0743C302.879 15.6514 296.816 15.6897 295.576 15.6962C294.428 15.7034 288.431 15.7327 284.8 20.0743C283.155 22.0411 282.504 24.1955 282.053 26.0961C281.487 28.487 281.412 30.6922 281.412 33.0574C281.412 37.5054 281.793 42.6229 284.8 46.0806C287.813 49.546 292.166 50.4574 295.726 50.4574C299.66 50.4574 303.942 50.1313 307.091 47.959C307.704 47.578 308.127 46.9598 308.337 46.3649C308.44 46.0943 308.496 45.8016 308.496 45.4952C308.496 44.143 307.401 43.0488 306.05 43.0488C305.735 43.0488 305.439 43.1175 305.159 43.2166C305 43.2727 304.8 43.3928 304.359 43.6275C302.032 44.929 299.812 45.5323 295.726 45.4391C292.981 45.4391 290.393 44.6853 288.69 42.5554C287.099 40.5677 286.858 37.4039 286.824 33.905H307.327C308.862 33.905 310.107 32.6602 310.107 31.1264C310.108 23.6454 306.653 20.0743 306.653 20.0743ZM286.958 29.1297C286.946 28.5695 286.876 24.662 290.076 22.2705C292.03 20.8107 294.167 20.7128 295.471 20.7128C296.775 20.7128 299.24 20.6614 301.405 22.3046C304.606 24.7349 304.637 28.5886 304.626 29.1303L286.958 29.1297Z" fill="#009DCC"/>
<path d="M254.253 64.5094H253.628C253.4 64.5094 253.216 64.3457 253.216 64.1403V57.8252H251.179C250.952 57.8252 250.767 57.6603 250.767 57.4573V56.8683C250.767 56.6659 250.952 56.5022 251.179 56.5022H256.711C256.939 56.5022 257.125 56.6659 257.125 56.8683V57.4573C257.125 57.6603 256.939 57.8252 256.711 57.8252H254.665V64.1403C254.666 64.3457 254.48 64.5094 254.253 64.5094Z" fill="#009DCC"/>
<path d="M281.973 64.5092H276.986C276.756 64.5092 276.574 64.3456 276.574 64.1401V56.8676C276.574 56.6651 276.756 56.5015 276.986 56.5015H277.609C277.84 56.5015 278.025 56.6651 278.025 56.8676V63.1839H281.973C282.201 63.1839 282.388 63.3475 282.388 63.5524V64.1395C282.389 64.3456 282.201 64.5092 281.973 64.5092Z" fill="#009DCC"/>
<path d="M293.847 64.5092H288.862C288.634 64.5092 288.449 64.3456 288.449 64.1401V56.8676C288.449 56.6651 288.634 56.5015 288.862 56.5015H293.847C294.077 56.5015 294.263 56.6651 294.263 56.8676V57.4565C294.263 57.6596 294.077 57.8244 293.847 57.8244H289.899V59.8241H293.2C293.431 59.8241 293.613 59.9872 293.613 60.1861V60.7481C293.613 60.9482 293.431 61.1113 293.2 61.1113H289.899V63.1833H293.847C294.077 63.1833 294.263 63.3469 294.263 63.5518V64.1389C294.263 64.3456 294.077 64.5092 293.847 64.5092Z" fill="#009DCC"/>
<path d="M269.015 64.5092H264.028C263.8 64.5092 263.617 64.3456 263.617 64.1401V56.8676C263.617 56.6651 263.801 56.5015 264.028 56.5015H269.015C269.244 56.5015 269.43 56.6651 269.43 56.8676V57.4565C269.43 57.6596 269.244 57.8244 269.015 57.8244H265.066V59.8241H268.367C268.598 59.8241 268.78 59.9872 268.78 60.1861V60.7481C268.78 60.9482 268.598 61.1113 268.367 61.1113H265.066V63.1833H269.015C269.244 63.1833 269.43 63.3469 269.43 63.5518V64.1389C269.43 64.3456 269.245 64.5092 269.015 64.5092Z" fill="#009DCC"/>
<path d="M333.608 64.5092H332.985C332.756 64.5092 332.567 64.3456 332.567 64.1401V60.2082L330.87 64.2775C330.804 64.4083 330.651 64.4937 330.488 64.4937H329.869C329.705 64.4937 329.558 64.4089 329.489 64.2775L327.741 60.1783V64.1401C327.741 64.3456 327.554 64.5092 327.33 64.5092H326.704C326.477 64.5092 326.292 64.3456 326.292 64.1401V56.8676C326.292 56.6651 326.478 56.5015 326.704 56.5015H327.33C327.488 56.5015 327.637 56.5839 327.703 56.7159L330.185 62.5866L332.606 56.7195C332.67 56.5869 332.82 56.5015 332.984 56.5015H333.608C333.837 56.5015 334.02 56.6651 334.02 56.8676V64.1401C334.021 64.3456 333.837 64.5092 333.608 64.5092Z" fill="#009DCC"/>
<path d="M319.3 57.2185C318.666 56.6564 317.787 56.3745 316.907 56.3745C316.029 56.3745 315.149 56.6564 314.513 57.2185C313.612 58.0158 313.477 58.8437 313.477 60.4928C313.477 62.1448 313.613 62.9703 314.513 63.7659C315.153 64.3297 315.999 64.6385 316.907 64.6385C317.816 64.6385 318.663 64.3297 319.3 63.7659C320.203 62.9703 320.337 62.1443 320.337 60.4928C320.338 58.8437 320.203 58.0158 319.3 57.2185ZM318.195 62.9285C317.862 63.2265 317.385 63.3764 316.908 63.3764C316.431 63.3764 315.955 63.2265 315.618 62.9285C315.147 62.5098 314.958 62.0684 314.958 60.4934C314.958 58.9195 315.147 58.4746 315.618 58.0606C315.956 57.7626 316.413 57.5936 316.908 57.5936C317.401 57.5936 317.862 57.7626 318.195 58.0606C318.67 58.4746 318.859 58.9195 318.859 60.4934C318.859 62.0678 318.67 62.5098 318.195 62.9285Z" fill="#009DCC"/>
<path d="M307.013 62.0829L306.368 61.9819C306.176 61.9521 305.985 62.0476 305.914 62.2101C305.807 62.5434 305.647 62.7518 305.42 62.9477C305.085 63.2458 304.625 63.413 304.131 63.413C303.637 63.413 303.178 63.2458 302.844 62.9477C302.37 62.5332 302.181 62.0877 302.181 60.5138C302.181 58.9412 302.37 58.4813 302.844 58.0662C303.178 57.7675 303.637 57.5991 304.131 57.5991C304.625 57.5991 305.086 57.7675 305.42 58.0662C305.647 58.2609 305.807 58.4693 305.914 58.8014C305.985 58.9663 306.176 59.0606 306.368 59.0314L307.013 58.9304C307.138 58.9095 307.241 58.842 307.307 58.7459C307.375 58.6515 307.384 58.5296 307.344 58.4251C307.195 57.9664 306.942 57.5913 306.523 57.224C305.89 56.6625 305.014 56.3806 304.131 56.3806C303.252 56.3806 302.372 56.6625 301.739 57.224C300.836 58.022 300.701 58.8498 300.701 60.4977C300.701 62.1486 300.837 62.9919 301.739 63.7851C302.372 64.3502 303.252 64.6297 304.131 64.6297C305.014 64.6297 305.89 64.3502 306.523 63.7851C306.942 63.4208 307.195 63.0463 307.344 62.587C307.384 62.4825 307.376 62.3612 307.307 62.2645C307.241 62.1707 307.138 62.1038 307.013 62.0829Z" fill="#009DCC"/>
</svg>
