<svg width="259" height="51" viewBox="0 0 259 51" fill="none" xmlns="http://www.w3.org/2000/svg">
<path d="M36.0686 50.0678C40.3438 53.0199 48.803 48.1962 54.961 39.2768C61.1198 30.3576 62.6465 20.7445 58.3713 17.7923C54.0949 14.84 45.8491 19.4173 39.6906 28.3369C33.5324 37.2561 31.7941 47.1155 36.0686 50.0678Z" fill="#EA5B0F"/>
<path d="M25.4043 50.0678C21.1293 53.0199 12.6701 48.1962 6.51189 39.2768C0.353163 30.3576 -1.17342 20.7445 3.10165 17.7923C7.378 14.84 15.6238 19.4173 21.7824 28.3369C27.9403 37.2561 29.6787 47.1155 25.4043 50.0678Z" fill="#0055A4"/>
<path d="M30.7327 19.774C41.5821 19.774 50.3773 15.568 50.3773 10.3797C50.3773 5.19132 41.5821 0.985352 30.7327 0.985352C19.8833 0.985352 11.0881 5.19132 11.0881 10.3797C11.0881 15.568 19.8833 19.774 30.7327 19.774Z" fill="#009DCC"/>
<path d="M117.984 16.4572C115.667 13.7569 112.324 13.0496 109.588 13.0469C106.851 13.0446 103.507 13.7569 101.191 16.4572C98.8796 19.1492 98.5469 22.7009 98.5469 26.1631C98.5469 29.6271 98.8796 33.6585 101.191 36.3519C103.507 39.0512 106.851 39.7645 109.588 39.7608C112.324 39.7581 115.667 39.0512 117.984 36.3519C120.296 33.6585 120.628 29.8392 120.628 26.1631C120.628 22.4889 120.296 19.1497 117.984 16.4572ZM114.995 33.6075C113.686 35.2659 111.697 35.9135 109.588 35.9135C107.478 35.9135 105.489 35.2659 104.18 33.6075C102.86 31.9341 102.702 29.1503 102.702 26.1636C102.702 23.1783 102.86 20.875 104.18 19.2011C105.489 17.5423 107.478 16.9001 109.588 16.9001C111.697 16.9001 113.686 17.5418 114.995 19.2011C116.316 20.8746 116.473 23.181 116.473 26.1636C116.473 29.147 116.316 31.9336 114.995 33.6075Z" fill="#009DCC"/>
<path d="M143.471 15.666C143.471 14.552 142.568 13.6497 141.455 13.6497C140.341 13.6497 139.439 14.552 139.439 15.666L139.436 34.6106C139.436 34.953 139.185 35.2683 138.925 35.3743C138.665 35.4799 137.548 35.9169 133.742 35.9169C131.833 35.9169 129.81 35.1554 128.571 33.5177C127.323 31.8667 127.172 28.9916 127.172 26.048L127.172 15.666C127.172 14.552 126.269 13.6497 125.156 13.6497C124.042 13.6497 123.14 14.552 123.14 15.666L123.138 26.0402C123.138 29.6654 123.367 33.5604 125.723 36.4107C127.78 38.9003 131.225 39.7738 133.742 39.7738C135.339 39.7738 138.833 39.8844 141.98 38.7135C142.847 38.4234 143.465 37.2975 143.465 36.3341L143.471 15.666Z" fill="#009DCC"/>
<path d="M213.401 15.666C213.401 14.552 212.498 13.6497 211.385 13.6497C210.271 13.6497 209.369 14.552 209.369 15.666L209.366 34.6106C209.366 34.953 209.114 35.2683 208.854 35.3743C208.595 35.4799 207.477 35.9169 203.671 35.9169C201.762 35.9169 199.739 35.1554 198.501 33.5177C197.252 31.8667 197.102 28.9916 197.102 26.048L197.101 15.666C197.101 14.552 196.199 13.6497 195.085 13.6497C193.972 13.6497 193.069 14.552 193.069 15.666L193.068 26.0402C193.068 29.6654 193.296 33.5604 195.652 36.4107C197.709 38.9003 201.154 39.7738 203.671 39.7738C205.268 39.7738 208.761 39.8844 211.91 38.7135C212.776 38.4234 213.394 37.2975 213.394 36.3341L213.401 15.666Z" fill="#009DCC"/>
<path d="M189.941 16.7208C189.941 15.8395 189.42 15.0817 188.67 14.7347C185.263 13.271 181.4 13.0566 179.652 13.0566C176.992 13.0566 173.572 13.7479 171.257 16.4124C168.944 19.0681 168.612 23.132 168.612 26.7572C168.612 30.3823 168.944 33.7243 171.257 36.3809C173.572 39.0449 176.908 39.7646 179.652 39.7646C182.178 39.7646 184.965 38.6332 185.847 37.6744V41.1384C185.847 42.9978 185.403 44.4657 184.509 45.4956C183.625 46.5187 182.37 47.0356 180.779 47.0356C179.729 47.0356 178.643 46.8974 177.549 46.6289C176.462 46.3599 174.618 45.4819 173.964 45.1675C173.311 44.8517 172.1 45.0945 171.551 45.979C171.002 46.8639 171.367 48.184 172.232 48.6599C173.097 49.135 174.196 49.7854 176.499 50.3789C177.969 50.7571 179.41 50.9361 180.779 50.9361C182.283 50.9361 183.625 50.6942 184.768 50.1875C185.913 49.683 186.879 48.9868 187.637 48.1165C188.393 47.2513 188.973 46.197 189.361 44.9907C189.746 43.7923 189.94 42.4943 189.94 41.1375L189.941 16.7208ZM185.793 31.3935C185.793 32.8462 185.182 33.8239 184.495 34.4697C183.648 35.2637 181.763 35.915 179.652 35.915C177.543 35.915 175.555 35.3087 174.246 33.6715C172.925 32.0209 172.767 29.6984 172.767 26.7563C172.767 23.8123 172.925 20.7696 174.246 19.119C175.555 17.4823 177.587 16.8961 179.652 16.8961C181.254 16.8961 183.436 17.2431 185.255 17.8853C185.569 17.9931 185.793 18.2924 185.793 18.6426V31.3935Z" fill="#009DCC"/>
<path d="M254.858 18.4366C255.001 18.4733 255.151 18.4926 255.306 18.4917C256.306 18.4917 257.118 17.6783 257.118 16.675C257.119 16.6515 257.117 16.6291 257.117 16.6079C257.117 16.0232 256.748 15.1594 256.036 14.7173C254.281 13.5019 251.603 13.0461 249.272 13.0461C246.937 13.0461 244.47 13.6364 242.936 14.799C241.385 15.9777 240.598 17.6384 240.598 19.7374C240.598 23.5824 243.441 26.3763 249.049 27.5339C251.526 28.0534 254.227 29.3276 254.227 31.5345C254.227 32.6484 253.696 33.8593 252.794 34.5115C251.35 35.5626 249.261 35.771 248.235 35.7783C246.881 35.7898 244.756 35.4956 242.965 34.4918C242.888 34.4376 242.804 34.3922 242.718 34.3453C242.441 34.1943 242.125 34.1076 241.788 34.1076C240.714 34.1076 239.845 34.9797 239.845 36.0569C239.845 36.515 240.003 36.9359 240.266 37.2678C240.427 37.4872 240.626 37.6813 240.866 37.8319C243.287 39.5063 246.736 39.7596 248.303 39.7596C249.784 39.7596 251.22 39.4535 252.806 38.9628C253.945 38.6085 254.933 38.0926 255.744 37.4279C256.554 36.7606 257.198 35.9449 257.657 35.0049C258.117 34.0612 258.444 32.6604 258.444 31.534C258.444 26.3767 253.865 24.3374 249.868 23.559C246.474 22.8539 244.753 21.3971 244.753 19.7369C244.753 19.2559 244.872 18.8364 245.108 18.4875C245.351 18.1332 245.662 17.8481 246.036 17.6421C246.42 17.4314 246.869 17.2749 247.371 17.1771C247.884 17.0784 248.456 17.0256 249.271 17.0284C250.422 17.033 252.868 17.5526 253.924 18.074C254.221 18.2218 254.536 18.3576 254.858 18.4366Z" fill="#009DCC"/>
<path d="M93.105 16.4117C90.7894 13.7472 87.4534 13.0473 84.7086 13.0473C82.1841 13.0473 79.3971 14.158 78.5149 15.1173L78.5154 3.03064C78.5154 1.90106 77.5997 0.985352 76.471 0.985352C75.3419 0.985352 74.4262 1.90106 74.4262 3.03064L74.4211 36.0305C74.4211 37.0041 75.0284 37.8358 75.8853 38.1662C79.2424 39.5574 82.9938 39.7599 84.7081 39.7599C87.3694 39.7599 90.7889 39.0778 93.1045 36.4138C95.4169 33.7562 95.7493 30.0356 95.7493 26.41C95.7497 22.7835 95.4174 19.0675 93.105 16.4117ZM90.1165 33.7053C88.8079 35.3411 86.775 35.9199 84.7086 35.9199C83.0961 35.9199 80.8957 35.5789 79.0689 34.9289H79.0703C78.7793 34.8339 78.5691 34.5604 78.5691 34.2386V21.3969C78.5691 19.9451 79.1805 18.966 79.8662 18.3225C80.7135 17.5271 82.5995 16.9047 84.7086 16.9047C86.8186 16.9047 88.8079 17.4825 90.1165 19.1193C91.437 20.7699 91.5944 23.466 91.5944 26.4095C91.5944 29.3531 91.437 32.0538 90.1165 33.7053Z" fill="#009DCC"/>
<path d="M157.772 32.8339C157.659 33.074 157.419 33.2259 157.159 33.2245C156.843 33.2222 156.615 32.8931 156.53 32.7706C155.888 31.8526 150.878 17.9657 149.792 14.9496C149.413 13.9265 148.262 13.3987 147.241 13.7751C146.223 14.1505 145.692 15.2966 146.064 16.3188L152.576 33.5885C153.339 35.6315 154.44 36.79 156.054 37.3692L152.097 47.8531C151.705 48.8863 152.224 50.0412 153.258 50.4331C154.291 50.8256 155.447 50.3069 155.839 49.2723L168.309 16.333C168.688 15.3145 168.168 14.1675 167.16 13.781C166.144 13.3918 164.98 13.9105 164.591 14.9349L157.772 32.8339Z" fill="#009DCC"/>
<path d="M236.016 16.4118C233.115 13.013 228.456 13.0423 227.503 13.0474C226.621 13.0529 222.012 13.0754 219.223 16.4118C217.958 17.9233 217.458 19.5789 217.112 21.0394C216.676 22.8768 216.619 24.5714 216.619 26.389C216.619 29.8071 216.911 33.7398 219.223 36.3969C221.538 39.06 224.883 39.7604 227.618 39.7604C230.642 39.7604 233.932 39.5098 236.353 37.8405C236.824 37.5476 237.149 37.0725 237.31 36.6154C237.389 36.4075 237.432 36.1826 237.432 35.9471C237.432 34.9079 236.591 34.0671 235.553 34.0671C235.31 34.0671 235.083 34.1198 234.867 34.196C234.746 34.2392 234.592 34.3314 234.253 34.5118C232.465 35.512 230.758 35.9756 227.618 35.904C225.509 35.904 223.52 35.3247 222.212 33.6879C220.989 32.1604 220.804 29.7291 220.778 27.0403H236.534C237.714 27.0403 238.67 26.0838 238.67 24.9051C238.671 19.1561 236.016 16.4118 236.016 16.4118ZM220.88 23.3706C220.872 22.9401 220.818 19.9374 223.277 18.0995C224.779 16.9778 226.42 16.9025 227.422 16.9025C228.424 16.9025 230.319 16.863 231.983 18.1257C234.443 19.9934 234.467 22.9548 234.458 23.3711L220.88 23.3706Z" fill="#009DCC"/>
<path d="M195.748 50.5588H195.268C195.093 50.5588 194.951 50.433 194.951 50.2752V45.4222H193.386C193.211 45.4222 193.069 45.2955 193.069 45.1394V44.6869C193.069 44.5313 193.211 44.4055 193.386 44.4055H197.637C197.813 44.4055 197.955 44.5313 197.955 44.6869V45.1394C197.955 45.2955 197.813 45.4222 197.637 45.4222H196.065V50.2752C196.065 50.433 195.923 50.5588 195.748 50.5588Z" fill="#009DCC"/>
<path d="M217.05 50.5588H213.218C213.041 50.5588 212.901 50.433 212.901 50.2751V44.6864C212.901 44.5308 213.041 44.405 213.218 44.405H213.696C213.874 44.405 214.016 44.5308 214.016 44.6864V49.5403H217.05C217.226 49.5403 217.369 49.666 217.369 49.8235V50.2747C217.37 50.433 217.226 50.5588 217.05 50.5588Z" fill="#009DCC"/>
<path d="M226.175 50.5588H222.344C222.169 50.5588 222.027 50.433 222.027 50.2751V44.6864C222.027 44.5308 222.169 44.405 222.344 44.405H226.175C226.352 44.405 226.495 44.5308 226.495 44.6864V45.139C226.495 45.295 226.352 45.4217 226.175 45.4217H223.141V46.9584H225.678C225.855 46.9584 225.995 47.0837 225.995 47.2366V47.6685C225.995 47.8222 225.855 47.9475 225.678 47.9475H223.141V49.5398H226.175C226.352 49.5398 226.495 49.6656 226.495 49.823V50.2742C226.495 50.433 226.352 50.5588 226.175 50.5588Z" fill="#009DCC"/>
<path d="M207.093 50.5588H203.26C203.085 50.5588 202.944 50.433 202.944 50.2751V44.6864C202.944 44.5308 203.086 44.405 203.26 44.405H207.093C207.269 44.405 207.412 44.5308 207.412 44.6864V45.139C207.412 45.295 207.269 45.4217 207.093 45.4217H204.058V46.9584H206.595C206.772 46.9584 206.912 47.0837 206.912 47.2366V47.6685C206.912 47.8222 206.772 47.9475 206.595 47.9475H204.058V49.5398H207.093C207.269 49.5398 207.412 49.6656 207.412 49.823V50.2742C207.412 50.433 207.269 50.5588 207.093 50.5588Z" fill="#009DCC"/>
<path d="M256.731 50.5588H256.252C256.076 50.5588 255.931 50.433 255.931 50.2751V47.2535L254.627 50.3807C254.576 50.4812 254.459 50.5468 254.333 50.5468H253.857C253.731 50.5468 253.618 50.4817 253.565 50.3807L252.222 47.2306V50.2751C252.222 50.433 252.079 50.5588 251.906 50.5588H251.425C251.251 50.5588 251.108 50.433 251.108 50.2751V44.6864C251.108 44.5308 251.251 44.405 251.425 44.405H251.906C252.027 44.405 252.142 44.4684 252.193 44.5698L254.1 49.0813L255.96 44.5726C256.01 44.4707 256.125 44.405 256.251 44.405H256.731C256.906 44.405 257.047 44.5308 257.047 44.6864V50.2751C257.048 50.433 256.907 50.5588 256.731 50.5588Z" fill="#009DCC"/>
<path d="M245.735 44.9559C245.248 44.524 244.572 44.3074 243.896 44.3074C243.221 44.3074 242.545 44.524 242.057 44.9559C241.364 45.5687 241.26 46.2049 241.26 47.4721C241.26 48.7417 241.364 49.3761 242.057 49.9874C242.548 50.4207 243.198 50.658 243.896 50.658C244.595 50.658 245.245 50.4207 245.735 49.9874C246.429 49.3761 246.532 48.7413 246.532 47.4721C246.532 46.2049 246.429 45.5687 245.735 44.9559ZM244.886 49.3439C244.63 49.573 244.263 49.6882 243.897 49.6882C243.53 49.6882 243.165 49.573 242.906 49.3439C242.543 49.0222 242.398 48.683 242.398 47.4726C242.398 46.2631 242.543 45.9212 242.906 45.6031C243.166 45.3741 243.517 45.2442 243.897 45.2442C244.276 45.2442 244.63 45.3741 244.886 45.6031C245.251 45.9212 245.396 46.2631 245.396 47.4726C245.396 48.6825 245.251 49.0222 244.886 49.3439Z" fill="#009DCC"/>
<path d="M236.292 48.694L235.796 48.6165C235.649 48.5935 235.503 48.667 235.448 48.7918C235.366 49.0479 235.243 49.2081 235.068 49.3587C234.811 49.5877 234.457 49.7162 234.078 49.7162C233.698 49.7162 233.345 49.5877 233.088 49.3587C232.724 49.0401 232.579 48.6977 232.579 47.4883C232.579 46.2797 232.724 45.9263 233.088 45.6073C233.345 45.3778 233.698 45.2484 234.078 45.2484C234.457 45.2484 234.811 45.3778 235.068 45.6073C235.243 45.7569 235.366 45.9171 235.448 46.1723C235.503 46.299 235.649 46.3715 235.796 46.349L236.292 46.2715C236.388 46.2554 236.468 46.2035 236.518 46.1296C236.571 46.0571 236.578 45.9635 236.547 45.8832C236.432 45.5306 236.237 45.2424 235.916 44.9601C235.429 44.5287 234.756 44.312 234.078 44.312C233.402 44.312 232.726 44.5287 232.239 44.9601C231.546 45.5733 231.442 46.2095 231.442 47.4759C231.442 48.7445 231.546 49.3926 232.239 50.0022C232.726 50.4364 233.402 50.6512 234.078 50.6512C234.756 50.6512 235.429 50.4364 235.916 50.0022C236.237 49.7222 236.432 49.4344 236.547 49.0814C236.578 49.0011 236.571 48.9079 236.518 48.8336C236.468 48.7615 236.388 48.7101 236.292 48.694Z" fill="#009DCC"/>
</svg>
