<svg width="210" height="68" viewBox="0 0 210 68" fill="none" xmlns="http://www.w3.org/2000/svg">
<path d="M39.5004 55.527C31.5394 55.4058 22.6645 48.5583 22.6645 37.3075V0H20.0244V19.8758C8.54996 22.3603 0 31.8134 0 43.1248C0 56.3148 11.5963 67 25.9545 67C36.8603 67 46.1617 60.7787 50 51.9922C47.5426 54.1131 43.3387 55.5876 39.5004 55.527Z" fill="#004F91"/>
<path d="M27 19.0223C28.0896 18.8802 41.3065 19.0629 49.0147 30.82C51.6177 34.7796 49.0752 39.7342 41.246 39.9982C38.4613 40.0794 28.473 37.5412 27 19.0223Z" fill="#004F91"/>
<path d="M115.961 0.0270996C107.416 0.0270996 98.7681 3.54854 98.7681 16.262V33.4808H106.406V16.3914C106.406 7.82087 111.922 5.85301 115.961 5.85301C120 5.85301 125.515 7.84677 125.515 16.3914V33.4808H133.154V16.2879C133.18 3.57443 124.532 0.0270996 115.961 0.0270996Z" fill="#004F91"/>
<path d="M62 17.22C62 25.2986 65.5214 33.4808 78.2349 33.4808H93.7706V27.7843H80.2027C71.6322 27.7843 69.9491 21.1816 69.9491 17.22C69.9491 13.2843 71.6322 6.578 80.2027 6.578H93.7706V0.959229H78.2349C65.5214 0.959229 62 9.1414 62 17.22Z" fill="#004F91"/>
<path d="M164.329 14.9414H145.893C145.893 12.1709 146.074 5.02443 155.033 5.02443C165.624 4.99854 164.329 14.9414 164.329 14.9414ZM145.867 19.8611H172.485C172.485 18.9548 172.485 17.453 172.485 17.453C172.485 2.97889 162.982 0.0529785 154.36 0.0529785C142.216 0.0529785 137.737 8.72712 137.737 16.7798V17.2459C137.737 25.3245 141.284 33.5067 153.972 33.5067H171.527V27.8102H155.965C148.819 27.7584 146.463 23.6674 145.867 19.8611Z" fill="#004F91"/>
<path d="M196.307 14.6825H192.008C187.995 14.6825 185.483 13.4137 185.483 10.5396C185.483 7.74318 187.451 6.62979 191.542 6.578H208.424V0.959229H191.62C184.784 0.959229 177.042 2.09852 177.042 10.5137C177.042 19.7057 187.348 19.5763 190.403 19.5763H194.701C198.741 19.5763 201.226 20.845 201.226 23.7191C201.226 26.4897 199.258 27.629 195.167 27.6808H178.285V33.2995H195.09C201.925 33.2995 209.667 32.1602 209.667 23.745C209.641 14.5271 199.336 14.6825 196.307 14.6825Z" fill="#004F91"/>
<path d="M67.089 44.3797C66.2376 44.3797 65.6235 44.6502 65.2466 45.1912C64.8741 45.7322 64.6879 46.6212 64.6879 47.8584C64.6879 48.9315 64.8675 49.6875 65.2266 50.1265C65.5858 50.5655 66.2066 50.785 67.089 50.785H70.4679V52.4878H66.9893C66.2221 52.4878 65.6191 52.4235 65.1801 52.2949C64.7411 52.1619 64.3287 51.9401 63.9429 51.6297C63.4418 51.2307 63.0649 50.7118 62.8122 50.0733C62.5639 49.4303 62.4397 48.6632 62.4397 47.7719C62.4397 46.0426 62.8144 44.7677 63.5638 43.9474C64.3132 43.1226 65.475 42.7102 67.0491 42.7102H70.4679V44.3797H67.089Z" fill="#004F91"/>
<path d="M76.8537 44.4129C76.1087 44.4129 75.5456 44.5992 75.1642 44.9716C74.7873 45.3441 74.5789 45.9139 74.539 46.6811L80.2326 46.6878V48.3905H74.5257C74.5301 49.2419 74.7097 49.8538 75.0644 50.2263C75.4236 50.5988 76.02 50.785 76.8537 50.785H80.2326V52.4878H76.7539C75.9868 52.4878 75.3837 52.4235 74.9447 52.2949C74.5057 52.1619 74.0933 51.9401 73.7076 51.6297C73.2065 51.2307 72.8296 50.7119 72.5768 50.0733C72.3285 49.4303 72.2043 48.6632 72.2043 47.7719C72.2043 46.0426 72.579 44.7677 73.3284 43.9474C74.0778 43.1226 75.2396 42.7102 76.8138 42.7102H80.2326V44.413L76.8537 44.4129Z" fill="#004F91"/>
<path d="M82.8535 42.7102H85.4542L89.4584 49.7341L89.3586 42.7102H91.4604V52.4878H89.0726L84.8689 45.0914L84.962 52.4878H82.8535V42.7102Z" fill="#004F91"/>
<path d="M96.5891 44.4261H93.4297V42.7234H101.89V44.4261H98.7176V52.4877H96.5891V44.4261Z" fill="#004F91"/>
<path d="M108.539 44.4529H106.018V46.9139H108.539C109.222 46.9139 109.696 46.8208 109.962 46.6345C110.228 46.4483 110.361 46.129 110.361 45.6767C110.361 45.2289 110.23 44.914 109.969 44.7322C109.712 44.546 109.235 44.4529 108.539 44.4529ZM103.963 42.7102H109.024C110.204 42.7102 111.069 42.9474 111.618 43.4219C112.168 43.8964 112.443 44.6391 112.443 45.6501C112.443 46.3995 112.272 47.0114 111.931 47.4859C111.688 47.8278 111.389 48.1491 110.99 48.316C112.541 48.9831 112.84 50.9606 112.831 52.4878H110.349C110.349 50.4942 109.99 48.6433 108.305 48.6433H106.018V52.4878H103.963V42.7102Z" fill="#004F91"/>
<path d="M119.82 44.4129C119.075 44.4129 118.512 44.5992 118.13 44.9716C117.753 45.3441 117.545 45.9139 117.505 46.6811L123.199 46.6878V48.3905H117.492C117.496 49.2419 117.676 49.8538 118.031 50.2263C118.39 50.5988 118.986 50.785 119.82 50.785H123.199V52.4878H119.72C118.953 52.4878 118.35 52.4235 117.911 52.2949C117.472 52.1619 117.059 51.9401 116.674 51.6297C116.173 51.2307 115.796 50.7119 115.543 50.0733C115.295 49.4303 115.17 48.6632 115.17 47.7719C115.17 46.0426 115.545 44.7677 116.294 43.9474C117.044 43.1226 118.206 42.7102 119.78 42.7102H123.199V44.413L119.82 44.4129Z" fill="#004F91"/>
<path d="M131.743 42.7102H134.344L138.348 49.7341L138.248 42.7102H140.35V52.4878H137.962L133.759 45.0914L133.852 52.4878H131.743V42.7102Z" fill="#004F91"/>
<path d="M147.53 44.6524L146.1 48.4171H149.014L147.53 44.6524ZM146.519 42.7102H148.701L152.871 52.4878H150.583L149.685 50.1598H145.435L144.564 52.4878H142.382L146.519 42.7102Z" fill="#004F91"/>
<path d="M155.892 44.4261H152.732V42.7234H161.193V44.4261H158.02V52.4877H155.892V44.4261Z" fill="#004F91"/>
<path d="M165.44 52.4878H163.292V42.7102H165.44V52.4878Z" fill="#004F91"/>
<path d="M167.813 47.4992C167.813 45.8187 168.215 44.5682 169.017 43.7479C169.824 42.9275 171.05 42.5173 172.696 42.5173C174.354 42.5173 175.58 42.9319 176.374 43.7611C177.172 44.5904 177.571 45.8696 177.571 47.599C177.571 49.3284 177.172 50.6099 176.374 51.4435C175.58 52.2772 174.354 52.694 172.696 52.694C171.019 52.694 169.787 52.2749 168.997 51.4369C168.208 50.5988 167.813 49.2862 167.813 47.4992ZM172.696 44.1935C171.813 44.1935 171.152 44.4684 170.713 45.0183C170.279 45.5681 170.062 46.3995 170.062 47.5125C170.062 48.7187 170.272 49.6033 170.694 50.1664C171.119 50.7252 171.787 51.0045 172.696 51.0045C173.591 51.0045 174.254 50.7274 174.684 50.1731C175.119 49.6144 175.336 48.7564 175.336 47.599C175.336 46.4372 175.119 45.5792 174.684 45.0249C174.254 44.4706 173.591 44.1935 172.696 44.1935Z" fill="#004F91"/>
<path d="M179.922 42.7102H182.523L186.527 49.7341L186.427 42.7102H188.529V52.4878H186.141L181.938 45.0914L182.031 52.4878H179.922V42.7102Z" fill="#004F91"/>
<path d="M195.516 44.6524L194.086 48.4171H196.999L195.516 44.6524ZM194.505 42.7102H196.687L200.857 52.4878H198.569L197.671 50.1598H193.421L192.55 52.4878H190.368L194.505 42.7102Z" fill="#004F91"/>
<path d="M206.627 52.4878C205.714 52.4878 205.035 52.4124 204.592 52.2616C204.148 52.1064 203.752 51.8404 203.401 51.4634C203.078 51.1264 202.849 50.7451 202.716 50.3194C202.583 49.8937 202.517 49.2951 202.517 48.5235V42.7102H204.572V48.457C204.572 49.029 204.596 49.4325 204.645 49.6676C204.698 49.8982 204.787 50.0844 204.911 50.2263C205.106 50.4569 205.346 50.6209 205.629 50.7185C205.913 50.8161 206.306 50.8648 206.807 50.8648H209.228V52.4878H206.627Z" fill="#004F91"/>
<path d="M66.8766 58.983H64.7609V65.2756H66.8766C67.6843 65.2756 68.2418 65.0501 68.5491 64.5991C68.8564 64.148 69.0101 63.3248 69.0101 62.1293C69.0101 60.9383 68.8564 60.1172 68.5491 59.6662C68.2418 59.2107 67.6843 58.983 66.8766 58.983ZM62.9348 57.3015H66.9121C68.3107 57.3015 69.343 57.7088 70.0088 58.5233C70.6746 59.3334 71.0076 60.5923 71.0076 62.3001C71.0076 63.1803 70.8953 63.9379 70.6707 64.5728C70.4501 65.2034 70.1172 65.7157 69.672 66.1098C69.3292 66.4164 68.9628 66.6353 68.5727 66.7667C68.1827 66.8937 67.6469 66.9572 66.9653 66.9572H62.9348V57.3015Z" fill="#004F91"/>
<path d="M72.5541 57.2781H74.4775V59.1898L73.4642 61.1837H72.4124L73.3001 59.1898H72.5541V57.2781Z" fill="#004F91"/>
<path d="M80.4545 54.7212H82.1423L80.1398 56.5932H79.3159L80.4545 54.7212Z" fill="#004F91"/>
<path d="M80.0311 58.9832C79.3903 58.9832 78.9058 59.1672 78.5778 59.535C78.2536 59.9028 78.0743 60.4655 78.04 61.2231L82.9376 61.2297V62.9112H78.0285C78.0324 63.752 78.1868 64.3563 78.492 64.7241C78.8009 65.092 79.314 65.2759 80.0311 65.2759H82.9376V66.9574H79.9452C79.2854 66.9574 78.7666 66.8939 78.389 66.7669C78.0114 66.6356 77.6566 66.4166 77.3248 66.1101C76.8938 65.716 76.5696 65.2036 76.3521 64.5731C76.1385 63.9381 76.0317 63.1805 76.0317 62.3004C76.0317 60.5926 76.354 59.3336 76.9987 58.5235C77.6433 57.709 78.6426 57.3018 79.9967 57.3018H82.9376V58.9833L80.0311 58.9832Z" fill="#004F91"/>
<path d="M87.0377 58.9962H84.1096V57.3147H91.9506V58.9962H89.0102V66.9572H87.0377V58.9962Z" fill="#004F91"/>
<path d="M95.1889 57.3015V63.0818C95.1889 63.9838 95.3409 64.6144 95.6451 64.9735C95.9533 65.3282 96.4813 65.5055 97.2293 65.5055C97.9772 65.5055 98.5032 65.3282 98.8073 64.9735C99.1114 64.6188 99.2635 63.9882 99.2635 63.0818V57.3015H101.168V63.1343C101.168 63.8174 101.125 64.3626 101.039 64.7699C100.957 65.1771 100.823 65.499 100.638 65.7354C100.276 66.1908 99.8203 66.5258 99.2697 66.7404C98.7231 66.955 98.043 67.0623 97.2293 67.0623C96.4156 67.0623 95.7314 66.955 95.1766 66.7404C94.6259 66.5258 94.1697 66.1908 93.8081 65.7354C93.6273 65.5033 93.4958 65.1902 93.4136 64.7961C93.3314 64.402 93.2903 63.8481 93.2903 63.1343V57.3015H95.1889Z" fill="#004F91"/>
<path d="M129.348 59.0225H125.106C124.6 59.0225 124.228 59.1232 123.99 59.3246C123.756 59.526 123.639 59.8457 123.639 60.2836C123.639 60.6339 123.739 60.8967 123.941 61.0718C124.142 61.247 124.442 61.3345 124.841 61.3345H126.894C127.938 61.3345 128.68 61.5447 129.12 61.9651C129.563 62.3855 129.785 63.0861 129.785 64.067C129.785 65.0611 129.531 65.7924 129.021 66.2609C128.511 66.7251 127.71 66.9572 126.617 66.9572H121.967V65.2362H126.315C126.857 65.2362 127.24 65.153 127.461 64.9866C127.683 64.8158 127.794 64.5356 127.794 64.1459C127.794 63.743 127.692 63.4562 127.486 63.2854C127.285 63.1146 126.937 63.0292 126.444 63.0292H124.662C123.618 63.0292 122.854 62.8081 122.369 62.3658C121.888 61.9192 121.648 61.2163 121.648 60.2573C121.648 59.2326 121.9 58.4838 122.406 58.0109C122.916 57.538 123.723 57.3015 124.828 57.3015H129.348V59.0225Z" fill="#004F91"/>
<path d="M145.354 57.3015H149.421C150.108 57.3015 150.656 57.3409 151.064 57.4198C151.472 57.4942 151.798 57.6146 152.04 57.781C152.444 58.0613 152.749 58.4291 152.955 58.8845C153.166 59.3355 153.271 59.8567 153.271 60.4478C153.271 61.0258 153.186 61.5229 153.016 61.9389C152.846 62.3505 152.588 62.692 152.24 62.9635C151.949 63.1869 151.614 63.3467 151.234 63.443C150.858 63.535 150.28 63.581 149.5 63.581H147.227V66.9572H145.354V57.3015ZM149.397 59.0225H147.227V61.8732H149.512C150.078 61.8732 150.498 61.7571 150.773 61.525C151.048 61.2886 151.185 60.9295 151.185 60.4478C151.185 59.9311 151.05 59.5655 150.779 59.3509C150.513 59.1319 150.052 59.0225 149.397 59.0225Z" fill="#004F91"/>
<path d="M157.739 59.2195L156.453 62.9373H159.073L157.739 59.2195ZM156.83 57.3015H158.792L162.541 66.9572H160.484L159.677 64.6582H155.856L155.072 66.9572H153.111L156.83 57.3015Z" fill="#004F91"/>
<path d="M164.948 58.9962H162.02V57.3147H169.861V58.9962H166.92V66.9572H164.948V58.9962Z" fill="#004F91"/>
<path d="M173.125 66.9572H171.134V57.3015H173.125V66.9572Z" fill="#004F91"/>
<path d="M188.948 66.9572C188.101 66.9572 187.473 66.8827 187.062 66.7338C186.651 66.5806 186.283 66.3178 185.958 65.9456C185.658 65.6128 185.447 65.2362 185.323 64.8158C185.2 64.3955 185.138 63.8043 185.138 63.0424V57.3015H187.043V62.9767C187.043 63.5416 187.066 63.94 187.111 64.1721C187.16 64.3998 187.243 64.5838 187.358 64.7239C187.538 64.9516 187.76 65.1136 188.023 65.21C188.286 65.3063 188.65 65.3545 189.114 65.3545H191.358V66.9572H188.948Z" fill="#004F91"/>
<path d="M117.069 58.9832C116.428 58.9832 115.943 59.1672 115.615 59.535C115.291 59.9028 115.112 60.4655 115.078 61.2231L119.975 61.2297V62.9112H115.066C115.07 63.752 115.224 64.3563 115.53 64.7241C115.839 65.092 116.352 65.2759 117.069 65.2759H119.975V66.9574H116.983C116.323 66.9574 115.804 66.8939 115.427 66.7669C115.049 66.6356 114.694 66.4166 114.362 66.1101C113.931 65.716 113.607 65.2036 113.39 64.5731C113.176 63.9381 113.069 63.1805 113.069 62.3004C113.069 60.5926 113.392 59.3336 114.036 58.5235C114.681 57.709 115.68 57.3018 117.034 57.3018H119.975V58.9833L117.069 58.9832Z" fill="#004F91"/>
<path d="M143.111 59.0225H138.869C138.363 59.0225 137.991 59.1232 137.753 59.3246C137.519 59.526 137.402 59.8457 137.402 60.2836C137.402 60.6339 137.502 60.8967 137.704 61.0718C137.905 61.247 138.205 61.3345 138.604 61.3345H140.657C141.701 61.3345 142.443 61.5447 142.883 61.9651C143.326 62.3855 143.548 63.0861 143.548 64.067C143.548 65.0611 143.294 65.7924 142.784 66.2609C142.274 66.7251 141.473 66.9572 140.38 66.9572H135.73V65.2362H140.078C140.62 65.2362 141.002 65.153 141.224 64.9866C141.446 64.8158 141.557 64.5356 141.557 64.1459C141.557 63.743 141.455 63.4562 141.249 63.2854C141.048 63.1146 140.7 63.0292 140.207 63.0292H138.425C137.381 63.0292 136.617 62.8081 136.132 62.3658C135.651 61.9192 135.411 61.2163 135.411 60.2573C135.411 59.2326 135.663 58.4838 136.169 58.0109C136.678 57.538 137.486 57.3015 138.591 57.3015H143.111V59.0225Z" fill="#004F91"/>
<path d="M107.237 58.983H105.121V65.2756H107.237C108.045 65.2756 108.602 65.0501 108.909 64.5991C109.217 64.148 109.37 63.3248 109.37 62.1293C109.37 60.9383 109.217 60.1172 108.909 59.6662C108.602 59.2107 108.045 58.983 107.237 58.983ZM103.295 57.3015H107.272C108.671 57.3015 109.703 57.7088 110.369 58.5233C111.035 59.3334 111.368 60.5923 111.368 62.3001C111.368 63.1803 111.256 63.9379 111.031 64.5728C110.81 65.2034 110.478 65.7157 110.032 66.1098C109.69 66.4164 109.323 66.6353 108.933 66.7667C108.543 66.8937 108.007 66.9572 107.326 66.9572H103.295V57.3015Z" fill="#004F91"/>
<path d="M179.281 59.2195L177.996 62.9373H180.615L179.281 59.2195ZM178.372 57.3015H180.334L184.083 66.9572H182.026L181.219 64.6582H177.398L176.614 66.9572H174.653L178.372 57.3015Z" fill="#004F91"/>
<path d="M195.882 58.9832C195.241 58.9832 194.757 59.1672 194.429 59.535C194.105 59.9028 193.925 60.4655 193.891 61.2231L198.789 61.2297V62.9112H193.88C193.883 63.752 194.038 64.3563 194.343 64.7241C194.652 65.092 195.165 65.2759 195.882 65.2759H198.789V66.9574H195.796C195.136 66.9574 194.618 66.8939 194.24 66.7669C193.862 66.6356 193.508 66.4166 193.176 66.1101C192.745 65.716 192.421 65.2036 192.203 64.5731C191.99 63.9381 191.883 63.1805 191.883 62.3004C191.883 60.5926 192.205 59.3336 192.85 58.5235C193.494 57.709 194.494 57.3018 195.848 57.3018H198.789V58.9833L195.882 58.9832Z" fill="#004F91"/>
<path d="M208.295 59.0225H204.053C203.547 59.0225 203.176 59.1232 202.937 59.3246C202.703 59.526 202.586 59.8457 202.586 60.2836C202.586 60.6339 202.686 60.8967 202.888 61.0718C203.089 61.247 203.389 61.3345 203.788 61.3345H205.841C206.885 61.3345 207.627 61.5447 208.067 61.9651C208.511 62.3855 208.732 63.0861 208.732 64.067C208.732 65.0611 208.478 65.7924 207.968 66.2609C207.458 66.7251 206.657 66.9572 205.564 66.9572H200.914V65.2362H205.262C205.804 65.2362 206.187 65.153 206.408 64.9866C206.63 64.8158 206.741 64.5356 206.741 64.1459C206.741 63.743 206.639 63.4562 206.433 63.2854C206.232 63.1146 205.885 63.0292 205.391 63.0292H203.609C202.565 63.0292 201.801 62.8081 201.316 62.3658C200.835 61.9192 200.595 61.2163 200.595 60.2573C200.595 59.2326 200.847 58.4838 201.353 58.0109C201.863 57.538 202.67 57.3015 203.776 57.3015H208.295V59.0225Z" fill="#004F91"/>
</svg>
