<svg width="162" height="52" viewBox="0 0 162 52" fill="none" xmlns="http://www.w3.org/2000/svg">
<path d="M31.1011 42.6709C24.9832 42.5778 18.1631 37.3157 18.1631 28.6698V0H16.1343V15.274C7.3165 17.1832 0.746094 24.4477 0.746094 33.1402C0.746094 43.2763 9.6575 51.4876 20.6914 51.4876C29.0722 51.4876 36.22 46.7067 39.1697 39.9545C37.2813 41.5844 34.0507 42.7175 31.1011 42.6709Z" fill="#004F91"/>
<path d="M21.4946 14.618C22.332 14.5087 32.4888 14.6492 38.4123 23.6841C40.4126 26.727 38.4588 30.5345 32.4423 30.7373C30.3024 30.7997 22.6266 28.8492 21.4946 14.618Z" fill="#004F91"/>
<path d="M89.8585 0.0209961C83.2922 0.0209961 76.6462 2.72712 76.6462 12.497V25.7292H82.5161V12.5965C82.5161 6.01029 86.7544 4.49805 89.8585 4.49805C92.9626 4.49805 97.2009 6.03019 97.2009 12.5965V25.7292H103.071V12.5169C103.091 2.74702 96.4448 0.0209961 89.8585 0.0209961Z" fill="#004F91"/>
<path d="M48.3914 13.233C48.3914 19.4412 51.0975 25.729 60.8674 25.729H72.8062V21.3514H62.3797C55.7934 21.3514 54.5 16.2774 54.5 13.233C54.5 10.2085 55.7934 5.05493 62.3797 5.05493H72.8062V0.737061H60.8674C51.0975 0.737061 48.3914 7.02483 48.3914 13.233Z" fill="#004F91"/>
<path d="M127.028 11.4819H112.861C112.861 9.3528 113 3.86095 119.885 3.86095C128.023 3.84105 127.028 11.4819 127.028 11.4819ZM112.841 15.2625H133.296C133.296 14.5661 133.296 13.412 133.296 13.412C133.296 2.28901 125.993 0.0405273 119.367 0.0405273C110.035 0.0405273 106.593 6.70637 106.593 12.8946V13.2528C106.593 19.461 109.319 25.7488 119.069 25.7488H132.56V21.3712H120.601C115.109 21.3314 113.298 18.1875 112.841 15.2625Z" fill="#004F91"/>
<path d="M151.602 11.283H148.299C145.215 11.283 143.285 10.308 143.285 8.09932C143.285 5.95033 144.797 5.09473 147.941 5.05493H160.914V0.737061H148C142.747 0.737061 136.798 1.61257 136.798 8.07943C136.798 15.1432 144.717 15.0437 147.065 15.0437H150.368C153.472 15.0437 155.383 16.0187 155.383 18.2274C155.383 20.3565 153.87 21.232 150.726 21.2718H137.753V25.5897H150.667C155.92 25.5897 161.869 24.7142 161.869 18.2473C161.849 11.1636 153.93 11.283 151.602 11.283Z" fill="#004F91"/>
<path d="M52.3019 34.1045C51.6476 34.1045 51.1757 34.3124 50.886 34.7281C50.5998 35.1438 50.4567 35.827 50.4567 36.7778C50.4567 37.6024 50.5947 38.1834 50.8707 38.5208C51.1467 38.8581 51.6238 39.0268 52.3019 39.0268H54.8985V40.3353H52.2252C51.6357 40.3353 51.1723 40.2859 50.8349 40.1871C50.4976 40.0849 50.1806 39.9145 49.8842 39.6759C49.4991 39.3693 49.2095 38.9706 49.0152 38.4799C48.8244 37.9858 48.729 37.3963 48.729 36.7113C48.729 35.3824 49.0169 34.4027 49.5928 33.7723C50.1687 33.1384 51.0615 32.8215 52.2712 32.8215H54.8985V34.1045H52.3019Z" fill="#004F91"/>
<path d="M59.8058 34.13C59.2333 34.13 58.8005 34.2731 58.5075 34.5594C58.2178 34.8456 58.0577 35.2835 58.027 35.873L62.4024 35.8782V37.1867H58.0168C58.0202 37.841 58.1582 38.3112 58.4308 38.5974C58.7068 38.8837 59.1652 39.0268 59.8058 39.0268H62.4024V40.3353H59.7291C59.1396 40.3353 58.6762 40.2859 58.3388 40.1871C58.0015 40.0849 57.6846 39.9145 57.3881 39.6759C57.003 39.3693 56.7134 38.9706 56.5191 38.4799C56.3283 37.9858 56.2329 37.3963 56.2329 36.7113C56.2329 35.3824 56.5209 34.4027 57.0967 33.7723C57.6726 33.1384 58.5654 32.8215 59.7751 32.8215H62.4024V34.1301L59.8058 34.13Z" fill="#004F91"/>
<path d="M64.4165 32.8215H66.4151L69.4921 38.2192L69.4155 32.8215H71.0307V40.3353H69.1957L65.9653 34.6514L66.0368 40.3353H64.4165V32.8215Z" fill="#004F91"/>
<path d="M74.9719 34.1403H72.5439V32.8318H79.0457V34.1403H76.6075V40.3354H74.9719V34.1403Z" fill="#004F91"/>
<path d="M84.1551 34.1607H82.2179V36.0519H84.1551C84.6799 36.0519 85.0445 35.9804 85.2489 35.8373C85.4534 35.6942 85.5556 35.4488 85.5556 35.1012C85.5556 34.7571 85.4551 34.5151 85.254 34.3754C85.0564 34.2323 84.6901 34.1607 84.1551 34.1607ZM80.6384 32.8215H84.5282C85.4346 32.8215 86.0991 33.0038 86.5217 33.3685C86.9442 33.7331 87.1555 34.3038 87.1555 35.0808C87.1555 35.6567 87.0243 36.1269 86.7619 36.4915C86.5753 36.7543 86.3456 37.0011 86.0386 37.1294C87.2305 37.6421 87.4605 39.1617 87.4534 40.3353H85.5463C85.5463 38.8034 85.2702 37.3809 83.9757 37.3809H82.2179V40.3353H80.6384V32.8215Z" fill="#004F91"/>
<path d="M92.8239 34.13C92.2514 34.13 91.8186 34.2731 91.5256 34.5594C91.2359 34.8456 91.0758 35.2835 91.0451 35.873L95.4205 35.8782V37.1867H91.0349C91.0383 37.841 91.1763 38.3112 91.4489 38.5974C91.7249 38.8837 92.1832 39.0268 92.8239 39.0268H95.4205V40.3353H92.7472C92.1577 40.3353 91.6942 40.2859 91.3569 40.1871C91.0195 40.0849 90.7026 39.9145 90.4062 39.6759C90.0211 39.3693 89.7314 38.9706 89.5372 38.4799C89.3464 37.9858 89.251 37.3963 89.251 36.7113C89.251 35.3824 89.5389 34.4027 90.1148 33.7723C90.6907 33.1384 91.5835 32.8215 92.7932 32.8215H95.4205V34.1301L92.8239 34.13Z" fill="#004F91"/>
<path d="M101.987 32.8215H103.985L107.062 38.2192L106.986 32.8215H108.601V40.3353H106.766L103.536 34.6514L103.607 40.3353H101.987V32.8215Z" fill="#004F91"/>
<path d="M114.119 34.3141L113.02 37.2071H115.259L114.119 34.3141ZM113.342 32.8215H115.018L118.223 40.3353H116.465L115.775 38.5463H112.509L111.839 40.3353H110.163L113.342 32.8215Z" fill="#004F91"/>
<path d="M120.544 34.1403H118.116V32.8318H124.618V34.1403H122.18V40.3354H120.544V34.1403Z" fill="#004F91"/>
<path d="M127.882 40.3353H126.231V32.8215H127.882V40.3353Z" fill="#004F91"/>
<path d="M129.706 36.5018C129.706 35.2103 130.014 34.2494 130.631 33.619C131.251 32.9886 132.193 32.6733 133.458 32.6733C134.732 32.6733 135.674 32.992 136.284 33.6292C136.898 34.2664 137.204 35.2495 137.204 36.5785C137.204 37.9074 136.898 38.8922 136.284 39.5329C135.674 40.1735 134.732 40.4938 133.458 40.4938C132.17 40.4938 131.222 40.1718 130.616 39.5278C130.009 38.8837 129.706 37.8751 129.706 36.5018ZM133.458 33.9614C132.779 33.9614 132.272 34.1727 131.934 34.5952C131.6 35.0178 131.433 35.6567 131.433 36.512C131.433 37.4389 131.595 38.1187 131.919 38.5515C132.246 38.9808 132.759 39.1955 133.458 39.1955C134.146 39.1955 134.655 38.9825 134.986 38.5566C135.32 38.1272 135.487 37.4679 135.487 36.5785C135.487 35.6857 135.32 35.0263 134.986 34.6003C134.655 34.1744 134.146 33.9614 133.458 33.9614Z" fill="#004F91"/>
<path d="M139.011 32.8215H141.009L144.086 38.2192L144.01 32.8215H145.625V40.3353H143.79L140.56 34.6514L140.631 40.3353H139.011V32.8215Z" fill="#004F91"/>
<path d="M150.995 34.3141L149.896 37.2071H152.134L150.995 34.3141ZM150.218 32.8215H151.894L155.099 40.3353H153.341L152.651 38.5463H149.384L148.715 40.3353H147.038L150.218 32.8215Z" fill="#004F91"/>
<path d="M159.533 40.3353C158.831 40.3353 158.31 40.2774 157.969 40.1615C157.628 40.0423 157.323 39.8378 157.054 39.5482C156.805 39.2892 156.63 38.9961 156.528 38.669C156.425 38.3419 156.374 37.8818 156.374 37.2889V32.8215H157.954V37.2378C157.954 37.6774 157.972 37.9875 158.01 38.1681C158.051 38.3453 158.119 38.4884 158.214 38.5974C158.364 38.7746 158.548 38.9007 158.766 38.9757C158.985 39.0507 159.286 39.0881 159.671 39.0881H161.532V40.3353H159.533Z" fill="#004F91"/>
<path d="M52.1388 45.3266H50.5129V50.1623H52.1388C52.7595 50.1623 53.1879 49.989 53.424 49.6424C53.6602 49.2958 53.7783 48.6631 53.7783 47.7445C53.7783 46.8292 53.6602 46.1982 53.424 45.8516C53.1879 45.5016 52.7595 45.3266 52.1388 45.3266ZM49.1096 44.0344H52.166C53.2409 44.0344 54.0341 44.3474 54.5458 44.9733C55.0575 45.5958 55.3133 46.5633 55.3133 47.8757C55.3133 48.5521 55.227 49.1343 55.0544 49.6222C54.8849 50.1068 54.629 50.5005 54.2869 50.8034C54.0235 51.0389 53.7419 51.2072 53.4422 51.3081C53.1425 51.4057 52.7307 51.4545 52.2069 51.4545H49.1096V44.0344Z" fill="#004F91"/>
<path d="M56.502 44.0166H57.9801V45.4857L57.2014 47.018H56.3931L57.0753 45.4857H56.502V44.0166Z" fill="#004F91"/>
<path d="M62.5732 42.0518H63.8703L62.3314 43.4904H61.6982L62.5732 42.0518Z" fill="#004F91"/>
<path d="M62.2477 45.3268C61.7552 45.3268 61.383 45.4682 61.1309 45.7509C60.8817 46.0335 60.744 46.4659 60.7176 47.0481L64.4813 47.0532V48.3454H60.7088C60.7117 48.9915 60.8304 49.4559 61.0649 49.7386C61.3024 50.0212 61.6966 50.1626 62.2477 50.1626H64.4813V51.4548H62.1817C61.6746 51.4548 61.276 51.406 60.9858 51.3084C60.6956 51.2074 60.423 51.0392 60.168 50.8036C59.8368 50.5008 59.5876 50.107 59.4205 49.6225C59.2564 49.1345 59.1743 48.5524 59.1743 47.876C59.1743 46.5636 59.422 45.5961 59.9174 44.9735C60.4128 44.3476 61.1807 44.0347 62.2213 44.0347H64.4813V45.3269L62.2477 45.3268Z" fill="#004F91"/>
<path d="M67.6322 45.3369H65.3821V44.0447H71.4077V45.3369H69.1481V51.4547H67.6322V45.3369Z" fill="#004F91"/>
<path d="M73.896 44.0344V48.4764C73.896 49.1696 74.0129 49.6542 74.2466 49.9301C74.4834 50.2027 74.8893 50.339 75.464 50.339C76.0388 50.339 76.443 50.2027 76.6767 49.9301C76.9104 49.6576 77.0273 49.173 77.0273 48.4764V44.0344H78.491V48.5168C78.491 49.0417 78.4579 49.4607 78.3915 49.7736C78.3284 50.0866 78.2257 50.3339 78.0836 50.5157C77.8057 50.8656 77.4552 51.1231 77.032 51.2879C76.612 51.4528 76.0893 51.5353 75.464 51.5353C74.8387 51.5353 74.3129 51.4528 73.8866 51.2879C73.4634 51.1231 73.1128 50.8656 72.8349 50.5157C72.696 50.3373 72.5949 50.0967 72.5318 49.7938C72.4686 49.491 72.437 49.0653 72.437 48.5168V44.0344H73.896Z" fill="#004F91"/>
<path d="M100.146 45.3569H96.8863C96.4978 45.3569 96.212 45.4343 96.0289 45.5891C95.8488 45.7439 95.7588 45.9896 95.7588 46.3261C95.7588 46.5953 95.8362 46.7972 95.991 46.9318C96.1457 47.0664 96.3762 47.1337 96.6826 47.1337H98.2607C99.0628 47.1337 99.6328 47.2952 99.9707 47.6183C100.312 47.9413 100.482 48.4797 100.482 49.2335C100.482 49.9974 100.287 50.5594 99.895 50.9195C99.5034 51.2762 98.8875 51.4545 98.0475 51.4545H94.474V50.132H97.8154C98.2322 50.132 98.5259 50.0681 98.6965 49.9402C98.867 49.809 98.9523 49.5936 98.9523 49.2941C98.9523 48.9845 98.8733 48.7641 98.7154 48.6329C98.5607 48.5016 98.2938 48.436 97.9148 48.436H96.5452C95.7431 48.436 95.1557 48.2661 94.783 47.9262C94.4135 47.583 94.2288 47.0429 94.2288 46.3059C94.2288 45.5184 94.423 44.943 94.8114 44.5796C95.203 44.2161 95.8236 44.0344 96.6731 44.0344H100.146V45.3569Z" fill="#004F91"/>
<path d="M112.446 44.0344H115.572C116.1 44.0344 116.521 44.0647 116.835 44.1253C117.148 44.1825 117.398 44.275 117.585 44.4029C117.895 44.6183 118.13 44.9009 118.288 45.2509C118.45 45.5975 118.53 45.998 118.53 46.4523C118.53 46.8965 118.465 47.2784 118.335 47.5981C118.204 47.9144 118.005 48.1769 117.738 48.3855C117.515 48.5571 117.257 48.68 116.965 48.754C116.676 48.8247 116.232 48.86 115.633 48.86H113.886V51.4545H112.446V44.0344ZM115.553 45.3569H113.886V47.5476H115.642C116.077 47.5476 116.4 47.4584 116.611 47.2801C116.822 47.0984 116.928 46.8224 116.928 46.4523C116.928 46.0552 116.824 45.7742 116.616 45.6093C116.411 45.441 116.057 45.3569 115.553 45.3569Z" fill="#004F91"/>
<path d="M121.964 45.5084L120.976 48.3653H122.989L121.964 45.5084ZM121.266 44.0344H122.773L125.654 51.4545H124.073L123.453 49.6878H120.517L119.915 51.4545H118.407L121.266 44.0344Z" fill="#004F91"/>
<path d="M127.504 45.3369H125.254V44.0447H131.279V45.3369H129.02V51.4547H127.504V45.3369Z" fill="#004F91"/>
<path d="M133.788 51.4545H132.258V44.0344H133.788V51.4545Z" fill="#004F91"/>
<path d="M145.947 51.4545C145.297 51.4545 144.814 51.3973 144.498 51.2829C144.182 51.1651 143.899 50.9632 143.65 50.6772C143.419 50.4214 143.257 50.132 143.162 49.809C143.067 49.4859 143.02 49.0316 143.02 48.4461V44.0344H144.484V48.3956C144.484 48.8297 144.501 49.136 144.536 49.3143C144.574 49.4893 144.637 49.6306 144.725 49.7383C144.864 49.9133 145.035 50.0378 145.237 50.1118C145.439 50.1859 145.718 50.2229 146.075 50.2229H147.8V51.4545H145.947Z" fill="#004F91"/>
<path d="M90.7101 45.3268C90.2176 45.3268 89.8454 45.4682 89.5933 45.7509C89.3441 46.0335 89.2064 46.4659 89.18 47.0481L92.9437 47.0532V48.3454H89.1712C89.1741 48.9915 89.2928 49.4559 89.5273 49.7386C89.7648 50.0212 90.159 50.1626 90.7101 50.1626H92.9437V51.4548H90.6441C90.137 51.4548 89.7384 51.406 89.4482 51.3084C89.158 51.2074 88.8854 51.0392 88.6304 50.8036C88.2992 50.5008 88.05 50.107 87.8829 49.6225C87.7188 49.1345 87.6367 48.5524 87.6367 47.876C87.6367 46.5636 87.8844 45.5961 88.3798 44.9735C88.8752 44.3476 89.6431 44.0347 90.6837 44.0347H92.9437V45.3269L90.7101 45.3268Z" fill="#004F91"/>
<path d="M110.722 45.3569H107.463C107.074 45.3569 106.788 45.4343 106.605 45.5891C106.425 45.7439 106.335 45.9896 106.335 46.3261C106.335 46.5953 106.413 46.7972 106.567 46.9318C106.722 47.0664 106.953 47.1337 107.259 47.1337H108.837C109.639 47.1337 110.209 47.2952 110.547 47.6183C110.888 47.9413 111.059 48.4797 111.059 49.2335C111.059 49.9974 110.863 50.5594 110.471 50.9195C110.08 51.2762 109.464 51.4545 108.624 51.4545H105.05V50.132H108.392C108.809 50.132 109.102 50.0681 109.273 49.9402C109.443 49.809 109.529 49.5936 109.529 49.2941C109.529 48.9845 109.45 48.7641 109.292 48.6329C109.137 48.5016 108.87 48.436 108.491 48.436H107.122C106.319 48.436 105.732 48.2661 105.359 47.9262C104.99 47.583 104.805 47.0429 104.805 46.3059C104.805 45.5184 104.999 44.943 105.388 44.5796C105.779 44.2161 106.4 44.0344 107.25 44.0344H110.722V45.3569Z" fill="#004F91"/>
<path d="M83.1547 45.3266H81.5288V50.1623H83.1547C83.7753 50.1623 84.2037 49.989 84.4399 49.6424C84.6761 49.2958 84.7941 48.6631 84.7941 47.7445C84.7941 46.8292 84.6761 46.1982 84.4399 45.8516C84.2037 45.5016 83.7753 45.3266 83.1547 45.3266ZM80.1255 44.0344H83.1819C84.2567 44.0344 85.05 44.3474 85.5617 44.9733C86.0733 45.5958 86.3292 46.5633 86.3292 47.8757C86.3292 48.5521 86.2429 49.1343 86.0703 49.6222C85.9008 50.1068 85.6449 50.5005 85.3028 50.8034C85.0394 51.0389 84.7578 51.2072 84.4581 51.3081C84.1583 51.4057 83.7466 51.4545 83.2228 51.4545H80.1255V44.0344Z" fill="#004F91"/>
<path d="M138.519 45.5084L137.531 48.3653H139.543L138.519 45.5084ZM137.82 44.0344H139.327L142.209 51.4545H140.628L140.007 49.6878H137.071L136.469 51.4545H134.962L137.82 44.0344Z" fill="#004F91"/>
<path d="M151.276 45.3268C150.784 45.3268 150.411 45.4682 150.159 45.7509C149.91 46.0335 149.772 46.4659 149.746 47.0481L153.51 47.0532V48.3454H149.737C149.74 48.9915 149.859 49.4559 150.093 49.7386C150.331 50.0212 150.725 50.1626 151.276 50.1626H153.51V51.4548H151.21C150.703 51.4548 150.304 51.406 150.014 51.3084C149.724 51.2074 149.451 51.0392 149.196 50.8036C148.865 50.5008 148.616 50.107 148.449 49.6225C148.285 49.1345 148.203 48.5524 148.203 47.876C148.203 46.5636 148.45 45.5961 148.946 44.9735C149.441 44.3476 150.209 44.0347 151.25 44.0347H153.51V45.3269L151.276 45.3268Z" fill="#004F91"/>
<path d="M160.815 45.3569H157.555C157.167 45.3569 156.881 45.4343 156.698 45.5891C156.518 45.7439 156.428 45.9896 156.428 46.3261C156.428 46.5953 156.505 46.7972 156.66 46.9318C156.814 47.0664 157.045 47.1337 157.351 47.1337H158.929C159.732 47.1337 160.302 47.2952 160.639 47.6183C160.981 47.9413 161.151 48.4797 161.151 49.2335C161.151 49.9974 160.955 50.5594 160.564 50.9195C160.172 51.2762 159.556 51.4545 158.716 51.4545H155.143V50.132H158.484C158.901 50.132 159.195 50.0681 159.365 49.9402C159.536 49.809 159.621 49.5936 159.621 49.2941C159.621 48.9845 159.542 48.7641 159.384 48.6329C159.229 48.5016 158.963 48.436 158.584 48.436H157.214C156.412 48.436 155.824 48.2661 155.452 47.9262C155.082 47.583 154.897 47.0429 154.897 46.3059C154.897 45.5184 155.092 44.943 155.48 44.5796C155.872 44.2161 156.492 44.0344 157.342 44.0344H160.815V45.3569Z" fill="#004F91"/>
</svg>
