<svg width="371" height="53" viewBox="0 0 371 53" fill="none" xmlns="http://www.w3.org/2000/svg">
<path d="M119.494 46.1718H145.233V37.7915H129.368V30.9048H143.438V23.123H129.368V16.2364H145.233V8.15252H119.494V46.1718ZM316.734 7.25742C305.361 7.25742 297.579 15.0392 297.579 27.0111C297.579 38.9831 305.361 46.7648 316.734 46.7648C328.108 46.7648 335.889 38.9831 335.889 27.0111C335.889 15.0448 328.404 7.25742 316.734 7.25742ZM316.734 38.088C311.045 38.088 307.453 34.1943 307.453 27.0111C307.453 19.828 311.045 15.9343 316.734 15.9343C322.424 15.9343 326.015 19.828 326.015 27.0111C326.01 34.1999 322.418 38.088 316.734 38.088ZM361.031 8.15811V29.109L348.46 8.15811H338.284V46.1718H347.861V24.3202L361.031 46.1718H370.608V8.15811H361.031ZM98.5428 8.15811H84.1765V46.1718H98.5428C109.916 46.1718 117.099 38.6866 117.099 27.0167C117.099 15.3469 109.916 8.15811 98.5428 8.15811ZM98.2463 37.7915H93.7541V16.242H98.2463C103.936 16.242 107.225 20.1357 107.225 27.0167C107.225 33.8978 103.93 37.7915 98.2463 37.7915ZM283.811 8.15811H273.932V46.1718H298.474V37.7915H283.806V8.15811H283.811ZM176.959 29.7076C173.368 35.6936 169.474 38.088 164.987 38.088C159.001 38.088 155.41 33.8978 155.41 26.4125C155.41 19.5259 158.705 15.9343 163.493 15.9343C166.789 15.9343 169.479 17.4336 170.38 22.2224H180.26C179.063 12.9413 173.373 6.95532 163.796 6.95532C152.719 6.95532 145.536 14.7371 145.536 26.709C145.536 38.681 152.719 46.4627 164.691 46.4627C172.472 46.4627 177.86 43.1677 181.451 38.681H194.923V45.5677H204.802V8.15252H191.029L176.959 29.7076ZM194.621 31.5034H185.938L194.621 17.4336V31.5034ZM261.361 22.5245H248.192V8.15811H238.313V46.1718H248.192V30.9048H261.361V46.1718H271.241V8.15811H261.361V22.5245ZM206.889 16.242H216.467V46.1718H226.346V16.242H235.924V8.15811H206.889V16.242Z" fill="#3643BA"/>
<path d="M47.2076 0C26.1457 0 0 21.4378 0 39.1846C0 48.3563 7.14278 53 16.5843 53C23.485 53 31.9581 50.4978 40.067 45.7339V10.2425C37.8882 13.9357 27.7204 28.5837 19.6093 36.4442C15.4938 40.4935 12.1045 42.1609 9.31933 42.1609C6.17216 42.1609 4.59745 40.0171 4.59745 36.9206C4.59745 22.5085 29.1707 3.92914 45.5107 3.92914C52.1693 3.92914 56.5269 6.90772 56.5269 12.5042C56.5269 17.7446 52.8955 24.2961 46.8433 30.2511V41.2081C57.4953 32.8712 63.9118 22.2703 63.9118 13.6952C63.7896 4.64373 56.6491 0 47.2076 0Z" fill="#3643BA"/>
</svg>
