<svg width="286" height="41" viewBox="0 0 286 41" fill="none" xmlns="http://www.w3.org/2000/svg">
<path d="M92.1149 35.6886H111.895V29.2485H99.7029V23.9563H110.515V17.9762H99.7029V12.684H111.895V6.47177H92.1149V35.6886ZM243.689 5.78391C234.949 5.78391 228.969 11.764 228.969 20.9641C228.969 30.1642 234.949 36.1443 243.689 36.1443C252.429 36.1443 258.409 30.1642 258.409 20.9641C258.409 11.7683 252.657 5.78391 243.689 5.78391ZM243.689 29.4763C239.317 29.4763 236.557 26.4842 236.557 20.9641C236.557 15.444 239.317 12.4518 243.689 12.4518C248.061 12.4518 250.821 15.444 250.821 20.9641C250.817 26.4885 248.057 29.4763 243.689 29.4763ZM277.729 6.47606V22.5763L268.069 6.47606H260.249V35.6886H267.609V18.8962L277.729 35.6886H285.089V6.47606H277.729ZM76.0147 6.47606H64.9746V35.6886H76.0147C84.7548 35.6886 90.2749 29.9363 90.2749 20.9684C90.2749 12.0004 84.7548 6.47606 76.0147 6.47606ZM75.7869 29.2485H72.3347V12.6883H75.7869C80.1591 12.6883 82.687 15.6805 82.687 20.9684C82.687 26.2563 80.1548 29.2485 75.7869 29.2485ZM218.389 6.47606H210.796V35.6886H229.657V29.2485H218.384V6.47606H218.389ZM136.275 23.0363C133.515 27.6363 130.523 29.4763 127.075 29.4763C122.475 29.4763 119.715 26.2563 119.715 20.5041C119.715 15.2119 122.247 12.4518 125.927 12.4518C128.46 12.4518 130.528 13.604 131.22 17.284H138.812C137.892 10.1518 133.52 5.55176 126.16 5.55176C117.647 5.55176 112.127 11.5318 112.127 20.7319C112.127 29.932 117.647 35.9121 126.847 35.9121C132.828 35.9121 136.968 33.3799 139.728 29.932H150.08V35.2243H157.672V6.47177H147.088L136.275 23.0363ZM149.848 24.4163H143.176L149.848 13.604V24.4163ZM201.136 17.5162H191.016V6.47606H183.424V35.6886H191.016V23.9563H201.136V35.6886H208.728V6.47606H201.136V17.5162ZM159.276 12.6883H166.636V35.6886H174.228V12.6883H181.588V6.47606H159.276V12.6883Z" fill="#3643BA"/>
<path d="M36.5653 0.206787C20.3799 0.206787 0.287598 16.6811 0.287598 30.319C0.287598 37.3672 5.77663 40.9358 13.0322 40.9358C18.3352 40.9358 24.8465 39.013 31.078 35.352V8.07785C29.4036 10.9159 21.59 22.1725 15.3568 28.2131C12.1941 31.3249 9.58957 32.6063 7.44924 32.6063C5.03073 32.6063 3.82061 30.9588 3.82061 28.5792C3.82061 17.504 22.7045 3.22622 35.2613 3.22622C40.3782 3.22622 43.7269 5.51518 43.7269 9.81595C43.7269 13.843 40.9363 18.8777 36.2854 23.4539V31.8741C44.4711 25.4674 49.402 17.3209 49.402 10.7312C49.3081 3.77537 43.8208 0.206787 36.5653 0.206787Z" fill="#3643BA"/>
</svg>
