<svg width="254" height="65" viewBox="0 0 254 65" fill="none" xmlns="http://www.w3.org/2000/svg">
<path d="M6.12864 60.7287V37.4112C6.12864 35.2008 4.70938 33.6718 2.3063 32.9239C2.12352 32.8574 1.93536 32.802 1.74182 32.7577C1.54829 32.7023 1.35475 32.6579 1.16122 32.6247C0.96768 32.5915 0.774144 32.5638 0.580608 32.5416C0.387072 32.5195 0.193536 32.5028 0 32.4918C3.61267 32.3588 6.12864 30.4143 6.12864 27.5889V4.27141C6.12864 1.56239 8.72525 -0.0164898 13.7411 0.000129908L19.3375 0.0167497V2.1607H18.2408C13.3379 2.14408 12.3379 2.97507 12.3379 6.43198V27.2399C12.3379 30.0819 9.53165 32.2258 5.72544 32.4918C9.53165 32.7743 12.3379 34.9182 12.3379 37.7436V58.5682C12.3379 62.0251 13.2411 62.856 18.2408 62.8394H19.3375V64.9834H13.7411H13.6443C8.693 64.9834 6.12864 63.4045 6.12864 60.7287ZM240.259 65L234.646 64.9834V62.8394H235.743C240.759 62.8394 241.662 62.0251 241.662 58.5682V37.7436C241.662 34.9182 244.468 32.7743 248.275 32.4918C244.468 32.2258 241.662 30.0819 241.662 27.2399V6.43198C241.662 2.95845 240.662 2.14408 235.743 2.1607H234.646V0.0167497L240.259 0.000129908C245.259 -0.0164898 247.871 1.56239 247.871 4.27141V27.5889C247.871 30.4143 250.387 32.3588 254 32.4918C253.806 32.5028 253.613 32.5195 253.419 32.5416C253.215 32.5638 253.022 32.5915 252.839 32.6247C252.645 32.6579 252.452 32.7023 252.258 32.7577C252.065 32.802 251.876 32.8518 251.694 32.9072C249.291 33.6718 247.871 35.2008 247.871 37.4112V60.7287C247.871 63.4045 245.307 65 240.356 65H240.259ZM220.051 52.1031V36.547H205.003V52.0864H196.923V12.8971H205.003V28.2039H220.051V12.8971H228.131V52.0864L220.051 52.1031ZM181.005 52.1031C169.468 52.1031 163.699 45.5937 163.699 32.5748V32.392C163.818 19.3954 169.607 12.9026 181.069 12.9137H194.23V21.2402H179.456C178.908 21.2069 178.344 21.2402 177.811 21.3399C177.263 21.4396 176.731 21.6058 176.231 21.8551C175.731 22.0878 175.263 22.3869 174.828 22.736C174.392 23.1016 174.021 23.5005 173.683 23.9492C172.414 25.7663 171.779 28.6581 171.779 32.6247V33.1067C171.779 40.2199 174.317 43.7766 179.392 43.7766H194.181V52.1031H181.005ZM142.926 52.1031C142.443 52.1252 141.953 52.1141 141.459 52.0698C140.975 52.0366 140.491 51.9812 140.007 51.9036C139.523 51.815 139.05 51.7042 138.588 51.5712C138.115 51.4383 137.647 51.2776 137.185 51.0893C136.83 50.9452 136.481 50.779 136.137 50.5907C135.792 50.4023 135.459 50.1918 135.137 49.9591C134.814 49.7264 134.508 49.4827 134.217 49.2278C133.927 48.9619 133.647 48.6794 133.379 48.3802C133.142 48.1032 132.916 47.8152 132.701 47.516C132.486 47.2169 132.287 46.9066 132.105 46.5853C131.932 46.2529 131.771 45.9205 131.621 45.5881C131.481 45.2446 131.357 44.8956 131.25 44.5411C131.131 44.1865 131.035 43.8264 130.959 43.4608C130.873 43.0952 130.804 42.7295 130.75 42.3639C130.696 41.9983 130.653 41.6271 130.621 41.2504C130.588 40.8736 130.572 40.5025 130.572 40.1368C130.583 39.9374 130.588 39.7435 130.588 39.5551C130.599 39.3557 130.615 39.1618 130.637 38.9735C130.648 38.7851 130.669 38.5967 130.701 38.4084C130.723 38.22 130.75 38.0261 130.782 37.8267C130.814 37.6383 130.852 37.4444 130.895 37.245C130.938 37.0456 130.992 36.8517 131.056 36.6633C131.11 36.475 131.174 36.2866 131.25 36.0982C131.314 35.9099 131.39 35.7215 131.476 35.5332C131.551 35.367 131.637 35.2008 131.734 35.0346C131.83 34.8573 131.932 34.6911 132.04 34.536C132.137 34.3809 132.25 34.2257 132.379 34.0706C132.497 33.9155 132.621 33.7715 132.75 33.6385C132.879 33.4945 133.018 33.3615 133.169 33.2396C133.319 33.1178 133.475 33.0014 133.637 32.8906C133.798 32.7909 133.965 32.6967 134.137 32.6081C134.309 32.5195 134.486 32.4474 134.669 32.392C134.314 32.2258 133.975 32.0264 133.653 31.7937C133.341 31.5721 133.045 31.3173 132.766 31.0292C132.497 30.7301 132.255 30.4143 132.04 30.0819C131.825 29.7495 131.648 29.3949 131.508 29.0182C131.357 28.5972 131.223 28.1706 131.105 27.7385C130.997 27.3064 130.906 26.8687 130.83 26.4255C130.755 25.9823 130.701 25.5392 130.669 25.096C130.637 24.6417 130.626 24.193 130.637 23.7498C130.588 23.0019 130.637 22.254 130.75 21.5227C130.879 20.7748 131.072 20.0602 131.346 19.3621C131.621 18.6807 131.959 18.0159 132.379 17.401C132.798 16.8027 133.282 16.2376 133.814 15.739C134.459 15.2294 135.142 14.7806 135.862 14.3928C136.593 14.0161 137.346 13.7059 138.12 13.4621C138.894 13.2184 139.69 13.0522 140.507 12.9635C141.314 12.8638 142.12 12.8417 142.926 12.8971H161.845V21.2402H141.943C141.728 21.2402 141.518 21.2623 141.314 21.3067C141.099 21.351 140.894 21.4175 140.701 21.5061C140.507 21.5947 140.319 21.7055 140.136 21.8385C139.964 21.9714 139.808 22.121 139.669 22.2872C139.362 22.6196 139.136 23.0019 138.975 23.4174C138.814 23.8329 138.717 24.2816 138.717 24.7303C138.717 25.1791 138.782 25.6278 138.943 26.0599C139.088 26.4754 139.314 26.8577 139.604 27.2067C139.765 27.3729 139.937 27.5224 140.12 27.6554C140.303 27.7884 140.496 27.8992 140.701 27.9878C140.905 28.0654 141.12 28.1263 141.346 28.1706C141.561 28.2149 141.781 28.2316 142.007 28.2205H161.845V36.547H141.943C141.728 36.547 141.518 36.5691 141.314 36.6135C141.099 36.6689 140.894 36.7409 140.701 36.8295C140.507 36.9181 140.319 37.0234 140.136 37.1453C139.964 37.2782 139.808 37.4278 139.669 37.594C139.507 37.7713 139.367 37.9597 139.249 38.1591C139.131 38.3585 139.029 38.569 138.943 38.7906C138.857 39.0122 138.798 39.2449 138.765 39.4887C138.722 39.7213 138.706 39.954 138.717 40.1867C138.717 40.4194 138.733 40.6521 138.765 40.8847C138.808 41.1174 138.868 41.339 138.943 41.5495C139.029 41.7711 139.131 41.9816 139.249 42.1811C139.367 42.3694 139.507 42.5467 139.669 42.7129C139.819 42.8902 139.98 43.0398 140.152 43.1616C140.335 43.2946 140.529 43.4054 140.733 43.494C140.927 43.5938 141.131 43.6658 141.346 43.7101C141.561 43.7433 141.781 43.7599 142.007 43.7599H161.845V52.1031H142.926ZM112.106 52.1031V21.2402H103.171V12.8971H128.605V21.2402H120.186V52.1031H112.106ZM92.349 52.1031V12.8971H100.429V52.0864L92.349 52.1031ZM58.9156 52.1031V40.0205C58.8672 39.2061 58.8995 38.3918 59.0124 37.594C59.1253 36.7963 59.3188 35.9985 59.6091 35.2506C59.8833 34.4861 60.2381 33.7715 60.6736 33.0901C61.109 32.4087 61.609 31.7937 62.1735 31.2286C62.8025 30.6968 63.4637 30.2315 64.1733 29.8326C64.883 29.4337 65.6249 29.1013 66.3829 28.852C67.157 28.5861 67.9473 28.4199 68.7376 28.3036C69.544 28.2039 70.3504 28.1706 71.1406 28.2205H78.7531C78.9681 28.2205 79.1831 28.1983 79.3982 28.154C79.6132 28.1208 79.8229 28.0598 80.0272 27.9712C80.2315 27.8825 80.4196 27.7717 80.5917 27.6388C80.7744 27.5169 80.9411 27.3729 81.0916 27.2067C81.2421 27.0405 81.3819 26.8632 81.5109 26.6748C81.6292 26.4865 81.726 26.287 81.8013 26.0765C81.8873 25.866 81.9518 25.65 81.9948 25.4284C82.027 25.2068 82.0432 24.9852 82.0432 24.7636C82.0432 24.5309 82.0217 24.3038 81.9787 24.0822C81.9464 23.8606 81.8873 23.6445 81.8013 23.434C81.726 23.2124 81.6238 23.0074 81.4948 22.8191C81.3765 22.6307 81.2421 22.4534 81.0916 22.2872C80.9518 22.121 80.7906 21.9714 80.6078 21.8385C80.4357 21.7166 80.253 21.6058 80.0594 21.5061C79.8659 21.4175 79.6616 21.351 79.4466 21.3067C79.2423 21.2623 79.0326 21.2402 78.8176 21.2402H58.9156V12.9137H77.8338C78.3069 12.9026 78.7799 12.9137 79.253 12.9469C79.7261 12.9802 80.1938 13.0356 80.6562 13.1131C81.1293 13.1907 81.5916 13.2959 82.0432 13.4289C82.5055 13.5508 82.9571 13.6948 83.3979 13.861C83.7635 14.005 84.1183 14.1657 84.4624 14.343C84.8064 14.5203 85.1398 14.7142 85.4623 14.9247C85.7849 15.1463 86.0913 15.3789 86.3816 15.6227C86.6827 15.8775 86.9676 16.1435 87.2364 16.4204C87.4837 16.6864 87.7202 16.9689 87.946 17.2681C88.1611 17.5561 88.36 17.8608 88.5428 18.1821C88.7255 18.4924 88.8922 18.8137 89.0427 19.1461C89.1933 19.4896 89.3223 19.833 89.4298 20.1765C89.5481 20.5421 89.6502 20.9133 89.7362 21.29C89.8223 21.6668 89.8975 22.0435 89.962 22.4202C90.0158 22.7969 90.0588 23.1791 90.091 23.5669C90.1125 23.9437 90.1233 24.3259 90.1233 24.7137C90.1233 25.0793 90.1072 25.445 90.0749 25.8106C90.0534 26.1762 90.0158 26.5363 89.962 26.8909C89.9083 27.2565 89.8384 27.6166 89.7524 27.9712C89.6663 28.3257 89.5696 28.6803 89.4621 29.0348C89.3545 29.3783 89.2255 29.7218 89.075 30.0653C88.9352 30.3977 88.7739 30.7245 88.5911 31.0458C88.4084 31.3561 88.2148 31.6608 88.0105 31.9599C87.7955 32.2591 87.5697 32.5416 87.3332 32.8075C87.0644 33.1067 86.7794 33.3837 86.4784 33.6385C86.1881 33.9044 85.8816 34.1482 85.5591 34.3698C85.2473 34.6025 84.9193 34.813 84.5753 35.0013C84.2312 35.1897 83.8764 35.3614 83.5108 35.5165C83.07 35.7049 82.613 35.8656 82.1399 35.9985C81.6776 36.1426 81.2045 36.2589 80.7207 36.3475C80.2476 36.4251 79.7691 36.486 79.2853 36.5304C78.8014 36.5636 78.3176 36.5747 77.8338 36.5636H70.0439C69.8396 36.5636 69.6354 36.5858 69.4311 36.6301C69.2268 36.6744 69.0279 36.7409 68.8343 36.8295C68.6408 36.9292 68.4634 37.0456 68.3021 37.1785C68.1408 37.3115 67.9903 37.4611 67.8505 37.6273C67.7107 37.8045 67.5871 37.9929 67.4796 38.1923C67.3721 38.3918 67.2807 38.5967 67.2054 38.8073C67.1301 39.0178 67.0764 39.2338 67.0441 39.4554C67.0011 39.6881 66.985 39.9152 66.9957 40.1368V52.1197L58.9156 52.1031ZM38.175 52.1031C37.6912 52.1141 37.2073 52.1031 36.7235 52.0698C36.2289 52.0366 35.7397 51.9757 35.2558 51.887C34.7827 51.7984 34.3096 51.6876 33.8366 51.5546C33.3635 51.4217 32.8958 51.2665 32.4334 51.0893C32.0786 50.9341 31.7292 50.7624 31.3851 50.574C31.041 50.3857 30.7077 50.1752 30.3852 49.9425C30.0626 49.7209 29.7562 49.4771 29.4659 49.2112C29.1756 48.9453 28.896 48.6683 28.6272 48.3802C28.3907 48.1032 28.1649 47.8152 27.9498 47.516C27.7348 47.2058 27.5413 46.89 27.3692 46.5687C27.1864 46.2474 27.0252 45.915 26.8854 45.5715C26.7349 45.2391 26.6058 44.8956 26.4983 44.5411C26.3908 44.1754 26.294 43.8153 26.208 43.4608C26.122 43.0952 26.0521 42.724 25.9983 42.3473C25.9446 41.9816 25.9016 41.616 25.8693 41.2504C25.8478 40.8736 25.8371 40.4969 25.8371 40.1202C25.8371 39.9319 25.8424 39.738 25.8532 39.5385C25.8639 39.3502 25.8747 39.1618 25.8855 38.9735C25.907 38.7851 25.9285 38.5912 25.95 38.3918C25.9715 38.2034 25.9983 38.0151 26.0306 37.8267C26.0629 37.6273 26.1059 37.4334 26.1596 37.245C26.2026 37.0456 26.251 36.8517 26.3048 36.6633C26.3585 36.4639 26.4231 36.27 26.4983 36.0816C26.5736 35.9043 26.6488 35.7215 26.7241 35.5332C26.8101 35.3559 26.8961 35.1842 26.9822 35.018C27.0789 34.8518 27.1811 34.6911 27.2886 34.536C27.3961 34.3698 27.509 34.2147 27.6273 34.0706C27.7455 33.9155 27.8692 33.7659 27.9982 33.6219C28.1272 33.4889 28.267 33.356 28.4175 33.223C28.5681 33.1011 28.724 32.9903 28.8853 32.8906C29.0465 32.7798 29.2186 32.6856 29.4014 32.6081C29.5734 32.5195 29.7508 32.4419 29.9336 32.3754C29.5788 32.2203 29.2401 32.0264 28.9175 31.7937C28.595 31.561 28.2993 31.3007 28.0305 31.0126C27.7509 30.7245 27.509 30.4143 27.3047 30.0819C27.0897 29.7384 26.9069 29.3839 26.7564 29.0182C26.6058 28.5972 26.4714 28.1706 26.3532 27.7385C26.2456 27.3064 26.1543 26.8687 26.079 26.4255C26.0037 25.9823 25.95 25.5336 25.9177 25.0793C25.8855 24.6361 25.8747 24.1874 25.8855 23.7331C25.8532 23.0019 25.8855 22.254 25.9983 21.5061C26.1274 20.7748 26.3209 20.0602 26.5951 19.3621C26.8693 18.6641 27.2241 18.0159 27.6273 17.401C28.0466 16.7861 28.5304 16.221 29.0627 15.7224C29.7078 15.2127 30.3959 14.7696 31.1271 14.3928C31.8474 14.0161 32.5947 13.7059 33.3688 13.4621C34.143 13.2184 34.9386 13.0466 35.7558 12.9469C36.5622 12.8583 37.3686 12.8417 38.175 12.8971H57.0931V21.2402H37.1912C36.9761 21.2291 36.7665 21.2513 36.5622 21.3067C36.3472 21.351 36.1429 21.4175 35.9493 21.5061C35.7558 21.5947 35.5676 21.7055 35.3848 21.8385C35.2128 21.9604 35.0569 22.1044 34.9171 22.2706C34.6107 22.603 34.3849 22.9853 34.2236 23.4007C34.0624 23.8329 33.9656 24.265 33.9656 24.7303C33.9656 25.1791 34.0301 25.6278 34.1914 26.0433C34.3365 26.4588 34.5623 26.8577 34.8526 27.19C35.0032 27.3562 35.1752 27.5058 35.3687 27.6388C35.5515 27.7717 35.745 27.8825 35.9493 27.9712C36.1536 28.0598 36.3687 28.1208 36.5944 28.154C36.8095 28.1983 37.0299 28.2149 37.2557 28.2039H57.0931V36.547H37.1912C36.9761 36.547 36.7665 36.5691 36.5622 36.6135C36.3472 36.6578 36.1429 36.7242 35.9493 36.8129C35.7558 36.9015 35.5676 37.0123 35.3848 37.1453C35.2128 37.2782 35.0569 37.4278 34.9171 37.594C34.7559 37.7602 34.6161 37.943 34.4978 38.1425C34.3795 38.353 34.2774 38.569 34.1914 38.7906C34.1054 39.0122 34.0462 39.2394 34.014 39.472C33.971 39.7047 33.9548 39.9429 33.9656 40.1867C33.9548 40.4194 33.971 40.6465 34.014 40.8681C34.057 41.1008 34.1161 41.3279 34.1914 41.5495C34.2774 41.76 34.3795 41.965 34.4978 42.1644C34.6161 42.3639 34.7559 42.5467 34.9171 42.7129C35.0677 42.8791 35.2289 43.0287 35.401 43.1616C35.5838 43.2946 35.7773 43.4054 35.9816 43.494C36.1751 43.5827 36.3794 43.6491 36.5944 43.6935C36.8095 43.7378 37.0299 43.7599 37.2557 43.7599H57.0931V52.0864L38.175 52.1031Z" fill="#0091D3"/>
</svg>
