<svg width="194" height="50" viewBox="0 0 194 50" fill="none" xmlns="http://www.w3.org/2000/svg">
<path d="M4.68093 46.7144V28.7778C4.68093 27.0775 3.59693 25.9014 1.76151 25.3261C1.6219 25.2749 1.47819 25.2323 1.33037 25.1982C1.18255 25.1556 1.03473 25.1215 0.886913 25.0959C0.739094 25.0704 0.591276 25.0491 0.443457 25.032C0.295638 25.015 0.147819 25.0022 0 24.9937C2.75929 24.8914 4.68093 23.3956 4.68093 21.2222V3.2857C4.68093 1.20184 6.66417 -0.0126845 10.4951 9.9929e-05L14.7696 0.0128844V1.66208H13.9319C10.1872 1.64929 9.42345 2.28851 9.42345 4.94767V20.9538C9.42345 23.1399 7.28008 24.7891 4.37298 24.9937C7.28008 25.211 9.42345 26.8602 9.42345 29.0335V45.0524C9.42345 47.7116 10.1133 48.3508 13.9319 48.338H14.7696V49.9872H10.4951H10.4212C6.63953 49.9872 4.68093 48.7727 4.68093 46.7144ZM183.505 50L179.218 49.9872V48.338H180.056C183.887 48.338 184.577 47.7116 184.577 45.0524V29.0335C184.577 26.8602 186.72 25.211 189.627 24.9937C186.72 24.7891 184.577 23.1399 184.577 20.9538V4.94767C184.577 2.27573 183.813 1.64929 180.056 1.66208H179.218V0.0128844L183.505 9.9929e-05C187.323 -0.0126845 189.319 1.20184 189.319 3.2857V21.2222C189.319 23.3956 191.241 24.8914 194 24.9937C193.852 25.0022 193.704 25.015 193.557 25.032C193.401 25.0491 193.253 25.0704 193.113 25.0959C192.965 25.1215 192.817 25.1556 192.67 25.1982C192.522 25.2323 192.378 25.2707 192.238 25.3133C190.403 25.9013 189.319 27.0775 189.319 28.7778V46.7144C189.319 48.7727 187.36 50 183.579 50H183.505ZM168.07 40.0793V28.1131H156.577V40.0665H150.406V9.92082H156.577V21.6953H168.07V9.92082H174.242V40.0665L168.07 40.0793ZM138.248 40.0793C129.436 40.0793 125.03 35.072 125.03 25.0576V24.9169C125.12 14.9195 129.543 9.92508 138.297 9.9336H148.349V16.3386H137.065C136.646 16.313 136.215 16.3386 135.809 16.4153C135.39 16.492 134.983 16.6199 134.601 16.8116C134.22 16.9906 133.862 17.2207 133.53 17.4892C133.197 17.7705 132.914 18.0773 132.655 18.4225C131.686 19.8202 131.202 22.0447 131.202 25.0959V25.4667C131.202 30.9384 133.14 33.6743 137.016 33.6743H148.312V40.0793H138.248ZM109.164 40.0793C108.795 40.0963 108.421 40.0878 108.043 40.0537C107.674 40.0281 107.304 39.9855 106.935 39.9259C106.565 39.8577 106.204 39.7725 105.851 39.6702C105.489 39.5679 105.132 39.4443 104.779 39.2994C104.508 39.1886 104.241 39.0608 103.978 38.9159C103.715 38.771 103.461 38.6091 103.215 38.4301C102.968 38.2511 102.734 38.0636 102.512 37.8676C102.291 37.663 102.077 37.4457 101.872 37.2156C101.691 37.0025 101.519 36.7809 101.354 36.5508C101.19 36.3207 101.038 36.082 100.899 35.8349C100.767 35.5792 100.644 35.3235 100.529 35.0678C100.422 34.8036 100.328 34.5351 100.246 34.2624C100.156 33.9896 100.082 33.7126 100.024 33.4314C99.9584 33.1501 99.9051 32.8689 99.864 32.5876C99.8229 32.3063 99.7901 32.0208 99.7654 31.731C99.7408 31.4413 99.7285 31.1558 99.7285 30.8745C99.7367 30.7211 99.7408 30.5719 99.7408 30.427C99.749 30.2736 99.7613 30.1245 99.7778 29.9796C99.786 29.8347 99.8024 29.6898 99.827 29.5449C99.8435 29.4 99.864 29.2509 99.8886 29.0975C99.9133 28.9526 99.942 28.8034 99.9748 28.65C100.008 28.4966 100.049 28.3474 100.098 28.2025C100.139 28.0577 100.188 27.9128 100.246 27.7679C100.295 27.623 100.353 27.4781 100.418 27.3332C100.476 27.2054 100.541 27.0775 100.615 26.9497C100.689 26.8133 100.767 26.6855 100.849 26.5661C100.923 26.4468 101.01 26.3275 101.108 26.2082C101.198 26.0889 101.293 25.9781 101.391 25.8758C101.49 25.765 101.597 25.6627 101.712 25.569C101.827 25.4752 101.946 25.3857 102.069 25.3005C102.192 25.2238 102.319 25.1513 102.451 25.0831C102.582 25.015 102.718 24.9596 102.857 24.9169C102.586 24.7891 102.328 24.6357 102.081 24.4567C101.843 24.2863 101.617 24.0902 101.404 23.8686C101.198 23.6385 101.014 23.3956 100.849 23.1399C100.685 22.8842 100.55 22.6115 100.443 22.3217C100.328 21.9978 100.225 21.6697 100.135 21.3373C100.053 21.0049 99.9831 20.6683 99.9256 20.3273C99.8681 19.9864 99.827 19.6455 99.8024 19.3046C99.7778 18.9551 99.7695 18.61 99.7778 18.269C99.7408 17.6937 99.7778 17.1184 99.864 16.5559C99.9625 15.9806 100.11 15.4309 100.32 14.894C100.529 14.3698 100.788 13.8584 101.108 13.3854C101.428 12.9252 101.798 12.4905 102.204 12.107C102.697 11.7149 103.219 11.3697 103.769 11.0714C104.327 10.7816 104.902 10.543 105.493 10.3555C106.085 10.168 106.692 10.0401 107.317 9.97195C107.932 9.89525 108.548 9.8782 109.164 9.92082H123.614V16.3386H108.413C108.249 16.3386 108.088 16.3556 107.932 16.3897C107.768 16.4238 107.612 16.475 107.464 16.5431C107.317 16.6113 107.173 16.6966 107.033 16.7988C106.902 16.9011 106.783 17.0162 106.676 17.144C106.442 17.3997 106.269 17.6937 106.146 18.0134C106.023 18.333 105.949 18.6781 105.949 19.0233C105.949 19.3685 105.998 19.7137 106.122 20.0461C106.233 20.3657 106.405 20.6597 106.627 20.9282C106.75 21.0561 106.881 21.1711 107.021 21.2734C107.16 21.3757 107.308 21.4609 107.464 21.5291C107.62 21.5887 107.785 21.6356 107.957 21.6697C108.121 21.7038 108.29 21.7166 108.462 21.7081H123.614V28.1131H108.413C108.249 28.1131 108.088 28.1301 107.932 28.1642C107.768 28.2068 107.612 28.2622 107.464 28.3304C107.317 28.3986 107.173 28.4795 107.033 28.5733C106.902 28.6756 106.783 28.7906 106.676 28.9185C106.553 29.0548 106.446 29.1997 106.356 29.3531C106.265 29.5066 106.187 29.6685 106.122 29.839C106.056 30.0094 106.011 30.1884 105.986 30.3759C105.953 30.5549 105.941 30.7339 105.949 30.9128C105.949 31.0918 105.962 31.2708 105.986 31.4498C106.019 31.6288 106.064 31.7992 106.122 31.9612C106.187 32.1316 106.265 32.2936 106.356 32.447C106.446 32.5919 106.553 32.7282 106.676 32.8561C106.791 32.9924 106.914 33.1075 107.046 33.2013C107.185 33.3035 107.333 33.3888 107.489 33.457C107.637 33.5337 107.793 33.5891 107.957 33.6231C108.121 33.6487 108.29 33.6615 108.462 33.6615H123.614V40.0793H109.164ZM85.6241 40.0793V16.3386H78.7998V9.92082H98.2257V16.3386H91.7955V40.0793H85.6241ZM70.5343 40.0793V9.92082H76.7057V40.0665L70.5343 40.0793ZM44.9985 40.0793V30.785C44.9616 30.1586 44.9862 29.5321 45.0724 28.9185C45.1587 28.3048 45.3065 27.6912 45.5282 27.1159C45.7376 26.5278 46.0086 25.9781 46.3412 25.4539C46.6738 24.9297 47.0557 24.4567 47.4868 24.022C47.9672 23.6129 48.4723 23.255 49.0143 22.9481C49.5563 22.6413 50.1229 22.3856 50.7019 22.1939C51.2932 21.9893 51.8968 21.8615 52.5003 21.772C53.1163 21.6953 53.7322 21.6697 54.3358 21.7081H60.15C60.3142 21.7081 60.4785 21.691 60.6427 21.6569C60.8069 21.6314 60.9671 21.5845 61.1231 21.5163C61.2792 21.4481 61.4229 21.3629 61.5543 21.2606C61.6939 21.1669 61.8212 21.0561 61.9361 20.9282C62.0511 20.8004 62.1578 20.664 62.2564 20.5191C62.3467 20.3742 62.4206 20.2208 62.4781 20.0589C62.5438 19.8969 62.5931 19.7307 62.6259 19.5603C62.6506 19.3898 62.6629 19.2194 62.6629 19.0489C62.6629 18.8699 62.6465 18.6952 62.6136 18.5247C62.589 18.3543 62.5438 18.1881 62.4781 18.0261C62.4206 17.8557 62.3426 17.698 62.2441 17.5531C62.1537 17.4082 62.0511 17.2719 61.9361 17.144C61.8294 17.0162 61.7062 16.9011 61.5666 16.7988C61.4352 16.7051 61.2956 16.6199 61.1478 16.5431C60.9999 16.475 60.8439 16.4238 60.6797 16.3897C60.5236 16.3556 60.3635 16.3386 60.1992 16.3386H44.9985V9.9336H59.4478C59.8092 9.92508 60.1705 9.9336 60.5318 9.95917C60.8932 9.98474 61.2504 10.0274 61.6035 10.087C61.9649 10.1467 62.318 10.2276 62.6629 10.3299C63.016 10.4237 63.3609 10.5345 63.6976 10.6623C63.9768 10.7731 64.2478 10.8967 64.5106 11.0331C64.7734 11.1694 65.028 11.3186 65.2744 11.4805C65.5207 11.651 65.7548 11.83 65.9765 12.0175C66.2064 12.2135 66.4241 12.418 66.6294 12.6311C66.8183 12.8357 66.9989 13.053 67.1714 13.2831C67.3356 13.5047 67.4875 13.7391 67.6272 13.9863C67.7668 14.2249 67.894 14.4721 68.009 14.7278C68.124 14.992 68.2225 15.2562 68.3046 15.5204C68.395 15.8017 68.473 16.0872 68.5387 16.377C68.6044 16.6667 68.6619 16.9565 68.7112 17.2463C68.7522 17.5361 68.7851 17.8301 68.8097 18.1284C68.8261 18.4182 68.8343 18.7122 68.8343 19.0105C68.8343 19.2918 68.822 19.5731 68.7974 19.8543C68.781 20.1356 68.7522 20.4126 68.7112 20.6853C68.6701 20.9666 68.6167 21.2436 68.551 21.5163C68.4853 21.789 68.4114 22.0618 68.3293 22.3345C68.2472 22.5987 68.1486 22.8629 68.0336 23.1271C67.9269 23.3828 67.8037 23.6342 67.6641 23.8814C67.5245 24.1201 67.3767 24.3544 67.2206 24.5846C67.0564 24.8147 66.8839 25.032 66.7033 25.2366C66.498 25.4667 66.2804 25.6798 66.0504 25.8758C65.8287 26.0803 65.5946 26.2678 65.3483 26.4383C65.1101 26.6173 64.8597 26.7792 64.5969 26.9241C64.3341 27.069 64.0631 27.2011 63.7839 27.3204C63.4472 27.4653 63.0981 27.5889 62.7368 27.6912C62.3837 27.802 62.0224 27.8915 61.6528 27.9596C61.2915 28.0193 60.926 28.0662 60.5565 28.1003C60.1869 28.1258 59.8174 28.1344 59.4478 28.1258H53.4981C53.3421 28.1258 53.1861 28.1429 53.03 28.177C52.874 28.2111 52.7221 28.2622 52.5743 28.3304C52.4264 28.4071 52.2909 28.4966 52.1678 28.5989C52.0446 28.7011 51.9296 28.8162 51.8228 28.944C51.7161 29.0804 51.6216 29.2253 51.5395 29.3787C51.4574 29.5321 51.3876 29.6898 51.3301 29.8517C51.2726 30.0137 51.2316 30.1799 51.2069 30.3503C51.1741 30.5293 51.1618 30.704 51.17 30.8745V40.0921L44.9985 40.0793ZM29.1573 40.0793C28.7877 40.0878 28.4182 40.0793 28.0486 40.0537C27.6709 40.0281 27.2972 39.9813 26.9277 39.9131C26.5663 39.8449 26.205 39.7597 25.8437 39.6574C25.4823 39.5551 25.1251 39.4358 24.772 39.2994C24.501 39.1801 24.2341 39.048 23.9713 38.9031C23.7085 38.7582 23.4539 38.5963 23.2076 38.4173C22.9612 38.2468 22.7272 38.0593 22.5054 37.8548C22.2837 37.6502 22.0702 37.4372 21.8649 37.2156C21.6842 37.0025 21.5118 36.7809 21.3475 36.5508C21.1833 36.3121 21.0355 36.0692 20.9041 35.8221C20.7644 35.5749 20.6413 35.3192 20.5345 35.055C20.4195 34.7993 20.321 34.5351 20.2389 34.2624C20.1568 33.9811 20.0828 33.7041 20.0171 33.4314C19.9514 33.1501 19.8981 32.8646 19.857 32.5748C19.8159 32.2936 19.7831 32.0123 19.7585 31.731C19.742 31.4413 19.7338 31.1515 19.7338 30.8617C19.7338 30.7168 19.7379 30.5677 19.7461 30.4143C19.7544 30.2694 19.7626 30.1245 19.7708 29.9796C19.7872 29.8347 19.8036 29.6855 19.82 29.5321C19.8365 29.3872 19.857 29.2423 19.8816 29.0975C19.9063 28.944 19.9391 28.7949 19.9802 28.65C20.013 28.4966 20.05 28.3474 20.0911 28.2025C20.1321 28.0491 20.1814 27.9 20.2389 27.7551C20.2964 27.6187 20.3538 27.4781 20.4113 27.3332C20.477 27.1968 20.5427 27.0647 20.6084 26.9369C20.6823 26.809 20.7603 26.6855 20.8425 26.5661C20.9246 26.4383 21.0108 26.319 21.1011 26.2082C21.1915 26.0889 21.2859 25.9738 21.3845 25.863C21.483 25.7607 21.5898 25.6584 21.7047 25.5562C21.8197 25.4624 21.9388 25.3772 22.062 25.3005C22.1852 25.2153 22.3165 25.1428 22.4562 25.0831C22.5875 25.015 22.7231 24.9553 22.8627 24.9042C22.5917 24.7848 22.333 24.6357 22.0866 24.4567C21.8402 24.2777 21.6144 24.0774 21.4091 23.8558C21.1956 23.6342 21.0108 23.3956 20.8548 23.1399C20.6905 22.8757 20.5509 22.603 20.436 22.3217C20.321 21.9978 20.2183 21.6697 20.128 21.3373C20.0459 21.0049 19.9761 20.6683 19.9186 20.3273C19.8611 19.9864 19.8201 19.6412 19.7954 19.2918C19.7708 18.9509 19.7626 18.6057 19.7708 18.2563C19.7461 17.6937 19.7708 17.1184 19.857 16.5431C19.9556 15.9806 20.1034 15.4309 20.3128 14.894C20.5222 14.357 20.7932 13.8584 21.1011 13.3854C21.4214 12.9124 21.791 12.4777 22.1975 12.0942C22.6902 11.7021 23.2158 11.3612 23.7742 11.0714C24.3244 10.7816 24.8952 10.543 25.4864 10.3555C26.0777 10.168 26.6854 10.0359 27.3095 9.95917C27.9255 9.89099 28.5414 9.8782 29.1573 9.92082H43.6066V16.3386H28.4059C28.2416 16.3301 28.0815 16.3471 27.9255 16.3897C27.7612 16.4238 27.6052 16.475 27.4574 16.5431C27.3095 16.6113 27.1658 16.6966 27.0262 16.7988C26.8948 16.8926 26.7758 17.0034 26.669 17.1312C26.4349 17.3869 26.2625 17.681 26.1393 18.0006C26.0161 18.333 25.9422 18.6654 25.9422 19.0233C25.9422 19.3685 25.9915 19.7137 26.1147 20.0333C26.2255 20.3529 26.398 20.6597 26.6197 20.9154C26.7347 21.0433 26.8661 21.1583 27.0139 21.2606C27.1535 21.3629 27.3013 21.4481 27.4574 21.5163C27.6134 21.5845 27.7776 21.6314 27.9501 21.6569C28.1143 21.691 28.2827 21.7038 28.4551 21.6953H43.6066V28.1131H28.4059C28.2416 28.1131 28.0815 28.1301 27.9255 28.1642C27.7612 28.1983 27.6052 28.2494 27.4574 28.3176C27.3095 28.3858 27.1658 28.471 27.0262 28.5733C26.8948 28.6756 26.7758 28.7906 26.669 28.9185C26.5458 29.0463 26.4391 29.1869 26.3487 29.3404C26.2584 29.5023 26.1804 29.6685 26.1147 29.839C26.049 30.0094 26.0038 30.1841 25.9792 30.3631C25.9463 30.5421 25.934 30.7253 25.9422 30.9128C25.934 31.0918 25.9463 31.2665 25.9792 31.437C26.012 31.616 26.0572 31.7907 26.1147 31.9612C26.1804 32.1231 26.2584 32.2808 26.3487 32.4342C26.4391 32.5876 26.5458 32.7282 26.669 32.8561C26.784 32.9839 26.9071 33.099 27.0385 33.2013C27.1781 33.3035 27.326 33.3888 27.482 33.457C27.6298 33.5251 27.7858 33.5763 27.9501 33.6104C28.1143 33.6445 28.2827 33.6615 28.4551 33.6615H43.6066V40.0665L29.1573 40.0793Z" fill="#0091D3"/>
</svg>
