<svg width="132" height="78" viewBox="0 0 132 78" fill="none" xmlns="http://www.w3.org/2000/svg">
<path d="M132 0H0V44H132V0Z" fill="white"/>
<path d="M105.436 77.9501C105.363 77.9203 105.358 77.8405 105.42 77.6643C105.497 77.441 105.533 77.4236 105.831 77.4637C106.101 77.5001 106.181 77.4741 106.294 77.3122C106.511 77.0011 106.343 76.7766 105.949 76.8508C105.647 76.9077 105.642 76.9043 105.7 76.6714C105.885 75.9319 105.903 75.9726 105.352 75.863C104.696 75.7324 104.068 75.3636 103.586 74.8255C102.862 74.0174 102.611 73.2 102.683 71.8859C102.72 71.2164 102.777 70.9555 102.987 70.4899C103.631 69.0653 105.101 68.3388 107.077 68.469C107.505 68.4972 108.048 68.5703 108.284 68.6315L108.713 68.7427L108.738 69.5397L108.763 70.3367H108.502C108.348 70.3367 108.241 70.2917 108.241 70.2271C108.241 70.0032 107.715 69.4852 107.344 69.3427C106.864 69.1588 105.933 69.2008 105.466 69.4273C104.401 69.9451 103.915 71.2893 104.239 72.8232C104.389 73.536 104.638 74.0141 105.114 74.5047C105.564 74.9698 106.019 75.1576 106.7 75.1599C107.421 75.1623 107.926 74.8717 108.243 74.2713C108.458 73.8635 108.535 73.8134 108.743 73.9457C108.84 74.0073 108.841 74.1491 108.749 74.8034L108.638 75.5873L108.246 75.7232C108.031 75.7979 107.536 75.8824 107.147 75.9109C106.475 75.9601 106.438 75.9733 106.438 76.1654C106.438 76.3188 106.486 76.368 106.634 76.368C106.921 76.368 107.189 76.5909 107.253 76.881C107.327 77.2182 107.088 77.717 106.774 77.8796C106.548 77.9973 105.665 78.0438 105.436 77.9501ZM54.3596 77.5875C53.6164 77.3676 52.9754 77.0359 52.2045 76.4721L51.5385 75.9851L50.5083 75.9321C49.366 75.8733 48.9669 75.7453 48.228 75.2009C46.6003 74.0017 46.5412 70.9499 48.1169 69.4646C49.3032 68.3464 51.3901 68.1154 52.8922 68.9359C54.9201 70.0437 55.1354 73.3117 53.2933 75.0234C53.0074 75.2891 52.7274 75.5065 52.6711 75.5067C52.4956 75.5073 54.5131 76.6149 55.103 76.8419C55.7547 77.0927 56.5162 77.1262 57.074 76.9286C57.4798 76.785 57.5492 76.8022 57.6173 77.0635C57.657 77.2162 57.5876 77.2805 57.1769 77.4714C56.5295 77.7723 55.173 77.8282 54.3596 77.5875ZM51.8422 74.9247C53.2797 74.171 53.5534 71.7573 52.3761 70.216C51.2851 68.7875 49.3728 69.0037 48.6541 70.6369C48.0047 72.1124 48.7456 74.3936 50.0704 74.9975C50.6066 75.2419 51.2909 75.2138 51.8422 74.9247ZM6.72583 75.8176C6.33153 75.6449 5.89894 75.1076 5.21532 73.9415C4.16508 72.1501 3.96825 71.8876 3.67502 71.8876H3.42068L3.42241 72.8569C3.42556 74.6261 3.60279 75.2315 4.15853 75.3715C4.30719 75.4089 4.36501 75.4834 4.36501 75.6373V75.851H2.60512H0.845239V75.6481C0.845239 75.4944 0.910819 75.4263 1.11551 75.3674C1.26416 75.3246 1.46697 75.1804 1.56621 75.047C1.74231 74.8102 1.74664 74.724 1.74664 71.4567C1.74664 68.1894 1.74231 68.1032 1.56621 67.8665C1.46697 67.7331 1.26416 67.589 1.11551 67.5462C0.91801 67.4894 0.845239 67.4175 0.845239 67.2793C0.845239 67.091 0.85494 67.0899 3.02571 67.0339C5.33613 66.9742 5.84526 67.0183 6.49648 67.3347C7.06539 67.6111 7.53958 68.4487 7.5409 69.1794C7.54242 70.016 6.92253 70.9609 6.10456 71.3687L5.67638 71.5822L6.62274 73.0058C7.73608 74.6806 8.08572 75.1279 8.41467 75.2987C8.72176 75.4581 8.75126 75.8057 8.46425 75.8829C8.11895 75.9758 6.99008 75.9334 6.72583 75.8176ZM4.57769 71.016C5.72855 70.6954 6.11697 69.0903 5.24601 68.2543C4.83659 67.8614 4.40182 67.7187 3.84693 67.7953L3.42068 67.8542V69.4832V71.1121L3.82846 71.1116C4.05273 71.1114 4.38989 71.0684 4.57769 71.016ZM24.3575 75.8182C23.887 75.6495 23.4433 75.349 23.2085 75.04C22.7817 74.4783 22.7368 74.183 22.7316 71.8983C22.7262 69.5103 22.6814 69.2479 22.2447 69.0443C22.0693 68.9624 21.9669 68.8518 21.9657 68.7427C21.964 68.5771 22.0206 68.5704 23.4233 68.5704C24.8796 68.5704 24.8827 68.5708 24.8827 68.7642C24.8827 68.8945 24.8312 68.9581 24.7259 68.9581C24.6397 68.9581 24.4756 69.0581 24.3611 69.1804L24.153 69.4027V71.7437C24.153 73.9469 24.1635 74.1048 24.3313 74.426C24.5931 74.9268 25.1153 75.1844 25.7868 75.144C26.5093 75.1006 26.9001 74.8434 27.1886 74.2216C27.41 73.7445 27.412 73.7208 27.4136 71.6253C27.415 69.7489 27.3981 69.4845 27.2639 69.2788C27.1806 69.1513 27.0165 69.0228 26.899 68.9932C26.7657 68.9596 26.6855 68.8782 26.6855 68.7764C26.6855 68.6246 26.7649 68.6134 27.8444 68.6134C28.924 68.6134 29.0034 68.6246 29.0034 68.7764C29.0034 68.8779 28.9233 68.9596 28.7912 68.9929C28.3959 69.0924 28.3644 69.2771 28.3176 71.7648L28.2737 74.0976L28.0152 74.6044C27.7102 75.2026 27.2162 75.6162 26.5803 75.8057C26.0438 75.9656 24.7881 75.9727 24.3575 75.8182ZM57.8382 75.8182C57.3625 75.6476 56.9233 75.348 56.6803 75.0282C56.2756 74.4957 56.2176 74.102 56.2123 71.8524C56.2069 69.5134 56.1607 69.2473 55.7254 69.0443C55.55 68.9624 55.4476 68.8518 55.4465 68.7427C55.4447 68.5771 55.5013 68.5704 56.9041 68.5704C58.3465 68.5704 58.3635 68.5726 58.3634 68.7582C58.3634 68.8845 58.3029 68.9551 58.1789 68.9736C58.0774 68.9888 57.9132 69.1106 57.814 69.2442C57.645 69.472 57.6319 69.614 57.6054 71.5022C57.5727 73.822 57.6373 74.3112 58.0289 74.7132C58.7373 75.4405 60.2099 75.2373 60.6272 74.3548C60.89 73.7989 60.9574 73.1025 60.9251 71.279C60.8909 69.3482 60.8334 69.1075 60.3797 68.9932C60.2464 68.9596 60.1662 68.8782 60.1662 68.7764C60.1662 68.6246 60.2456 68.6134 61.3252 68.6134C62.4019 68.6134 62.4841 68.6249 62.4841 68.7753C62.4841 68.8731 62.3845 68.9786 62.2327 69.0417C62.0945 69.0992 61.9518 69.2105 61.9156 69.2891C61.8795 69.3677 61.8284 70.4818 61.8022 71.7649L61.7544 74.0979L61.496 74.6046C61.1909 75.2026 60.6968 75.6162 60.061 75.8057C59.5246 75.9656 58.2688 75.9727 57.8382 75.8182ZM85.0117 75.8146C84.6685 75.6647 84.2604 75.1541 83.6289 74.0847C82.8133 72.7037 82.7206 72.5791 82.5081 72.578C82.3181 72.5769 82.315 72.594 82.315 73.6567C82.315 74.945 82.4222 75.3082 82.8263 75.3893C83.0295 75.4301 83.0876 75.4873 83.0876 75.6464V75.851H81.6282H80.1688V75.6464C80.1688 75.4873 80.2269 75.4301 80.4301 75.3893C80.9192 75.2911 80.9538 75.0578 80.9245 72.0586L80.8985 69.4025L80.6904 69.1803C80.5759 69.0581 80.4117 68.9581 80.3255 68.9581C80.2284 68.9581 80.1688 68.8954 80.1688 68.7931C80.1688 68.651 80.2559 68.62 80.7985 68.5689C81.1448 68.5364 82.1009 68.5245 82.9232 68.5426C84.2601 68.572 84.4561 68.5956 84.7759 68.7649C85.344 69.0656 85.6631 69.6521 85.6631 70.3954C85.6631 71.1015 85.2597 71.7216 84.5275 72.1413C84.2938 72.2753 84.1428 72.4099 84.192 72.4404C84.2412 72.4709 84.6205 73.0085 85.035 73.635C85.8486 74.8648 86.3009 75.4202 86.4886 75.4202C86.6541 75.4202 86.6394 75.8202 86.4716 75.8849C86.228 75.9787 85.2831 75.9332 85.0117 75.8146ZM83.425 71.7614C83.7663 71.5843 84.1014 71.1584 84.1643 70.8218C84.2451 70.3895 84.0555 69.8193 83.728 69.5092C83.4246 69.2221 83.1316 69.1397 82.6244 69.1992L82.315 69.2354V70.5615V71.8876H82.7485C82.9869 71.8876 83.2914 71.8308 83.425 71.7614ZM121.638 75.7997C121.381 75.7303 121.155 75.6581 121.136 75.6392C121.117 75.6203 121.055 75.2337 120.997 74.7801L120.891 73.9555H121.134C121.267 73.9555 121.376 73.9876 121.376 74.0269C121.376 74.251 121.939 74.9113 122.266 75.07C123.149 75.499 124.209 75.0952 124.208 74.3302C124.208 73.8282 123.965 73.5281 123.138 73.0077C121.977 72.2775 121.529 71.8919 121.298 71.4245C121.067 70.9584 121.026 70.2332 121.2 69.7035C121.315 69.3538 121.854 68.8318 122.308 68.6306C122.765 68.4281 124.196 68.4346 124.788 68.6419L125.239 68.7996V69.5681V70.3367H124.991C124.798 70.3367 124.731 70.2888 124.689 70.1229C124.599 69.763 124.139 69.3137 123.754 69.2096C122.723 68.9311 121.898 69.9921 122.545 70.7637C122.668 70.9111 123.228 71.3439 123.789 71.7255C124.876 72.4646 125.277 72.8671 125.412 73.3523C125.708 74.42 125.216 75.363 124.156 75.7611C123.587 75.9747 122.357 75.9936 121.638 75.7997ZM9.17249 75.6188C9.17249 75.466 9.22056 75.4202 9.38088 75.4202C9.50376 75.4202 9.66229 75.3271 9.7672 75.1932C9.93863 74.9745 9.94513 74.8673 9.94513 72.258C9.94513 70.3644 9.91509 69.4933 9.84526 69.3617C9.71736 69.1207 9.51353 68.9643 9.32273 68.9608C9.22044 68.959 9.17249 68.8894 9.17249 68.7427V68.5273H11.7479H14.3234V69.4377V70.3481L14.098 70.3209C13.9282 70.3003 13.8488 70.2212 13.7761 70.0001C13.6068 69.4856 13.3242 69.3545 12.3024 69.3166L11.4045 69.2832V70.5103V71.7374L12.0951 71.6973C12.8476 71.6536 13.2266 71.4702 13.2777 71.125C13.2979 70.9884 13.3655 70.9399 13.5353 70.9399L13.7654 70.94V72.06V73.18L13.5293 73.18C13.3389 73.18 13.2932 73.1409 13.2932 72.9779C13.2932 72.5932 13.0069 72.4506 12.1683 72.4175L11.4045 72.3874V73.5973C11.4045 75.0557 11.4179 75.0755 12.3981 75.0755C13.3648 75.0755 13.8687 74.8298 14.121 74.2355C14.2485 73.9351 14.5457 73.8493 14.6365 74.0867C14.6964 74.2433 14.4544 75.2548 14.2727 75.6075L14.1441 75.8571L11.6583 75.8372L9.17249 75.8172V75.6188ZM15.7828 75.6464C15.7828 75.4888 15.8409 75.4301 16.0357 75.391C16.4886 75.3001 16.5101 75.1725 16.5392 72.4046C16.5694 69.5226 16.5327 69.263 16.0637 69.0443C15.868 68.953 15.786 68.8556 15.7846 68.713L15.7828 68.5109L17.7358 68.5466C19.8475 68.5853 20.0198 68.6188 20.5921 69.1021C21.2211 69.6333 21.3842 70.6899 20.9584 71.4751C20.587 72.16 19.9448 72.5237 18.9212 72.629L18.385 72.6841L18.2517 72.3505L18.1185 72.0168L18.4357 71.9703C18.8388 71.9111 19.2764 71.6549 19.5082 71.3425C19.64 71.1649 19.6873 70.9785 19.683 70.6532C19.6718 69.8143 19.2019 69.3012 18.3822 69.233L17.9184 69.1944L17.9451 72.0703C17.9743 75.2069 17.9881 75.295 18.4655 75.3932C18.6432 75.4298 18.7016 75.4924 18.7016 75.6464V75.851H17.2422H15.7828L15.7828 75.6464ZM30.0336 75.6149C30.0336 75.4815 30.0846 75.4202 30.1957 75.4202C30.2849 75.4202 30.4491 75.3462 30.5606 75.2556L30.7633 75.091L30.7893 72.4204C30.8184 69.4308 30.7854 69.2052 30.2926 69.0185C30.138 68.9599 30.0336 68.8584 30.0336 68.7669C30.0336 68.6274 30.1526 68.6115 31.3427 68.5919C33.848 68.5507 34.3723 68.5789 34.7798 68.7769C35.308 69.0335 35.5547 69.405 35.5983 70.0091C35.6179 70.2806 35.61 70.5981 35.5809 70.7146C35.4963 71.0528 35.0962 71.4659 34.6537 71.6716L34.2448 71.8617L34.5912 71.9659C35.4188 72.2148 35.9465 73.0834 35.8372 74.017C35.7449 74.8049 35.408 75.2481 34.6264 75.6095C34.2159 75.7993 34.1063 75.808 32.1154 75.8088L30.0336 75.8096V75.6149ZM33.8196 74.9662C34.2572 74.6728 34.4309 74.2733 34.3821 73.6724C34.3088 72.7684 33.6797 72.2322 32.6921 72.2322H32.1674L32.195 73.5325C32.2215 74.7788 32.2311 74.8395 32.4253 74.9972C32.7218 75.2379 33.4382 75.2219 33.8196 74.9662ZM33.4651 71.3859C33.9922 71.1832 34.2695 70.769 34.2147 70.2667C34.141 69.5917 33.5991 69.2166 32.6976 69.2166H32.1798V70.3798V71.5429L32.6305 71.5383C32.8783 71.5357 33.2539 71.4671 33.4651 71.3859ZM36.9873 75.6198C36.9873 75.4806 37.0464 75.4246 37.2148 75.4044C37.3428 75.3891 37.5213 75.2706 37.6226 75.1339C37.7964 74.8992 37.8028 74.7974 37.8028 72.2475C37.8028 70.1291 37.7787 69.5615 37.6815 69.3889C37.5299 69.1197 37.3324 68.9644 37.1375 68.9608C37.0397 68.9591 36.9872 68.8904 36.9872 68.7642C36.9872 68.5704 36.9872 68.5704 38.5325 68.5704C40.0778 68.5704 40.0778 68.5704 40.0778 68.7642C40.0778 68.8988 40.0267 68.9581 39.9109 68.9581C39.8191 68.9581 39.6356 69.0516 39.5031 69.1659L39.2622 69.3738L39.2373 72.0912L39.2124 74.8086L39.4321 74.9531C39.606 75.0674 39.7919 75.0894 40.3241 75.0585C41.141 75.011 41.5236 74.8081 41.7511 74.3016C41.9026 73.9646 42.0628 73.8828 42.2889 74.0269C42.3739 74.081 42.36 74.2402 42.224 74.7739C42.1289 75.147 41.9914 75.5437 41.9185 75.6555L41.7858 75.8587L39.3865 75.8333L36.9873 75.808L36.9873 75.6198ZM42.9966 75.6464C42.9966 75.4873 43.0548 75.4301 43.258 75.3893C43.732 75.2942 43.7693 75.0591 43.7689 72.1704C43.7687 69.7714 43.7576 69.5862 43.5999 69.3266C43.5071 69.1739 43.3334 69.0242 43.2139 68.9941C43.066 68.9569 42.9966 68.8805 42.9966 68.7549C42.9966 68.5735 43.0217 68.5704 44.456 68.5704C45.8904 68.5704 45.9154 68.5735 45.9154 68.7549C45.9154 68.8796 45.8462 68.9568 45.7019 68.9932C45.5845 69.0228 45.4203 69.1513 45.337 69.2787C45.2009 69.4872 45.1857 69.7736 45.1857 72.1422C45.1857 75.0676 45.2207 75.3023 45.6702 75.3925C45.8573 75.4301 45.9154 75.4902 45.9154 75.6464V75.851H44.456H42.9966V75.6464ZM63.5143 75.6308C63.5143 75.4891 63.5797 75.4286 63.7756 75.3893C64.2498 75.2941 64.2869 75.0598 64.2869 72.1616C64.2869 69.6228 64.2842 69.5826 64.0908 69.2939C63.9829 69.1329 63.8091 68.9888 63.7045 68.9736C63.5678 68.9539 63.5143 68.8872 63.5143 68.7367V68.5273H66.0468H68.5793V69.432C68.5793 70.3283 68.5774 70.3367 68.3742 70.3367C68.2083 70.3367 68.1585 70.2798 68.1135 70.0387C68.0177 69.5265 67.6671 69.3546 66.6407 69.3164L65.7722 69.2842L65.7163 69.6932C65.6856 69.9182 65.6605 70.4706 65.6605 70.9209V71.7396L66.3908 71.6938C67.1949 71.6435 67.5131 71.5014 67.6 71.1541C67.6384 71.0006 67.7118 70.9398 67.8589 70.9398H68.0642V72.0599V73.18H67.8496C67.7035 73.18 67.6341 73.1319 67.6323 73.0292C67.6245 72.6028 67.216 72.4046 66.3447 72.4046H65.644L65.6737 73.6179C65.7097 75.0876 65.7009 75.0756 66.7318 75.0756C67.6416 75.0756 68.1148 74.8568 68.3625 74.3217C68.4872 74.0521 68.5822 73.9555 68.7223 73.9555C68.8269 73.9555 68.9387 73.9979 68.9706 74.0497C69.0488 74.1768 68.668 75.5774 68.5129 75.733C68.4105 75.8358 67.9746 75.8537 65.9519 75.8384L63.5143 75.8199V75.6308ZM72.9576 75.6512C72.9576 75.5099 73.0376 75.4152 73.2304 75.3281C73.3805 75.2603 73.5833 75.0953 73.6811 74.9615C73.8536 74.7256 73.859 74.6198 73.859 71.472C73.859 67.8203 73.8522 67.7763 73.2595 67.58C73.0247 67.5022 72.9576 67.4336 72.9576 67.2713V67.0625H75.9622H78.9669V68.1396V69.2166H78.7094C78.4996 69.2166 78.4518 69.1806 78.4515 69.0227C78.451 68.7056 78.1277 68.2684 77.7846 68.1206C77.5816 68.0332 77.1114 67.9681 76.4988 67.9426L75.533 67.9025V69.3781V70.8537L76.2412 70.8488C77.1852 70.8423 77.5083 70.7247 77.7077 70.3151C77.836 70.0517 77.9113 69.992 78.1155 69.992H78.366V71.2899V72.5878L78.0903 72.5608C77.901 72.5423 77.8002 72.4798 77.7684 72.3615C77.6323 71.8547 77.1069 71.6291 76.0627 71.6291H75.5139L75.5488 73.1585C75.5887 74.9038 75.6619 75.1589 76.176 75.3455C76.4016 75.4274 76.4773 75.5047 76.4773 75.6529V75.851H74.7174H72.9576V75.6512ZM86.6932 75.6356C86.6932 75.4782 86.7391 75.4202 86.8637 75.4202C87.1268 75.4202 87.4272 74.8833 88.0802 73.246C88.9546 71.0536 89.7838 68.8244 89.7838 68.666C89.7838 68.5577 89.8732 68.5277 90.1915 68.529L90.5993 68.5308L91.7572 71.5095C93.0146 74.7442 93.2464 75.2469 93.5396 75.376C93.6581 75.4282 93.7328 75.5365 93.7328 75.6561C93.7328 75.8509 93.7319 75.851 92.2734 75.851H90.8139V75.6464C90.8139 75.4884 90.8721 75.4301 91.0692 75.3905C91.4381 75.3165 91.4604 75.0658 91.1736 74.214L90.9271 73.4816H89.9127H88.8983L88.6944 74.0847C88.4374 74.8446 88.4523 75.3648 88.7321 75.4047C88.8719 75.4246 88.9253 75.4901 88.9253 75.6416V75.851H87.8093H86.6932V75.6356ZM90.6422 72.6186C90.6422 72.4875 90.0116 70.7675 89.9635 70.7675C89.9322 70.7675 89.8447 70.9323 89.7691 71.1337C89.6934 71.3351 89.5323 71.7616 89.411 72.0815L89.1905 72.6631H89.9164C90.3156 72.6631 90.6422 72.643 90.6422 72.6186ZM94.3337 75.6464C94.3337 75.4924 94.3921 75.4298 94.5698 75.3932C95.0342 75.2977 95.0551 75.1763 95.0911 72.3587C95.1284 69.4519 95.092 69.2075 94.5928 69.0185C94.4382 68.9599 94.3337 68.8584 94.3337 68.7669C94.3337 68.6288 94.4305 68.6135 95.2995 68.6136L96.2653 68.6138L96.8233 69.3226C97.1302 69.7125 97.9222 70.6728 98.5832 71.4567C99.2442 72.2406 99.8736 72.9975 99.9819 73.1387L100.179 73.3954L100.151 71.4489C100.121 69.328 100.073 69.1092 99.6123 68.9932C99.4789 68.9596 99.3987 68.8782 99.3987 68.7764C99.3987 68.6246 99.4781 68.6134 100.558 68.6134C101.645 68.6134 101.717 68.6236 101.717 68.7798C101.717 68.884 101.648 68.9564 101.532 68.9736C101.431 68.9888 101.266 69.1106 101.167 69.2443C100.993 69.4793 100.986 69.5927 100.961 72.6692L100.934 75.851H100.56C100.222 75.851 100.159 75.8161 99.902 75.4848C99.675 75.192 96.0381 70.671 95.8992 70.509C95.8789 70.4853 95.8791 71.4352 95.9 72.62C95.9419 75.0223 95.9941 75.3097 96.4042 75.392C96.5938 75.4301 96.6519 75.4898 96.6519 75.6464V75.851H95.493H94.334V75.6464L94.3337 75.6464ZM109.357 75.6356C109.357 75.5076 109.406 75.4202 109.478 75.4202C109.648 75.4202 109.966 75.0159 110.193 74.5116C110.509 73.8103 111.979 70.0041 112.231 69.2337L112.465 68.5185L112.848 68.5445L113.232 68.5704L114.371 71.4999C114.998 73.1111 115.579 74.5651 115.663 74.7309C115.855 75.1095 116.134 75.4202 116.283 75.4202C116.347 75.4202 116.397 75.5142 116.397 75.6356V75.851H114.937H113.478V75.6356C113.478 75.4856 113.525 75.4202 113.632 75.4202C114.048 75.4202 114.086 75.0561 113.771 74.1066L113.55 73.4385H112.542H111.535L111.352 74.0201C111.007 75.1186 111.023 75.4202 111.428 75.4202C111.543 75.4202 111.589 75.4824 111.589 75.6356V75.851H110.473H109.357V75.6356ZM113 71.7799C112.837 71.2942 112.682 70.8386 112.653 70.7675C112.623 70.6903 112.451 71.0199 112.227 71.586C112.021 72.1073 111.851 72.5629 111.849 72.5984C111.848 72.634 112.173 72.6631 112.571 72.6631H113.295L113 71.7799ZM116.912 75.6356C116.912 75.4671 116.956 75.4202 117.113 75.4202C117.224 75.4202 117.388 75.3387 117.478 75.239C117.63 75.0703 117.643 74.8722 117.667 72.3741C117.681 70.8981 117.67 69.6043 117.644 69.499C117.583 69.2535 117.268 68.9581 117.067 68.9581C116.963 68.9581 116.912 68.8939 116.912 68.7642C116.912 68.5708 116.915 68.5704 118.371 68.5704C119.775 68.5704 119.83 68.577 119.831 68.7432C119.831 68.851 119.737 68.9576 119.582 69.0264C119.445 69.0871 119.294 69.242 119.245 69.3705C119.12 69.7007 119.049 72.3894 119.127 73.8418C119.181 74.8549 119.22 75.0942 119.353 75.242C119.441 75.34 119.585 75.4202 119.672 75.4202C119.784 75.4202 119.831 75.4837 119.831 75.6356V75.851H118.371H116.912V75.6356ZM126.527 75.6202C126.527 75.4659 126.574 75.4202 126.735 75.4202C126.858 75.4202 127.016 75.3271 127.121 75.1932C127.293 74.9745 127.299 74.8673 127.299 72.258C127.299 70.3644 127.269 69.4933 127.199 69.3617C127.072 69.1207 126.868 68.9643 126.677 68.9608C126.575 68.959 126.527 68.8894 126.527 68.7427V68.5273H129.102H131.678V69.4377V70.3481L131.452 70.3209C131.282 70.3003 131.203 70.2212 131.13 70.0001C130.961 69.4856 130.678 69.3545 129.657 69.3166L128.759 69.2832V70.4992V71.7153L129.295 71.7104C130.04 71.7037 130.403 71.5635 130.562 71.2217C130.656 71.018 130.748 70.9431 130.905 70.9418L131.12 70.9401V72.0601V73.18L130.883 73.18C130.693 73.18 130.647 73.1409 130.647 72.978C130.647 72.5932 130.361 72.4506 129.523 72.4175L128.759 72.3874V73.5974C128.759 75.0557 128.772 75.0756 129.752 75.0756C130.719 75.0756 131.223 74.8299 131.475 74.2355C131.603 73.9351 131.9 73.8493 131.991 74.0867C132.051 74.2434 131.809 75.2549 131.627 75.6076L131.498 75.8571L129.013 75.8386L126.527 75.8201V75.6202ZM11.4952 67.7585L11.2854 67.5966L11.7957 66.814C12.0763 66.3835 12.3607 66.0307 12.4277 66.0299C12.718 66.0267 13.6423 66.226 13.6191 66.2869C13.573 66.408 11.8786 67.9232 11.7909 67.9217C11.7436 67.9209 11.6106 67.8475 11.4952 67.7585ZM0.587695 61.8067H131.334V62.5821H0.587695V61.8067ZM50.3484 60.0434C49.6616 59.7977 49.2754 59.1552 49.4005 58.4666C49.4848 58.0026 49.7465 57.6779 50.2099 57.4624L50.6154 57.2739L50.3687 57.1317C50.2285 57.051 50.122 56.9164 50.122 56.82C50.122 56.6641 50.7515 56.0338 50.9072 56.0338C50.9443 56.0338 50.8904 55.8905 50.7874 55.7153C50.3478 54.9675 50.6995 53.8862 51.5203 53.4623C51.9647 53.2328 52.1147 53.2231 53.6706 53.3231C54.5657 53.3806 54.599 53.3899 54.5517 53.5667C54.5247 53.6678 54.5021 53.7796 54.5014 53.8152C54.5007 53.8507 54.3494 53.8798 54.165 53.8798H53.8297L53.875 54.3807C53.9737 55.4736 53.1993 56.2221 51.9491 56.2422C51.2997 56.2526 50.9854 56.3908 51.2387 56.5546C51.3092 56.6001 51.7284 56.7548 52.1704 56.8984C53.5917 57.36 53.8543 57.5923 53.7937 58.3342C53.7308 59.1047 53.1133 59.7764 52.22 60.0463C51.7084 60.2008 50.7843 60.1994 50.3484 60.0434ZM52.2598 59.5114C52.9568 59.1629 53.2587 58.4986 52.8776 58.1525C52.6208 57.9192 51.5056 57.5612 51.2166 57.6192C50.6283 57.7373 50.0787 58.4572 50.1801 58.9769C50.3195 59.6912 51.3638 59.9596 52.2598 59.5114ZM52.4897 55.6129C53.0129 55.2926 53.215 54.3838 52.8629 53.9345C52.3812 53.3199 51.4644 54.0049 51.4559 54.9858C51.4532 55.2906 51.497 55.3978 51.6935 55.5674C51.9831 55.8174 52.1407 55.8264 52.4897 55.6129ZM55.745 57.6122C55.3679 57.5349 55.1658 57.2822 55.123 56.8344C55.0132 55.6876 55.9745 54.0068 57.0503 53.4646C57.6096 53.1827 58.7126 53.1543 59.4475 53.4028C59.5134 53.4251 59.4647 53.7196 59.2948 54.3254C58.9625 55.5102 58.7722 56.6962 58.8815 56.9011C58.9532 57.0356 59.0041 57.0449 59.2316 56.9653C59.4417 56.8918 59.5137 56.8973 59.5731 56.9915C59.6967 57.1876 59.6216 57.2621 59.131 57.4304C58.4715 57.6568 58.1696 57.6126 58.0705 57.2755L57.9923 57.0093L57.6408 57.2065C57.0474 57.5393 56.2362 57.713 55.745 57.6122ZM57.2291 56.8376C57.4787 56.7186 57.7391 56.5352 57.8077 56.4302C57.9223 56.2546 58.272 54.962 58.4085 54.2093C58.4645 53.9008 58.4576 53.8902 58.1455 53.8037C57.5689 53.6439 56.989 54.0659 56.5271 54.9815C56.0425 55.942 55.9203 56.7977 56.236 57.0196C56.4504 57.1703 56.5817 57.1462 57.2291 56.8376ZM97.8755 57.5869C97.4902 57.4951 97.3543 57.3609 97.249 56.9684C97.0893 56.3732 97.4588 55.2474 98.0872 54.4145C98.8396 53.4171 99.676 53.0805 100.911 53.278C101.236 53.3299 101.528 53.3994 101.559 53.4323C101.59 53.4652 101.482 54.0155 101.318 54.6552C101.154 55.295 101.012 56.0705 101.003 56.3785L100.987 56.9385L101.352 56.9222C101.679 56.9076 101.717 56.9261 101.717 57.1024C101.717 57.2669 101.636 57.3235 101.221 57.4495C100.539 57.6568 100.222 57.6125 100.187 57.3047C100.172 57.1744 100.144 57.0678 100.125 57.0678C100.106 57.0678 99.8816 57.1605 99.6263 57.2738C99.2156 57.4561 98.3786 57.6862 98.2141 57.6621C98.181 57.6572 98.0286 57.6234 97.8755 57.5869ZM99.3129 56.8494C99.5254 56.7428 99.7619 56.5835 99.8384 56.4955C100.028 56.277 100.369 55.1525 100.546 54.1624C100.593 53.8985 100.579 53.8805 100.254 53.7926C99.9754 53.7175 99.8561 53.7269 99.6115 53.8433C99.0666 54.1029 98.5258 54.9834 98.2453 56.0678C97.9767 57.1064 98.3116 57.3516 99.3129 56.8494ZM6.21043 57.3909C6.18486 57.2843 6.33789 56.4828 6.55051 55.6098C6.96972 53.8887 6.96618 53.7488 6.50673 53.8811C6.2795 53.9465 6.25366 53.9339 6.25366 53.7582C6.25366 53.5941 6.33349 53.539 6.74729 53.4178C7.01878 53.3382 7.37612 53.2642 7.54138 53.2534C7.82424 53.2347 7.84347 53.2505 7.86942 53.5226C7.88458 53.6815 7.73651 54.4691 7.54036 55.2727C7.34422 56.0764 7.2067 56.794 7.23478 56.8674C7.27543 56.9737 7.36561 56.9889 7.67794 56.9419C8.05157 56.8856 8.06873 56.8922 8.0418 57.0803C8.01953 57.236 7.9136 57.3091 7.54138 57.426C7.28169 57.5075 6.88646 57.5766 6.66308 57.5795C6.31076 57.584 6.25077 57.5591 6.21043 57.3909ZM9.51087 57.4257L9.31514 57.2666L9.98021 54.3341C10.346 52.7212 10.6326 51.2904 10.6171 51.1544C10.5883 50.9009 10.5572 50.8879 10.2241 50.9893C10.0594 51.0394 10.031 51.0161 10.031 50.8309C10.031 50.58 10.3325 50.4587 11.1685 50.3735C11.6474 50.3247 11.6621 50.3294 11.6621 50.532C11.6621 50.6469 11.5269 51.3558 11.3616 52.1074C11.1964 52.859 11.0612 53.5243 11.0612 53.5858C11.0612 53.6694 11.1555 53.6559 11.4338 53.5323C12.3899 53.1079 13.2233 53.1303 13.5225 53.5886C13.8026 54.0177 13.6576 55.1281 13.2025 56.0383C12.9657 56.512 12.2612 57.2491 11.8785 57.4236C11.3759 57.6527 9.792 57.6541 9.51087 57.4257ZM11.6832 56.8793C12.1136 56.5736 12.5935 55.5404 12.7288 54.628C12.8644 53.7138 12.2624 53.5315 11.3008 54.1954C11.0977 54.3356 10.9348 54.5444 10.8507 54.7722C10.695 55.1937 10.3744 56.5692 10.3744 56.8154C10.3744 57.178 11.2056 57.2185 11.6832 56.8793ZM14.9618 57.3205C14.7293 57.0768 14.7101 57.0082 14.7149 56.4374C14.7273 54.9829 15.5511 53.6812 16.686 53.3229C17.2522 53.1442 17.7503 53.2048 18.0842 53.493C18.2767 53.6592 18.3153 53.7631 18.3153 54.1156C18.3153 55.0026 17.5093 55.6755 16.3494 55.7568C16.0141 55.7802 15.7115 55.8425 15.6768 55.8951C15.5802 56.0417 15.5994 56.5398 15.7098 56.7503C15.924 57.1588 16.2313 57.1684 16.9674 56.7895C17.426 56.5535 17.5204 56.5306 17.5885 56.6387C17.7402 56.8795 17.6699 56.9551 17.0023 57.2696C16.4464 57.5314 16.2385 57.5847 15.7736 57.5847C15.2611 57.5847 15.1927 57.5625 14.9618 57.3205ZM16.4991 55.2516C17.2295 55.0481 17.7113 54.2644 17.337 53.8888C17.101 53.6519 16.8827 53.6597 16.5795 53.9157C16.338 54.1197 15.9456 54.766 15.8296 55.1507C15.7808 55.3129 15.8037 55.3445 15.9702 55.3441C16.0796 55.3438 16.3176 55.3022 16.4991 55.2516ZM19.3884 57.5554C19.3884 57.5411 19.5427 56.873 19.7313 56.0707C19.9199 55.2685 20.0744 54.4424 20.0747 54.235L20.0752 53.8578L19.7318 53.9129C19.4274 53.9617 19.3884 53.9484 19.3884 53.7958C19.3884 53.6068 19.666 53.4621 20.3628 53.2878C20.8395 53.1686 21.0195 53.2504 21.0195 53.5862V53.7884L21.3242 53.5809C21.8601 53.2159 22.1875 53.149 22.5764 53.325C22.7627 53.4093 22.9033 53.5202 22.8888 53.5713C22.6557 54.396 22.5231 54.6552 22.3345 54.6552C22.1657 54.6552 22.1355 54.6111 22.1355 54.3642C22.1355 53.7374 21.5922 53.7329 21.1982 54.3565C20.9527 54.7451 20.6988 55.6287 20.4973 56.7963C20.4372 57.1446 20.3466 57.4418 20.296 57.4568C20.1449 57.5014 19.3884 57.5836 19.3884 57.5554ZM23.6947 57.4724C23.6 57.3578 23.652 57.0481 24.1429 54.806L24.3457 53.8798H24.0562C23.8969 53.8798 23.7667 53.8579 23.7667 53.831C23.7667 53.6963 23.9589 53.449 24.0636 53.449C24.2729 53.449 24.6748 53.041 24.8434 52.6574C25.0319 52.2285 25.1068 52.1597 25.387 52.1579C25.5715 52.1567 25.5856 52.1833 25.535 52.4366C25.5042 52.5906 25.4558 52.862 25.4274 53.0397L25.3758 53.3628H25.7731C26.1789 53.3628 26.2386 53.4287 26.1183 53.7435C26.0808 53.8415 25.9508 53.8798 25.6554 53.8798C25.1782 53.8798 25.2565 53.7075 24.8758 55.5943C24.596 56.9804 24.6149 57.1081 25.0797 56.9743C25.4677 56.8626 25.4989 56.8719 25.4681 57.0893C25.4473 57.2364 25.3371 57.3179 25.0115 57.4271C24.4859 57.6032 23.8218 57.6261 23.6947 57.4724ZM27.1576 57.3611C26.5293 56.6807 26.984 54.7457 27.9842 53.8432C28.3923 53.4749 29.0295 53.1905 29.4465 53.1905C29.7104 53.1905 30.292 53.462 30.3795 53.626C30.5178 53.8855 30.4747 54.5053 30.2981 54.796C29.9361 55.3918 29.1559 55.7753 28.3058 55.7753H27.8015V56.2301C27.8015 57.1128 28.167 57.2677 29.1278 56.7922C29.4341 56.6406 29.7015 56.5339 29.7222 56.5552C29.7428 56.5765 29.773 56.6714 29.7893 56.7662C29.8131 56.9045 29.6937 57.0023 29.1848 57.2616C28.6337 57.5424 28.473 57.5847 27.9574 57.5847C27.429 57.5847 27.3415 57.5603 27.1576 57.3611ZM28.6686 55.2452C29.1223 55.0908 29.4404 54.8299 29.5779 54.4997C29.6935 54.222 29.6903 54.1795 29.5381 53.974C29.3021 53.6556 29.0705 53.6536 28.7149 53.9669C28.4406 54.2087 27.9732 55.0191 27.9732 55.253C27.9732 55.3732 28.3035 55.3695 28.6686 55.2452ZM60.9102 57.5273C60.789 57.4056 60.8676 56.8972 61.2794 55.1397C61.8396 52.7487 62.1407 51.3411 62.1407 51.1128C62.1407 50.9494 62.1055 50.9335 61.8402 50.9767C61.5668 51.0212 61.5398 51.007 61.5398 50.8189C61.5398 50.6034 61.7539 50.508 62.607 50.3435C63.0476 50.2585 63.1709 50.3146 63.1709 50.5998C63.1709 50.7285 62.8814 52.0911 62.5276 53.6277C62.1738 55.1643 61.884 56.5528 61.8837 56.7133L61.8831 57.005L62.2753 56.9511C62.644 56.9004 62.6659 56.9085 62.6402 57.0874C62.619 57.2346 62.5057 57.3114 62.1407 57.426C61.6584 57.5774 61.0131 57.6305 60.9102 57.5273ZM64.1464 57.4795C64.0411 57.3085 64.1013 56.9353 64.4669 55.4946C64.6573 54.7442 64.7986 54.0643 64.781 53.9835C64.7471 53.8285 64.7256 53.825 64.3513 53.9135C64.1519 53.9606 64.1152 53.9415 64.1152 53.7909C64.1152 53.5855 64.4816 53.403 65.1493 53.2759C65.6262 53.1851 65.8322 53.2316 65.8322 53.43C65.8322 53.5042 65.6573 54.2968 65.4435 55.1915C65.2297 56.0861 65.0803 56.8594 65.1114 56.91C65.1461 56.9663 65.3157 56.9816 65.5489 56.9495C65.9055 56.9005 65.928 56.9092 65.9024 57.0874C65.8813 57.2346 65.768 57.3114 65.4029 57.426C64.8443 57.6014 64.2374 57.6272 64.1464 57.4795ZM67.3171 57.4411C67.2869 57.362 67.3099 57.0809 67.3682 56.8164C67.5598 55.9479 67.9784 53.9605 67.9784 53.9197C67.9784 53.8977 67.8596 53.8798 67.7145 53.8798C67.3419 53.8798 67.4114 53.639 67.8497 53.4116C68.1106 53.2763 68.2611 53.1043 68.4767 52.6951C68.7223 52.2291 68.7931 52.1566 69.0026 52.1566H69.2448L69.1297 52.6951C69.0664 52.9912 69.0132 53.2627 69.0116 53.2982C69.0099 53.3337 69.2017 53.3628 69.4378 53.3628C69.8863 53.3628 69.8968 53.3719 69.8129 53.6859C69.7677 53.8553 69.705 53.8798 69.3169 53.8798H68.8727L68.5839 55.3338C68.4251 56.1336 68.3185 56.8487 68.3469 56.9231C68.3887 57.0324 68.4529 57.0427 68.6816 56.9769C69.075 56.8636 69.0944 56.8694 69.0944 57.0995C69.0944 57.2746 69.0236 57.3235 68.5951 57.4441C67.93 57.6315 67.3894 57.6302 67.3171 57.4411ZM70.8524 57.3896C70.6388 57.2051 70.6017 57.1039 70.5711 56.6213C70.5023 55.5368 70.9969 54.3125 71.7312 53.7498C72.542 53.1284 73.4277 53.0459 73.9253 53.5454C74.1562 53.7771 74.1766 53.8425 74.1393 54.2318C74.0576 55.0852 73.2427 55.7051 72.1276 55.762C71.4302 55.7977 71.3568 55.8817 71.4936 56.4886C71.6425 57.1493 71.9131 57.2171 72.7724 56.8091C73.3416 56.5388 73.4726 56.539 73.4726 56.81C73.4726 57.0853 72.4423 57.5277 71.7061 57.5685C71.1582 57.5988 71.0744 57.5812 70.8524 57.3896ZM72.6985 55.0868C73.2339 54.8127 73.4636 54.203 73.1589 53.865C72.7754 53.4397 72.0654 53.9967 71.7129 54.9996L71.5833 55.3681L71.9703 55.3148C72.1831 55.2855 72.5108 55.1829 72.6985 55.0868ZM93.2177 57.553C93.2177 57.54 93.372 56.873 93.5606 56.0707C93.7491 55.2685 93.9037 54.4424 93.9039 54.235L93.9048 53.8578L93.5614 53.9129C93.2581 53.9616 93.218 53.9481 93.218 53.7977C93.218 53.5885 93.3691 53.5037 94.0645 53.3228C94.6688 53.1657 94.8491 53.2262 94.8491 53.5862V53.7884L95.1538 53.5809C95.6882 53.217 96.0174 53.1491 96.4026 53.3234C96.5869 53.4069 96.7378 53.4983 96.7378 53.5267C96.7378 53.555 96.6512 53.8206 96.5454 54.1167C96.3865 54.5614 96.3192 54.6552 96.1591 54.6552C95.996 54.6552 95.9652 54.6089 95.9652 54.3642C95.9652 53.7753 95.4607 53.7313 95.084 54.2875C94.7976 54.7104 94.651 55.1693 94.4162 56.3785C94.3104 56.9235 94.2003 57.3934 94.1716 57.4229C94.1201 57.4757 93.218 57.5988 93.218 57.553H93.2177ZM103.119 57.45C103.049 57.2657 103.13 56.735 103.462 55.2153L103.744 53.9229L103.503 53.8959C103.215 53.8636 103.166 53.5773 103.434 53.4919C103.736 53.3958 104.084 53.0405 104.253 52.6574C104.441 52.2285 104.516 52.1597 104.796 52.1579C104.981 52.1567 104.995 52.1833 104.944 52.4366C104.914 52.5906 104.865 52.862 104.837 53.0397L104.785 53.3628H105.183C105.588 53.3628 105.648 53.4287 105.528 53.7435C105.49 53.8415 105.36 53.8798 105.065 53.8798C104.588 53.8798 104.666 53.7075 104.285 55.5943C104.005 56.9804 104.024 57.1081 104.489 56.9743C104.877 56.8626 104.908 56.8719 104.878 57.0893C104.857 57.2364 104.746 57.3179 104.421 57.4271C103.849 57.6186 103.188 57.6302 103.119 57.45ZM106.583 57.3617C105.932 56.7086 106.382 54.756 107.394 53.8432C107.802 53.4749 108.439 53.1905 108.856 53.1905C109.12 53.1905 109.701 53.462 109.789 53.626C109.927 53.8855 109.884 54.5053 109.707 54.796C109.344 55.3946 108.565 55.7753 107.705 55.7753H107.19L107.228 56.3039C107.289 57.1433 107.596 57.2579 108.537 56.7922C108.843 56.6406 109.111 56.5339 109.132 56.5552C109.152 56.5765 109.182 56.6714 109.199 56.7662C109.222 56.9045 109.103 57.0023 108.594 57.2616C108.048 57.5399 107.88 57.5847 107.383 57.5847C106.876 57.5847 106.778 57.5574 106.583 57.3617ZM108.383 55.1162C108.983 54.8167 109.252 54.1222 108.878 53.8379C108.629 53.6491 108.449 53.6809 108.119 53.9718C107.843 54.2152 107.383 55.0228 107.383 55.2644C107.383 55.407 107.976 55.3191 108.383 55.1162ZM110.988 57.5107C110.988 57.4744 111.145 56.7756 111.337 55.9579C111.528 55.1402 111.673 54.3478 111.659 54.197C111.634 53.9401 111.612 53.924 111.319 53.9408C111.074 53.9548 110.997 53.9229 110.963 53.7929C110.928 53.658 111.002 53.5966 111.362 53.4634C111.605 53.3734 111.949 53.2734 112.126 53.2412C112.459 53.1807 112.453 53.176 112.661 53.6819C112.665 53.6915 112.895 53.5849 113.171 53.4449C113.763 53.1455 113.862 53.1372 114.221 53.3573L114.493 53.5235L114.307 54.0873C114.152 54.5577 114.09 54.6514 113.929 54.6532C113.767 54.6549 113.735 54.609 113.735 54.3709C113.735 53.6201 113.023 53.7686 112.634 54.6007C112.536 54.8097 112.342 55.5305 112.203 56.2023C112.064 56.8742 111.936 57.4352 111.92 57.4491C111.844 57.5127 110.988 57.5692 110.988 57.5107ZM115.281 57.511C115.281 57.4722 115.418 56.9011 115.587 56.2418C115.771 55.5217 115.899 54.8021 115.909 54.4399L115.924 53.8367L115.613 53.8607C115.369 53.8795 115.293 53.8498 115.26 53.7221C115.225 53.5893 115.298 53.535 115.657 53.4252C116.437 53.1866 116.621 53.1695 116.772 53.3214C116.849 53.3984 116.912 53.5555 116.912 53.6706C116.912 53.7857 116.928 53.8798 116.947 53.8798C116.966 53.8798 117.221 53.7663 117.513 53.6276C118.205 53.2992 119.123 53.1269 119.396 53.274C119.575 53.3699 119.588 53.4195 119.535 53.8144C119.504 54.0535 119.365 54.7185 119.227 55.2923C119.089 55.866 118.965 56.4711 118.952 56.637C118.929 56.9385 118.929 56.9386 119.29 56.9314C119.537 56.9265 119.667 56.9652 119.701 57.0535C119.769 57.2315 119.688 57.2895 119.15 57.4477C118.539 57.6272 117.977 57.6286 117.909 57.4508C117.881 57.3772 118.012 56.6261 118.2 55.7818C118.578 54.089 118.6 53.8963 118.42 53.8272C118.235 53.7559 117.578 54.0792 117.186 54.4346C116.864 54.7271 116.822 54.8181 116.624 55.6721C116.507 56.1791 116.383 56.7812 116.35 57.01C116.317 57.2389 116.246 57.4392 116.193 57.4551C115.932 57.533 115.281 57.573 115.281 57.511ZM121.169 57.4439C121.139 57.3664 121.292 56.5683 121.509 55.6702C121.726 54.7721 121.883 53.9846 121.859 53.9202C121.825 53.8305 121.748 53.8222 121.531 53.8845C121.376 53.9293 121.238 53.966 121.226 53.966C121.214 53.966 121.204 53.8761 121.204 53.7663C121.204 53.6003 121.28 53.5436 121.655 53.4298C122.672 53.1211 122.986 53.1735 122.883 53.6346C122.859 53.7458 122.682 54.4933 122.49 55.2957C122.299 56.0982 122.164 56.8109 122.19 56.8797C122.226 56.9751 122.33 56.9919 122.628 56.9509C122.995 56.9004 123.017 56.9087 122.991 57.0875C122.938 57.4558 121.296 57.777 121.169 57.4439ZM124.408 57.445C124.35 57.2953 124.42 56.8839 124.755 55.3877C125.126 53.7334 125.121 53.8798 124.81 53.8798C124.433 53.8798 124.496 53.6421 124.934 53.4117C125.186 53.2791 125.342 53.1016 125.543 52.7166C125.763 52.2963 125.858 52.1944 126.053 52.1712C126.314 52.1404 126.316 52.1623 126.132 53.0828L126.076 53.3629H126.525C126.899 53.3629 126.966 53.3856 126.922 53.4991C126.894 53.5741 126.87 53.6904 126.87 53.7576C126.87 53.848 126.75 53.8798 126.409 53.8798H125.947L125.664 55.3289C125.508 56.1259 125.404 56.841 125.434 56.9182C125.478 57.0329 125.539 57.0435 125.77 56.9769C126.164 56.8637 126.183 56.8694 126.183 57.0995C126.183 57.2747 126.113 57.3235 125.684 57.4442C125.026 57.6296 124.478 57.63 124.408 57.445ZM127.937 57.3853C127.691 57.1729 127.686 57.1513 127.686 56.3165C127.686 55.5044 127.701 55.4336 128.01 54.806C128.389 54.0362 128.824 53.6196 129.524 53.3569C130.743 52.8993 131.618 53.6767 131.079 54.7376C130.774 55.3375 129.96 55.7705 129.133 55.7735C128.636 55.7753 128.602 55.7884 128.549 56.0019C128.477 56.2889 128.567 56.7216 128.739 56.917C128.934 57.1391 129.27 57.102 129.868 56.792C130.315 56.5608 130.414 56.5364 130.48 56.6412C130.632 56.8824 130.557 56.9752 129.982 57.2539C129.54 57.4684 129.259 57.5428 128.795 57.5685C128.244 57.599 128.164 57.5819 127.937 57.3853ZM129.806 55.0659C130.387 54.7387 130.58 54.0951 130.178 53.8306C130.019 53.7264 129.906 53.7113 129.727 53.7708C129.425 53.8715 128.992 54.4348 128.813 54.9613L128.675 55.3676L129.07 55.3134C129.286 55.2836 129.618 55.1722 129.806 55.0659ZM0.00263979 57.3502C0.0185981 57.267 0.108474 57.1849 0.202365 57.1676C0.457277 57.1206 0.680017 56.8937 0.853963 56.5038C1.08469 55.9865 1.79666 52.3893 1.81591 51.6435C1.83233 51.0075 1.82984 50.9996 1.55679 50.825C1.02412 50.4844 1.16646 50.4333 2.64805 50.4333C3.82177 50.4333 4.02161 50.4524 4.02161 50.5647C4.02161 50.6421 3.91462 50.7176 3.76145 50.7483C3.21397 50.8582 3.00617 51.4007 2.48929 54.0691C2.00626 56.5627 2.01099 56.5146 2.22795 56.7323C2.39281 56.8978 2.48253 56.9119 3.15169 56.8781C4.05177 56.8327 4.37694 56.6806 4.69132 56.1583C4.93898 55.7467 4.94884 55.7398 5.12642 55.8527C5.22498 55.9154 5.22129 55.9952 5.10359 56.3468C5.02637 56.5775 4.87569 56.9213 4.76873 57.1109L4.57426 57.4555L2.27394 57.4785C0.119939 57.5 -0.0245294 57.4918 0.00263979 57.3502ZM43.4258 57.3764C43.4258 57.3093 43.5707 57.1832 43.7478 57.0964C43.9721 56.9864 44.1268 56.821 44.258 56.5508C44.5039 56.0442 45.2474 52.3748 45.261 51.6003C45.2713 51.015 45.2651 50.9968 44.9959 50.8248C44.4198 50.4568 44.55 50.4333 47.166 50.4333C49.5659 50.4333 49.6173 50.437 49.5649 50.6028C49.5354 50.6961 49.4631 51.0353 49.4042 51.3568C49.3133 51.8525 49.2684 51.9453 49.1086 51.9687C48.9553 51.9911 48.9201 51.9539 48.9201 51.7692C48.9201 51.1972 48.582 51.0365 47.3785 51.0365H46.5493L46.3112 52.135C46.1802 52.7392 46.0543 53.3014 46.0314 53.3844C45.994 53.5198 46.0668 53.535 46.7467 53.5339C47.6015 53.5324 47.8535 53.4409 48.1044 53.0406C48.3276 52.6844 48.6188 52.6557 48.5512 52.9966C48.5253 53.1269 48.4357 53.5922 48.3521 54.0306C48.2322 54.6592 48.1696 54.8276 48.0557 54.8276C47.9646 54.8276 47.8927 54.7339 47.8608 54.5738C47.833 54.4339 47.7222 54.2724 47.614 54.214C47.408 54.1028 46.058 54.0532 45.958 54.1532C45.9002 54.211 45.6467 55.4528 45.5355 56.2227C45.4821 56.5929 45.4958 56.6393 45.6972 56.7717C45.8741 56.8881 46.0641 56.909 46.6675 56.8786C47.5633 56.8334 47.8816 56.6899 48.2501 56.1653C48.4095 55.9383 48.5603 55.8075 48.6312 55.8348C48.7982 55.8991 48.7784 56.0531 48.5252 56.6611C48.1498 57.5627 48.3637 57.4986 45.7304 57.4986C43.7986 57.4986 43.4258 57.4788 43.4258 57.3764ZM87.0366 57.3782C87.0366 57.3096 87.1622 57.2105 87.3156 57.158C87.8576 56.9726 88.0367 56.4812 88.5789 53.6922C89.0458 51.2905 89.0344 50.9064 88.4908 50.7332C88.3941 50.7024 88.3299 50.632 88.3482 50.5768C88.3722 50.5043 89.0443 50.47 90.7629 50.4535C93.1037 50.431 93.1434 50.4335 93.0902 50.6015C93.0605 50.6955 92.988 51.0353 92.9291 51.3568C92.8382 51.8525 92.7934 51.9453 92.6335 51.9687C92.4744 51.9919 92.4451 51.955 92.4451 51.7317C92.4451 51.1878 92.0264 51.0083 90.8624 51.0532L90.1811 51.0795L89.9424 52.1996C89.8112 52.8157 89.7024 53.3682 89.7008 53.4274C89.6965 53.5865 91.0084 53.5723 91.3212 53.41C91.4539 53.3411 91.6112 53.1666 91.6707 53.0222C91.7371 52.8614 91.8416 52.7597 91.9404 52.7597C92.1402 52.7597 92.1415 52.6972 91.917 53.8582C91.7596 54.6722 91.7043 54.8276 91.5722 54.8276C91.4771 54.8276 91.4149 54.7653 91.4149 54.6703C91.4149 54.2682 90.6123 53.9693 89.8706 54.095L89.5425 54.1507L89.3684 55.1138C89.0613 56.8122 89.0742 56.966 89.5406 57.1599C90.0539 57.3733 89.7576 57.455 88.3817 57.4792C87.254 57.4991 87.0366 57.4828 87.0366 57.3782ZM36.6777 55.5247C36.2937 55.3497 35.9571 54.8088 35.9571 54.3668C35.9571 53.6823 36.5599 53.0702 37.2316 53.0726C38.035 53.0755 38.5316 53.568 38.5322 54.3625C38.533 55.372 37.6107 55.95 36.6777 55.5247ZM80.373 55.5654C80.2257 55.501 79.9952 55.3037 79.8609 55.127C79.6617 54.8649 79.6178 54.723 79.6231 54.3582C79.6345 53.5666 80.1249 53.0797 80.9109 53.0797C81.3004 53.0797 81.4301 53.1222 81.696 53.3369C82.2886 53.8153 82.3807 54.6173 81.9078 55.1814C81.5103 55.6555 80.9183 55.8036 80.373 55.5654ZM29.0479 52.5029C28.879 52.3157 28.8668 52.3353 29.8425 51.2204L30.1716 50.8442L30.6606 50.954C30.9295 51.0145 31.1496 51.0899 31.1496 51.1217C31.1496 51.1798 29.3114 52.6735 29.2399 52.6735C29.2189 52.6735 29.1325 52.5968 29.0479 52.5029ZM72.7233 52.5028L72.5329 52.3481L73.1809 51.6061C73.5373 51.198 73.8617 50.8642 73.9018 50.8642C74.1112 50.8642 74.8471 51.0759 74.8268 51.1304C74.8055 51.1877 73.2061 52.4786 73.0001 52.6048C72.9526 52.6338 72.8281 52.588 72.7233 52.5028ZM129.792 52.5036L129.585 52.3468L130.255 51.6055C130.624 51.1978 130.957 50.8642 130.995 50.8642C131.165 50.8642 131.935 51.0712 131.931 51.1159C131.927 51.1625 130.306 52.4753 130.095 52.6024C130.043 52.6343 129.906 52.5899 129.792 52.5036ZM7.2749 52.0614C6.92602 51.7113 7.2665 51.0365 7.79203 51.0365C8.15751 51.0365 8.34835 51.2289 8.34835 51.5975C8.34835 52.1725 7.67537 52.4634 7.2749 52.0614ZM65.2098 52.1228C64.9988 51.962 65.0113 51.4295 65.2312 51.2088C65.5853 50.8534 66.2614 51.0854 66.2614 51.5622C66.2614 52.0787 65.6086 52.4266 65.2098 52.1228ZM122.225 52.0614C121.87 51.7052 122.218 51.0365 122.759 51.0365C123.298 51.0365 123.529 51.6402 123.14 52.0312C122.875 52.2967 122.473 52.3099 122.225 52.0614ZM47.014 49.5985C46.8828 49.4518 46.9141 49.3992 47.5351 48.7212L48.1958 48L48.6867 48.1103C48.9567 48.1709 49.1757 48.2434 49.1733 48.2714C49.1664 48.3534 47.4424 49.6788 47.2912 49.7185C47.2154 49.7384 47.0907 49.6844 47.014 49.5985Z" fill="white"/>
<path d="M76 44L76.1986 43.4895C76.5351 42.5673 76.8841 41.8634 77.3878 41.0913C77.9214 40.2733 79.0959 39.0684 79.5845 38.8378C80.1849 38.5543 80.9314 38.4545 81.8545 38.5343C82.6472 38.6028 85.0827 38.9987 86.0655 39.2188C86.8135 39.3863 87.9087 39.4023 88.4241 39.2533C89.4171 38.9661 90.0053 38.4111 90.2845 37.4978C90.4987 36.7972 90.4966 36.1605 90.2789 35.7359C89.9864 35.1656 90.0362 35.0172 90.7471 34.3415C91.0982 34.0077 91.3859 33.6991 91.3865 33.6557C91.3895 33.4298 90.903 32.5227 90.7778 32.5207C90.701 32.5194 90.5494 32.4468 90.4409 32.3594L90.2435 32.2004L90.6655 31.9859C91.2418 31.6931 91.6692 31.2377 91.6692 30.9166C91.6692 30.7778 91.5478 30.4377 91.3994 30.1608C91.1146 29.6293 91.0384 29.1215 91.1988 28.8234C91.3047 28.6265 91.4874 28.5437 92.3847 28.2859C93.1388 28.0692 93.4115 27.8496 93.5189 27.3721C93.6109 26.9636 93.5657 26.7011 93.319 26.2104C93.1181 25.8108 91.8098 23.8183 91.4287 23.3315C90.9166 22.6774 90.2927 21.5473 90.1082 20.9395C89.9263 20.3403 89.9251 20.3064 90.0578 19.5319C90.3383 17.8947 90.1743 16.5373 89.376 13.8906C88.7827 11.9236 88.6234 11.4461 88.4377 11.0781C88.1018 10.4128 88.1467 10.2571 88.8357 9.69626C89.1656 9.42783 89.472 9.14024 89.5167 9.05718C89.7248 8.67043 89.4922 7.92523 89.098 7.71533C88.8477 7.58211 88.7084 7.67357 88.4544 8.1379C88.2619 8.48972 88.1864 8.55634 87.9804 8.55634C87.6451 8.55634 87.5863 8.41651 87.8004 8.12836C88.0501 7.79241 88.0303 7.73854 87.6381 7.68621C87.3445 7.64704 87.1893 7.53299 86.5528 6.88864C85.6995 6.02477 85.1263 5.62667 83.9835 5.10435C83.4596 4.86491 83.2772 4.75158 83.4694 4.78501C83.6332 4.8135 84.2126 4.85904 84.7568 4.8862C86.336 4.96501 86.7199 4.7576 87.0879 3.62669C87.3378 2.85885 87.4576 2.50374 86.8842 1.96765L84.7797 0H132V44H76Z" fill="#E2011C"/>
<path d="M35.1517 44C34.804 43.9642 34.5025 43.9487 34.4817 43.9283C34.4451 43.8925 34.8379 43.6451 36.6363 42.5712C37.2132 42.2267 37.4505 42.0421 37.3704 42.0001C37.3053 41.966 36.8017 41.9119 36.2514 41.8799C35.4339 41.8324 35.1969 41.846 34.956 41.9545C34.7939 42.0275 34.1467 42.2195 33.5178 42.3812C31.9582 42.7822 31.4334 43.0576 30.9326 43.7374L30.7454 44H0V0H61L59.8181 0.755929C59.1674 1.07245 58.4112 1.51205 58.1377 1.73283C57.2099 2.48174 55.9604 4.18544 55.6484 5.12714C55.5338 5.47326 55.4297 5.603 55.0778 5.83827C54.5409 6.19729 53.8978 6.88195 53.3653 7.66141C52.6422 8.7198 51.264 11.1051 50.9932 11.7667C50.5731 12.7932 50.6112 13.5749 51.2312 16.6425C51.5042 17.993 51.7995 19.3647 51.8875 19.6906C51.9756 20.0166 52.0719 20.5691 52.1017 20.9184C52.1547 21.542 52.1961 21.677 52.5687 22.4425C52.6707 22.652 52.7541 22.8899 52.7539 22.971C52.7538 23.0521 52.8314 23.166 52.9264 23.2242C53.025 23.2845 53.0991 23.4216 53.0991 23.5434C53.0991 23.6901 53.2958 23.9685 53.7279 24.4332C54.7162 25.4966 55.4309 26.4933 55.4309 26.8086C55.4309 27.0675 55.0432 27.1344 54.4187 26.9833C53.6887 26.8067 53.0916 26.4252 52.1708 25.5472C51.7789 25.1736 51.4583 24.9224 51.4583 24.989C51.4583 25.0556 51.727 25.403 52.0553 25.761C52.7084 26.4729 52.8109 26.6671 52.6696 26.9259C52.5461 27.1522 52.2455 27.2181 51.8388 27.108C51.3696 26.981 51.0946 27.1581 51.172 27.5375C51.2195 27.7702 51.2064 27.7976 51.0722 27.7471C50.807 27.6473 50.2264 27.533 49.7044 27.4778C49.2249 27.427 49.1894 27.4064 48.8991 27.0103C48.6791 26.71 48.508 26.5718 48.2781 26.5085C47.4211 26.2727 45.2897 25.9093 43.8586 25.7549C41.343 25.4836 40.7371 25.4623 39.532 25.6028C38.6065 25.7107 38.3548 25.7741 37.8479 26.0266C36.9506 26.4736 35.3952 27.8743 35.3952 28.2354C35.3952 28.4047 35.7378 28.345 36.1293 28.1073C37.3173 27.3861 41.3869 26.3681 43.3836 26.2927C44.373 26.2554 44.3194 26.3018 43.1322 26.5103C42.804 26.568 42.0267 26.7631 41.405 26.9439C40.7833 27.1247 39.7111 27.4033 39.0224 27.563C38.3336 27.7228 37.5564 27.9287 37.2952 28.0206L36.8202 28.1878L37.5542 28.1956C41.2946 28.2357 45.5583 29.3991 47.2934 30.8532C48.0401 31.4788 48.3135 31.5548 49.4117 31.4414C50.9168 31.2862 52.8648 30.5821 53.7192 29.8848C54.0899 29.5821 54.3949 29.4618 54.3943 29.6184C54.3934 29.895 53.9023 31.3817 53.69 31.7506C53.4534 32.1618 53.44 32.221 53.5632 32.3093C53.639 32.3637 53.6792 32.4295 53.6526 32.4555C53.6261 32.4816 53.6849 32.528 53.7835 32.5587C54.0669 32.6469 53.9956 32.7321 53.5433 32.8458C53.1023 32.9566 52.7537 33.1506 52.7537 33.2852C52.7537 33.3292 52.8143 33.3651 52.8883 33.3651C53.1102 33.3651 52.9446 33.5171 52.6549 33.5795C52.4564 33.6222 52.4168 33.6571 52.5047 33.7117C52.5909 33.7652 52.5941 33.7862 52.5162 33.7872C52.4568 33.7878 52.4083 33.8744 52.4083 33.9795C52.4083 34.1103 52.3266 34.2059 52.1492 34.2829C51.7168 34.4706 51.838 34.5719 52.4299 34.5176C52.7267 34.4903 52.9113 34.4906 52.8401 34.5182C52.7688 34.5458 52.283 34.7612 51.7606 34.997C51.2381 35.2327 50.558 35.5126 50.2492 35.6189C49.8998 35.7392 49.6765 35.8659 49.6578 35.9546C49.6276 36.0972 49.7899 36.0924 50.198 35.9389C50.2737 35.9104 50.3347 35.9198 50.3335 35.9597C50.3323 35.9996 49.4329 36.5085 48.3347 37.0906C47.2365 37.6728 46.2089 38.2729 46.0511 38.4242C45.8933 38.5756 45.6915 38.6994 45.6025 38.6994C45.513 38.6994 45.396 38.7957 45.3406 38.9151C45.1728 39.276 45.2075 39.3199 45.6074 39.2526C46.2014 39.1526 46.4737 39.1581 46.5131 39.2709C46.5345 39.332 46.4784 39.3768 46.3808 39.3768C46.2877 39.3768 46.165 39.4317 46.1082 39.4988C46.0514 39.5659 45.9014 39.6325 45.7749 39.6469C45.6278 39.6637 45.4823 39.7702 45.371 39.9426C45.2754 40.0908 45.1194 40.2317 45.0244 40.2556C44.9294 40.2795 45.0655 40.2835 45.3267 40.2645C49.2112 39.9812 49.9349 39.8403 51.5015 39.062C52.838 38.398 54.2253 37.4109 55.2123 36.4218C55.4958 36.1377 55.7581 35.9052 55.7952 35.9052C55.9294 35.9052 55.8566 36.3802 55.6585 36.7974C55.3155 37.5194 54.596 38.1845 53.117 39.1466C52.371 39.6319 51.5662 40.089 51.3288 40.1623C50.5867 40.3914 49.3888 40.6354 48.133 40.8133C44.0419 41.3929 42.4762 41.8325 40.9254 42.8372C40.6658 43.0053 40.3934 43.1329 40.3199 43.1207C40.2464 43.1085 40.0508 43.2122 39.885 43.351C39.4189 43.7416 39.7566 43.6755 40.7233 43.187C41.714 42.6864 42.1784 42.6075 41.3973 43.0725C40.4395 43.6427 39.7094 44 38.9945 44H35.1517ZM30.0697 39.0918C30.2249 39.0282 30.7386 38.7462 31.2112 38.4652C31.6837 38.1842 32.2452 37.8765 32.459 37.7815C32.6727 37.6865 33.2751 37.4197 33.7976 37.1887C34.8927 36.7044 36.4998 36.2475 36.5922 36.3941C36.6247 36.4456 36.8641 36.5023 37.1243 36.5202C37.4885 36.5451 37.5527 36.5681 37.4031 36.6198C37.2962 36.6568 37.2088 36.7207 37.2088 36.7618C37.2088 36.915 38.017 36.8691 38.3573 36.6965C38.4907 36.6289 38.7921 36.5512 39.027 36.524C39.3191 36.49 39.4542 36.4356 39.4542 36.3517C39.4542 36.256 39.5284 36.2413 39.7921 36.285C40.1551 36.3452 40.9358 36.2005 43.0381 35.6834C44.4619 35.3333 45.5403 34.9809 46.4874 34.5562L47.1731 34.2488L46.4874 33.8182C44.8161 32.7688 43.1379 32.1244 39.4542 31.1176C38.813 30.9423 38.2494 30.7611 38.202 30.7148C38.1447 30.659 38.1737 30.6511 38.2883 30.6914C38.6561 30.8207 38.936 30.8455 38.936 30.7488C38.936 30.6233 38.6579 30.5221 38.1115 30.4489C37.6117 30.3819 37.2891 30.2357 37.6363 30.2336C38.1736 30.2303 37.2499 29.8964 36.2157 29.7201C35.45 29.5896 35.4059 29.5617 35.7257 29.4099C36.0044 29.2775 36.3042 28.7767 36.2253 28.5752C36.1583 28.4042 36.0748 28.4218 35.6607 28.6945C34.8623 29.2203 34.1299 30.0812 33.7184 30.9779C33.4836 31.4894 33.5649 31.5364 34.7733 31.587C35.7628 31.6285 35.7784 31.6322 35.5248 31.7657C35.3823 31.8408 35.0964 31.9276 34.8896 31.9587C34.187 32.0643 33.7968 32.3911 34.1451 32.5822C34.2485 32.6389 34.2075 32.6868 33.9535 32.8055C33.6688 32.9386 33.6488 32.9668 33.7856 33.0419C33.871 33.0887 34.1194 33.1132 34.3375 33.0961C34.6406 33.0725 34.7791 33.1045 34.925 33.232L35.116 33.3987L34.7328 33.6369C34.5221 33.7679 34.2838 33.9973 34.2032 34.1466C34.1226 34.2959 33.8332 34.6511 33.5601 34.936C33.287 35.2209 33.0635 35.5155 33.0635 35.5908C33.0635 35.666 32.6652 36.04 32.1783 36.4218C30.869 37.4487 30.3 38.0131 30.3 38.2848C30.3 38.4286 30.226 38.5581 30.0962 38.6415C29.6874 38.9041 29.4741 39.2074 29.6982 39.2074C29.7472 39.2074 29.9144 39.1554 30.0697 39.0918ZM40.1721 38.1024C40.4956 38.06 40.8704 37.9617 41.0047 37.8838L41.2491 37.7423L40.8323 37.5387L40.4156 37.3351L39.9997 37.5003C39.7709 37.5912 39.4541 37.7136 39.2957 37.7724C38.6585 38.0087 38.5754 38.3265 39.1735 38.2393C39.3991 38.2064 39.8485 38.1448 40.1721 38.1024ZM25.5501 34.2521C27.4747 32.2792 28.8327 31.1088 30.5566 29.9376C31.1424 29.5395 31.5551 29.3094 31.5755 29.3694C31.6314 29.534 31.8824 29.4855 32.2909 29.2312C32.7604 28.939 32.9953 28.6433 33.5813 27.6065C34.1892 26.5309 34.419 26.2621 35.2966 25.5995C35.7071 25.2895 36.3116 24.8268 36.6399 24.5712C37.113 24.2028 37.2266 24.1446 37.1877 24.2905C37.1576 24.4035 37.1784 24.4746 37.2416 24.4746C37.4378 24.4746 38.3623 24.0877 38.3948 23.992C38.4457 23.8424 37.5064 23.6879 36.8117 23.7316C36.2783 23.7651 36.0894 23.8258 35.4276 24.1761C33.8724 24.9992 32.7489 25.8871 30.6037 27.9885C29.0599 29.5007 27.8437 30.5147 27.2291 30.8021C27.0289 30.8957 26.8781 31.0918 26.6353 31.5748C26.1633 32.5134 25.3206 33.8604 24.5207 34.9549C23.7647 35.9894 23.6024 36.3472 24.1899 35.6843C24.3918 35.4566 25.0039 34.8121 25.5501 34.2521ZM44.8085 43.5153C47.1199 43.0443 47.375 43.0093 48.997 42.9396C50.8183 42.8614 51.0504 42.8151 52.1461 42.3102C52.4972 42.1484 52.6348 42.119 52.6836 42.1953C52.7685 42.3282 53.3628 42.0109 54.5241 41.2126C54.9991 40.8861 55.6708 40.4688 56.0167 40.2853C56.538 40.0088 56.6975 39.9612 56.9483 40.0074C57.216 40.0566 57.2953 40.0246 57.6373 39.7296C58.585 38.9117 59.3942 38.5336 60.2023 38.5311C60.4426 38.5303 60.5262 38.5652 60.5262 38.6661C60.5262 38.7523 60.5737 38.7843 60.6557 38.7535C60.8965 38.6629 60.7874 38.7665 60.1682 39.2165C59.4513 39.7376 59.5218 39.894 60.2506 39.3995C60.9562 38.9206 60.958 38.9199 60.958 39.1136C60.958 39.2239 60.6924 39.5009 60.2023 39.9018C59.0873 40.8138 58.2978 41.568 57.0958 42.8695L56.0206 44H42.3473L44.8085 43.5153ZM44.8301 26.279C44.9132 26.2577 45.0493 26.2577 45.1324 26.279C45.2155 26.3003 45.1475 26.3177 44.9813 26.3177C44.815 26.3177 44.747 26.3003 44.8301 26.279Z" fill="#003189"/>
<path d="M84.5413 22.9591C84.1389 22.9097 84.3465 22.7883 84.8334 22.7883C85.3219 22.7883 85.5794 22.6361 85.5794 22.3472C85.5794 22.2114 85.543 22.1891 85.3869 22.2293C85.2523 22.264 85.1564 22.2348 85.0678 22.1321C84.9851 22.0362 84.7851 21.9685 84.4909 21.9368C83.9654 21.8802 83.1143 21.4682 83.2669 21.3443C83.319 21.3019 83.5896 21.252 83.8682 21.2332C84.3483 21.2009 84.38 21.1859 84.4774 20.9462C84.5503 20.7668 84.6517 20.6797 84.8264 20.6464C84.9618 20.6205 85.1763 20.5218 85.303 20.427C85.4296 20.3322 85.8442 20.09 86.2243 19.8887C86.8632 19.5502 87.2591 19.1894 87.1176 19.0745C86.9685 18.9535 85.585 18.8217 84.9344 18.8666C84.1786 18.9188 82.8763 19.1417 82.3316 19.3122C81.7726 19.4872 81.936 19.3348 82.7041 18.9649C83.741 18.4656 85.7372 18 86.8411 18C87.2694 18 88.7025 18.2749 88.8732 18.3897C89.2075 18.6147 88.8428 19.4047 88.2226 19.7987L87.9636 19.9633L88.1765 20.1477L88.3895 20.3321L88.172 20.4753C88.0523 20.5541 87.8885 20.6186 87.8078 20.6186C87.7271 20.6186 87.5275 20.7239 87.364 20.8525C87.1125 21.0505 87.08 21.1144 87.1523 21.2689C87.2084 21.3885 87.2029 21.5044 87.1364 21.6052C87.0744 21.6994 87.0588 21.9135 87.0964 22.1573C87.1729 22.655 87.0624 22.8333 86.6148 22.9343C86.2829 23.0091 85.0675 23.0237 84.5413 22.9591Z" fill="#7F7F7F"/>
</svg>
