<svg width="103" height="60" viewBox="0 0 103 60" fill="none" xmlns="http://www.w3.org/2000/svg">
<path d="M102.252 0.059082H0.813965V33.8719H102.252V0.059082Z" fill="white"/>
<path d="M81.8384 59.9616C81.7825 59.9387 81.779 59.8774 81.826 59.742C81.8856 59.5704 81.9131 59.557 82.1421 59.5878C82.3498 59.6158 82.411 59.5958 82.4977 59.4714C82.6646 59.2323 82.5358 59.0598 82.233 59.1168C82.0007 59.1605 81.9971 59.1579 82.0418 58.979C82.1839 58.4107 82.1974 58.442 81.774 58.3577C81.2699 58.2574 80.7875 57.974 80.417 57.5604C79.8608 56.9394 79.6678 56.3113 79.7233 55.3014C79.7515 54.787 79.7952 54.5864 79.9568 54.2287C80.4514 53.1339 81.5811 52.5756 83.0996 52.6756C83.4284 52.6973 83.8458 52.7535 84.0272 52.8005L84.3571 52.886L84.376 53.4985L84.395 54.1109H84.1946C84.0764 54.1109 83.9942 54.0764 83.9942 54.0267C83.9942 53.8547 83.5902 53.4566 83.3045 53.3471C82.9358 53.2058 82.2204 53.238 81.862 53.4121C81.0429 53.81 80.6694 54.8429 80.9184 56.0218C81.0342 56.5695 81.2253 56.9369 81.5908 57.3139C81.9372 57.6714 82.2867 57.8156 82.8103 57.8174C83.3641 57.8192 83.7518 57.5959 83.9956 57.1346C84.1613 56.8212 84.2204 56.7827 84.3802 56.8844C84.4546 56.9317 84.4553 57.0406 84.3844 57.5435L84.2994 58.1459L83.9984 58.2503C83.8328 58.3077 83.4524 58.3726 83.1531 58.3946C82.6369 58.4324 82.6088 58.4425 82.6088 58.5901C82.6088 58.708 82.6453 58.7458 82.7591 58.7458C82.9794 58.7458 83.1861 58.9171 83.2349 59.1401C83.2916 59.3992 83.1079 59.7825 82.8671 59.9075C82.6929 59.9979 82.0143 60.0336 81.8384 59.9616ZM42.5878 59.683C42.0167 59.514 41.5241 59.2591 40.9317 58.8258L40.4199 58.4516L39.6282 58.4108C38.7504 58.3656 38.4437 58.2673 37.8759 57.8489C36.625 56.9274 36.5796 54.5822 37.7905 53.4407C38.7021 52.5815 40.3058 52.4039 41.4601 53.0345C43.0186 53.8858 43.184 56.3971 41.7683 57.7125C41.5487 57.9167 41.3335 58.0838 41.2902 58.084C41.1554 58.0844 42.7058 58.9356 43.1591 59.11C43.6599 59.3027 44.2451 59.3285 44.6738 59.1767C44.9856 59.0662 45.0389 59.0795 45.0912 59.2803C45.1218 59.3976 45.0684 59.447 44.7528 59.5937C44.2553 59.825 43.2129 59.8679 42.5878 59.683ZM40.6533 57.6367C41.7579 57.0575 41.9682 55.2026 41.0635 54.0181C40.2251 52.9204 38.7556 53.0866 38.2033 54.3416C37.7042 55.4755 38.2736 57.2286 39.2917 57.6926C39.7037 57.8804 40.2296 57.8588 40.6533 57.6367ZM5.98257 58.3229C5.67957 58.1901 5.34713 57.7773 4.8218 56.8811C4.01471 55.5045 3.86345 55.3028 3.63812 55.3028H3.44266L3.44399 56.0476C3.44641 57.4072 3.58261 57.8725 4.00968 57.98C4.12392 58.0088 4.16835 58.066 4.16835 58.1843V58.3485H2.81593H1.46351V58.1926C1.46351 58.0745 1.5139 58.0221 1.6712 57.9769C1.78543 57.944 1.94129 57.8332 2.01755 57.7306C2.15288 57.5487 2.15621 57.4825 2.15621 54.9716C2.15621 52.4608 2.15288 52.3946 2.01755 52.2127C1.94129 52.1102 1.78543 51.9994 1.6712 51.9665C1.51943 51.9228 1.46351 51.8676 1.46351 51.7614C1.46351 51.6167 1.47096 51.6159 3.13914 51.5728C4.91463 51.5269 5.30589 51.5609 5.80633 51.804C6.24352 52.0164 6.60792 52.66 6.60894 53.2216C6.6101 53.8645 6.13373 54.5906 5.50515 54.904L5.17611 55.0681L5.90335 56.1621C6.75893 57.4491 7.02762 57.7929 7.28041 57.9241C7.51639 58.0466 7.53906 58.3137 7.3185 58.373C7.05315 58.4444 6.18564 58.4118 5.98257 58.3229ZM4.33179 54.633C5.2162 54.3866 5.51469 53.1531 4.84538 52.5107C4.53075 52.2087 4.19664 52.0991 3.77022 52.158L3.44266 52.2032V53.455V54.7068L3.75603 54.7064C3.92838 54.7062 4.18747 54.6732 4.33179 54.633ZM19.532 58.3233C19.1704 58.1937 18.8295 57.9627 18.649 57.7253C18.321 57.2937 18.2866 57.0667 18.2826 55.311C18.2784 53.4759 18.244 53.2742 17.9084 53.1177C17.7736 53.0549 17.6949 52.9698 17.694 52.886C17.6927 52.7587 17.7362 52.7536 18.8141 52.7536C19.9332 52.7536 19.9357 52.7539 19.9356 52.9025C19.9356 53.0026 19.8961 53.0515 19.8152 53.0515C19.7489 53.0515 19.6228 53.1284 19.5348 53.2224L19.3748 53.3932V55.1922C19.3748 56.8852 19.3829 57.0066 19.5119 57.2534C19.7131 57.6383 20.1143 57.8363 20.6304 57.8052C21.1856 57.7718 21.486 57.5742 21.7077 57.0964C21.8778 56.7297 21.8793 56.7115 21.8806 55.1012C21.8816 53.6593 21.8687 53.456 21.7655 53.298C21.7015 53.2 21.5754 53.1012 21.4851 53.0785C21.3826 53.0527 21.321 52.9901 21.321 52.9119C21.321 52.7952 21.382 52.7867 22.2116 52.7867C23.0413 52.7867 23.1023 52.7952 23.1023 52.9119C23.1023 52.9899 23.0407 53.0527 22.9392 53.0782C22.6354 53.1548 22.6112 53.2967 22.5752 55.2084L22.5415 57.0011L22.3429 57.3906C22.1085 57.8503 21.7288 58.1681 21.2402 58.3137C20.8279 58.4366 19.8629 58.442 19.532 58.3233ZM45.261 58.3233C44.8954 58.1922 44.5579 57.962 44.3712 57.7162C44.0602 57.307 44.0156 57.0044 44.0116 55.2757C44.0074 53.4783 43.9719 53.2737 43.6374 53.1177C43.5026 53.0549 43.4239 52.9698 43.423 52.886C43.4217 52.7587 43.4652 52.7536 44.5431 52.7536C45.6516 52.7536 45.6647 52.7552 45.6646 52.8979C45.6646 52.9949 45.6181 53.0492 45.5228 53.0635C45.4448 53.0751 45.3186 53.1687 45.2424 53.2714C45.1126 53.4465 45.1025 53.5556 45.0821 55.0066C45.057 56.7893 45.1066 57.1652 45.4075 57.4742C45.952 58.0331 47.0836 57.8769 47.4042 57.1987C47.6062 56.7715 47.658 56.2364 47.6332 54.835C47.6069 53.3513 47.5628 53.1663 47.2141 53.0785C47.1116 53.0527 47.05 52.9901 47.05 52.9119C47.05 52.7952 47.111 52.7867 47.9406 52.7867C48.7681 52.7867 48.8313 52.7955 48.8313 52.9111C48.8313 52.9862 48.7547 53.0673 48.6381 53.1158C48.5318 53.1599 48.4222 53.2455 48.3944 53.3059C48.3666 53.3663 48.3274 54.2224 48.3072 55.2085L48.2705 57.0013L48.0719 57.3907C47.8375 57.8503 47.4578 58.1681 46.9692 58.3137C46.5569 58.4366 45.5919 58.442 45.261 58.3233ZM66.1431 58.3206C65.8794 58.2053 65.5657 57.813 65.0804 56.9912C64.4537 55.9299 64.3825 55.8342 64.2192 55.8333C64.0731 55.8325 64.0707 55.8456 64.0707 56.6622C64.0707 57.6523 64.1531 57.9314 64.4636 57.9937C64.6198 58.0251 64.6645 58.069 64.6645 58.1913V58.3485H63.543H62.4214V58.1913C62.4214 58.069 62.4661 58.0251 62.6223 57.9937C62.9981 57.9183 63.0247 57.739 63.0022 55.4342L62.9822 53.393L62.8223 53.2223C62.7343 53.1284 62.6081 53.0515 62.5419 53.0515C62.4672 53.0515 62.4214 53.0033 62.4214 52.9247C62.4214 52.8155 62.4884 52.7917 62.9053 52.7524C63.1715 52.7274 63.9063 52.7183 64.5381 52.7322C65.5655 52.7548 65.7161 52.7729 65.9619 52.903C66.3984 53.1341 66.6436 53.5848 66.6436 54.156C66.6436 54.6986 66.3337 55.1752 65.771 55.4977C65.5914 55.6007 65.4754 55.7041 65.5132 55.7276C65.551 55.751 65.8425 56.1641 66.161 56.6455C66.7862 57.5907 67.1338 58.0175 67.2781 58.0175C67.4052 58.0175 67.394 58.3249 67.265 58.3746C67.0778 58.4467 66.3517 58.4117 66.1431 58.3206ZM64.9238 55.2058C65.186 55.0697 65.4435 54.7424 65.4919 54.4837C65.554 54.1515 65.4083 53.7133 65.1566 53.475C64.9234 53.2544 64.6983 53.1911 64.3085 53.2368L64.0707 53.2646V54.2837V55.3027H64.4039C64.5871 55.3027 64.8211 55.2591 64.9238 55.2058ZM94.2894 58.3091C94.0917 58.2558 93.9182 58.2003 93.9037 58.1858C93.8892 58.1712 93.841 57.8742 93.7965 57.5256L93.7156 56.8919H93.9017C94.0041 56.8919 94.0879 56.9165 94.0879 56.9467C94.0879 57.119 94.5208 57.6264 94.7719 57.7484C95.4504 58.078 96.2653 57.7677 96.2647 57.1798C96.2641 56.794 96.0777 56.5634 95.4421 56.1635C94.5501 55.6024 94.2057 55.3061 94.0279 54.9469C93.8505 54.5887 93.8188 54.0314 93.9527 53.6243C94.041 53.3556 94.4555 52.9544 94.8044 52.7998C95.1556 52.6442 96.255 52.6492 96.7103 52.8085L97.0566 52.9297V53.5203V54.1109H96.8659C96.7178 54.1109 96.6659 54.0742 96.634 53.9466C96.5649 53.6701 96.2112 53.3248 95.9152 53.2448C95.1233 53.0308 94.4891 53.8461 94.9862 54.4391C95.0811 54.5523 95.5115 54.8849 95.9426 55.1782C96.7777 55.7462 97.0862 56.0555 97.1896 56.4284C97.417 57.2488 97.0392 57.9735 96.2245 58.2794C95.7874 58.4436 94.8417 58.4581 94.2894 58.3091ZM7.86277 58.17C7.86277 58.0527 7.89971 58.0175 8.02291 58.0175C8.11734 58.0175 8.23916 57.9459 8.31979 57.843C8.45153 57.6749 8.45652 57.5926 8.45652 55.5874C8.45652 54.1322 8.43343 53.4628 8.37977 53.3617C8.28148 53.1765 8.12485 53.0563 7.97822 53.0536C7.89961 53.0522 7.86277 52.9987 7.86277 52.886V52.7204H9.84193H11.8211V53.4201V54.1197L11.6479 54.0988C11.5174 54.083 11.4564 54.0221 11.4005 53.8523C11.2704 53.4569 11.0533 53.3562 10.268 53.327L9.57804 53.3013V54.2443V55.1873L10.1087 55.1565C10.687 55.1229 10.9782 54.982 11.0175 54.7167C11.0331 54.6117 11.085 54.5744 11.2154 54.5745L11.3923 54.5746V55.4353V56.2959L11.2108 56.2959C11.0645 56.2959 11.0294 56.2659 11.0294 56.1407C11.0294 55.845 10.8094 55.7354 10.165 55.71L9.57804 55.6868V56.6166C9.57804 57.7373 9.58829 57.7526 10.3415 57.7526C11.0844 57.7526 11.4717 57.5638 11.6655 57.107C11.7635 56.8762 11.9919 56.8103 12.0617 56.9927C12.1077 57.1131 11.9218 57.8904 11.7822 58.1614L11.6833 58.3532L9.77305 58.3379L7.86277 58.3226V58.17ZM12.9426 58.1913C12.9426 58.0702 12.9873 58.0251 13.1369 57.995C13.485 57.9252 13.5015 57.8271 13.5239 55.7C13.5471 53.4853 13.5189 53.2858 13.1584 53.1177C13.0081 53.0476 12.945 52.9727 12.944 52.8631L12.9426 52.7079L14.4435 52.7353C16.0662 52.765 16.1986 52.7908 16.6384 53.1622C17.1218 53.5704 17.2471 54.3823 16.9199 54.9858C16.6345 55.5121 16.141 55.7916 15.3544 55.8725L14.9423 55.9148L14.8399 55.6585L14.7375 55.4021L14.9813 55.3663C15.291 55.3208 15.6273 55.124 15.8055 54.8839C15.9068 54.7474 15.9431 54.6042 15.9398 54.3542C15.9312 53.7095 15.5701 53.3152 14.9402 53.2627L14.5837 53.2331L14.6043 55.4432C14.6267 57.8535 14.6374 57.9213 15.0042 57.9967C15.1408 58.0248 15.1856 58.0729 15.1856 58.1913V58.3485H14.0641H12.9426L12.9426 58.1913ZM23.8939 58.1671C23.8939 58.0645 23.9331 58.0175 24.0186 58.0175C24.0871 58.0175 24.2133 57.9606 24.2989 57.891L24.4547 57.7645L24.4747 55.7122C24.497 53.4148 24.4717 53.2414 24.093 53.0979C23.9742 53.0529 23.8939 52.9749 23.8939 52.9046C23.8939 52.7974 23.9854 52.7852 24.9 52.7701C26.8252 52.7384 27.2282 52.7601 27.5413 52.9123C27.9472 53.1095 28.1368 53.395 28.1703 53.8592C28.1853 54.0678 28.1793 54.3118 28.1569 54.4014C28.0919 54.6613 27.7844 54.9787 27.4444 55.1367L27.1301 55.2829L27.3963 55.3629C28.0324 55.5542 28.4379 56.2217 28.3539 56.9391C28.283 57.5446 28.024 57.8852 27.4234 58.1629C27.108 58.3088 27.0237 58.3155 25.4937 58.3161L23.8939 58.3167V58.1671ZM26.8034 57.6685C27.1396 57.4431 27.2731 57.1361 27.2357 56.6743C27.1793 55.9796 26.6958 55.5676 25.9369 55.5676H25.5337L25.555 56.5668C25.5753 57.5246 25.5827 57.5712 25.7319 57.6924C25.9598 57.8774 26.5103 57.8651 26.8034 57.6685ZM26.531 54.9172C26.936 54.7614 27.1492 54.4432 27.107 54.0571C27.0504 53.5384 26.6339 53.2502 25.9412 53.2502H25.5432V54.144V55.0379L25.8896 55.0343C26.0801 55.0323 26.3687 54.9796 26.531 54.9172ZM29.2377 58.1709C29.2376 58.0638 29.2831 58.0208 29.4125 58.0053C29.5109 57.9935 29.6481 57.9025 29.7259 57.7974C29.8595 57.6171 29.8644 57.5389 29.8644 55.5793C29.8644 53.9514 29.8459 53.5152 29.7711 53.3826C29.6546 53.1757 29.5029 53.0564 29.3531 53.0536C29.278 53.0522 29.2376 52.9995 29.2376 52.9025C29.2376 52.7536 29.2376 52.7536 30.4251 52.7536C31.6126 52.7536 31.6126 52.7536 31.6126 52.9025C31.6126 53.0059 31.5734 53.0515 31.4844 53.0515C31.4138 53.0515 31.2728 53.1234 31.171 53.2112L30.9859 53.371L30.9667 55.4592L30.9476 57.5475L31.1164 57.6585C31.2501 57.7464 31.3929 57.7632 31.8019 57.7395C32.4297 57.703 32.7237 57.5471 32.8986 57.1578C33.0149 56.8989 33.138 56.836 33.3118 56.9467C33.3771 56.9883 33.3665 57.1106 33.2619 57.5208C33.1889 57.8075 33.0832 58.1123 33.0271 58.1983L32.9252 58.3545L31.0814 58.3349L29.2377 58.3154L29.2377 58.1709ZM33.8557 58.1913C33.8557 58.069 33.9003 58.0251 34.0565 57.9937C34.4208 57.9206 34.4494 57.74 34.4492 55.5201C34.449 53.6765 34.4405 53.5342 34.3193 53.3347C34.248 53.2173 34.1145 53.1024 34.0226 53.0792C33.909 53.0506 33.8557 52.9919 33.8557 52.8954C33.8557 52.756 33.8749 52.7536 34.9772 52.7536C36.0794 52.7536 36.0987 52.756 36.0987 52.8954C36.0987 52.9912 36.0455 53.0506 35.9346 53.0785C35.8444 53.1012 35.7182 53.2 35.6542 53.2979C35.5496 53.4581 35.5379 53.6782 35.5379 55.4984C35.5379 57.7465 35.5648 57.9269 35.9103 57.9962C36.0541 58.0251 36.0987 58.0713 36.0987 58.1913V58.3485H34.9772H33.8557V58.1913ZM49.6229 58.1793C49.6229 58.0704 49.6732 58.0239 49.8238 57.9937C50.1881 57.9206 50.2167 57.7405 50.2167 55.5133C50.2167 53.5623 50.2146 53.5314 50.066 53.3096C49.9831 53.1859 49.8495 53.0751 49.7691 53.0635C49.6641 53.0483 49.6229 52.997 49.6229 52.8814V52.7204H51.5691H53.5153V53.4157C53.5153 54.1045 53.5138 54.1109 53.3577 54.1109C53.2302 54.1109 53.1919 54.0672 53.1573 53.8819C53.0837 53.4883 52.8142 53.3562 52.0255 53.3269L51.3581 53.3021L51.3151 53.6164C51.2915 53.7893 51.2722 54.2139 51.2722 54.5599V55.189L51.8335 55.1539C52.4514 55.1152 52.6959 55.006 52.7627 54.7391C52.7922 54.6211 52.8486 54.5744 52.9616 54.5744H53.1194V55.4352V56.2959H52.9545C52.8422 56.2959 52.7889 56.259 52.7875 56.1801C52.7815 55.8523 52.4676 55.7 51.798 55.7H51.2596L51.2824 56.6324C51.31 57.7619 51.3033 57.7526 52.0955 57.7526C52.7947 57.7526 53.1583 57.5845 53.3486 57.1733C53.4445 56.9661 53.5175 56.8919 53.6251 56.8919C53.7055 56.8919 53.7914 56.9244 53.8159 56.9643C53.8761 57.0619 53.5834 58.1382 53.4642 58.2579C53.3856 58.3368 53.0506 58.3506 51.4962 58.3388L49.6229 58.3246V58.1793ZM56.8798 58.195C56.8798 58.0864 56.9413 58.0136 57.0895 57.9467C57.2048 57.8946 57.3607 57.7678 57.4359 57.665C57.5684 57.4837 57.5725 57.4023 57.5725 54.9834C57.5725 52.1772 57.5673 52.1433 57.1119 51.9925C56.9314 51.9327 56.8798 51.88 56.8798 51.7552V51.5948H59.1888H61.4978V52.4225V53.2502H61.2999C61.1387 53.2502 61.102 53.2225 61.1018 53.1012C61.1014 52.8575 60.8529 52.5215 60.5893 52.4079C60.4333 52.3408 60.072 52.2907 59.6011 52.2712L58.859 52.2403V53.3742V54.5082L59.4032 54.5045C60.1287 54.4995 60.3769 54.4091 60.5302 54.0944C60.6288 53.8919 60.6866 53.8461 60.8436 53.8461H61.036V54.8435V55.8409L60.8242 55.8201C60.6787 55.8059 60.6013 55.7579 60.5768 55.6669C60.4722 55.2775 60.0685 55.1041 59.266 55.1041H58.8443L58.8711 56.2794C58.9018 57.6206 58.958 57.8167 59.3531 57.9601C59.5264 58.023 59.5847 58.0824 59.5847 58.1963V58.3485H58.2322H56.8798V58.195ZM67.4353 58.183C67.4353 58.062 67.4706 58.0175 67.5663 58.0175C67.7685 58.0175 67.9993 57.6048 68.5011 56.3467C69.1731 54.6619 69.8103 52.9488 69.8103 52.8271C69.8103 52.7438 69.879 52.7207 70.1237 52.7218L70.437 52.7232L71.3268 55.0122C72.2931 57.4979 72.4712 57.8843 72.6966 57.9835C72.7876 58.0236 72.845 58.1068 72.845 58.1987C72.845 58.3485 72.8443 58.3485 71.7235 58.3485H70.6019V58.1913C70.6019 58.0698 70.6466 58.0251 70.7981 57.9947C71.0816 57.9377 71.0987 57.7451 70.8784 57.0905L70.6889 56.5277H69.9094H69.1298L68.9731 56.9912C68.7757 57.5752 68.7871 57.9749 69.0021 58.0055C69.1096 58.0208 69.1506 58.0711 69.1506 58.1876V58.3485H68.2929H67.4353V58.183ZM70.47 55.8645C70.47 55.7638 69.9854 54.442 69.9484 54.442C69.9244 54.442 69.8571 54.5686 69.799 54.7234C69.7408 54.8782 69.617 55.2059 69.5238 55.4517L69.3544 55.8987H69.9122C70.219 55.8987 70.47 55.8833 70.47 55.8645ZM73.3068 58.1913C73.3068 58.0729 73.3517 58.0248 73.4882 57.9967C73.8451 57.9233 73.8611 57.8301 73.8889 55.6648C73.9175 53.431 73.8895 53.2432 73.5059 53.0979C73.3871 53.0529 73.3068 52.9749 73.3068 52.9046C73.3068 52.7985 73.3812 52.7867 74.049 52.7868L74.7912 52.7869L75.22 53.3316C75.4558 53.6312 76.0644 54.3692 76.5724 54.9716C77.0804 55.574 77.5641 56.1557 77.6473 56.2642L77.7986 56.4615L77.7772 54.9657C77.7539 53.3358 77.717 53.1676 77.3632 53.0785C77.2608 53.0527 77.1991 52.9901 77.1991 52.9119C77.1991 52.7952 77.2601 52.7867 78.0897 52.7867C78.9257 52.7867 78.9804 52.7945 78.9804 52.9145C78.9804 52.9946 78.9274 53.0502 78.8385 53.0635C78.7605 53.0751 78.6344 53.1687 78.5582 53.2714C78.4242 53.4521 78.4189 53.5392 78.3994 55.9034L78.3792 58.3485H78.0916C77.8314 58.3485 77.7831 58.3217 77.5858 58.0671C77.4114 57.8421 74.6166 54.3678 74.5098 54.2433C74.4942 54.2251 74.4944 54.9551 74.5105 55.8656C74.5426 57.7117 74.5828 57.9326 74.8979 57.9958C75.0436 58.0251 75.0883 58.0709 75.0883 58.1913V58.3485H74.1976H73.307V58.1913L73.3068 58.1913ZM84.8519 58.183C84.8519 58.0847 84.8896 58.0175 84.945 58.0175C85.0753 58.0175 85.3199 57.7068 85.4945 57.3193C85.7373 56.7803 86.8663 53.8554 87.0601 53.2633L87.2399 52.7137L87.5348 52.7336L87.8297 52.7536L88.705 55.0048C89.1864 56.243 89.6331 57.3603 89.6977 57.4878C89.8452 57.7787 90.0599 58.0175 90.1741 58.0175C90.2234 58.0175 90.2615 58.0897 90.2615 58.183V58.3485H89.14H88.0185V58.183C88.0185 58.0678 88.0546 58.0175 88.1372 58.0175C88.4565 58.0175 88.4861 57.7377 88.244 57.008L88.0736 56.4946H87.2994H86.5252L86.3848 56.9415C86.1196 57.7857 86.1322 58.0175 86.4432 58.0175C86.5314 58.0175 86.5671 58.0652 86.5671 58.183V58.3485H85.7095H84.8519V58.183ZM87.651 55.22C87.5263 54.8467 87.4066 54.4966 87.385 54.442C87.3615 54.3827 87.2296 54.6359 87.0574 55.071C86.8988 55.4716 86.7682 55.8217 86.7671 55.849C86.7659 55.8763 87.0154 55.8987 87.3214 55.8987H87.8778L87.651 55.22ZM90.6574 58.183C90.6574 58.0535 90.691 58.0175 90.8121 58.0175C90.8972 58.0175 91.0233 57.9548 91.0925 57.8782C91.2094 57.7486 91.2195 57.5963 91.2375 55.6766C91.2482 54.5424 91.2404 53.5481 91.2202 53.4672C91.1732 53.2785 90.9311 53.0515 90.7769 53.0515C90.6969 53.0515 90.6574 53.0022 90.6573 52.9025C90.6573 52.7539 90.6598 52.7536 91.7788 52.7536C92.8574 52.7536 92.9003 52.7586 92.9004 52.8864C92.9004 52.9692 92.8286 53.0511 92.7095 53.104C92.6045 53.1507 92.4879 53.2697 92.4505 53.3685C92.3544 53.6222 92.2997 55.6883 92.3596 56.8045C92.4013 57.5831 92.431 57.7669 92.5335 57.8805C92.6014 57.9558 92.7118 58.0175 92.7787 58.0175C92.8645 58.0175 92.9004 58.0663 92.9004 58.183V58.3485H91.7789H90.6574V58.183ZM98.0462 58.1711C98.0462 58.0526 98.0828 58.0175 98.2064 58.0175C98.3008 58.0175 98.4226 57.9459 98.5032 57.843C98.635 57.6749 98.64 57.5926 98.64 55.5874C98.64 54.1322 98.6169 53.4628 98.5632 53.3617C98.4649 53.1765 98.3083 53.0563 98.1617 53.0536C98.0831 53.0522 98.0462 52.9987 98.0462 52.886V52.7204H100.025H102.005V53.4201V54.1197L101.831 54.0988C101.701 54.083 101.64 54.0221 101.584 53.8523C101.454 53.4569 101.237 53.3562 100.451 53.327L99.7615 53.3013V54.2358V55.1703L100.174 55.1666C100.746 55.1614 101.025 55.0537 101.147 54.791C101.219 54.6345 101.29 54.5769 101.411 54.5759L101.576 54.5746V55.4353V56.296L101.394 56.296C101.248 56.2959 101.213 56.2659 101.213 56.1407C101.213 55.845 100.993 55.7354 100.348 55.71L99.7615 55.6869V56.6167C99.7615 57.7374 99.7717 57.7526 100.525 57.7526C101.268 57.7526 101.655 57.5638 101.849 57.1071C101.947 56.8762 102.175 56.8103 102.245 56.9927C102.291 57.1131 102.105 57.8904 101.966 58.1614L101.867 58.3532L99.9565 58.339L98.0462 58.3247V58.1711ZM9.6477 52.1296L9.48646 52.0053L9.8786 51.4038C10.0943 51.073 10.3128 50.8019 10.3643 50.8013C10.5874 50.7988 11.2977 50.952 11.2799 50.9988C11.2444 51.0918 9.94236 52.2562 9.87491 52.2551C9.83863 52.2545 9.73638 52.198 9.6477 52.1296ZM1.26559 47.5558H101.741V48.1518H1.26559V47.5558ZM39.5053 46.2008C38.9776 46.012 38.6808 45.5183 38.7769 44.9891C38.8417 44.6325 39.0428 44.383 39.3989 44.2174L39.7105 44.0725L39.5209 43.9633C39.4132 43.9012 39.3313 43.7978 39.3313 43.7237C39.3313 43.6039 39.815 43.1196 39.9347 43.1196C39.9632 43.1196 39.9218 43.0094 39.8427 42.8748C39.5048 42.3001 39.7751 41.4692 40.4059 41.1434C40.7474 40.967 40.8627 40.9596 42.0583 41.0365C42.7462 41.0807 42.7718 41.0878 42.7354 41.2237C42.7147 41.3014 42.6973 41.3873 42.6968 41.4146C42.6963 41.4419 42.5799 41.4643 42.4382 41.4643H42.1806L42.2154 41.8492C42.2913 42.6891 41.6962 43.2643 40.7354 43.2797C40.2364 43.2877 39.9948 43.3939 40.1895 43.5198C40.2436 43.5547 40.5658 43.6736 40.9055 43.784C41.9977 44.1387 42.1995 44.3172 42.153 44.8873C42.1046 45.4794 41.63 45.9957 40.9436 46.203C40.5504 46.3218 39.8403 46.3207 39.5053 46.2008ZM40.9742 45.792C41.5098 45.5241 41.7418 45.0137 41.4489 44.7477C41.2516 44.5685 40.3946 44.2933 40.1725 44.3379C39.7204 44.4286 39.298 44.9819 39.376 45.3813C39.4831 45.9301 40.2856 46.1364 40.9742 45.792ZM41.1508 42.7961C41.5529 42.55 41.7082 41.8516 41.4376 41.5063C41.0675 41.034 40.363 41.5604 40.3564 42.3142C40.3543 42.5484 40.388 42.6308 40.539 42.7611C40.7615 42.9533 40.8827 42.9602 41.1508 42.7961ZM43.6525 44.3325C43.3627 44.2731 43.2074 44.079 43.1744 43.7348C43.0901 42.8535 43.8288 41.5619 44.6556 41.1452C45.0853 40.9286 45.933 40.9067 46.4977 41.0977C46.5484 41.1148 46.5109 41.3412 46.3804 41.8067C46.125 42.7172 45.9788 43.6286 46.0628 43.7861C46.1179 43.8894 46.1569 43.8966 46.3318 43.8354C46.4932 43.7789 46.5486 43.7832 46.5942 43.8555C46.6892 44.0062 46.6315 44.0635 46.2545 44.1928C45.7477 44.3667 45.5157 44.3329 45.4395 44.0738L45.3794 43.8692L45.1093 44.0207C44.6533 44.2765 44.0299 44.4099 43.6525 44.3325ZM44.7929 43.7372C44.9848 43.6458 45.1848 43.5049 45.2375 43.4242C45.3256 43.2892 45.5944 42.2959 45.6993 41.7174C45.7423 41.4804 45.737 41.4723 45.4972 41.4058C45.0541 41.283 44.6084 41.6073 44.2535 42.3109C43.881 43.049 43.7871 43.7066 44.0298 43.8771C44.1945 43.9929 44.2954 43.9744 44.7929 43.7372ZM76.0285 44.3131C75.7325 44.2425 75.628 44.1394 75.5471 43.8378C75.4244 43.3804 75.7084 42.5152 76.1912 41.8752C76.7695 41.1087 77.4122 40.85 78.3612 41.0018C78.611 41.0417 78.8351 41.0951 78.8591 41.1203C78.8831 41.1456 78.7997 41.5685 78.6738 42.0602C78.5479 42.5518 78.4392 43.1477 78.4323 43.3844L78.4196 43.8148L78.7 43.8023C78.9516 43.791 78.9804 43.8053 78.9804 43.9408C78.9804 44.0672 78.9183 44.1107 78.5997 44.2075C78.0754 44.3668 77.8321 44.3327 77.805 44.0962C77.7935 43.9961 77.7721 43.9141 77.7574 43.9141C77.7427 43.9141 77.5702 43.9854 77.374 44.0724C77.0584 44.2125 76.4152 44.3894 76.2888 44.3708C76.2633 44.3671 76.1462 44.3411 76.0285 44.3131ZM77.1332 43.7463C77.2964 43.6644 77.4782 43.542 77.537 43.4744C77.683 43.3065 77.945 42.4423 78.0806 41.6814C78.1168 41.4786 78.1059 41.4648 77.8561 41.3973C77.6423 41.3395 77.5506 41.3468 77.3627 41.4363C76.9439 41.6357 76.5283 42.3124 76.3128 43.1457C76.1063 43.9438 76.3637 44.1322 77.1332 43.7463ZM5.58651 44.1624C5.56686 44.0805 5.68446 43.4646 5.84785 42.7937C6.17 41.4711 6.16728 41.3636 5.81421 41.4652C5.63959 41.5155 5.61973 41.5059 5.61973 41.3708C5.61973 41.2447 5.68108 41.2024 5.99907 41.1092C6.2077 41.0481 6.48231 40.9912 6.60931 40.9829C6.82667 40.9685 6.84145 40.9807 6.86139 41.1898C6.87305 41.3119 6.75925 41.9171 6.60852 42.5347C6.45779 43.1523 6.35212 43.7037 6.37369 43.7601C6.40493 43.8419 6.47423 43.8535 6.71425 43.8174C7.00138 43.7742 7.01456 43.7792 6.99387 43.9238C6.97675 44.0434 6.89535 44.0996 6.60931 44.1894C6.40974 44.2521 6.10601 44.3051 5.93435 44.3074C5.66361 44.3109 5.61751 44.2917 5.58651 44.1624ZM8.1228 44.1892L7.97239 44.0669L8.48348 41.8134C8.76458 40.5739 8.98484 39.4743 8.97294 39.3699C8.95076 39.1751 8.92686 39.165 8.67093 39.243C8.54434 39.2815 8.52249 39.2636 8.52249 39.1213C8.52249 38.9284 8.75419 38.8353 9.39662 38.7698C9.76466 38.7323 9.77595 38.7359 9.77595 38.8916C9.77595 38.9798 9.67205 39.5246 9.54505 40.1022C9.41806 40.6798 9.31415 41.1911 9.31415 41.2384C9.31415 41.3026 9.38668 41.2922 9.60053 41.1972C10.3352 40.871 10.9757 40.8883 11.2056 41.2405C11.4209 41.5702 11.3094 42.4235 10.9597 43.123C10.7778 43.487 10.2363 44.0535 9.94229 44.1875C9.55601 44.3637 8.33885 44.3647 8.1228 44.1892ZM9.79219 43.7693C10.123 43.5344 10.4917 42.7404 10.5957 42.0392C10.6999 41.3367 10.2373 41.1966 9.49833 41.7068C9.34226 41.8146 9.21703 41.975 9.1524 42.15C9.03279 42.4739 8.78638 43.531 8.78638 43.7202C8.78638 43.9988 9.42516 44.03 9.79219 43.7693ZM12.3117 44.1084C12.133 43.9211 12.1183 43.8683 12.122 43.4297C12.1315 42.312 12.7646 41.3117 13.6367 41.0363C14.0718 40.899 14.4546 40.9455 14.7112 41.167C14.8591 41.2948 14.8888 41.3746 14.8888 41.6454C14.8888 42.3271 14.2694 42.8442 13.378 42.9066C13.1204 42.9247 12.8878 42.9725 12.8611 43.013C12.7869 43.1256 12.8016 43.5084 12.8865 43.6702C13.0511 43.9841 13.2873 43.9914 13.8529 43.7003C14.2054 43.5189 14.2779 43.5013 14.3302 43.5844C14.4468 43.7695 14.3928 43.8276 13.8798 44.0692C13.4525 44.2704 13.2928 44.3114 12.9355 44.3114C12.5417 44.3114 12.4891 44.2943 12.3117 44.1084ZM13.4931 42.5185C14.0543 42.362 14.4246 41.7598 14.137 41.4712C13.9556 41.2891 13.7879 41.2951 13.5549 41.4919C13.3693 41.6486 13.0677 42.1453 12.9786 42.4409C12.941 42.5655 12.9587 42.5898 13.0866 42.5895C13.1707 42.5893 13.3536 42.5573 13.4931 42.5185ZM15.7134 44.2889C15.7134 44.2778 15.832 43.7644 15.9769 43.1479C16.1218 42.5315 16.2406 41.8966 16.2408 41.7372L16.2412 41.4473L15.9773 41.4897C15.7434 41.5272 15.7134 41.517 15.7134 41.3997C15.7134 41.2545 15.9267 41.1433 16.4622 41.0093C16.8285 40.9177 16.9669 40.9806 16.9669 41.2386V41.394L17.201 41.2346C17.6129 40.9541 17.8644 40.9027 18.1633 41.0379C18.3065 41.1027 18.4145 41.1879 18.4034 41.2272C18.2243 41.8609 18.1224 42.0602 17.9774 42.0602C17.8477 42.0602 17.8245 42.0262 17.8245 41.8365C17.8245 41.3548 17.407 41.3514 17.1042 41.8306C16.9155 42.1292 16.7204 42.8082 16.5656 43.7055C16.5194 43.9732 16.4498 44.2016 16.4109 44.2131C16.2948 44.2473 15.7134 44.3105 15.7134 44.2889ZM19.0227 44.225C18.9499 44.137 18.9899 43.899 19.3671 42.176L19.5229 41.4643H19.3005C19.1781 41.4643 19.078 41.4474 19.078 41.4268C19.078 41.3233 19.2257 41.1332 19.3061 41.1332C19.467 41.1332 19.7758 40.8197 19.9054 40.5249C20.0503 40.1953 20.1079 40.1424 20.3232 40.141C20.4649 40.1401 20.4758 40.1605 20.4369 40.3552C20.4132 40.4735 20.3761 40.6821 20.3542 40.8187L20.3146 41.067H20.6199C20.9317 41.067 20.9776 41.1176 20.8851 41.3595C20.8563 41.4348 20.7564 41.4643 20.5294 41.4643C20.1627 41.4643 20.2229 41.3319 19.9303 42.7818C19.7153 43.847 19.7298 43.9451 20.087 43.8423C20.3851 43.7565 20.4091 43.7636 20.3855 43.9307C20.3695 44.0437 20.2848 44.1064 20.0346 44.1902C19.6307 44.3256 19.1204 44.3432 19.0227 44.225ZM21.6838 44.1396C21.201 43.6167 21.5504 42.1297 22.319 41.4361C22.6326 41.1531 23.1223 40.9346 23.4428 40.9346C23.6456 40.9346 24.0925 41.1432 24.1597 41.2692C24.2661 41.4686 24.2329 41.945 24.0972 42.1684C23.819 42.6262 23.2195 42.9209 22.5662 42.9209H22.1787V43.2704C22.1787 43.9487 22.4595 44.0677 23.1978 43.7023C23.4332 43.5858 23.6388 43.5039 23.6546 43.5202C23.6705 43.5366 23.6937 43.6096 23.7062 43.6824C23.7245 43.7887 23.6328 43.8638 23.2417 44.0631C22.8182 44.2789 22.6947 44.3114 22.2984 44.3114C21.8924 44.3114 21.8251 44.2926 21.6838 44.1396ZM22.845 42.5135C23.1936 42.3949 23.4381 42.1944 23.5437 41.9407C23.6326 41.7272 23.6301 41.6945 23.5131 41.5367C23.3318 41.292 23.1538 41.2904 22.8806 41.5312C22.6698 41.717 22.3106 42.3398 22.3106 42.5196C22.3106 42.6119 22.5644 42.6091 22.845 42.5135ZM47.6218 44.2673C47.5286 44.1738 47.589 43.7831 47.9055 42.4324C48.336 40.5951 48.5674 39.5133 48.5674 39.3379C48.5674 39.2123 48.5403 39.2001 48.3365 39.2333C48.1263 39.2675 48.1056 39.2566 48.1056 39.1121C48.1056 38.9464 48.2702 38.8731 48.9257 38.7467C49.2643 38.6814 49.359 38.7245 49.359 38.9436C49.359 39.0426 49.1366 40.0897 48.8647 41.2706C48.5928 42.4514 48.3701 43.5184 48.3699 43.6417L48.3694 43.8659L48.6708 43.8245C48.9542 43.7855 48.9709 43.7917 48.9512 43.9293C48.9349 44.0423 48.8479 44.1013 48.5673 44.1894C48.1967 44.3058 47.7008 44.3466 47.6218 44.2673ZM50.1087 44.2305C50.0277 44.0991 50.074 43.8123 50.355 42.7052C50.5013 42.1285 50.6099 41.606 50.5963 41.544C50.5703 41.4249 50.5538 41.4222 50.2661 41.4901C50.1129 41.5263 50.0847 41.5117 50.0847 41.3959C50.0847 41.2381 50.3663 41.0979 50.8794 41.0002C51.2459 40.9304 51.4042 40.9662 51.4042 41.1186C51.4042 41.1756 51.2697 41.7847 51.1055 42.4722C50.9412 43.1597 50.8263 43.754 50.8503 43.7929C50.8769 43.8361 51.0073 43.8479 51.1865 43.8233C51.4605 43.7856 51.4778 43.7923 51.4581 43.9293C51.4419 44.0423 51.3548 44.1013 51.0743 44.1894C50.645 44.3242 50.1786 44.3441 50.1087 44.2305ZM52.5453 44.201C52.5221 44.1403 52.5398 43.9242 52.5846 43.721C52.7318 43.0536 53.0534 41.5263 53.0534 41.4949C53.0534 41.4781 52.9622 41.4643 52.8507 41.4643C52.5643 41.4643 52.6177 41.2792 52.9545 41.1045C53.1551 41.0005 53.2707 40.8683 53.4364 40.5538C53.6251 40.1957 53.6795 40.14 53.8406 40.14H54.0267L53.9382 40.5538C53.8896 40.7814 53.8487 40.99 53.8474 41.0173C53.8462 41.0446 53.9935 41.067 54.175 41.067C54.5196 41.067 54.5277 41.0739 54.4632 41.3153C54.4285 41.4454 54.3803 41.4643 54.0821 41.4643H53.7407L53.5188 42.5817C53.3968 43.1962 53.3148 43.7458 53.3367 43.803C53.3688 43.887 53.4181 43.8949 53.5938 43.8443C53.8962 43.7573 53.9111 43.7617 53.9111 43.9385C53.9111 44.0731 53.8567 44.1106 53.5274 44.2034C53.0163 44.3473 52.6008 44.3463 52.5453 44.201ZM55.2621 44.1615C55.0979 44.0197 55.0694 43.9419 55.0459 43.571C54.993 42.7377 55.3731 41.7968 55.9374 41.3644C56.5605 40.8869 57.2411 40.8235 57.6235 41.2073C57.8009 41.3854 57.8166 41.4356 57.788 41.7348C57.7252 42.3906 57.0989 42.867 56.242 42.9107C55.7061 42.9381 55.6497 43.0027 55.7548 43.4691C55.8693 43.9768 56.0772 44.0289 56.7375 43.7153C57.1749 43.5077 57.2756 43.5078 57.2756 43.716C57.2756 43.9276 56.4839 44.2676 55.9181 44.2989C55.4971 44.3222 55.4326 44.3087 55.2621 44.1615ZM56.6807 42.3918C57.0921 42.1812 57.2687 41.7126 57.0345 41.4529C56.7398 41.1261 56.1942 41.5541 55.9233 42.3248L55.8238 42.6079L56.1211 42.567C56.2846 42.5445 56.5365 42.4657 56.6807 42.3918ZM72.4492 44.287C72.4492 44.277 72.5677 43.7644 72.7126 43.1479C72.8576 42.5315 72.9763 41.8966 72.9765 41.7372L72.9772 41.4473L72.7133 41.4897C72.4802 41.5271 72.4494 41.5168 72.4494 41.4012C72.4494 41.2404 72.5655 41.1752 73.0999 41.0363C73.5643 40.9155 73.7029 40.962 73.7029 41.2386V41.394L73.937 41.2346C74.3477 40.9549 74.6006 40.9027 74.8967 41.0367C75.0383 41.1008 75.1543 41.1711 75.1543 41.1929C75.1543 41.2147 75.0877 41.4187 75.0064 41.6463C74.8843 41.988 74.8326 42.0602 74.7095 42.0602C74.5842 42.0602 74.5605 42.0246 74.5605 41.8365C74.5605 41.3839 74.1728 41.3502 73.8834 41.7776C73.6632 42.1025 73.5506 42.4552 73.3702 43.3844C73.2889 43.8032 73.2043 44.1644 73.1822 44.187C73.1426 44.2276 72.4494 44.3222 72.4494 44.287H72.4492ZM80.0581 44.2078C80.004 44.0663 80.0665 43.6584 80.3213 42.4906L80.538 41.4974L80.3529 41.4766C80.1315 41.4518 80.0942 41.2318 80.3002 41.1662C80.5321 41.0923 80.7999 40.8193 80.9293 40.5249C81.0742 40.1953 81.1318 40.1424 81.3471 40.141C81.4888 40.1401 81.4997 40.1605 81.4608 40.3552C81.4372 40.4735 81.4 40.6821 81.3781 40.8187L81.3385 41.067H81.6438C81.9556 41.067 82.0015 41.1176 81.909 41.3595C81.8803 41.4348 81.7803 41.4643 81.5534 41.4643C81.1866 41.4643 81.2468 41.3319 80.9542 42.7818C80.7392 43.847 80.7538 43.9451 81.111 43.8423C81.4091 43.7565 81.4331 43.7636 81.4094 43.9307C81.3934 44.0437 81.3087 44.1064 81.0585 44.1902C80.6193 44.3374 80.1111 44.3464 80.0581 44.2078ZM82.7199 44.14C82.2198 43.6381 82.5656 42.1376 83.3429 41.4361C83.6566 41.1531 84.1462 40.9346 84.4667 40.9346C84.6695 40.9346 85.1164 41.1432 85.1836 41.2692C85.29 41.4686 85.2569 41.945 85.1211 42.1684C84.8417 42.6283 84.2433 42.9209 83.5822 42.9209H83.1867L83.216 43.3271C83.2625 43.9721 83.4986 44.0602 84.2218 43.7023C84.4571 43.5858 84.6627 43.5039 84.6785 43.5202C84.6944 43.5366 84.7176 43.6096 84.7301 43.6824C84.7484 43.7887 84.6567 43.8638 84.2656 44.0631C83.8459 44.277 83.7167 44.3114 83.3345 44.3114C82.945 44.3114 82.8698 44.2904 82.7199 44.14ZM84.103 42.4144C84.5644 42.1842 84.7712 41.6505 84.4835 41.4321C84.2925 41.287 84.1539 41.3114 83.9002 41.535C83.688 41.722 83.3345 42.3426 83.3345 42.5283C83.3345 42.6379 83.7904 42.5703 84.103 42.4144ZM86.1053 44.2545C86.1053 44.2266 86.2258 43.6896 86.373 43.0612C86.5203 42.4328 86.6316 41.8239 86.6204 41.708C86.6014 41.5106 86.585 41.4982 86.3597 41.5111C86.1712 41.5219 86.1121 41.4974 86.0861 41.3975C86.059 41.2938 86.1162 41.2466 86.3925 41.1443C86.5792 41.0751 86.8434 40.9983 86.9795 40.9735C87.2353 40.927 87.231 40.9234 87.391 41.3122C87.3941 41.3196 87.5704 41.2376 87.7828 41.1301C88.2374 40.8999 88.3136 40.8936 88.59 41.0627L88.7986 41.1904L88.656 41.6237C88.5369 41.9852 88.4887 42.0572 88.3649 42.0586C88.2406 42.0599 88.2164 42.0246 88.2164 41.8417C88.2164 41.2647 87.6693 41.3788 87.3698 42.0182C87.2946 42.1789 87.1456 42.7328 87.0386 43.2491C86.9317 43.7653 86.8338 44.1965 86.8211 44.2072C86.7631 44.256 86.1053 44.2995 86.1053 44.2545ZM89.4039 44.2547C89.4039 44.2249 89.5098 43.786 89.6393 43.2794C89.7807 42.7261 89.8795 42.1731 89.8867 41.8947L89.8987 41.4312L89.6595 41.4496C89.4714 41.464 89.4133 41.4412 89.3877 41.3431C89.3611 41.241 89.4169 41.1993 89.6929 41.1149C90.2927 40.9316 90.434 40.9185 90.5503 41.0352C90.6092 41.0943 90.6574 41.215 90.6574 41.3035C90.6574 41.3919 90.6695 41.4643 90.6844 41.4643C90.6993 41.4643 90.8952 41.3771 91.1198 41.2705C91.6515 41.0181 92.3563 40.8857 92.5667 40.9987C92.7039 41.0724 92.7137 41.1105 92.6736 41.414C92.6494 41.5977 92.5426 42.1088 92.4364 42.5497C92.3302 42.9906 92.2353 43.4556 92.2255 43.5831C92.2077 43.8148 92.2077 43.8148 92.4853 43.8093C92.6749 43.8056 92.7748 43.8353 92.8008 43.9032C92.8531 44.04 92.7908 44.0845 92.3772 44.2061C91.908 44.344 91.476 44.3451 91.4238 44.2085C91.4022 44.1519 91.5029 43.5747 91.6476 42.9259C91.9379 41.625 91.9545 41.477 91.8167 41.4239C91.6744 41.3691 91.1696 41.6175 90.8684 41.8906C90.6205 42.1154 90.5888 42.1853 90.4366 42.8416C90.3462 43.2312 90.2513 43.6939 90.2256 43.8698C90.2 44.0456 90.1456 44.1995 90.1048 44.2118C89.9047 44.2717 89.4039 44.3024 89.4039 44.2547ZM93.9287 44.2032C93.9059 44.1436 94.0237 43.5303 94.1904 42.8401C94.3571 42.15 94.478 41.5448 94.4591 41.4953C94.4327 41.4264 94.3738 41.42 94.2072 41.4679C94.0877 41.5023 93.9822 41.5305 93.9729 41.5305C93.9636 41.5305 93.956 41.4614 93.956 41.3771C93.956 41.2494 94.0143 41.2059 94.3023 41.1185C95.084 40.8812 95.3254 40.9215 95.2465 41.2759C95.2274 41.3613 95.0915 41.9357 94.9443 42.5524C94.7972 43.169 94.6933 43.7168 94.7135 43.7696C94.7416 43.8429 94.8211 43.8558 95.0503 43.8243C95.3323 43.7855 95.3491 43.7919 95.3294 43.9293C95.2887 44.2123 94.0265 44.4591 93.9287 44.2032ZM96.4177 44.204C96.3737 44.089 96.4271 43.7728 96.685 42.623C96.97 41.3518 96.9659 41.4643 96.7272 41.4643C96.4371 41.4643 96.4854 41.2816 96.8223 41.1045C97.0161 41.0026 97.1357 40.8662 97.2904 40.5704C97.4593 40.2474 97.5326 40.169 97.6825 40.1513C97.8827 40.1276 97.8842 40.1444 97.7429 40.8518L97.6999 41.067H98.045C98.3327 41.067 98.3835 41.0845 98.3501 41.1717C98.3281 41.2293 98.3101 41.3187 98.3101 41.3704C98.3101 41.4398 98.2176 41.4643 97.9555 41.4643H97.6009L97.3831 42.5778C97.2633 43.1903 97.1838 43.7399 97.2064 43.7992C97.2401 43.8873 97.2872 43.8955 97.4651 43.8443C97.7674 43.7573 97.7823 43.7617 97.7823 43.9385C97.7823 44.0731 97.7279 44.1107 97.3987 44.2034C96.8927 44.3459 96.472 44.3462 96.4177 44.204ZM99.1297 44.1582C98.9407 43.9949 98.9368 43.9783 98.9368 43.3368C98.9368 42.7127 98.9485 42.6583 99.1861 42.1761C99.4775 41.5844 99.8119 41.2643 100.35 41.0624C101.286 40.7108 101.959 41.3082 101.544 42.1235C101.31 42.5845 100.685 42.9172 100.049 42.9195C99.6671 42.9209 99.6413 42.931 99.6003 43.095C99.5452 43.3156 99.6141 43.6481 99.7461 43.7983C99.8961 43.969 100.154 43.9404 100.614 43.7022C100.957 43.5246 101.034 43.5058 101.084 43.5863C101.201 43.7717 101.143 43.843 100.702 44.0571C100.362 44.222 100.146 44.2792 99.7894 44.2989C99.366 44.3223 99.3045 44.3092 99.1297 44.1582ZM100.567 42.3757C101.012 42.1243 101.161 41.6297 100.852 41.4265C100.73 41.3463 100.643 41.3348 100.506 41.3805C100.273 41.4579 99.9409 41.8908 99.8035 42.2954L99.6975 42.6076L100 42.566C100.167 42.5431 100.422 42.4574 100.567 42.3757ZM0.815993 44.1312C0.828257 44.0673 0.897324 44.0041 0.969477 43.9908C1.16537 43.9548 1.33654 43.7804 1.47021 43.4807C1.64752 43.0832 2.19465 40.3189 2.20944 39.7458C2.22206 39.257 2.22014 39.2509 2.01032 39.1167C1.60097 38.855 1.71036 38.8157 2.84891 38.8157C3.75089 38.8157 3.90446 38.8304 3.90446 38.9167C3.90446 38.9762 3.82224 39.0342 3.70453 39.0578C3.28381 39.1423 3.12412 39.5591 2.72691 41.6097C2.35572 43.526 2.35936 43.489 2.52609 43.6563C2.65278 43.7835 2.72172 43.7944 3.23595 43.7684C3.92764 43.7335 4.17752 43.6166 4.41911 43.2152C4.60944 42.899 4.61701 42.8936 4.75347 42.9804C4.82922 43.0286 4.82638 43.0899 4.73593 43.3601C4.67659 43.5374 4.56079 43.8016 4.4786 43.9472L4.32915 44.2121L2.56142 44.2297C0.906135 44.2463 0.795115 44.24 0.815993 44.1312ZM34.1855 44.1513C34.1855 44.0997 34.2968 44.0029 34.4329 43.9361C34.6053 43.8516 34.7242 43.7245 34.825 43.5169C35.014 43.1276 35.5853 40.3077 35.5958 39.7125C35.6037 39.2627 35.5989 39.2488 35.392 39.1166C34.9493 38.8338 35.0494 38.8157 37.0597 38.8157C38.904 38.8157 38.9435 38.8185 38.9032 38.946C38.8805 39.0177 38.8249 39.2784 38.7797 39.5254C38.7099 39.9063 38.6754 39.9777 38.5525 39.9956C38.4347 40.0128 38.4077 39.9842 38.4077 39.8423C38.4077 39.4027 38.1478 39.2792 37.223 39.2792H36.5858L36.4028 40.1234C36.3022 40.5878 36.2054 41.0198 36.1878 41.0835C36.159 41.1876 36.215 41.1993 36.7375 41.1984C37.3944 41.1973 37.5881 41.127 37.7809 40.8193C37.9524 40.5456 38.1762 40.5236 38.1242 40.7856C38.1043 40.8857 38.0355 41.2433 37.9712 41.5801C37.879 42.0632 37.8309 42.1926 37.7434 42.1926C37.6735 42.1926 37.6182 42.1207 37.5937 41.9976C37.5723 41.8901 37.4871 41.766 37.404 41.7211C37.2457 41.6356 36.2082 41.5975 36.1314 41.6744C36.087 41.7188 35.8922 42.673 35.8068 43.2647C35.7657 43.5492 35.7762 43.5848 35.931 43.6866C36.067 43.7761 36.2129 43.7921 36.6766 43.7687C37.3651 43.734 37.6097 43.6237 37.8928 43.2206C38.0153 43.0462 38.1312 42.9456 38.1857 42.9666C38.314 43.016 38.2988 43.1344 38.1043 43.6016C37.8158 44.2944 37.9801 44.2452 35.9565 44.2452C34.472 44.2452 34.1855 44.23 34.1855 44.1513ZM67.6992 44.1527C67.6992 44.1 67.7957 44.0238 67.9136 43.9835C68.3301 43.841 68.4677 43.4633 68.8844 41.3201C69.2432 39.4745 69.2344 39.1793 68.8167 39.0462C68.7423 39.0225 68.693 38.9684 68.7071 38.926C68.7256 38.8703 69.242 38.8439 70.5627 38.8312C72.3616 38.8139 72.392 38.8159 72.3512 38.945C72.3284 39.0172 72.2727 39.2784 72.2274 39.5254C72.1576 39.9063 72.1231 39.9777 72.0003 39.9956C71.878 40.0135 71.8554 39.9851 71.8554 39.8135C71.8554 39.3955 71.5337 39.2576 70.6392 39.2921L70.1156 39.3123L69.9322 40.1731C69.8313 40.6465 69.7478 41.0711 69.7466 41.1166C69.7433 41.2389 70.7513 41.228 70.9918 41.1032C71.0937 41.0503 71.2146 40.9162 71.2604 40.8052C71.3114 40.6816 71.3916 40.6035 71.4676 40.6035C71.6211 40.6035 71.6222 40.5554 71.4496 41.4477C71.3286 42.0732 71.2862 42.1926 71.1846 42.1926C71.1116 42.1926 71.0638 42.1448 71.0638 42.0717C71.0638 41.7627 70.447 41.533 69.877 41.6297L69.6249 41.6724L69.4911 42.4125C69.2551 43.7177 69.265 43.8359 69.6234 43.9849C70.0179 44.1489 69.7902 44.2117 68.7328 44.2303C67.8662 44.2456 67.6992 44.2331 67.6992 44.1527ZM28.9997 42.7284C28.7047 42.5939 28.446 42.1782 28.446 41.8385C28.446 41.3125 28.9092 40.8421 29.4254 40.844C30.0428 40.8462 30.4244 41.2247 30.4249 41.8352C30.4255 42.611 29.7167 43.0552 28.9997 42.7284ZM62.5784 42.7596C62.4652 42.7101 62.288 42.5585 62.1848 42.4227C62.0318 42.2213 61.998 42.1123 62.0021 41.8319C62.0108 41.2236 62.3877 40.8494 62.9917 40.8494C63.291 40.8494 63.3907 40.8821 63.5951 41.047C64.0504 41.4147 64.1212 42.031 63.7578 42.4645C63.4524 42.8288 62.9974 42.9427 62.5784 42.7596ZM23.1364 40.4062C23.0067 40.2623 22.9973 40.2773 23.7471 39.4206L24 39.1315L24.3758 39.2159C24.5825 39.2623 24.7516 39.3203 24.7516 39.3448C24.7516 39.3894 23.339 40.5373 23.284 40.5373C23.2679 40.5373 23.2015 40.4783 23.1364 40.4062ZM56.6998 40.4061L56.5534 40.2872L57.0514 39.717C57.3253 39.4034 57.5746 39.1468 57.6054 39.1468C57.7663 39.1468 58.3318 39.3096 58.3163 39.3514C58.2999 39.3954 57.0708 40.3874 56.9125 40.4844C56.876 40.5068 56.7803 40.4715 56.6998 40.4061ZM100.556 40.4067L100.396 40.2862L100.912 39.7165C101.195 39.4032 101.451 39.1468 101.48 39.1468C101.61 39.1468 102.202 39.3059 102.199 39.3403C102.196 39.3761 100.951 40.3849 100.789 40.4826C100.748 40.5071 100.643 40.473 100.556 40.4067ZM6.40452 40.0669C6.13642 39.7978 6.39806 39.2792 6.80192 39.2792C7.08279 39.2792 7.22944 39.4271 7.22944 39.7104C7.22944 40.1523 6.71227 40.3758 6.40452 40.0669ZM50.9259 40.114C50.7637 39.9905 50.7733 39.5813 50.9424 39.4117C51.2145 39.1386 51.734 39.3168 51.734 39.6833C51.734 40.0802 51.2324 40.3475 50.9259 40.114ZM94.7407 40.0669C94.468 39.7931 94.7355 39.2792 95.1508 39.2792C95.5652 39.2792 95.7428 39.7432 95.4433 40.0437C95.2401 40.2477 94.931 40.2579 94.7407 40.0669ZM36.9429 38.1742C36.8421 38.0615 36.8661 38.021 37.3434 37.5L37.8511 36.9458L38.2284 37.0305C38.4359 37.0771 38.6041 37.1329 38.6023 37.1544C38.597 37.2174 37.2721 38.2359 37.1559 38.2664C37.0977 38.2817 37.0019 38.2402 36.9429 38.1742Z" fill="white"/>
<path d="M59.2178 33.8719L59.3704 33.4795C59.629 32.7708 59.8972 32.23 60.2843 31.6366C60.6943 31.008 61.5969 30.082 61.9723 29.9048C62.4338 29.687 63.0074 29.6103 63.7168 29.6716C64.3259 29.7242 66.1976 30.0285 66.9528 30.1976C67.5276 30.3264 68.3693 30.3387 68.7653 30.2241C69.5284 30.0035 69.9805 29.5769 70.195 28.8751C70.3596 28.3367 70.358 27.8474 70.1907 27.5211C69.9659 27.0828 70.0042 26.9688 70.5505 26.4496C70.8203 26.1931 71.0414 25.9559 71.0419 25.9226C71.0442 25.749 70.6703 25.0519 70.5741 25.0503C70.5151 25.0493 70.3986 24.9936 70.3152 24.9264L70.1635 24.8042L70.4878 24.6394C70.9306 24.4143 71.2591 24.0644 71.2591 23.8176C71.2591 23.711 71.1658 23.4496 71.0518 23.2368C70.8329 22.8284 70.7744 22.4381 70.8976 22.2091C70.979 22.0578 71.1194 21.9941 71.809 21.796C72.3885 21.6295 72.598 21.4607 72.6806 21.0938C72.7513 20.7799 72.7165 20.5781 72.5269 20.201C72.3725 19.894 71.3671 18.3628 71.0743 17.9887C70.6807 17.486 70.2013 16.6176 70.0595 16.1505C69.9197 15.6901 69.9188 15.664 70.0208 15.0688C70.2364 13.8107 70.1103 12.7676 69.4969 10.7337C69.041 9.22207 68.9185 8.85512 68.7758 8.57232C68.5177 8.06103 68.5521 7.94134 69.0817 7.51039C69.3351 7.3041 69.5706 7.0831 69.605 7.01927C69.7649 6.72207 69.5862 6.1494 69.2832 5.9881C69.0909 5.88572 68.9838 5.95601 68.7886 6.31283C68.6407 6.58319 68.5827 6.63439 68.4244 6.63439C68.1667 6.63439 68.1215 6.52693 68.2861 6.3055C68.478 6.04733 68.4628 6.00594 68.1613 5.96572C67.9357 5.93562 67.8165 5.84797 67.3273 5.35281C66.6716 4.68895 66.231 4.38302 65.3529 3.98164C64.9503 3.79763 64.8101 3.71054 64.9578 3.73623C65.0837 3.75813 65.5289 3.79312 65.9471 3.81399C67.1607 3.87455 67.4557 3.71517 67.7385 2.84609C67.9305 2.25603 68.0226 1.98314 67.582 1.57117L65.9647 0.059082H102.252V33.8719H59.2178Z" fill="#E2011C"/>
<path d="M27.827 33.8719C27.5598 33.8444 27.3282 33.8324 27.3122 33.8168C27.2841 33.7892 27.5859 33.5992 28.968 32.7739C29.4113 32.5092 29.5937 32.3673 29.5321 32.335C29.482 32.3088 29.0951 32.2672 28.6722 32.2426C28.0439 32.2061 27.8618 32.2166 27.6767 32.2999C27.5521 32.356 27.0547 32.5036 26.5715 32.6279C25.3729 32.936 24.9696 33.1476 24.5848 33.67L24.441 33.8719H0.813965V0.059082H47.6908L46.7825 0.639993C46.2825 0.883229 45.7014 1.22105 45.4912 1.39072C44.7781 1.96623 43.818 3.27547 43.5782 3.99915C43.4901 4.26513 43.4101 4.36483 43.1398 4.54563C42.7272 4.82153 42.2329 5.34767 41.8237 5.94666C41.268 6.76 40.2089 8.593 40.0008 9.10149C39.6779 9.89032 39.7073 10.491 40.1837 12.8484C40.3935 13.8862 40.6205 14.9403 40.6881 15.1908C40.7557 15.4413 40.8298 15.8659 40.8526 16.1343C40.8934 16.6135 40.9252 16.7173 41.2116 17.3055C41.2899 17.4665 41.354 17.6493 41.3539 17.7116C41.3538 17.7739 41.4134 17.8615 41.4865 17.9062C41.5622 17.9526 41.6192 18.0579 41.6192 18.1515C41.6192 18.2642 41.7703 18.4782 42.1023 18.8353C42.8619 19.6525 43.4111 20.4185 43.4111 20.6607C43.4111 20.8597 43.1132 20.9111 42.6332 20.795C42.0723 20.6593 41.6134 20.3661 40.9058 19.6914C40.6046 19.4043 40.3582 19.2113 40.3582 19.2624C40.3582 19.3136 40.5647 19.5806 40.817 19.8557C41.3189 20.4028 41.3976 20.552 41.2891 20.7509C41.1942 20.9248 40.9632 20.9754 40.6507 20.8908C40.29 20.7932 40.0787 20.9293 40.1382 21.2209C40.1747 21.3997 40.1647 21.4208 40.0616 21.382C39.8577 21.3053 39.4116 21.2174 39.0104 21.175C38.6419 21.136 38.6147 21.1201 38.3916 20.8157C38.2225 20.585 38.091 20.4787 37.9143 20.4301C37.2558 20.2489 35.6178 19.9697 34.5181 19.851C32.5849 19.6425 32.1193 19.6262 31.1932 19.7341C30.482 19.8171 30.2886 19.8657 29.899 20.0598C29.2095 20.4033 28.0142 21.4797 28.0142 21.7572C28.0142 21.8873 28.2775 21.8414 28.5783 21.6588C29.4913 21.1045 32.6186 20.3222 34.153 20.2643C34.9134 20.2356 34.8722 20.2713 33.9599 20.4315C33.7076 20.4758 33.1103 20.6258 32.6326 20.7647C32.1548 20.9037 31.3308 21.1178 30.8016 21.2405C30.2723 21.3632 29.675 21.5215 29.4743 21.5921L29.1092 21.7206L29.6734 21.7266C32.5477 21.7574 35.8242 22.6515 37.1577 23.7689C37.7314 24.2497 37.9415 24.308 38.7855 24.221C39.9421 24.1016 41.4391 23.5606 42.0956 23.0247C42.3806 22.7921 42.6149 22.6997 42.6145 22.82C42.6138 23.0325 42.2364 24.1751 42.0733 24.4585C41.8914 24.7745 41.8811 24.82 41.9758 24.8879C42.034 24.9297 42.065 24.9802 42.0445 25.0003C42.0241 25.0203 42.0694 25.056 42.1451 25.0795C42.3629 25.1473 42.3081 25.2128 41.9605 25.3002C41.6216 25.3853 41.3537 25.5344 41.3537 25.6379C41.3537 25.6716 41.4003 25.6992 41.4572 25.6992C41.6276 25.6992 41.5004 25.816 41.2778 25.864C41.1253 25.8968 41.0948 25.9236 41.1624 25.9656C41.2286 26.0067 41.2311 26.0229 41.1712 26.0236C41.1256 26.0241 41.0883 26.0906 41.0883 26.1714C41.0883 26.2719 41.0255 26.3454 40.8892 26.4046C40.5569 26.5488 40.65 26.6266 41.1048 26.5849C41.333 26.5639 41.4748 26.5641 41.4201 26.5853C41.3653 26.6065 40.992 26.7721 40.5905 26.9533C40.189 27.1344 39.6664 27.3495 39.4291 27.4312C39.1605 27.5236 38.989 27.621 38.9746 27.6892C38.9514 27.7988 39.0761 27.7951 39.3898 27.6771C39.4479 27.6552 39.4948 27.6624 39.4939 27.6931C39.493 27.7238 38.8018 28.1149 37.9578 28.5622C37.1139 29.0096 36.3242 29.4707 36.203 29.587C36.0817 29.7033 35.9266 29.7985 35.8582 29.7985C35.7894 29.7985 35.6995 29.8725 35.6569 29.9642C35.528 30.2416 35.5547 30.2754 35.862 30.2236C36.3185 30.1468 36.5277 30.151 36.558 30.2377C36.5744 30.2846 36.5313 30.319 36.4563 30.319C36.3847 30.319 36.2905 30.3612 36.2468 30.4128C36.2032 30.4643 36.0879 30.5156 35.9907 30.5266C35.8776 30.5395 35.7659 30.6213 35.6803 30.7539C35.6069 30.8678 35.487 30.976 35.414 30.9944C35.341 31.0128 35.4455 31.0159 35.6463 31.0012C38.6314 30.7836 39.1875 30.6752 40.3914 30.0771C41.4185 29.5669 42.4846 28.8083 43.2431 28.0482C43.4609 27.8299 43.6625 27.6513 43.691 27.6513C43.7942 27.6513 43.7382 28.0162 43.5859 28.3368C43.3224 28.8917 42.7695 29.4028 41.6329 30.1422C41.0596 30.5151 40.4412 30.8663 40.2587 30.9227C39.6885 31.0987 38.7679 31.2863 37.8029 31.423C34.6589 31.8684 33.4558 32.2062 32.264 32.9783C32.0645 33.1075 31.8551 33.2055 31.7987 33.1962C31.7422 33.1868 31.5919 33.2664 31.4645 33.3731C31.1063 33.6732 31.3658 33.6225 32.1087 33.2471C32.87 32.8624 33.2269 32.8018 32.6266 33.1591C31.8906 33.5973 31.3295 33.8719 30.7802 33.8719H27.827ZM23.9217 30.1C24.041 30.0512 24.4357 29.8345 24.7989 29.6185C25.162 29.4026 25.5935 29.1661 25.7578 29.0931C25.922 29.0201 26.3849 28.8151 26.7865 28.6375C27.628 28.2654 28.863 27.9143 28.9341 28.0269C28.959 28.0665 29.143 28.1101 29.343 28.1238C29.6229 28.143 29.6722 28.1606 29.5572 28.2004C29.4751 28.2288 29.4079 28.2779 29.4079 28.3095C29.4079 28.4272 30.029 28.3919 30.2905 28.2594C30.393 28.2074 30.6246 28.1477 30.8051 28.1267C31.0296 28.1007 31.1334 28.0588 31.1334 27.9944C31.1334 27.9208 31.1904 27.9095 31.3931 27.9431C31.672 27.9893 32.272 27.8781 33.8876 27.4808C34.9817 27.2117 35.8104 26.9409 36.5382 26.6146L37.0652 26.3783L36.5382 26.0474C35.2539 25.241 33.9642 24.7458 31.1334 23.9721C30.6406 23.8374 30.2076 23.6981 30.1711 23.6626C30.1271 23.6197 30.1494 23.6136 30.2375 23.6446C30.5201 23.744 30.7352 23.763 30.7352 23.6887C30.7352 23.5922 30.5215 23.5145 30.1016 23.4582C29.7175 23.4067 29.4696 23.2944 29.7364 23.2927C30.1494 23.2902 29.4395 23.0336 28.6447 22.8982C28.0563 22.7979 28.0224 22.7764 28.2682 22.6597C28.4823 22.558 28.7127 22.1732 28.6521 22.0184C28.6006 21.8869 28.5365 21.9005 28.2182 22.11C27.6047 22.514 27.0419 23.1757 26.7256 23.8648C26.5452 24.2578 26.6077 24.2939 27.5363 24.3328C28.2966 24.3647 28.3087 24.3675 28.1138 24.4702C28.0043 24.5278 27.7846 24.5945 27.6256 24.6184C27.0858 24.6996 26.7859 24.9507 27.0535 25.0976C27.133 25.1412 27.1015 25.178 26.9063 25.2692C26.6875 25.3715 26.6721 25.3932 26.7772 25.4508C26.8429 25.4868 27.0337 25.5056 27.2014 25.4925C27.4343 25.4744 27.5407 25.499 27.6529 25.5969L27.7996 25.725L27.5052 25.9081C27.3432 26.0088 27.1601 26.185 27.0982 26.2998C27.0362 26.4145 26.8138 26.6875 26.6039 26.9064C26.3941 27.1253 26.2223 27.3518 26.2223 27.4096C26.2223 27.4674 25.9162 27.7548 25.5421 28.0482C24.5359 28.8374 24.0986 29.2711 24.0986 29.4799C24.0986 29.5904 24.0418 29.6899 23.942 29.754C23.6279 29.9558 23.464 30.1889 23.6362 30.1889C23.6739 30.1889 23.8023 30.1489 23.9217 30.1ZM31.6851 29.3397C31.9337 29.3072 32.2217 29.2316 32.325 29.1718L32.5127 29.063L32.1925 28.9065L31.8722 28.7501L31.5526 28.877C31.3768 28.9469 31.1333 29.0409 31.0116 29.0861C30.522 29.2677 30.4581 29.5119 30.9177 29.4449C31.0911 29.4196 31.4364 29.3723 31.6851 29.3397ZM20.4485 26.3809C21.9275 24.8648 22.9711 23.9654 24.2959 23.0653C24.746 22.7594 25.0632 22.5825 25.0788 22.6286C25.1218 22.7551 25.3147 22.7179 25.6286 22.5225C25.9894 22.2979 26.1699 22.0707 26.6202 21.2739C27.0874 20.4473 27.264 20.2408 27.9384 19.7316C28.2539 19.4934 28.7184 19.1378 28.9707 18.9414C29.3343 18.6583 29.4216 18.6135 29.3917 18.7257C29.3685 18.8125 29.3845 18.8671 29.4331 18.8671C29.5839 18.8671 30.2943 18.5698 30.3193 18.4963C30.3584 18.3813 29.6366 18.2625 29.1027 18.2961C28.6929 18.3219 28.5477 18.3685 28.0391 18.6377C26.8439 19.2703 25.9806 19.9526 24.3321 21.5674C23.1457 22.7296 22.2111 23.5088 21.7387 23.7296C21.5849 23.8015 21.469 23.9523 21.2824 24.3234C20.9197 25.0447 20.2722 26.0799 19.6574 26.921C19.0765 27.7159 18.9518 27.9909 19.4033 27.4815C19.5584 27.3065 20.0288 26.8112 20.4485 26.3809ZM35.2481 33.4994C37.0243 33.1375 37.2204 33.1105 38.4668 33.057C39.8664 32.9969 40.0448 32.9613 40.8868 32.5733C41.1566 32.449 41.2624 32.4264 41.2999 32.485C41.3651 32.5871 41.8218 32.3433 42.7142 31.7298C43.0792 31.4789 43.5954 31.1582 43.8613 31.0172C44.2619 30.8047 44.3844 30.7682 44.5771 30.8036C44.7829 30.8415 44.8438 30.8169 45.1066 30.5901C45.8349 29.9616 46.4567 29.6711 47.0778 29.6691C47.2624 29.6686 47.3266 29.6953 47.3266 29.7729C47.3266 29.8391 47.3631 29.8638 47.4262 29.84C47.6112 29.7704 47.5274 29.85 47.0516 30.1959C46.5007 30.5963 46.5548 30.7165 47.1149 30.3365C47.6571 29.9685 47.6585 29.968 47.6585 30.1168C47.6585 30.2016 47.4544 30.4144 47.0778 30.7225C46.2209 31.4233 45.6142 32.003 44.6905 33.0031L43.8642 33.8719H33.3567L35.2481 33.4994ZM35.2647 20.2538C35.3285 20.2374 35.4331 20.2374 35.4969 20.2538C35.5608 20.2701 35.5086 20.2835 35.3808 20.2835C35.2531 20.2835 35.2008 20.2701 35.2647 20.2538Z" fill="#003189"/>
<path d="M65.7815 17.7023C65.4723 17.6643 65.6319 17.5711 66.006 17.5711C66.3814 17.5711 66.5793 17.454 66.5793 17.2321C66.5793 17.1277 66.5513 17.1106 66.4314 17.1415C66.3279 17.1681 66.2542 17.1457 66.1862 17.0668C66.1226 16.9931 65.9689 16.9411 65.7428 16.9167C65.339 16.8732 64.6849 16.5566 64.8022 16.4613C64.8422 16.4288 65.0502 16.3904 65.2642 16.376C65.6332 16.3511 65.6576 16.3396 65.7325 16.1555C65.7885 16.0176 65.8664 15.9506 66.0006 15.925C66.1047 15.9051 66.2695 15.8293 66.3668 15.7565C66.4642 15.6836 66.7828 15.4974 67.0749 15.3427C67.5659 15.0827 67.8701 14.8054 67.7613 14.7171C67.6468 14.6241 66.5836 14.5228 66.0836 14.5573C65.5028 14.5974 64.502 14.7687 64.0835 14.8997C63.6538 15.0342 63.7794 14.9171 64.3697 14.6329C65.1666 14.2491 66.7005 13.8914 67.5489 13.8914C67.878 13.8914 68.9793 14.1026 69.1104 14.1909C69.3674 14.3638 69.0871 14.9708 68.6105 15.2736L68.4115 15.4001L68.5751 15.5418L68.7387 15.6835L68.5716 15.7936C68.4797 15.8541 68.3537 15.9037 68.2917 15.9037C68.2298 15.9037 68.0763 15.9846 67.9507 16.0834C67.7574 16.2355 67.7325 16.2847 67.7881 16.4034C67.8311 16.4953 67.8269 16.5844 67.7758 16.6619C67.7281 16.7342 67.7162 16.8988 67.745 17.0861C67.8039 17.4686 67.7189 17.6056 67.3749 17.6832C67.1199 17.7407 66.1859 17.7519 65.7815 17.7023Z" fill="#7F7F7F"/>
</svg>
