<svg width="86" height="51" viewBox="0 0 86 51" fill="none" xmlns="http://www.w3.org/2000/svg">
<path d="M85.4769 0.908936H0.70752V29.1654H85.4769V0.908936Z" fill="white"/>
<path d="M68.4176 50.9679C68.3708 50.9487 68.3679 50.8974 68.4072 50.7843C68.457 50.6409 68.4799 50.6297 68.6713 50.6555C68.8449 50.6789 68.896 50.6621 68.9685 50.5582C69.108 50.3584 69.0003 50.2142 68.7473 50.2619C68.5531 50.2984 68.5501 50.2962 68.5875 50.1467C68.7063 49.6718 68.7175 49.6979 68.3637 49.6275C67.9424 49.5437 67.5393 49.3068 67.2297 48.9612C66.7649 48.4423 66.6037 47.9173 66.65 47.0734C66.6736 46.6435 66.7101 46.4759 66.8451 46.177C67.2585 45.2621 68.2025 44.7956 69.4715 44.8792C69.7462 44.8973 70.095 44.9442 70.2467 44.9835L70.5223 45.0549L70.5382 45.5667L70.554 46.0786H70.3865C70.2878 46.0786 70.2191 46.0497 70.2191 46.0082C70.2191 45.8644 69.8815 45.5318 69.6427 45.4403C69.3346 45.3222 68.7367 45.3491 68.4372 45.4946C67.7527 45.8271 67.4406 46.6903 67.6487 47.6754C67.7454 48.1331 67.9052 48.4402 68.2106 48.7553C68.5001 49.0539 68.7922 49.1745 69.2297 49.176C69.6925 49.1775 70.0165 48.9909 70.2203 48.6054C70.3587 48.3435 70.4081 48.3113 70.5416 48.3963C70.6038 48.4358 70.6044 48.5269 70.5451 48.9471L70.4741 49.4505L70.2226 49.5377C70.0842 49.5857 69.7663 49.64 69.5162 49.6583C69.0848 49.6899 69.0613 49.6983 69.0613 49.8217C69.0613 49.9202 69.0918 49.9518 69.1869 49.9518C69.371 49.9518 69.5437 50.095 69.5845 50.2813C69.6319 50.4978 69.4784 50.8182 69.2772 50.9226C69.1316 50.9981 68.5645 51.028 68.4176 50.9679ZM35.6168 50.735C35.1395 50.5938 34.7279 50.3807 34.2328 50.0187L33.8051 49.706L33.1436 49.6719C32.41 49.6341 32.1537 49.5519 31.6792 49.2023C30.6339 48.4322 30.5959 46.4724 31.6078 45.5185C32.3696 44.8004 33.7098 44.6521 34.6745 45.179C35.9768 45.8904 36.1151 47.9891 34.932 49.0884C34.7484 49.2589 34.5686 49.3986 34.5325 49.3987C34.4198 49.3991 35.7154 50.1104 36.0942 50.2562C36.5128 50.4172 37.0018 50.4387 37.36 50.3119C37.6206 50.2196 37.6651 50.2307 37.7089 50.3985C37.7344 50.4965 37.6898 50.5378 37.4261 50.6604C37.0103 50.8536 36.1392 50.8895 35.6168 50.735ZM34.0002 49.025C34.9233 48.5409 35.0991 46.9909 34.343 46.001C33.6424 45.0837 32.4144 45.2226 31.9528 46.2713C31.5357 47.2189 32.0116 48.6839 32.8623 49.0717C33.2067 49.2286 33.6461 49.2106 34.0002 49.025ZM5.02679 49.5984C4.77358 49.4875 4.49577 49.1424 4.05676 48.3936C3.3823 47.2431 3.2559 47.0746 3.06759 47.0746H2.90425L2.90536 47.697C2.90738 48.8332 3.0212 49.222 3.37809 49.3119C3.47356 49.3359 3.51069 49.3837 3.51069 49.4826V49.6198H2.38051H1.25033V49.4895C1.25033 49.3908 1.29244 49.3471 1.42389 49.3092C1.51935 49.2818 1.6496 49.1892 1.71333 49.1035C1.82642 48.9514 1.8292 48.8961 1.8292 46.7978C1.8292 44.6996 1.82642 44.6443 1.71333 44.4923C1.6496 44.4066 1.51935 44.314 1.42389 44.2866C1.29706 44.25 1.25033 44.2039 1.25033 44.1151C1.25033 43.9942 1.25656 43.9935 2.65061 43.9575C4.13434 43.9192 4.4613 43.9475 4.87951 44.1507C5.24486 44.3282 5.54938 44.8661 5.55023 45.3354C5.5512 45.8726 5.15311 46.4794 4.62782 46.7413L4.35285 46.8785L4.96059 47.7927C5.67557 48.8682 5.90011 49.1555 6.11136 49.2651C6.30856 49.3675 6.32751 49.5907 6.14319 49.6403C5.92145 49.6999 5.19649 49.6727 5.02679 49.5984ZM3.64728 46.5148C4.38635 46.3089 4.63579 45.2781 4.07647 44.7413C3.81354 44.4889 3.53434 44.3973 3.17799 44.4465L2.90425 44.4843V45.5304V46.5766L3.16612 46.5762C3.31015 46.5761 3.52667 46.5485 3.64728 46.5148ZM16.3497 49.5988C16.0475 49.4904 15.7626 49.2974 15.6118 49.099C15.3377 48.7383 15.3089 48.5487 15.3056 47.0814C15.3021 45.5479 15.2733 45.3794 14.9929 45.2486C14.8802 45.196 14.8145 45.125 14.8137 45.0549C14.8126 44.9486 14.849 44.9443 15.7498 44.9443C16.685 44.9443 16.687 44.9445 16.687 45.0688C16.687 45.1524 16.6539 45.1933 16.5863 45.1933C16.531 45.1933 16.4255 45.2575 16.352 45.336L16.2184 45.4788V46.9822C16.2184 48.397 16.2251 48.4984 16.3329 48.7047C16.501 49.0263 16.8363 49.1917 17.2676 49.1658C17.7316 49.1379 17.9826 48.9728 18.1678 48.5734C18.31 48.267 18.3113 48.2518 18.3123 46.9061C18.3132 45.7011 18.3024 45.5313 18.2162 45.3992C18.1627 45.3173 18.0573 45.2348 17.9819 45.2158C17.8962 45.1942 17.8447 45.1419 17.8447 45.0766C17.8447 44.9791 17.8957 44.9719 18.589 44.9719C19.2823 44.9719 19.3333 44.9791 19.3333 45.0766C19.3333 45.1418 19.2819 45.1942 19.197 45.2156C18.9432 45.2795 18.9229 45.3981 18.8928 46.9957L18.8646 48.4938L18.6987 48.8193C18.5028 49.2034 18.1855 49.469 17.7772 49.5908C17.4327 49.6934 16.6262 49.698 16.3497 49.5988ZM37.8508 49.5988C37.5452 49.4892 37.2632 49.2968 37.1072 49.0914C36.8473 48.7495 36.81 48.4966 36.8066 47.0519C36.8031 45.5499 36.7735 45.379 36.4939 45.2486C36.3813 45.196 36.3155 45.125 36.3148 45.0549C36.3137 44.9486 36.35 44.9443 37.2509 44.9443C38.1772 44.9443 38.1881 44.9457 38.188 45.0649C38.188 45.146 38.1492 45.1914 38.0695 45.2032C38.0043 45.213 37.8989 45.2912 37.8352 45.377C37.7267 45.5233 37.7183 45.6145 37.7012 46.827C37.6803 48.3168 37.7217 48.631 37.9732 48.8891C38.4282 49.3562 39.3738 49.2257 39.6418 48.6589C39.8106 48.302 39.8539 47.8548 39.8331 46.6837C39.8112 45.4438 39.7743 45.2892 39.4829 45.2158C39.3973 45.1942 39.3458 45.1419 39.3458 45.0766C39.3458 44.9791 39.3968 44.9719 40.09 44.9719C40.7815 44.9719 40.8343 44.9793 40.8343 45.0759C40.8343 45.1386 40.7704 45.2064 40.6729 45.2469C40.5841 45.2839 40.4925 45.3553 40.4693 45.4058C40.446 45.4563 40.4133 46.1718 40.3964 46.9958L40.3657 48.494L40.1997 48.8194C40.0038 49.2034 39.6865 49.4691 39.2782 49.5908C38.9337 49.6934 38.1273 49.698 37.8508 49.5988ZM55.3014 49.5965C55.081 49.5002 54.8189 49.1723 54.4133 48.4855C53.8896 47.5987 53.8301 47.5187 53.6936 47.5179C53.5715 47.5172 53.5696 47.5282 53.5696 48.2106C53.5696 49.038 53.6384 49.2712 53.8979 49.3233C54.0284 49.3495 54.0657 49.3863 54.0657 49.4884V49.6198H53.1285H52.1913V49.4884C52.1913 49.3863 52.2286 49.3495 52.3591 49.3233C52.6732 49.2603 52.6954 49.1104 52.6766 47.1844L52.6599 45.4787L52.5262 45.336C52.4527 45.2575 52.3473 45.1933 52.2919 45.1933C52.2295 45.1933 52.1913 45.153 52.1913 45.0873C52.1913 44.996 52.2472 44.9761 52.5957 44.9433C52.8181 44.9224 53.4321 44.9148 53.9602 44.9264C54.8187 44.9453 54.9446 44.9604 55.1499 45.0692C55.5147 45.2623 55.7197 45.6389 55.7197 46.1163C55.7197 46.5697 55.4606 46.968 54.9904 47.2375C54.8403 47.3235 54.7434 47.41 54.7749 47.4296C54.8065 47.4492 55.0502 47.7944 55.3163 48.1967C55.8388 48.9865 56.1293 49.3432 56.2498 49.3432C56.3561 49.3432 56.3467 49.6001 56.2389 49.6416C56.0824 49.7018 55.4757 49.6726 55.3014 49.5965ZM54.2824 46.9935C54.5016 46.8798 54.7168 46.6063 54.7572 46.3901C54.8091 46.1125 54.6873 45.7463 54.4769 45.5472C54.2821 45.3628 54.094 45.3099 53.7683 45.3481L53.5696 45.3714V46.223V47.0746H53.8479C54.0011 47.0746 54.1966 47.0381 54.2824 46.9935ZM78.8225 49.5869C78.6573 49.5423 78.5123 49.496 78.5002 49.4838C78.4881 49.4717 78.4478 49.2234 78.4106 48.9321L78.343 48.4025H78.4986C78.5841 48.4025 78.6541 48.4232 78.6541 48.4484C78.6541 48.5923 79.0159 49.0164 79.2257 49.1183C79.7927 49.3938 80.4737 49.1344 80.4732 48.6432C80.4727 48.3208 80.3169 48.1281 79.7857 47.7939C79.0404 47.3249 78.7526 47.0773 78.6039 46.7771C78.4557 46.4779 78.4293 46.0121 78.5411 45.6719C78.6149 45.4474 78.9613 45.1121 79.2529 44.9829C79.5464 44.8529 80.4651 44.8571 80.8456 44.9902L81.135 45.0915V45.585V46.0786H80.9756C80.8518 46.0786 80.8085 46.0479 80.7818 45.9413C80.724 45.7102 80.4285 45.4216 80.1811 45.3548C79.5194 45.1759 78.9894 45.8573 79.4048 46.3528C79.4841 46.4474 79.8438 46.7254 80.2041 46.9704C80.9019 47.4451 81.1597 47.7036 81.2461 48.0152C81.4362 48.7008 81.1205 49.3064 80.4396 49.5621C80.0743 49.6993 79.284 49.7114 78.8225 49.5869ZM6.59802 49.4707C6.59802 49.3726 6.62889 49.3432 6.73185 49.3432C6.81076 49.3432 6.91256 49.2834 6.97994 49.1974C7.09003 49.0569 7.0942 48.9881 7.0942 47.3125C7.0942 46.0964 7.07491 45.537 7.03006 45.4524C6.94793 45.2977 6.81703 45.1973 6.6945 45.195C6.62881 45.1938 6.59802 45.1491 6.59802 45.0549V44.9166H8.25195H9.90588V45.5013V46.0859L9.76114 46.0684C9.65212 46.0552 9.60109 46.0044 9.55439 45.8624C9.44571 45.532 9.26423 45.4478 8.60801 45.4235L8.03143 45.402V46.1901V46.9781L8.47487 46.9523C8.95815 46.9243 9.20153 46.8065 9.23436 46.5848C9.24735 46.4971 9.29073 46.4659 9.39975 46.466L9.54753 46.466V47.1853V47.9045L9.39592 47.9045C9.27363 47.9045 9.24431 47.8794 9.24431 47.7748C9.24431 47.5277 9.06047 47.4361 8.5219 47.4149L8.03143 47.3955V48.1725C8.03143 49.1091 8.04 49.1218 8.66947 49.1218C9.29026 49.1218 9.61388 48.964 9.7759 48.5823C9.85778 48.3894 10.0487 48.3343 10.1069 48.4868C10.1454 48.5874 9.99005 49.237 9.87335 49.4635L9.79076 49.6237L8.19439 49.6109L6.59802 49.5981V49.4707ZM10.8431 49.4884C10.8431 49.3872 10.8804 49.3495 11.0055 49.3244C11.2964 49.266 11.3102 49.1841 11.3289 47.4066C11.3483 45.5558 11.3247 45.3891 11.0235 45.2486C10.8978 45.19 10.8451 45.1274 10.8443 45.0358L10.8431 44.9061L12.0973 44.929C13.4534 44.9538 13.5641 44.9753 13.9316 45.2857C14.3356 45.6269 14.4403 46.3054 14.1668 46.8097C13.9283 47.2495 13.5159 47.4831 12.8586 47.5507L12.5142 47.5861L12.4286 47.3718L12.3431 47.1576L12.5468 47.1276C12.8056 47.0897 13.0867 46.9251 13.2355 46.7245C13.3202 46.6104 13.3505 46.4908 13.3478 46.2819C13.3406 45.7431 13.0389 45.4136 12.5125 45.3698L12.2145 45.345L12.2317 47.1919C12.2505 49.2062 12.2594 49.2628 12.5659 49.3258C12.6801 49.3493 12.7176 49.3895 12.7176 49.4884V49.6198H11.7803H10.8431L10.8431 49.4884ZM19.9948 49.4682C19.9948 49.3825 20.0276 49.3432 20.099 49.3432C20.1563 49.3432 20.2617 49.2956 20.3333 49.2375L20.4634 49.1318L20.4801 47.4167C20.4988 45.4968 20.4777 45.3519 20.1612 45.232C20.0619 45.1944 19.9948 45.1293 19.9948 45.0705C19.9948 44.9809 20.0712 44.9707 20.8356 44.9581C22.4445 44.9316 22.7812 44.9497 23.0428 45.0769C23.382 45.2417 23.5405 45.4803 23.5685 45.8682C23.581 46.0425 23.576 46.2464 23.5573 46.3213C23.503 46.5385 23.246 46.8037 22.9619 46.9358L22.6993 47.0579L22.9217 47.1248C23.4532 47.2847 23.7921 47.8425 23.7219 48.442C23.6626 48.948 23.4463 49.2326 22.9443 49.4647C22.6807 49.5866 22.6103 49.5922 21.3318 49.5927L19.9948 49.5933V49.4682ZM22.4262 49.0516C22.7072 48.8632 22.8187 48.6066 22.7874 48.2207C22.7404 47.6402 22.3363 47.2959 21.7021 47.2959H21.3652L21.3829 48.1309C21.3999 48.9313 21.4061 48.9703 21.5308 49.0715C21.7212 49.2261 22.1812 49.2158 22.4262 49.0516ZM22.1986 46.7524C22.537 46.6222 22.7152 46.3562 22.6799 46.0336C22.6326 45.6002 22.2846 45.3593 21.7057 45.3593H21.3731V46.1062V46.8532L21.6625 46.8502C21.8217 46.8486 22.0629 46.8045 22.1986 46.7524ZM24.4605 49.4714C24.4604 49.3819 24.4984 49.346 24.6066 49.333C24.6888 49.3232 24.8034 49.2471 24.8685 49.1593C24.9801 49.0086 24.9842 48.9432 24.9842 47.3057C24.9842 45.9452 24.9687 45.5808 24.9063 45.4699C24.8089 45.2971 24.6821 45.1973 24.5569 45.195C24.4941 45.1939 24.4604 45.1498 24.4604 45.0688C24.4604 44.9443 24.4604 44.9443 25.4528 44.9443C26.4451 44.9443 26.4451 44.9443 26.4451 45.0688C26.4451 45.1552 26.4124 45.1933 26.338 45.1933C26.279 45.1933 26.1612 45.2533 26.0761 45.3267L25.9214 45.4602L25.9054 47.2053L25.8894 48.9504L26.0305 49.0432C26.1422 49.1166 26.2616 49.1307 26.6033 49.1109C27.1279 49.0804 27.3736 48.9501 27.5198 48.6248C27.617 48.4084 27.7199 48.3558 27.8651 48.4484C27.9197 48.4831 27.9108 48.5854 27.8234 48.9281C27.7624 49.1677 27.6741 49.4225 27.6272 49.4942L27.542 49.6248L26.0012 49.6085L24.4605 49.5922L24.4605 49.4714ZM28.3196 49.4884C28.3196 49.3863 28.3569 49.3495 28.4874 49.3233C28.7918 49.2622 28.8158 49.1113 28.8156 47.2562C28.8154 45.7156 28.8083 45.5966 28.707 45.4299C28.6474 45.3318 28.5359 45.2357 28.4591 45.2164C28.3642 45.1925 28.3196 45.1434 28.3196 45.0628C28.3196 44.9463 28.3357 44.9443 29.2568 44.9443C30.1779 44.9443 30.194 44.9463 30.194 45.0628C30.194 45.1429 30.1496 45.1925 30.0569 45.2158C29.9815 45.2348 29.8761 45.3173 29.8226 45.3991C29.7352 45.5331 29.7254 45.717 29.7254 47.2381C29.7254 49.1168 29.7479 49.2675 30.0366 49.3254C30.1567 49.3495 30.194 49.3882 30.194 49.4884V49.6198H29.2568H28.3196V49.4884ZM41.4959 49.4784C41.4959 49.3874 41.5379 49.3486 41.6637 49.3233C41.9682 49.2622 41.9921 49.1117 41.9921 47.2505C41.9921 45.6201 41.9903 45.5943 41.8661 45.4089C41.7969 45.3055 41.6852 45.213 41.618 45.2032C41.5303 45.1905 41.4959 45.1477 41.4959 45.0511V44.9166H43.1222H44.7486V45.4976C44.7486 46.0732 44.7474 46.0786 44.6169 46.0786C44.5104 46.0786 44.4784 46.042 44.4495 45.8872C44.388 45.5583 44.1628 45.4479 43.5037 45.4234L42.9459 45.4027L42.91 45.6653C42.8903 45.8098 42.8742 46.1646 42.8742 46.4538V46.9795L43.3432 46.9501C43.8596 46.9178 44.0639 46.8266 44.1197 46.6035C44.1444 46.5049 44.1915 46.4659 44.286 46.4659H44.4178V47.1852V47.9045H44.28C44.1862 47.9045 44.1416 47.8736 44.1404 47.8077C44.1355 47.5338 43.8731 47.4066 43.3135 47.4066H42.8636L42.8827 48.1857C42.9058 49.1296 42.9001 49.1219 43.5621 49.1219C44.1464 49.1219 44.4503 48.9814 44.6094 48.6377C44.6895 48.4646 44.7504 48.4025 44.8404 48.4025C44.9076 48.4025 44.9794 48.4298 44.9999 48.4631C45.0501 48.5446 44.8056 49.4441 44.706 49.5441C44.6402 49.6101 44.3603 49.6216 43.0613 49.6117L41.4959 49.5998V49.4784ZM47.5603 49.4915C47.5603 49.4008 47.6117 49.34 47.7355 49.284C47.8319 49.2405 47.9622 49.1345 48.025 49.0486C48.1357 48.8971 48.1392 48.8291 48.1392 46.8076C48.1392 44.4626 48.1348 44.4343 47.7542 44.3083C47.6034 44.2583 47.5603 44.2142 47.5603 44.11V43.9759H49.4899H51.4194V44.6676V45.3593H51.2541C51.1193 45.3593 51.0886 45.3362 51.0885 45.2348C51.0881 45.0311 50.8805 44.7503 50.6602 44.6554C50.5298 44.5993 50.2279 44.5575 49.8344 44.5411L49.2142 44.5153V45.463V46.4106L49.669 46.4074C50.2753 46.4033 50.4827 46.3278 50.6108 46.0647C50.6932 45.8955 50.7415 45.8572 50.8727 45.8572H51.0335V46.6907V47.5242L50.8565 47.5069C50.7349 47.495 50.6702 47.4549 50.6498 47.3789C50.5623 47.0534 50.2249 46.9086 49.5544 46.9086H49.2019L49.2244 47.8907C49.25 49.0116 49.297 49.1754 49.6272 49.2952C49.772 49.3478 49.8207 49.3974 49.8207 49.4926V49.6198H48.6905H47.5603V49.4915ZM56.3812 49.4815C56.3812 49.3804 56.4107 49.3432 56.4907 49.3432C56.6596 49.3432 56.8526 48.9983 57.2719 47.9469C57.8334 46.539 58.3659 45.1074 58.3659 45.0057C58.3659 44.9361 58.4234 44.9168 58.6278 44.9177L58.8897 44.9189L59.6333 46.8318C60.4408 48.909 60.5896 49.2319 60.7779 49.3148C60.854 49.3483 60.902 49.4179 60.902 49.4946C60.902 49.6198 60.9014 49.6198 59.9647 49.6198H59.0275V49.4884C59.0275 49.3869 59.0648 49.3495 59.1914 49.3241C59.4284 49.2766 59.4427 49.1156 59.2585 48.5685L59.1002 48.0982H58.4487H57.7973L57.6663 48.4855C57.5013 48.9735 57.5109 49.3076 57.6906 49.3332C57.7804 49.346 57.8146 49.388 57.8146 49.4854V49.6198H57.0979H56.3812V49.4815ZM58.9173 47.544C58.9173 47.4598 58.5123 46.3552 58.4814 46.3552C58.4613 46.3552 58.4051 46.4611 58.3565 46.5904C58.3079 46.7197 58.2044 46.9936 58.1266 47.1991L57.985 47.5725H58.4511C58.7075 47.5725 58.9173 47.5597 58.9173 47.544ZM61.2879 49.4884C61.2879 49.3895 61.3254 49.3493 61.4395 49.3258C61.7377 49.2645 61.7511 49.1866 61.7743 47.3771C61.7982 45.5104 61.7748 45.3535 61.4542 45.232C61.355 45.1944 61.2879 45.1293 61.2879 45.0705C61.2879 44.9818 61.35 44.9719 61.9081 44.972L62.5283 44.9722L62.8867 45.4273C63.0838 45.6777 63.5924 46.2944 64.0169 46.7978C64.4414 47.3012 64.8456 47.7873 64.9151 47.878L65.0415 48.0429L65.0237 46.7929C65.0042 45.4308 64.9734 45.2903 64.6777 45.2158C64.5921 45.1942 64.5406 45.1419 64.5406 45.0766C64.5406 44.9791 64.5916 44.9719 65.2849 44.9719C65.9834 44.9719 66.0291 44.9785 66.0291 45.0787C66.0291 45.1457 65.9849 45.1922 65.9106 45.2032C65.8454 45.213 65.74 45.2912 65.6763 45.377C65.5644 45.528 65.56 45.6008 65.5436 47.5765L65.5267 49.6198H65.2864C65.069 49.6198 65.0287 49.5974 64.8638 49.3847C64.718 49.1966 62.3824 46.2933 62.2932 46.1892C62.2802 46.174 62.2803 46.7841 62.2938 47.5449C62.3206 49.0877 62.3542 49.2722 62.6175 49.3251C62.7393 49.3495 62.7766 49.3878 62.7766 49.4884V49.6198H62.0323H61.2881V49.4884L61.2879 49.4884ZM70.9358 49.4815C70.9358 49.3993 70.9674 49.3432 71.0136 49.3432C71.1225 49.3432 71.3269 49.0835 71.4728 48.7597C71.6757 48.3093 72.6192 45.865 72.7811 45.3703L72.9314 44.911L73.1779 44.9276L73.4243 44.9443L74.1557 46.8256C74.558 47.8603 74.9313 48.794 74.9853 48.9005C75.1086 49.1437 75.288 49.3432 75.3834 49.3432C75.4246 49.3432 75.4565 49.4035 75.4565 49.4815V49.6198H74.5193H73.5821V49.4815C73.5821 49.3852 73.6122 49.3432 73.6813 49.3432C73.9481 49.3432 73.9728 49.1094 73.7705 48.4996L73.6282 48.0705H72.9812H72.3342L72.2168 48.444C71.9952 49.1495 72.0057 49.3432 72.2657 49.3432C72.3393 49.3432 72.3692 49.3831 72.3692 49.4815V49.6198H71.6525H70.9358V49.4815ZM73.275 47.0054C73.1708 46.6935 73.0707 46.4009 73.0527 46.3552C73.0331 46.3057 72.9228 46.5173 72.7789 46.8809C72.6464 47.2157 72.5372 47.5082 72.5363 47.5311C72.5353 47.5539 72.7438 47.5725 72.9995 47.5725H73.4645L73.275 47.0054ZM75.7873 49.4815C75.7873 49.3733 75.8154 49.3432 75.9166 49.3432C75.9877 49.3432 76.0931 49.2908 76.1509 49.2268C76.2487 49.1185 76.257 48.9912 76.2721 47.387C76.281 46.4391 76.2745 45.6082 76.2577 45.5406C76.2184 45.383 76.016 45.1933 75.8872 45.1933C75.8204 45.1933 75.7873 45.152 75.7873 45.0688C75.7873 44.9445 75.7893 44.9443 76.7245 44.9443C77.6258 44.9443 77.6617 44.9485 77.6617 45.0552C77.6618 45.1245 77.6017 45.1929 77.5022 45.2371C77.4145 45.2761 77.3171 45.3756 77.2858 45.4581C77.2054 45.6702 77.1597 47.3968 77.2098 48.3296C77.2447 48.9802 77.2695 49.1338 77.3551 49.2287C77.4119 49.2917 77.5041 49.3432 77.56 49.3432C77.6318 49.3432 77.6618 49.3839 77.6618 49.4815V49.6198H76.7245H75.7873V49.4815ZM81.962 49.4716C81.962 49.3725 81.9926 49.3432 82.0958 49.3432C82.1747 49.3432 82.2765 49.2834 82.3439 49.1974C82.454 49.0569 82.4581 48.9881 82.4581 47.3125C82.4581 46.0964 82.4389 45.537 82.394 45.4524C82.3119 45.2977 82.181 45.1973 82.0584 45.195C81.9928 45.1938 81.962 45.1491 81.962 45.0549V44.9166H83.6159H85.2698V45.5013V46.0859L85.1251 46.0684C85.0161 46.0552 84.965 46.0044 84.9183 45.8624C84.8097 45.532 84.6282 45.4478 83.972 45.4235L83.3954 45.402V46.183V46.9639L83.7399 46.9608C84.2183 46.9564 84.4515 46.8664 84.5531 46.6469C84.6137 46.5161 84.6727 46.468 84.7736 46.4672L84.9115 46.4661V47.1853V47.9046L84.7599 47.9046C84.6376 47.9045 84.6083 47.8794 84.6083 47.7748C84.6083 47.5277 84.4244 47.4361 83.8858 47.4149L83.3954 47.3955V48.1726C83.3954 49.1091 83.4039 49.1219 84.0334 49.1219C84.6542 49.1219 84.9778 48.9641 85.1398 48.5824C85.2217 48.3895 85.4126 48.3344 85.4709 48.4868C85.5094 48.5874 85.354 49.237 85.2373 49.4635L85.1547 49.6238L83.5583 49.6119L81.962 49.6V49.4716ZM8.08964 44.4229L7.9549 44.3189L8.2826 43.8163C8.46283 43.5399 8.64548 43.3133 8.68848 43.3128C8.8749 43.3108 9.46847 43.4388 9.45361 43.4778C9.424 43.5556 8.33588 44.5286 8.27952 44.5277C8.24919 44.5272 8.16375 44.48 8.08964 44.4229ZM1.08493 40.6007H85.0493V41.0987H1.08493V40.6007ZM33.0409 39.4683C32.5998 39.3105 32.3518 38.8979 32.4321 38.4557C32.4863 38.1577 32.6544 37.9492 32.9519 37.8108L33.2123 37.6897L33.0539 37.5985C32.9639 37.5466 32.8955 37.4602 32.8955 37.3983C32.8955 37.2981 33.2997 36.8934 33.3997 36.8934C33.4235 36.8934 33.3889 36.8013 33.3228 36.6888C33.0405 36.2086 33.2663 35.5142 33.7934 35.242C34.0788 35.0946 34.1752 35.0883 35.1744 35.1526C35.7492 35.1895 35.7706 35.1955 35.7402 35.309C35.7228 35.374 35.7083 35.4458 35.7079 35.4686C35.7075 35.4914 35.6103 35.5101 35.4918 35.5101H35.2765L35.3056 35.8318C35.369 36.5336 34.8717 37.0143 34.0688 37.0272C33.6518 37.0339 33.4499 37.1227 33.6126 37.2278C33.6579 37.2571 33.9271 37.3564 34.2109 37.4486C35.1237 37.7451 35.2924 37.8943 35.2534 38.3707C35.213 38.8655 34.8165 39.2969 34.2428 39.4701C33.9142 39.5694 33.3208 39.5685 33.0409 39.4683ZM34.2684 39.1267C34.7159 38.9028 34.9098 38.4763 34.6651 38.254C34.5002 38.1042 33.784 37.8743 33.5984 37.9115C33.2206 37.9873 32.8677 38.4497 32.9328 38.7834C33.0223 39.2421 33.693 39.4145 34.2684 39.1267ZM34.416 36.6231C34.752 36.4174 34.8818 35.8337 34.6557 35.5452C34.3463 35.1505 33.7576 35.5904 33.7521 36.2204C33.7504 36.4161 33.7785 36.4849 33.9047 36.5939C34.0907 36.7544 34.1919 36.7602 34.416 36.6231ZM36.5065 37.907C36.2643 37.8574 36.1346 37.6951 36.1071 37.4075C36.0365 36.671 36.6539 35.5916 37.3448 35.2434C37.7039 35.0624 38.4123 35.0442 38.8842 35.2037C38.9266 35.2181 38.8953 35.4072 38.7862 35.7963C38.5728 36.5572 38.4506 37.3187 38.5208 37.4504C38.5668 37.5367 38.5995 37.5427 38.7456 37.4916C38.8805 37.4444 38.9268 37.4479 38.9649 37.5084C39.0442 37.6343 38.996 37.6822 38.681 37.7903C38.2575 37.9356 38.0636 37.9073 37.9999 37.6908L37.9497 37.5198L37.724 37.6465C37.3429 37.8602 36.822 37.9717 36.5065 37.907ZM37.4596 37.4096C37.6199 37.3331 37.7871 37.2154 37.8311 37.1479C37.9048 37.0351 38.1293 36.2051 38.217 35.7217C38.2529 35.5236 38.2485 35.5168 38.0481 35.4612C37.6778 35.3586 37.3054 35.6296 37.0088 36.2176C36.6976 36.8344 36.6191 37.3839 36.8218 37.5265C36.9595 37.6232 37.0438 37.6078 37.4596 37.4096ZM63.5624 37.8908C63.315 37.8318 63.2277 37.7456 63.1601 37.4936C63.0575 37.1114 63.2948 36.3883 63.6983 35.8535C64.1816 35.213 64.7186 34.9968 65.5117 35.1236C65.7205 35.157 65.9077 35.2016 65.9278 35.2227C65.9478 35.2438 65.8782 35.5972 65.773 36.0081C65.6678 36.4189 65.5769 36.9169 65.5711 37.1147L65.5605 37.4744L65.7948 37.4639C66.0051 37.4545 66.0291 37.4664 66.0291 37.5796C66.0291 37.6853 65.9773 37.7216 65.711 37.8025C65.2729 37.9357 65.0696 37.9072 65.0469 37.7095C65.0373 37.6259 65.0194 37.5574 65.0071 37.5574C64.9948 37.5574 64.8507 37.6169 64.6867 37.6897C64.423 37.8067 63.8855 37.9545 63.7798 37.939C63.7586 37.9359 63.6607 37.9142 63.5624 37.8908ZM64.4855 37.4171C64.6219 37.3487 64.7738 37.2464 64.823 37.1899C64.9449 37.0496 65.1639 36.3274 65.2773 35.6916C65.3075 35.5221 65.2983 35.5105 65.0896 35.4541C64.9109 35.4058 64.8343 35.4119 64.6773 35.4867C64.3273 35.6534 63.98 36.2188 63.7999 36.9152C63.6274 37.5822 63.8425 37.7396 64.4855 37.4171ZM4.69581 37.7649C4.67939 37.6964 4.77766 37.1817 4.91421 36.6211C5.18342 35.5158 5.18114 35.426 4.88609 35.5109C4.74017 35.5529 4.72357 35.5449 4.72357 35.432C4.72357 35.3266 4.77484 35.2913 5.04057 35.2134C5.21493 35.1623 5.44441 35.1148 5.55054 35.1078C5.73218 35.0958 5.74453 35.106 5.7612 35.2807C5.77094 35.3828 5.67584 35.8885 5.54988 36.4046C5.42392 36.9207 5.33561 37.3815 5.35364 37.4287C5.37974 37.497 5.43766 37.5067 5.63823 37.4765C5.87818 37.4404 5.88919 37.4446 5.8719 37.5654C5.8576 37.6654 5.78957 37.7124 5.55054 37.7874C5.38376 37.8398 5.12995 37.8841 4.98649 37.886C4.76024 37.8889 4.72172 37.8729 4.69581 37.7649ZM6.81533 37.7872L6.68963 37.6851L7.11673 35.8018C7.35164 34.7661 7.5357 33.8472 7.52576 33.7599C7.50722 33.5971 7.48725 33.5887 7.27338 33.6538C7.16759 33.686 7.14933 33.671 7.14933 33.5521C7.14933 33.391 7.34296 33.3131 7.87982 33.2584C8.18738 33.227 8.19682 33.2301 8.19682 33.3602C8.19682 33.4339 8.10999 33.8892 8.00386 34.3718C7.89773 34.8545 7.8109 35.2818 7.8109 35.3213C7.8109 35.375 7.87151 35.3663 8.05022 35.2869C8.66421 35.0144 9.19942 35.0288 9.39154 35.3231C9.57144 35.5986 9.47829 36.3117 9.18606 36.8963C9.034 37.2005 8.58156 37.6738 8.33582 37.7859C8.01302 37.933 6.99587 37.9339 6.81533 37.7872ZM8.21039 37.4364C8.4868 37.24 8.79495 36.5765 8.88185 35.9905C8.96892 35.4035 8.58232 35.2864 7.96482 35.7128C7.83439 35.8028 7.72974 35.9369 7.67573 36.0832C7.57577 36.3538 7.36986 37.2372 7.36986 37.3953C7.36986 37.6281 7.90367 37.6542 8.21039 37.4364ZM10.3159 37.7197C10.1666 37.5632 10.1542 37.5191 10.1573 37.1525C10.1653 36.2185 10.6943 35.3826 11.4231 35.1525C11.7868 35.0377 12.1066 35.0766 12.321 35.2617C12.4447 35.3685 12.4695 35.4352 12.4695 35.6615C12.4695 36.2312 11.9519 36.6633 11.2069 36.7155C10.9917 36.7305 10.7973 36.7705 10.775 36.8043C10.713 36.8984 10.7253 37.2183 10.7962 37.3535C10.9338 37.6158 11.1311 37.622 11.6038 37.3787C11.8984 37.2271 11.959 37.2124 12.0027 37.2818C12.1001 37.4365 12.055 37.4851 11.6263 37.687C11.2692 37.8551 11.1358 37.8894 10.8372 37.8894C10.5081 37.8894 10.4642 37.8751 10.3159 37.7197ZM11.3031 36.391C11.7722 36.2603 12.0816 35.7571 11.8412 35.5158C11.6896 35.3637 11.5495 35.3687 11.3548 35.5332C11.1997 35.6642 10.9476 36.0792 10.8732 36.3262C10.8418 36.4304 10.8565 36.4507 10.9634 36.4504C11.0337 36.4503 11.1866 36.4235 11.3031 36.391ZM13.1586 37.8705C13.1586 37.8613 13.2577 37.4323 13.3788 36.9171C13.4999 36.4019 13.5991 35.8714 13.5993 35.7382L13.5996 35.4959L13.3791 35.5313C13.1836 35.5627 13.1586 35.5542 13.1586 35.4561C13.1586 35.3348 13.3368 35.2419 13.7843 35.1299C14.0905 35.0534 14.2061 35.1059 14.2061 35.3215V35.4514L14.4018 35.3181C14.7459 35.0837 14.9562 35.0408 15.2059 35.1538C15.3256 35.208 15.4158 35.2791 15.4065 35.312C15.2569 35.8416 15.1717 36.0081 15.0505 36.0081C14.9422 36.0081 14.9228 35.9797 14.9228 35.8212C14.9228 35.4186 14.5739 35.4158 14.3208 35.8162C14.1632 36.0658 14.0002 36.6332 13.8707 37.3831C13.8321 37.6067 13.7739 37.7976 13.7414 37.8072C13.6444 37.8358 13.1586 37.8886 13.1586 37.8705ZM15.9241 37.8172C15.8632 37.7436 15.8967 37.5447 16.2119 36.1049L16.3421 35.5101H16.1562C16.0539 35.5101 15.9703 35.496 15.9703 35.4788C15.9703 35.3923 16.0937 35.2334 16.1609 35.2334C16.2954 35.2334 16.5535 34.9714 16.6617 34.7251C16.7828 34.4497 16.8309 34.4054 17.0109 34.4043C17.1293 34.4035 17.1384 34.4206 17.1059 34.5833C17.0861 34.6822 17.055 34.8565 17.0368 34.9706L17.0037 35.1781H17.2588C17.5194 35.1781 17.5578 35.2204 17.4805 35.4226C17.4564 35.4855 17.3729 35.5101 17.1832 35.5101C16.8768 35.5101 16.9271 35.3995 16.6825 36.6112C16.5029 37.5013 16.515 37.5833 16.8135 37.4974C17.0626 37.4257 17.0827 37.4316 17.0629 37.5712C17.0496 37.6657 16.9788 37.718 16.7697 37.7881C16.4321 37.9012 16.0057 37.9159 15.9241 37.8172ZM18.1479 37.7458C17.7444 37.3088 18.0364 36.0662 18.6787 35.4866C18.9408 35.2501 19.35 35.0674 19.6178 35.0674C19.7873 35.0674 20.1608 35.2418 20.217 35.3471C20.3058 35.5137 20.2781 35.9118 20.1647 36.0985C19.9323 36.4811 19.4312 36.7274 18.8853 36.7274H18.5614V37.0194C18.5614 37.5863 18.7961 37.6858 19.4131 37.3804C19.6098 37.283 19.7816 37.2146 19.7949 37.2282C19.8081 37.2419 19.8275 37.3029 19.838 37.3637C19.8533 37.4525 19.7766 37.5153 19.4498 37.6819C19.0959 37.8622 18.9927 37.8894 18.6615 37.8894C18.3222 37.8894 18.266 37.8737 18.1479 37.7458ZM19.1183 36.3869C19.4096 36.2878 19.6139 36.1203 19.7022 35.9082C19.7765 35.7298 19.7744 35.7025 19.6766 35.5706C19.5251 35.3661 19.3763 35.3648 19.148 35.5661C18.9718 35.7213 18.6717 36.2417 18.6717 36.392C18.6717 36.4692 18.8838 36.4668 19.1183 36.3869ZM39.8236 37.8525C39.7457 37.7744 39.7962 37.4479 40.0607 36.3192C40.4204 34.7837 40.6138 33.8797 40.6138 33.7331C40.6138 33.6282 40.5912 33.618 40.4208 33.6457C40.2452 33.6743 40.2279 33.6652 40.2279 33.5444C40.2279 33.406 40.3654 33.3447 40.9132 33.2391C41.1962 33.1845 41.2754 33.2205 41.2754 33.4037C41.2754 33.4864 41.0895 34.3614 40.8622 35.3482C40.635 36.335 40.449 37.2267 40.4488 37.3297L40.4484 37.5171L40.7002 37.4824C40.937 37.4499 40.951 37.4551 40.9345 37.57C40.921 37.6645 40.8482 37.7138 40.6138 37.7874C40.3041 37.8847 39.8896 37.9188 39.8236 37.8525ZM41.9018 37.8218C41.8342 37.7119 41.8729 37.4723 42.1076 36.5471C42.2299 36.0652 42.3207 35.6285 42.3093 35.5767C42.2876 35.4772 42.2738 35.4749 42.0334 35.5317C41.9053 35.562 41.8818 35.5497 41.8818 35.453C41.8818 35.3211 42.1171 35.2039 42.5459 35.1223C42.8521 35.064 42.9844 35.0938 42.9844 35.2212C42.9844 35.2689 42.8721 35.7779 42.7348 36.3524C42.5975 36.9269 42.5015 37.4236 42.5215 37.456C42.5438 37.4922 42.6528 37.502 42.8025 37.4814C43.0315 37.4499 43.046 37.4556 43.0295 37.57C43.016 37.6645 42.9432 37.7138 42.7088 37.7874C42.35 37.9001 41.9602 37.9167 41.9018 37.8218ZM43.938 37.7971C43.9186 37.7464 43.9334 37.5658 43.9709 37.3959C44.0939 36.8382 44.3627 35.5619 44.3627 35.5357C44.3627 35.5216 44.2864 35.5101 44.1933 35.5101C43.9539 35.5101 43.9986 35.3554 44.28 35.2094C44.4476 35.1225 44.5443 35.0121 44.6827 34.7493C44.8404 34.45 44.8859 34.4034 45.0205 34.4034H45.176L45.1021 34.7493C45.0614 34.9395 45.0273 35.1138 45.0262 35.1366C45.0251 35.1594 45.1483 35.1781 45.2999 35.1781C45.5879 35.1781 45.5947 35.1839 45.5408 35.3856C45.5118 35.4944 45.4715 35.5101 45.2223 35.5101H44.937L44.7516 36.4439C44.6496 36.9574 44.5811 37.4167 44.5994 37.4645C44.6262 37.5347 44.6674 37.5413 44.8143 37.499C45.0669 37.4263 45.0794 37.43 45.0794 37.5778C45.0794 37.6902 45.0339 37.7216 44.7588 37.7991C44.3316 37.9194 43.9845 37.9185 43.938 37.7971ZM46.2084 37.7641C46.0712 37.6456 46.0474 37.5806 46.0277 37.2707C45.9835 36.5742 46.3012 35.788 46.7727 35.4266C47.2934 35.0276 47.8622 34.9746 48.1818 35.2954C48.3301 35.4442 48.3431 35.4861 48.3192 35.7361C48.2667 36.2842 47.7434 36.6823 47.0273 36.7189C46.5794 36.7417 46.5323 36.7957 46.6202 37.1855C46.7158 37.6097 46.8895 37.6533 47.4414 37.3913C47.8069 37.2177 47.8911 37.2178 47.8911 37.3918C47.8911 37.5687 47.2294 37.8528 46.7566 37.8789C46.4048 37.8984 46.3509 37.8871 46.2084 37.7641ZM47.3939 36.2852C47.7377 36.1092 47.8853 35.7176 47.6896 35.5006C47.4433 35.2275 46.9873 35.5852 46.761 36.2292L46.6778 36.4658L46.9262 36.4317C47.0629 36.4129 47.2734 36.347 47.3939 36.2852ZM60.5712 37.869C60.5712 37.8606 60.6703 37.4323 60.7914 36.9171C60.9125 36.4019 61.0117 35.8714 61.0119 35.7382L61.0124 35.4959L60.7919 35.5313C60.5971 35.5626 60.5714 35.554 60.5714 35.4574C60.5714 35.323 60.6684 35.2686 61.115 35.1524C61.5031 35.0515 61.6189 35.0904 61.6189 35.3215V35.4514L61.8146 35.3181C62.1577 35.0844 62.3691 35.0408 62.6165 35.1528C62.7349 35.2064 62.8318 35.2651 62.8318 35.2833C62.8318 35.3015 62.7762 35.472 62.7082 35.6622C62.6062 35.9478 62.563 36.0081 62.4601 36.0081C62.3554 36.0081 62.3356 35.9783 62.3356 35.8212C62.3356 35.443 62.0116 35.4148 61.7697 35.7719C61.5858 36.0435 61.4916 36.3382 61.3409 37.1147C61.2729 37.4647 61.2022 37.7665 61.1838 37.7854C61.1507 37.8193 60.5714 37.8984 60.5714 37.869H60.5712ZM66.9298 37.8028C66.8846 37.6845 66.9368 37.3437 67.1497 36.3677L67.3308 35.5378L67.1761 35.5204C66.9911 35.4997 66.9599 35.3158 67.1321 35.261C67.3259 35.1993 67.5497 34.9711 67.6578 34.7251C67.7789 34.4497 67.827 34.4054 68.007 34.4043C68.1254 34.4035 68.1345 34.4206 68.102 34.5833C68.0822 34.6822 68.0511 34.8565 68.0329 34.9706L67.9998 35.1781H68.2549C68.5155 35.1781 68.5539 35.2204 68.4766 35.4226C68.4525 35.4855 68.369 35.5101 68.1793 35.5101C67.8728 35.5101 67.9232 35.3995 67.6786 36.6112C67.499 37.5013 67.5111 37.5833 67.8096 37.4974C68.0587 37.4257 68.0788 37.4316 68.059 37.5712C68.0457 37.6657 67.9749 37.718 67.7658 37.7881C67.3987 37.9111 66.9741 37.9186 66.9298 37.8028ZM69.1542 37.7462C68.7363 37.3267 69.0252 36.0728 69.6748 35.4866C69.9369 35.2501 70.3461 35.0674 70.6139 35.0674C70.7834 35.0674 71.1569 35.2418 71.2131 35.3471C71.3019 35.5137 71.2742 35.9118 71.1608 36.0985C70.9273 36.4829 70.4273 36.7274 69.8747 36.7274H69.5443L69.5687 37.0668C69.6076 37.6059 69.8049 37.6795 70.4092 37.3804C70.6059 37.283 70.7777 37.2146 70.7909 37.2282C70.8042 37.2419 70.8236 37.3029 70.8341 37.3637C70.8493 37.4525 70.7727 37.5153 70.4459 37.6819C70.0951 37.8606 69.9872 37.8894 69.6678 37.8894C69.3423 37.8894 69.2794 37.8718 69.1542 37.7462ZM70.31 36.3041C70.6956 36.1118 70.8684 35.6657 70.628 35.4832C70.4683 35.3619 70.3525 35.3824 70.1405 35.5692C69.9632 35.7255 69.6678 36.2441 69.6678 36.3993C69.6678 36.4908 70.0488 36.4344 70.31 36.3041ZM71.9833 37.8418C71.9833 37.8185 72.084 37.3698 72.207 36.8446C72.3301 36.3195 72.4231 35.8106 72.4137 35.7138C72.3978 35.5488 72.3842 35.5385 72.1958 35.5493C72.0383 35.5583 71.9889 35.5378 71.9672 35.4543C71.9446 35.3676 71.9923 35.3282 72.2232 35.2427C72.3793 35.1849 72.6001 35.1207 72.7138 35.1C72.9276 35.0611 72.924 35.0581 73.0577 35.383C73.0602 35.3892 73.2076 35.3207 73.3851 35.2308C73.765 35.0385 73.8287 35.0332 74.0597 35.1745L74.234 35.2813L74.1148 35.6433C74.0153 35.9454 73.975 36.0056 73.8715 36.0067C73.7677 36.0079 73.7475 35.9783 73.7475 35.8255C73.7475 35.3433 73.2903 35.4387 73.04 35.973C72.9771 36.1073 72.8526 36.5701 72.7632 37.0016C72.6739 37.433 72.5921 37.7934 72.5815 37.8023C72.5329 37.8431 71.9833 37.8794 71.9833 37.8418ZM74.7398 37.842C74.7398 37.8171 74.8283 37.4503 74.9365 37.0269C75.0547 36.5645 75.1372 36.1024 75.1433 35.8698L75.1533 35.4824L74.9534 35.4978C74.7963 35.5099 74.7477 35.4909 74.7263 35.4088C74.7041 35.3235 74.7507 35.2887 74.9813 35.2182C75.4825 35.065 75.6006 35.054 75.6978 35.1515C75.747 35.2009 75.7873 35.3018 75.7873 35.3757C75.7873 35.4496 75.7975 35.5101 75.8099 35.5101C75.8224 35.5101 75.9861 35.4372 76.1737 35.3482C76.6181 35.1372 77.2071 35.0266 77.3829 35.121C77.4976 35.1827 77.5058 35.2145 77.4722 35.4681C77.452 35.6216 77.3627 36.0487 77.274 36.4172C77.1853 36.7856 77.106 37.1742 77.0978 37.2807C77.0829 37.4744 77.0829 37.4744 77.3148 37.4698C77.4733 37.4667 77.5568 37.4915 77.5785 37.5482C77.6222 37.6625 77.5701 37.6998 77.2245 37.8014C76.8324 37.9166 76.4714 37.9175 76.4278 37.8034C76.4097 37.7561 76.4939 37.2738 76.6148 36.7316C76.8574 35.6444 76.8713 35.5207 76.7561 35.4763C76.6372 35.4305 76.2154 35.6382 75.9637 35.8664C75.7565 36.0542 75.73 36.1126 75.6028 36.6611C75.5273 36.9867 75.4479 37.3733 75.4265 37.5203C75.4051 37.6673 75.3597 37.7959 75.3256 37.8061C75.1584 37.8562 74.7398 37.8818 74.7398 37.842ZM78.5211 37.7989C78.502 37.7492 78.6004 37.2366 78.7398 36.6599C78.8791 36.0831 78.9801 35.5774 78.9643 35.536C78.9423 35.4784 78.893 35.4731 78.7538 35.5131C78.6539 35.5419 78.5658 35.5654 78.558 35.5654C78.5502 35.5654 78.5439 35.5077 78.5439 35.4372C78.5439 35.3306 78.5926 35.2942 78.8333 35.2211C79.4865 35.0229 79.6883 35.0565 79.6223 35.3527C79.6064 35.424 79.4928 35.9041 79.3698 36.4194C79.2468 36.9347 79.16 37.3924 79.1769 37.4366C79.2004 37.4979 79.2668 37.5087 79.4584 37.4823C79.694 37.4499 79.7081 37.4552 79.6916 37.57C79.6576 37.8066 78.6028 38.0128 78.5211 37.7989ZM80.6011 37.7997C80.5643 37.7035 80.6089 37.4393 80.8244 36.4784C81.0626 35.4161 81.0592 35.5101 80.8597 35.5101C80.6173 35.5101 80.6576 35.3575 80.9392 35.2095C81.1011 35.1243 81.2011 35.0103 81.3303 34.7631C81.4715 34.4932 81.5327 34.4277 81.658 34.4129C81.8253 34.393 81.8266 34.4071 81.7085 34.9983L81.6725 35.1781H81.961C82.2013 35.1781 82.2438 35.1927 82.216 35.2656C82.1975 35.3138 82.1825 35.3885 82.1825 35.4316C82.1825 35.4896 82.1052 35.5101 81.8862 35.5101H81.5899L81.4078 36.4407C81.3077 36.9525 81.2412 37.4118 81.2602 37.4613C81.2884 37.535 81.3277 37.5418 81.4763 37.499C81.729 37.4263 81.7414 37.43 81.7414 37.5778C81.7414 37.6902 81.696 37.7216 81.4208 37.7991C80.998 37.9182 80.6465 37.9184 80.6011 37.7997ZM82.8674 37.7613C82.7095 37.6249 82.7062 37.611 82.7062 37.0749C82.7062 36.5534 82.716 36.5079 82.9145 36.1049C83.1581 35.6105 83.4375 35.343 83.8868 35.1743C84.6694 34.8804 85.2315 35.3797 84.8852 36.061C84.6893 36.4462 84.167 36.7243 83.6357 36.7262C83.3165 36.7274 83.295 36.7358 83.2607 36.8729C83.2146 37.0572 83.2722 37.3351 83.3825 37.4606C83.5078 37.6032 83.7234 37.5793 84.108 37.3803C84.3948 37.2318 84.4584 37.2161 84.5008 37.2834C84.5985 37.4384 84.55 37.4979 84.181 37.6769C83.8969 37.8147 83.7166 37.8625 83.4187 37.8789C83.0649 37.8985 83.0135 37.8875 82.8674 37.7613ZM84.0682 36.2718C84.4407 36.0616 84.565 35.6483 84.3068 35.4785C84.205 35.4116 84.1322 35.4019 84.0174 35.4401C83.8229 35.5048 83.5453 35.8665 83.4305 36.2046L83.3419 36.4656L83.595 36.4308C83.7342 36.4116 83.9471 36.3401 84.0682 36.2718ZM0.709215 37.7388C0.719463 37.6854 0.777181 37.6326 0.837477 37.6215C1.00118 37.5913 1.14422 37.4456 1.25593 37.1952C1.4041 36.863 1.86132 34.5529 1.87368 34.074C1.88423 33.6655 1.88263 33.6604 1.70728 33.5483C1.3652 33.3296 1.45661 33.2968 2.40807 33.2968C3.16183 33.2968 3.29017 33.3091 3.29017 33.3812C3.29017 33.4308 3.22146 33.4793 3.12309 33.4991C2.7715 33.5697 2.63806 33.918 2.30612 35.6317C1.99593 37.2331 1.99896 37.2021 2.13829 37.342C2.24417 37.4482 2.30178 37.4573 2.73151 37.4356C3.30953 37.4064 3.51836 37.3088 3.72025 36.9733C3.8793 36.709 3.88563 36.7046 3.99967 36.7771C4.06296 36.8173 4.06059 36.8686 3.985 37.0944C3.93542 37.2425 3.83865 37.4633 3.76996 37.5851L3.64507 37.8064L2.16783 37.8211C0.784543 37.8349 0.691767 37.8297 0.709215 37.7388ZM28.5953 37.7556C28.5953 37.7125 28.6883 37.6315 28.802 37.5758C28.9461 37.5051 29.0454 37.3989 29.1296 37.2254C29.2876 36.9001 29.765 34.5436 29.7738 34.0462C29.7804 33.6703 29.7764 33.6587 29.6035 33.5482C29.2335 33.3119 29.3172 33.2968 30.9972 33.2968C32.5384 33.2968 32.5714 33.2991 32.5377 33.4057C32.5187 33.4655 32.4723 33.6834 32.4345 33.8898C32.3761 34.2081 32.3473 34.2678 32.2447 34.2828C32.1462 34.2972 32.1236 34.2733 32.1236 34.1547C32.1236 33.7873 31.9065 33.6841 31.1336 33.6841H30.6011L30.4482 34.3896C30.3641 34.7776 30.2832 35.1387 30.2685 35.1919C30.2445 35.2789 30.2912 35.2887 30.7279 35.2879C31.2769 35.287 31.4387 35.2282 31.5998 34.9711C31.7431 34.7424 31.9301 34.724 31.8867 34.9429C31.8701 35.0266 31.8125 35.3254 31.7588 35.6069C31.6818 36.0106 31.6416 36.1187 31.5685 36.1187C31.51 36.1187 31.4639 36.0586 31.4434 35.9558C31.4255 35.8659 31.3543 35.7622 31.2849 35.7247C31.1526 35.6533 30.2856 35.6215 30.2214 35.6857C30.1843 35.7228 30.0215 36.5202 29.9501 37.0147C29.9158 37.2524 29.9245 37.2822 30.0539 37.3673C30.1675 37.442 30.2895 37.4554 30.677 37.4359C31.2523 37.4068 31.4567 37.3147 31.6933 36.9778C31.7957 36.832 31.8926 36.748 31.9381 36.7656C32.0453 36.8069 32.0326 36.9058 31.8701 37.2962C31.6289 37.8752 31.7663 37.834 30.0752 37.834C28.8347 37.834 28.5953 37.8214 28.5953 37.7556ZM56.6018 37.7567C56.6018 37.7127 56.6824 37.649 56.7809 37.6153C57.129 37.4963 57.244 37.1807 57.5922 35.3896C57.8921 33.8473 57.8847 33.6006 57.5356 33.4894C57.4735 33.4696 57.4323 33.4244 57.444 33.3889C57.4595 33.3424 57.8911 33.3204 58.9947 33.3097C60.498 33.2953 60.5234 33.2969 60.4893 33.4048C60.4702 33.4651 60.4237 33.6834 60.3858 33.8898C60.3275 34.2081 60.2987 34.2678 60.196 34.2828C60.0939 34.2977 60.075 34.274 60.075 34.1306C60.075 33.7813 59.8061 33.666 59.0586 33.6949L58.6211 33.7118L58.4678 34.4311C58.3835 34.8267 58.3137 35.1815 58.3127 35.2196C58.3099 35.3217 59.1524 35.3126 59.3533 35.2084C59.4385 35.1642 59.5395 35.0521 59.5777 34.9594C59.6204 34.8561 59.6874 34.7908 59.7509 34.7908C59.8792 34.7908 59.8801 34.7506 59.7359 35.4963C59.6348 36.0189 59.5993 36.1187 59.5145 36.1187C59.4534 36.1187 59.4134 36.0788 59.4134 36.0177C59.4134 35.7595 58.898 35.5675 58.4217 35.6483L58.211 35.684L58.0992 36.3025C57.902 37.3932 57.9103 37.492 58.2098 37.6166C58.5394 37.7536 58.3491 37.806 57.4655 37.8216C56.7413 37.8344 56.6018 37.8239 56.6018 37.7567ZM24.2616 36.5665C24.015 36.4541 23.7989 36.1067 23.7989 35.8228C23.7989 35.3833 24.186 34.9902 24.6174 34.9917C25.1333 34.9936 25.4522 35.3099 25.4526 35.8201C25.4531 36.4684 24.8608 36.8396 24.2616 36.5665ZM52.3224 36.5926C52.2278 36.5512 52.0798 36.4245 51.9935 36.311C51.8656 36.1427 51.8374 36.0516 51.8408 35.8173C51.8481 35.3089 52.1631 34.9963 52.6679 34.9963C52.918 34.9963 53.0013 35.0236 53.172 35.1614C53.5526 35.4686 53.6117 35.9837 53.3081 36.346C53.0528 36.6504 52.6726 36.7455 52.3224 36.5926ZM19.3618 34.6259C19.2534 34.5056 19.2456 34.5182 19.8721 33.8022L20.0835 33.5607L20.3975 33.6312C20.5702 33.67 20.7115 33.7184 20.7115 33.7389C20.7115 33.7762 19.5311 34.7354 19.4852 34.7354C19.4717 34.7354 19.4162 34.6861 19.3618 34.6259ZM47.4099 34.6258L47.2875 34.5264L47.7037 34.0499C47.9326 33.7879 48.1409 33.5735 48.1667 33.5735C48.3011 33.5735 48.7737 33.7095 48.7607 33.7444C48.747 33.7812 47.7199 34.6102 47.5876 34.6913C47.5571 34.71 47.4771 34.6805 47.4099 34.6258ZM84.059 34.6263L83.9259 34.5256L84.3566 34.0495C84.5934 33.7877 84.8071 33.5735 84.8313 33.5735C84.9404 33.5735 85.4349 33.7064 85.4326 33.7351C85.4301 33.7651 84.3891 34.6081 84.2538 34.6897C84.2198 34.7102 84.1321 34.6817 84.059 34.6263ZM5.3794 34.3423C5.15536 34.1175 5.37401 33.6841 5.7115 33.6841C5.94621 33.6841 6.06877 33.8077 6.06877 34.0444C6.06877 34.4137 5.63658 34.6005 5.3794 34.3423ZM42.5847 34.3817C42.4492 34.2785 42.4573 33.9365 42.5985 33.7948C42.8259 33.5666 43.2601 33.7155 43.2601 34.0218C43.2601 34.3534 42.8409 34.5769 42.5847 34.3817ZM79.1997 34.3423C78.9717 34.1135 79.1953 33.6841 79.5423 33.6841C79.8886 33.6841 80.037 34.0718 79.7868 34.323C79.617 34.4934 79.3587 34.5019 79.1997 34.3423ZM30.8995 32.7607C30.8153 32.6665 30.8354 32.6327 31.2342 32.1973L31.6585 31.7341L31.9738 31.8049C32.1472 31.8439 32.2878 31.8905 32.2862 31.9084C32.2818 31.9611 31.1747 32.8122 31.0775 32.8377C31.0289 32.8505 30.9488 32.8158 30.8995 32.7607Z" fill="black"/>
<path d="M49.5142 29.1654L49.6417 28.8375C49.8578 28.2453 50.0819 27.7933 50.4054 27.2974C50.7481 26.7721 51.5023 25.9983 51.8161 25.8502C52.2017 25.6682 52.6811 25.6041 53.2739 25.6553C53.7829 25.6993 55.347 25.9536 55.9781 26.0949C56.4585 26.2025 57.1618 26.2128 57.4928 26.1171C58.1305 25.9327 58.5083 25.5762 58.6876 24.9897C58.8251 24.5398 58.8238 24.1309 58.684 23.8583C58.4961 23.492 58.5281 23.3967 58.9846 22.9628C59.2101 22.7484 59.3949 22.5503 59.3952 22.5224C59.3972 22.3773 59.0848 21.7948 59.0043 21.7934C58.955 21.7926 58.8577 21.746 58.788 21.6899L58.6612 21.5878L58.9322 21.4501C59.3023 21.262 59.5768 20.9695 59.5768 20.7633C59.5768 20.6742 59.4988 20.4558 59.4035 20.2779C59.2206 19.9366 59.1717 19.6105 59.2747 19.4191C59.3427 19.2927 59.46 19.2395 60.0363 19.0739C60.5206 18.9348 60.6957 18.7937 60.7647 18.4871C60.8238 18.2248 60.7947 18.0562 60.6363 17.741C60.5073 17.4844 59.6671 16.2049 59.4223 15.8923C59.0935 15.4722 58.6928 14.7464 58.5743 14.3561C58.4575 13.9713 58.4567 13.9495 58.542 13.4522C58.7221 12.4008 58.6168 11.5291 58.1041 9.8294C57.7231 8.56621 57.6208 8.25955 57.5015 8.02322C57.2858 7.59596 57.3147 7.49594 57.7572 7.1358C57.969 6.96341 58.1658 6.77873 58.1945 6.72539C58.3281 6.47702 58.1788 5.99845 57.9256 5.86366C57.7649 5.77811 57.6754 5.83684 57.5123 6.13503C57.3886 6.36096 57.3402 6.40375 57.2079 6.40375C56.9925 6.40375 56.9548 6.31395 57.0923 6.1289C57.2526 5.91316 57.24 5.87857 56.9881 5.84496C56.7995 5.8198 56.6999 5.74656 56.2911 5.33277C55.7431 4.77799 55.375 4.52234 54.6411 4.18691C54.3047 4.03314 54.1875 3.96036 54.3109 3.98183C54.4162 4.00013 54.7882 4.02937 55.1377 4.04681C56.1519 4.09742 56.3984 3.96423 56.6347 3.23797C56.7952 2.74487 56.8722 2.51682 56.5039 2.17254L55.1524 0.908936H85.4769V29.1654H49.5142Z" fill="#E2011C"/>
<path d="M23.2816 29.1654C23.0584 29.1424 22.8647 29.1324 22.8514 29.1194C22.8279 29.0963 23.0801 28.9375 24.2351 28.2478C24.6056 28.0266 24.758 27.908 24.7065 27.8811C24.6647 27.8592 24.3413 27.8244 23.9879 27.8039C23.4629 27.7734 23.3107 27.7821 23.156 27.8518C23.0519 27.8987 22.6362 28.022 22.2324 28.1258C21.2308 28.3833 20.8938 28.5602 20.5722 28.9967L20.452 29.1654H0.70752V0.908936H39.8812L39.1222 1.39439C38.7043 1.59765 38.2187 1.87997 38.0431 2.02175C37.4472 2.50269 36.6449 3.59679 36.4445 4.20154C36.3709 4.42382 36.304 4.50714 36.0781 4.65823C35.7333 4.88879 35.3203 5.32847 34.9783 5.82903C34.5139 6.50872 33.6288 8.04051 33.4549 8.46544C33.1851 9.12464 33.2096 9.62661 33.6078 11.5966C33.7831 12.4639 33.9728 13.3448 34.0293 13.5541C34.0858 13.7635 34.1477 14.1183 34.1668 14.3426C34.2009 14.743 34.2274 14.8297 34.4667 15.3213C34.5322 15.4559 34.5858 15.6086 34.5857 15.6607C34.5856 15.7128 34.6354 15.786 34.6965 15.8233C34.7597 15.8621 34.8074 15.9501 34.8074 16.0283C34.8074 16.1225 34.9337 16.3013 35.2111 16.5998C35.8459 17.2826 36.3048 17.9228 36.3048 18.1252C36.3048 18.2915 36.0559 18.3345 35.6548 18.2374C35.186 18.124 34.8025 17.879 34.2112 17.3152C33.9595 17.0752 33.7536 16.9139 33.7536 16.9567C33.7536 16.9995 33.9262 17.2225 34.1371 17.4524C34.5565 17.9096 34.6222 18.0344 34.5315 18.2005C34.4522 18.3459 34.2592 18.3882 33.998 18.3175C33.6966 18.2359 33.5201 18.3496 33.5698 18.5933C33.6003 18.7428 33.5919 18.7603 33.5057 18.7279C33.3354 18.6638 32.9625 18.5904 32.6273 18.5549C32.3194 18.5223 32.2966 18.5091 32.1102 18.2547C31.9689 18.0619 31.859 17.9731 31.7113 17.9325C31.161 17.7811 29.7922 17.5477 28.8731 17.4486C27.2577 17.2743 26.8686 17.2606 26.0946 17.3509C25.5003 17.4202 25.3387 17.4608 25.0132 17.623C24.4369 17.9101 23.4381 18.8096 23.4381 19.0415C23.4381 19.1502 23.6581 19.1119 23.9095 18.9592C24.6724 18.496 27.2858 17.8423 28.5681 17.7939C29.2035 17.7699 29.1691 17.7998 28.4067 17.9337C28.1959 17.9707 27.6968 18.096 27.2975 18.2121C26.8982 18.3282 26.2097 18.5071 25.7674 18.6097C25.3251 18.7123 24.8259 18.8445 24.6582 18.9035L24.3531 19.0109L24.8246 19.0159C27.2266 19.0417 29.9647 19.7888 31.079 20.7226C31.5585 21.1244 31.734 21.1732 32.4393 21.1004C33.4059 21.0007 34.6569 20.5485 35.2055 20.1007C35.4436 19.9063 35.6395 19.8291 35.6391 19.9296C35.6385 20.1072 35.3231 21.062 35.1868 21.2989C35.0349 21.563 35.0262 21.601 35.1054 21.6577C35.154 21.6926 35.1799 21.7349 35.1628 21.7516C35.1457 21.7684 35.1836 21.7982 35.2469 21.8179C35.4289 21.8745 35.3831 21.9293 35.0926 22.0022C34.8094 22.0734 34.5855 22.198 34.5855 22.2845C34.5855 22.3127 34.6244 22.3357 34.672 22.3357C34.8144 22.3357 34.7081 22.4333 34.522 22.4734C34.3946 22.5008 34.3692 22.5233 34.4256 22.5583C34.481 22.5927 34.483 22.6062 34.433 22.6068C34.3949 22.6072 34.3637 22.6628 34.3637 22.7303C34.3637 22.8143 34.3112 22.8757 34.1973 22.9252C33.9196 23.0457 33.9975 23.1108 34.3776 23.0759C34.5682 23.0584 34.6867 23.0585 34.641 23.0762C34.5952 23.094 34.2833 23.2323 33.9477 23.3837C33.6122 23.5351 33.1755 23.7148 32.9772 23.7831C32.7527 23.8604 32.6094 23.9417 32.5973 23.9987C32.578 24.0903 32.6822 24.0872 32.9443 23.9886C32.9929 23.9703 33.032 23.9763 33.0313 24.002C33.0306 24.0276 32.4529 24.3544 31.7477 24.7283C31.0424 25.1021 30.3825 25.4875 30.2812 25.5847C30.1799 25.6819 30.0502 25.7614 29.9931 25.7614C29.9356 25.7614 29.8605 25.8232 29.8249 25.8999C29.7171 26.1317 29.7394 26.1599 29.9962 26.1167C30.3777 26.0524 30.5526 26.056 30.5779 26.1284C30.5916 26.1676 30.5556 26.1964 30.4929 26.1964C30.4331 26.1964 30.3543 26.2316 30.3178 26.2747C30.2814 26.3178 30.1851 26.3606 30.1038 26.3699C30.0093 26.3806 29.9159 26.449 29.8444 26.5598C29.783 26.655 29.6829 26.7454 29.6219 26.7608C29.5609 26.7761 29.6482 26.7787 29.816 26.7665C32.3106 26.5846 32.7753 26.4941 33.7814 25.9942C34.6396 25.5678 35.5306 24.9339 36.1644 24.2987C36.3465 24.1163 36.5149 23.967 36.5388 23.967C36.6249 23.967 36.5782 24.272 36.4509 24.5399C36.2307 25.0036 35.7686 25.4307 34.8188 26.0486C34.3397 26.3602 33.823 26.6538 33.6704 26.7008C33.1939 26.848 32.4246 27.0047 31.6182 27.1189C28.9909 27.4911 27.9854 27.7735 26.9895 28.4186C26.8228 28.5266 26.6478 28.6086 26.6006 28.6007C26.5535 28.5929 26.4278 28.6594 26.3214 28.7486C26.022 28.9994 26.2389 28.957 26.8597 28.6433C27.4959 28.3218 27.7942 28.2712 27.2925 28.5698C26.6774 28.9359 26.2086 29.1654 25.7495 29.1654H23.2816ZM20.018 26.0134C20.1177 25.9725 20.4476 25.7914 20.7511 25.611C21.0546 25.4305 21.4152 25.2329 21.5524 25.1719C21.6897 25.1109 22.0765 24.9396 22.412 24.7912C23.1153 24.4802 24.1474 24.1868 24.2067 24.281C24.2276 24.314 24.3814 24.3505 24.5485 24.3619C24.7824 24.3779 24.8236 24.3927 24.7275 24.4259C24.6589 24.4496 24.6027 24.4907 24.6027 24.5171C24.6027 24.6155 25.1217 24.586 25.3403 24.4752C25.4259 24.4317 25.6195 24.3819 25.7704 24.3643C25.958 24.3426 26.0447 24.3076 26.0447 24.2537C26.0447 24.1922 26.0923 24.1828 26.2617 24.2109C26.4948 24.2495 26.9962 24.1566 28.3463 23.8245C29.2606 23.5997 29.9531 23.3734 30.5613 23.1007L31.0017 22.9032L30.5613 22.6267C29.4881 21.9528 28.4103 21.539 26.0447 20.8924C25.6329 20.7799 25.271 20.6635 25.2405 20.6337C25.2037 20.5979 25.2224 20.5929 25.296 20.6187C25.5322 20.7018 25.7119 20.7177 25.7119 20.6556C25.7119 20.575 25.5333 20.51 25.1824 20.463C24.8615 20.4199 24.6543 20.3261 24.8772 20.3247C25.2223 20.3226 24.6291 20.1082 23.9649 19.995C23.4732 19.9112 23.4449 19.8932 23.6503 19.7957C23.8293 19.7107 24.0218 19.3891 23.9711 19.2597C23.9281 19.1499 23.8745 19.1612 23.6085 19.3363C23.0958 19.674 22.6255 20.2268 22.3612 20.8027C22.2104 21.1312 22.2626 21.1614 23.0386 21.1939C23.6741 21.2205 23.6842 21.2229 23.5212 21.3086C23.4297 21.3568 23.2462 21.4126 23.1133 21.4325C22.6622 21.5004 22.4116 21.7102 22.6352 21.833C22.7016 21.8694 22.6753 21.9001 22.5122 21.9764C22.3294 22.0619 22.3165 22.08 22.4044 22.1282C22.4592 22.1583 22.6187 22.1739 22.7588 22.163C22.9535 22.1478 23.0424 22.1684 23.1361 22.2502L23.2587 22.3573L23.0127 22.5103C22.8773 22.5944 22.7243 22.7417 22.6725 22.8376C22.6208 22.9335 22.4349 23.1616 22.2595 23.3446C22.0841 23.5275 21.9406 23.7167 21.9406 23.765C21.9406 23.8134 21.6848 24.0535 21.3722 24.2987C20.5313 24.9582 20.1659 25.3206 20.1659 25.4952C20.1659 25.5875 20.1184 25.6707 20.035 25.7242C19.7726 25.8928 19.6356 26.0876 19.7795 26.0876C19.811 26.0876 19.9183 26.0542 20.018 26.0134ZM26.5057 25.378C26.7135 25.3508 26.9541 25.2876 27.0404 25.2376L27.1973 25.1468L26.9297 25.016L26.6621 24.8853L26.395 24.9913C26.2481 25.0497 26.0446 25.1283 25.9429 25.1661C25.5337 25.3178 25.4803 25.5219 25.8644 25.4659C26.0093 25.4448 26.2979 25.4052 26.5057 25.378ZM17.1156 22.9054C18.3515 21.6384 19.2237 20.8868 20.3307 20.1346C20.7069 19.879 20.9719 19.7312 20.985 19.7697C21.021 19.8754 21.1821 19.8443 21.4445 19.681C21.746 19.4934 21.8968 19.3034 22.2732 18.6376C22.6636 17.9468 22.8111 17.7742 23.3747 17.3487C23.6383 17.1497 24.0265 16.8525 24.2374 16.6884C24.5412 16.4518 24.6142 16.4144 24.5892 16.5081C24.5698 16.5807 24.5832 16.6263 24.6238 16.6263C24.7498 16.6263 25.3435 16.3779 25.3644 16.3164C25.397 16.2203 24.7939 16.1211 24.3477 16.1492C24.0052 16.1707 23.8839 16.2097 23.4588 16.4346C22.4601 16.9632 21.7386 17.5334 20.361 18.8829C19.3696 19.8541 18.5886 20.5052 18.1938 20.6898C18.0652 20.7499 17.9684 20.8759 17.8125 21.186C17.5094 21.7888 16.9682 22.6538 16.4545 23.3567C15.969 24.021 15.8648 24.2508 16.2421 23.8251C16.3718 23.6789 16.7648 23.265 17.1156 22.9054ZM29.4832 28.8541C30.9675 28.5517 31.1314 28.5292 32.173 28.4844C33.3427 28.4342 33.4917 28.4044 34.1953 28.0802C34.4208 27.9763 34.5092 27.9574 34.5405 28.0064C34.5951 28.0918 34.9767 27.888 35.7225 27.3753C36.0275 27.1656 36.4588 26.8977 36.681 26.7798C37.0158 26.6023 37.1182 26.5717 37.2793 26.6013C37.4512 26.633 37.5021 26.6124 37.7217 26.4229C38.3303 25.8977 38.85 25.6549 39.369 25.6533C39.5233 25.6528 39.5769 25.6752 39.5769 25.74C39.5769 25.7954 39.6074 25.8159 39.6601 25.7961C39.8147 25.7379 39.7447 25.8045 39.3471 26.0935C38.8867 26.4281 38.932 26.5286 39.4 26.211C39.8531 25.9035 39.8542 25.903 39.8542 26.0274C39.8542 26.0982 39.6837 26.2761 39.369 26.5335C38.6529 27.1192 38.1459 27.6036 37.374 28.4394L36.6835 29.1654H27.9026L29.4832 28.8541ZM29.4971 17.7851C29.5505 17.7714 29.6378 17.7714 29.6912 17.7851C29.7446 17.7988 29.7009 17.81 29.5941 17.81C29.4874 17.81 29.4437 17.7988 29.4971 17.7851Z" fill="#003189"/>
<path d="M54.9992 15.6532C54.7408 15.6215 54.8741 15.5435 55.1868 15.5435C55.5005 15.5435 55.6658 15.4458 55.6658 15.2602C55.6658 15.173 55.6425 15.1587 55.5422 15.1845C55.4558 15.2068 55.3942 15.1881 55.3373 15.1221C55.2842 15.0605 55.1558 15.0171 54.9668 14.9967C54.6293 14.9604 54.0828 14.6957 54.1808 14.6162C54.2142 14.589 54.388 14.5569 54.5669 14.5448C54.8752 14.5241 54.8956 14.5145 54.9582 14.3606C55.005 14.2453 55.0701 14.1894 55.1823 14.168C55.2692 14.1514 55.407 14.088 55.4883 14.0271C55.5697 13.9663 55.8359 13.8107 56.08 13.6814C56.4903 13.464 56.7445 13.2324 56.6537 13.1586C56.5579 13.0808 55.6695 12.9962 55.2516 13.025C54.7663 13.0585 53.9299 13.2017 53.5802 13.3112C53.2211 13.4236 53.3261 13.3257 53.8194 13.0882C54.4853 12.7675 55.7672 12.4685 56.4761 12.4685C56.7511 12.4685 57.6715 12.645 57.7811 12.7188C57.9958 12.8633 57.7616 13.3706 57.3633 13.6236L57.197 13.7293L57.3337 13.8477L57.4705 13.9661L57.3308 14.0581C57.2539 14.1088 57.1487 14.1502 57.0969 14.1502C57.0451 14.1502 56.9169 14.2177 56.8119 14.3003C56.6504 14.4275 56.6295 14.4685 56.676 14.5678C56.712 14.6446 56.7084 14.719 56.6658 14.7837C56.6259 14.8442 56.6159 14.9817 56.64 15.1383C56.6892 15.4579 56.6182 15.5724 56.3308 15.6373C56.1176 15.6853 55.3371 15.6947 54.9992 15.6532Z" fill="#7F7F7F"/>
</svg>
