<svg width="142" height="52" viewBox="0 0 142 52" fill="none" xmlns="http://www.w3.org/2000/svg">
<path d="M141.205 0H71.0664V51.4876H141.205V0Z" fill="#D4000C"/>
<path d="M71.0667 0H0.927979V51.4876H71.0667V0Z" fill="#001A65"/>
<path d="M11.8804 7.96167C22.5667 7.97393 33.2547 7.97393 43.9411 7.96167C43.9148 12.0929 43.9446 16.2242 43.9305 20.3555C41.0812 20.4308 38.2266 20.3607 35.3755 20.3975C35.4001 28.1855 35.358 35.9716 35.3966 43.7596C30.2758 43.8069 25.1533 43.7824 20.0326 43.7683C20.0186 35.9716 20.0588 28.1714 20.0133 20.3747C17.3093 20.3817 14.6019 20.4238 11.8996 20.3537C11.8751 16.2225 11.9031 12.0912 11.8804 7.96167Z" fill="white"/>
<path d="M63.1456 43.7785C63.1666 31.8348 63.1175 19.8893 63.1701 7.94556C65.783 7.9981 68.3994 7.95081 71.0141 7.97007C78.2258 7.97183 85.4376 7.97358 92.6494 7.97007C92.6476 10.9455 92.6476 13.9227 92.6476 16.8981C88.0242 16.8911 83.3991 16.8999 78.7757 16.8946C78.7792 18.9926 78.7757 21.0907 78.7775 23.1887C82.1452 23.1852 85.5147 23.1869 88.8824 23.1887C88.9244 26.3953 88.8999 29.6036 88.8946 32.812C85.5217 32.812 82.1487 32.8242 78.774 32.8207C78.7792 36.4739 78.7757 40.1288 78.7757 43.782C76.2014 43.7837 73.627 43.7785 71.0543 43.7855C68.4169 43.7767 65.7812 43.789 63.1456 43.7785Z" fill="white"/>
<path d="M110.532 12.2135C116.054 10.7809 121.577 9.35713 127.104 7.94385C127.085 19.8893 127.102 31.8348 127.095 43.782C121.568 43.782 116.041 43.782 110.514 43.782C110.525 33.2586 110.491 22.7352 110.532 12.2135Z" fill="white"/>
</svg>
