<svg width="183" height="67" viewBox="0 0 183 67" fill="none" xmlns="http://www.w3.org/2000/svg">
<path d="M182.541 0H91.2703V67H182.541V0Z" fill="#D4000C"/>
<path d="M91.2704 0H0V67H91.2704V0Z" fill="#001A65"/>
<path d="M14.2522 10.3604C28.1581 10.3763 42.0663 10.3763 55.9722 10.3604C55.938 15.7363 55.9768 21.1123 55.9586 26.4882C52.2508 26.5862 48.5361 26.495 44.8261 26.5429C44.858 36.6772 44.8033 46.8093 44.8534 56.9436C38.1899 57.0051 31.5241 56.9732 24.8605 56.955C24.8423 46.8093 24.8947 36.659 24.8355 26.5133C21.3168 26.5224 17.7936 26.5771 14.2773 26.4859C14.2454 21.11 14.2818 15.734 14.2522 10.3604Z" fill="white"/>
<path d="M80.9627 56.9682C80.99 41.426 80.9262 25.8815 80.9946 10.3394C84.3947 10.4077 87.7994 10.3462 91.2018 10.3713C100.586 10.3735 109.971 10.3758 119.356 10.3713C119.353 14.2431 119.353 18.1173 119.353 21.9892C113.337 21.98 107.318 21.9914 101.302 21.9846C101.307 24.7147 101.302 27.4449 101.304 30.175C105.687 30.1704 110.071 30.1727 114.454 30.175C114.508 34.3477 114.476 38.5227 114.47 42.6976C110.08 42.6976 105.691 42.7136 101.3 42.709C101.307 47.4628 101.302 52.2189 101.302 56.9727C97.952 56.975 94.602 56.9682 91.2543 56.9773C87.8222 56.9659 84.3925 56.9818 80.9627 56.9682Z" fill="white"/>
<path d="M142.626 15.8931C149.811 14.029 156.999 12.1762 164.191 10.3372C164.166 25.8816 164.189 41.4261 164.18 56.9728C156.987 56.9728 149.795 56.9728 142.603 56.9728C142.616 43.2788 142.573 29.5848 142.626 15.8931Z" fill="white"/>
</svg>
